<svg width="80" height="80" viewBox="0 0 80 80" fill="none" xmlns="http://www.w3.org/2000/svg">
<rect x="6.66667" y="6.66663" width="66.6667" height="66.6667" rx="33.3333" fill="#1E1E1E"/>
<path opacity="0.4" d="M58.9638 46.9613C60.1189 48.9432 60.1239 51.392 58.977 53.3786C57.83 55.3652 55.7068 56.5853 53.4129 56.5759C51.119 56.5666 49.0059 55.3292 47.8751 53.3333L34.4551 30.0907C32.6954 27.0286 33.7511 23.1198 36.8131 21.36C39.8752 19.6002 43.784 20.656 45.5438 23.718L58.9638 46.9613Z" fill="#4BDB4B"/>
<path opacity="0.8" d="M32.1273 53.3334C30.356 56.3711 26.4646 57.4091 23.4156 55.6573C20.3666 53.9055 19.3037 50.0209 21.036 46.9607L34.4546 23.7187C35.5804 21.7127 37.6968 20.4658 39.9971 20.4533C42.2975 20.4409 44.4272 21.6648 45.5747 23.6586C46.7221 25.6523 46.7104 28.1087 45.544 30.0914L32.1273 53.3334Z" fill="#4BDB4B"/>
<path d="M45.5062 23.654C45.4322 23.528 45.3522 23.4073 45.2709 23.288C45.2315 23.2306 45.1942 23.172 45.1529 23.116C45.0735 23.0073 44.9882 22.9046 44.9029 22.8026C44.8509 22.74 44.8009 22.676 44.7462 22.6153C44.6689 22.53 44.5875 22.4506 44.5069 22.37C44.4262 22.2893 44.3655 22.2273 44.2909 22.1593C44.2162 22.0913 44.1455 22.0366 44.0722 21.976C43.9802 21.9 43.8889 21.8233 43.7915 21.752C43.7249 21.7026 43.6549 21.658 43.5862 21.612C43.4782 21.5386 43.3695 21.466 43.2529 21.3986C43.2289 21.3846 43.2075 21.368 43.1862 21.354C43.1355 21.3246 43.0822 21.3026 43.0302 21.2746C42.9222 21.2166 42.8135 21.16 42.7035 21.1086C42.6109 21.0646 42.5162 21.0253 42.4209 20.9866C42.3255 20.948 42.2349 20.9113 42.1409 20.878C42.0302 20.8388 41.9191 20.8028 41.8075 20.77C41.7249 20.7453 41.6429 20.722 41.5595 20.7033C41.4402 20.6733 41.3195 20.6473 41.1989 20.624C41.1169 20.6086 41.0342 20.594 40.9522 20.5813C40.8342 20.564 40.7162 20.55 40.5969 20.5386C40.5053 20.5297 40.414 20.5231 40.3229 20.5186C40.2158 20.5133 40.1084 20.5106 40.0009 20.5106C39.8949 20.5106 39.7895 20.5106 39.6835 20.5186C39.5909 20.5233 39.4975 20.53 39.4042 20.5386C39.2875 20.55 39.1702 20.5633 39.0542 20.5813C38.9702 20.594 38.8862 20.6086 38.8029 20.6246C38.6829 20.6473 38.564 20.6733 38.4462 20.7026C38.3615 20.724 38.2775 20.748 38.1935 20.7726C38.0824 20.8055 37.9713 20.8411 37.8602 20.8793C37.7642 20.9133 37.6689 20.9513 37.5742 20.99C37.4795 21.0286 37.3889 21.0666 37.2982 21.1093C37.1855 21.162 37.0742 21.22 36.9649 21.2793C36.9149 21.3066 36.8635 21.328 36.8142 21.3566C36.7909 21.37 36.7702 21.386 36.7476 21.3993C36.6302 21.466 36.5175 21.5433 36.4069 21.6186C36.3402 21.6626 36.2736 21.7053 36.2116 21.752C36.1096 21.8273 36.0116 21.9073 35.9156 21.988C35.8489 22.044 35.7822 22.098 35.7156 22.1573C35.6336 22.2313 35.5569 22.31 35.4796 22.3873C35.4022 22.4646 35.3276 22.5333 35.2609 22.6093C35.1942 22.6853 35.1402 22.752 35.0802 22.824C35.0042 22.9166 34.9269 23.0093 34.8556 23.1066C34.8049 23.1733 34.7596 23.246 34.7122 23.316C34.6402 23.422 34.5689 23.5293 34.5029 23.6413C33.3265 25.6238 33.3092 28.0864 34.4576 30.0853L40.0022 39.6893L45.5462 30.0853C46.6922 28.0908 46.6769 25.6341 45.5062 23.654Z" fill="#4BDB4B"/>
</svg>
