<svg width="80" height="80" viewBox="0 0 80 80" fill="none" xmlns="http://www.w3.org/2000/svg">
<path d="M46.1994 62.0306V69.5019L39.6859 73.3333L33.3641 69.5019V62.0306L39.6859 65.862L46.1994 62.0306ZM11.3335 36.1685L17.6553 40V52.8352L28.5748 59.3486V66.8199L11.3335 56.6666V36.1685ZM68.0384 36.1685V56.6666L50.6055 66.8199V59.3486L61.525 52.8352V40L68.0384 36.1685ZM50.6055 26.0153L57.1189 29.8467V37.318L46.1994 43.8314V56.8582L39.8775 60.6896L33.5557 56.8582V43.8314L22.253 37.318V29.8467L28.7664 26.0153L39.6859 32.5287L50.6055 26.0153ZM22.253 42.6819L28.5748 46.5134V53.9846L22.253 50.1532V42.6819ZM57.1189 42.6819V50.1532L50.7971 53.9846V46.5134L57.1189 42.6819ZM17.6553 19.5019L24.1687 23.3333L17.6553 27.1647V34.636L11.3335 30.8046V23.3333L17.6553 19.5019ZM61.7166 19.5019L68.23 23.3333V30.8046L61.7166 34.636V27.1647L55.3948 23.3333L61.7166 19.5019ZM39.6859 19.5019L46.1994 23.3333L39.6859 27.1647L33.3641 23.3333L39.6859 19.5019ZM39.6859 6.66663L57.1189 16.8199L50.7971 20.6513L39.8775 14.1379L28.7664 20.6513L22.4446 16.8199L39.6859 6.66663Z" fill="#F3BA2F"/>
</svg>
