<svg width="80" height="80" viewBox="0 0 80 80" fill="none" xmlns="http://www.w3.org/2000/svg">
<path d="M22.683 13.4063C24.5192 13.9071 26.3554 14.241 28.1916 14.7417C30.0278 15.2425 31.864 15.5764 33.7002 16.0772C34.201 16.2441 34.3679 16.0772 34.5349 15.5764C35.2026 12.7386 35.8703 10.0678 36.538 7.23001C36.7049 6.72922 36.8718 6.5623 37.3726 6.72922C39.0419 7.23001 40.5442 7.56386 42.2135 7.89772C42.7143 8.06464 42.7143 8.23157 42.5474 8.56543C41.8797 11.2363 41.2119 14.074 40.5442 16.7449C40.5442 16.9118 40.5442 17.0787 40.3773 17.4126C41.7127 17.7464 43.2151 18.0803 44.5505 18.4141C44.7174 18.4141 44.8844 18.0803 45.0513 17.9134C45.5521 15.7433 46.0528 13.7402 46.7206 11.5701C46.8875 10.9024 47.0544 10.2347 47.2213 9.56699C47.2213 9.23313 47.3883 9.06621 47.7221 9.23314C49.3914 9.73392 51.0607 10.0678 52.8969 10.5686C53.0638 10.5686 53.0638 10.7355 53.2307 10.7355C52.7299 12.9055 52.2292 14.9087 51.7284 16.9118C51.5615 17.7464 51.3945 18.5811 51.0607 19.4157C50.8937 19.9165 51.0607 20.0834 51.5615 20.2504C53.3977 21.085 55.2339 21.9196 57.0701 22.7543C58.7393 23.7558 60.2417 25.0912 61.4102 26.7605C62.9125 29.2644 63.0795 31.9353 62.4117 34.6061C61.911 36.4423 61.2432 38.1116 59.9078 39.447C58.9063 40.4486 57.5708 41.1163 56.2354 41.6171C56.0685 41.6171 55.9016 41.784 55.5677 41.784C56.2354 42.2848 56.9031 42.6186 57.5708 43.1194C59.574 44.6218 60.9094 46.458 61.5771 48.795C61.911 50.6312 61.744 52.6343 61.2432 54.4705C60.5755 56.8075 59.7409 58.8106 58.2386 60.6468C56.4023 62.8169 54.0654 63.9854 51.3945 64.3192C47.889 64.82 44.5505 64.4861 41.212 63.9854C40.7112 63.8184 40.3773 63.9854 40.2104 64.4861C39.5427 67.157 38.875 69.9947 38.2073 72.6656C38.0403 73.3333 38.0403 73.5002 37.2057 73.1664C35.7033 72.8325 34.0341 72.3317 32.5317 71.9979C32.0309 71.8309 32.0309 71.664 32.1979 71.3302C32.8656 68.4924 33.5333 65.6546 34.3679 62.9838C34.3679 62.6499 34.5349 62.483 34.201 62.3161C32.8656 61.9822 31.5302 61.6484 30.0278 61.3145C29.694 62.8169 29.1932 64.3192 28.8593 65.8216C28.5255 67.3239 28.0247 68.8263 27.6908 70.3286C27.5239 70.6625 27.5239 70.8294 27.0231 70.6625C25.3538 70.1617 23.6846 69.8278 22.0153 69.494C21.5145 69.327 21.5145 69.1601 21.6814 68.8263C22.3491 65.9885 23.0169 63.1507 23.8515 60.4799C23.8515 60.313 24.0184 60.146 24.0184 59.8122C20.1791 58.8106 16.3398 57.809 12.3335 56.8075C12.6674 56.1398 12.8343 55.639 13.1681 54.9713C13.8358 53.4689 14.5036 51.9666 15.0043 50.6312C15.1713 50.1304 15.3382 50.1304 15.839 50.1304C17.0075 50.4642 18.3429 50.7981 19.5114 50.965C20.8468 51.2989 21.8484 50.6312 22.0153 49.4627C24.1853 40.9494 26.3554 32.4361 28.3585 23.7558C28.6924 22.4204 27.8577 20.9181 26.3554 20.4173C24.8531 19.9165 23.3507 19.5826 22.0153 19.2488C21.6814 19.2488 21.5145 19.0819 21.6814 18.748C22.1822 16.9118 22.683 14.9087 23.1838 13.0725C22.5161 13.5733 22.5161 13.5732 22.683 13.4063ZM31.1963 54.6374C31.3632 54.6374 31.5302 54.8043 31.5302 54.8043C34.201 55.472 37.0388 56.3067 39.8765 56.4736C41.8797 56.6405 43.7159 56.6405 45.5521 55.9728C48.7237 54.9713 50.0591 50.7981 48.2229 48.1272C47.3883 46.7918 46.0528 45.9572 44.7174 45.1225C41.7127 43.4533 38.2073 42.7856 34.8687 42.1179C34.3679 41.9509 34.3679 42.1179 34.201 42.6186C33.8671 44.2879 33.3664 45.7903 33.0325 47.4595C32.3648 49.7965 31.864 52.1335 31.1963 54.6374ZM45.2182 37.6108C45.5521 37.6108 46.3867 37.4439 47.0544 37.277C50.226 36.6092 51.8953 32.9368 50.226 30.0991C49.3914 28.5967 47.889 27.5952 46.3867 26.9275C44.0497 25.9259 41.7127 25.4251 39.2088 24.7574C38.708 24.5905 38.5411 24.7574 38.3742 25.2582C37.5395 28.7637 36.7049 32.1022 35.7033 35.6077C35.5364 35.9415 35.7033 36.1085 36.0372 36.2754C36.7049 36.4423 37.2057 36.6092 37.8734 36.7762C40.3773 37.11 42.5474 37.6108 45.2182 37.6108Z" fill="#F5B300"/>
</svg>
