<svg width="80" height="80" viewBox="0 0 80 80" fill="none" xmlns="http://www.w3.org/2000/svg">
<path d="M23.7691 39.7491C23.6952 41.0372 24.1356 42.302 24.9936 43.2655C25.8517 44.2291 27.0571 44.8126 28.3451 44.8878H28.6106C29.5592 44.8868 30.4867 44.608 31.2787 44.0859C32.0707 43.5638 32.6924 42.8212 33.0673 41.9498C33.4421 41.0784 33.5536 40.1164 33.3879 39.1823C33.2223 38.2483 32.7868 37.3832 32.1352 36.6939C31.4836 36.0045 30.6444 35.521 29.7212 35.3031C28.798 35.0851 27.8311 35.1423 26.94 35.4675C26.0489 35.7927 25.2725 36.3717 24.7067 37.133C24.1408 37.8944 23.8103 38.8047 23.7559 39.7518L23.7691 39.7491Z" fill="#0033AD"/>
<path d="M5.65625 38.5175C5.34658 38.5002 5.03873 38.5751 4.77159 38.7326C4.50444 38.8902 4.29001 39.1235 4.15539 39.4029C4.02076 39.6823 3.97199 39.9953 4.01523 40.3025C4.05847 40.6096 4.19178 40.897 4.39832 41.1284C4.60486 41.3598 4.87535 41.5247 5.17562 41.6024C5.47588 41.6801 5.79244 41.6671 6.08529 41.5649C6.37814 41.4628 6.63413 41.2761 6.82091 41.0285C7.0077 40.7809 7.11689 40.4835 7.13469 40.1738C7.14689 39.9679 7.11827 39.7615 7.05048 39.5667C6.98269 39.3719 6.87708 39.1923 6.73969 39.0384C6.60231 38.8845 6.43588 38.7593 6.24995 38.6699C6.06401 38.5805 5.86225 38.5287 5.65625 38.5175Z" fill="#0033AD"/>
<path d="M23.4612 11.5579C23.737 11.4163 23.9648 11.1962 24.1158 10.9254C24.2668 10.6546 24.3343 10.3452 24.3099 10.0362C24.2854 9.72708 24.1701 9.43214 23.9784 9.18847C23.7866 8.94481 23.5271 8.7633 23.2325 8.6668C22.9378 8.57031 22.6212 8.56313 22.3225 8.64618C22.0238 8.72924 21.7563 8.8988 21.5538 9.13353C21.3512 9.36827 21.2226 9.65768 21.1842 9.96533C21.1458 10.273 21.1992 10.5851 21.3378 10.8625C21.431 11.0481 21.5599 11.2135 21.7173 11.3491C21.8747 11.4846 22.0573 11.5877 22.2547 11.6523C22.4521 11.717 22.6603 11.7419 22.8674 11.7257C23.0745 11.7095 23.2763 11.6525 23.4612 11.5579Z" fill="#0033AD"/>
<path d="M28.3903 20.1525C28.8186 19.9364 29.1732 19.5982 29.4094 19.1806C29.6455 18.763 29.7526 18.2848 29.7169 17.8063C29.6813 17.3279 29.5047 16.8708 29.2093 16.4928C28.9139 16.1147 28.5131 15.8328 28.0575 15.6825C27.6019 15.5322 27.1119 15.5204 26.6496 15.6486C26.1873 15.7767 25.7734 16.0391 25.4601 16.4024C25.1469 16.7658 24.9484 17.2139 24.8898 17.69C24.8312 18.1662 24.915 18.649 25.1308 19.0775C25.2741 19.3622 25.4722 19.6158 25.7136 19.824C25.955 20.0321 26.2351 20.1906 26.5378 20.2904C26.8405 20.3902 27.1599 20.4294 27.4777 20.4058C27.7956 20.3821 28.1057 20.2961 28.3903 20.1525Z" fill="#0033AD"/>
<path d="M11.8036 26.0636C12.134 26.2809 12.5214 26.3952 12.9168 26.3923C13.3122 26.3893 13.6978 26.2691 14.0249 26.0469C14.352 25.8247 14.6058 25.5105 14.7543 25.1439C14.9027 24.7774 14.9391 24.3751 14.8588 23.988C14.7786 23.6008 14.5853 23.2461 14.3034 22.9688C14.0215 22.6915 13.6637 22.504 13.2752 22.4302C12.8867 22.3563 12.4851 22.3993 12.1211 22.5537C11.7571 22.7082 11.4471 22.9671 11.2303 23.2978C10.9399 23.7407 10.8372 24.2808 10.9447 24.7993C11.0522 25.3179 11.3611 25.7726 11.8036 26.0636Z" fill="#0033AD"/>
<path d="M14.7578 37.6337C14.2789 37.6066 13.8027 37.7222 13.3894 37.9658C12.9761 38.2093 12.6443 38.57 12.4359 39.002C12.2276 39.4341 12.152 39.9183 12.2187 40.3934C12.2855 40.8684 12.4915 41.313 12.8109 41.671C13.1303 42.0289 13.5486 42.2841 14.013 42.4044C14.4774 42.5246 14.967 42.5045 15.42 42.3465C15.8729 42.1886 16.2689 41.8999 16.5578 41.5169C16.8467 41.134 17.0156 40.674 17.0432 40.195C17.0794 39.5524 16.8591 38.9217 16.4305 38.4414C16.002 37.9611 15.4004 37.6706 14.7578 37.6337Z" fill="#0033AD"/>
<path d="M12.069 53.9443C11.7163 54.1225 11.4243 54.4014 11.23 54.7456C11.0357 55.0897 10.9479 55.4838 10.9775 55.8779C11.0071 56.272 11.1529 56.6485 11.3965 56.9598C11.64 57.271 11.9704 57.5031 12.3458 57.6266C12.7213 57.7502 13.1249 57.7596 13.5057 57.6538C13.8865 57.548 14.2273 57.3316 14.4852 57.0321C14.7431 56.7326 14.9064 56.3634 14.9544 55.9711C15.0025 55.5788 14.9331 55.181 14.7552 54.8281C14.6369 54.5937 14.4736 54.3848 14.2746 54.2134C14.0756 54.0421 13.8447 53.9116 13.5953 53.8295C13.3458 53.7475 13.0826 53.7153 12.8207 53.735C12.5588 53.7547 12.3034 53.8258 12.069 53.9443Z" fill="#0033AD"/>
<path d="M21.4997 32.6197C21.9721 32.9293 22.5258 33.0919 23.0906 33.0869C23.6554 33.0818 24.206 32.9095 24.6729 32.5915C25.1397 32.2736 25.5018 31.8243 25.7133 31.3006C25.9249 30.7769 25.9764 30.2022 25.8613 29.6492C25.7463 29.0962 25.4698 28.5898 25.067 28.1939C24.6641 27.798 24.1529 27.5304 23.598 27.4251C23.043 27.3197 22.4693 27.3812 21.9494 27.6019C21.4295 27.8226 20.9866 28.1925 20.6769 28.6648C20.4708 28.9784 20.3287 29.3295 20.2585 29.6981C20.1883 30.0667 20.1915 30.4456 20.268 30.8129C20.3444 31.1803 20.4925 31.529 20.7039 31.839C20.9153 32.149 21.1857 32.4143 21.4997 32.6197Z" fill="#0033AD"/>
<path d="M51.4189 19.9614C51.8211 20.2238 52.2921 20.361 52.7723 20.3557C53.2526 20.3505 53.7204 20.203 54.1168 19.9319C54.5132 19.6607 54.8204 19.2782 54.9994 18.8325C55.1784 18.3869 55.2213 17.8982 55.1226 17.4282C55.0239 16.9582 54.7881 16.528 54.445 16.192C54.1019 15.856 53.6668 15.6292 53.1949 15.5404C52.7229 15.4516 52.2352 15.5047 51.7934 15.693C51.3516 15.8813 50.9756 16.1964 50.7128 16.5984C50.5379 16.8654 50.4173 17.1643 50.3581 17.478C50.2989 17.7917 50.3022 18.114 50.3678 18.4264C50.4334 18.7389 50.56 19.0353 50.7404 19.2987C50.9207 19.5621 51.1513 19.7873 51.4189 19.9614Z" fill="#0033AD"/>
<path d="M56.3983 11.3933C56.6583 11.5638 56.963 11.6532 57.2739 11.6504C57.5847 11.6476 57.8878 11.5527 58.1447 11.3776C58.4016 11.2026 58.6007 10.9552 58.717 10.6669C58.8333 10.3786 58.8615 10.0623 58.7979 9.75801C58.7344 9.4537 58.582 9.17508 58.3601 8.95739C58.1382 8.7397 57.8566 8.59274 57.5512 8.53508C57.2457 8.47743 56.93 8.51168 56.644 8.63351C56.358 8.75533 56.1145 8.95926 55.9444 9.21947C55.7166 9.56802 55.6365 9.99273 55.7216 10.4003C55.8067 10.8079 56.0501 11.1651 56.3983 11.3933Z" fill="#0033AD"/>
<path d="M51.8011 35.1253C51.1641 35.0888 50.5261 35.178 49.9236 35.3879C49.3211 35.5979 48.7658 35.9245 48.2895 36.349C47.3275 37.2064 46.7456 38.4109 46.6717 39.6974C46.5978 40.9839 47.0379 42.247 47.8954 43.209C48.7528 44.1709 49.9572 44.7529 51.2437 44.8268C51.3366 44.8268 51.4321 44.8268 51.5251 44.8268C52.4622 44.8263 53.3792 44.5548 54.1656 44.0449C54.9519 43.5349 55.5739 42.8084 55.9566 41.953C56.3393 41.0975 56.4663 40.1496 56.3224 39.2235C56.1785 38.2975 55.7698 37.4328 55.1455 36.7338C54.7227 36.2571 54.2093 35.8694 53.6351 35.5932C53.0609 35.3171 52.4374 35.158 51.8011 35.1253Z" fill="#0033AD"/>
<path d="M29.9855 32.2826C30.3887 33.0882 31.0089 33.7652 31.776 34.2375C32.5432 34.7097 33.427 34.9584 34.3279 34.9555C35.1585 34.9557 35.9752 34.743 36.7002 34.3377C37.4252 33.9325 38.0342 33.3482 38.4692 32.6407C38.9042 31.9331 39.1506 31.1259 39.1848 30.296C39.2191 29.4662 39.0401 28.6414 38.665 27.9004C38.259 27.0984 37.6377 26.4254 36.8707 25.9566C36.1038 25.4878 35.2215 25.2418 34.3226 25.2461C33.4946 25.2475 32.6807 25.4604 31.9581 25.8647C31.2354 26.2689 30.6281 26.8511 30.1936 27.556C29.7592 28.2609 29.512 29.0651 29.4756 29.8923C29.4391 30.7195 29.6147 31.5423 29.9855 32.2826Z" fill="#0033AD"/>
<path d="M68.0746 26.0583C68.4274 25.8803 68.7195 25.6016 68.9139 25.2576C69.1084 24.9136 69.1966 24.5197 69.1673 24.1256C69.1379 23.7315 68.9924 23.355 68.7492 23.0436C68.5059 22.7321 68.1758 22.4998 67.8005 22.376C67.4252 22.2521 67.0217 22.2423 66.6408 22.3477C66.26 22.4532 65.9189 22.6691 65.6608 22.9683C65.4026 23.2675 65.239 23.6366 65.1905 24.0287C65.142 24.4209 65.2109 24.8187 65.3884 25.1718C65.6273 25.6453 66.0444 26.0047 66.548 26.1709C67.0517 26.3371 67.6007 26.2966 68.0746 26.0583Z" fill="#0033AD"/>
<path d="M55.756 27.6057C55.2515 27.8598 54.8337 28.2578 54.5554 28.7494C54.2771 29.2409 54.1508 29.8039 54.1924 30.3673C54.2341 30.9306 54.4419 31.4689 54.7895 31.9141C55.1372 32.3594 55.609 32.6915 56.1454 32.8686C56.6818 33.0457 57.2587 33.0597 57.803 32.9089C58.3474 32.7581 58.8348 32.4493 59.2037 32.0215C59.5726 31.5937 59.8063 31.0661 59.8753 30.5055C59.9443 29.9448 59.8455 29.3763 59.5914 28.8718C59.423 28.5366 59.1901 28.2379 58.9061 27.9928C58.6221 27.7477 58.2925 27.561 57.9363 27.4434C57.58 27.3258 57.2041 27.2796 56.83 27.3075C56.4558 27.3353 56.0909 27.4367 55.756 27.6057Z" fill="#0033AD"/>
<path d="M39.8886 10.6608C40.2834 10.6832 40.6759 10.5881 41.0166 10.3875C41.3573 10.1869 41.6308 9.88968 41.8025 9.53357C41.9743 9.17745 42.0366 8.7784 41.9815 8.38689C41.9264 7.99537 41.7564 7.62899 41.4931 7.33408C41.2298 7.03917 40.8849 6.82899 40.5021 6.73012C40.1193 6.63126 39.7157 6.64815 39.3425 6.77866C38.9693 6.90917 38.6432 7.14743 38.4054 7.46331C38.1677 7.77919 38.0289 8.1585 38.0067 8.55325C37.977 9.08222 38.1586 9.60135 38.5115 9.99653C38.8643 10.3917 39.3597 10.6306 39.8886 10.6608Z" fill="#0033AD"/>
<path d="M39.8674 23.2394C40.4312 23.271 40.9918 23.1348 41.4782 22.8479C41.9646 22.5611 42.355 22.1364 42.6002 21.6277C42.8453 21.119 42.9341 20.549 42.8554 19.9898C42.7767 19.4306 42.534 18.9073 42.158 18.486C41.7819 18.0648 41.2894 17.7644 40.7427 17.6229C40.196 17.4815 39.6197 17.5053 39.0865 17.6913C38.5533 17.8773 38.0872 18.2172 37.7472 18.668C37.4071 19.1189 37.2083 19.6604 37.176 20.2242C37.1332 20.9809 37.3927 21.7236 37.8974 22.289C38.4021 22.8545 39.1107 23.1963 39.8674 23.2394Z" fill="#0033AD"/>
<path d="M24.3929 52.3942C24.8973 52.1398 25.315 51.7416 25.5931 51.2499C25.8712 50.7582 25.9972 50.1951 25.9553 49.6317C25.9133 49.0683 25.7052 48.5301 25.3573 48.085C25.0094 47.6399 24.5373 47.308 24.0007 47.1313C23.4642 46.9546 22.8872 46.9409 22.3429 47.0921C21.7986 47.2432 21.3113 47.5524 20.9428 47.9805C20.5742 48.4086 20.3408 48.9364 20.2723 49.4972C20.2037 50.0579 20.3029 50.6264 20.5574 51.1307C20.8986 51.8068 21.4943 52.3196 22.2136 52.5566C22.9328 52.7935 23.7167 52.7351 24.3929 52.3942Z" fill="#0033AD"/>
<path d="M41.7121 27.4067C41.1198 28.3106 40.8458 29.3863 40.9336 30.4635C41.0214 31.5407 41.466 32.5578 42.1969 33.3539C42.9278 34.15 43.9033 34.6797 44.9691 34.859C46.0348 35.0383 47.13 34.857 48.0811 34.3439C49.0323 33.8308 49.7852 33.0151 50.2206 32.0259C50.656 31.0368 50.7491 29.9307 50.4852 28.8826C50.2213 27.8346 49.6153 26.9046 48.7633 26.2396C47.9113 25.5747 46.8619 25.213 45.7812 25.2116C44.974 25.211 44.1794 25.4114 43.4691 25.7946C42.7587 26.1778 42.1549 26.7318 41.7121 27.4067Z" fill="#0033AD"/>
<path d="M50.1581 47.72C49.7689 46.9482 49.1809 46.2943 48.4547 45.8257C47.7285 45.3571 46.8904 45.0907 46.0269 45.0541C45.1634 45.0175 44.3057 45.2119 43.5424 45.6173C42.7792 46.0228 42.1379 46.6245 41.6847 47.3605C41.2316 48.0965 40.9831 48.94 40.9647 49.8041C40.9464 50.6682 41.159 51.5215 41.5805 52.2761C42.002 53.0306 42.6172 53.659 43.3626 54.0964C44.1081 54.5338 44.9567 54.7644 45.821 54.7644C46.5813 54.7592 47.33 54.5775 48.0081 54.2336C49.1551 53.653 50.0253 52.6416 50.4283 51.4208C50.8312 50.2 50.7341 48.8693 50.1581 47.72Z" fill="#0033AD"/>
<path d="M58.6465 47.3802C58.1743 47.0702 57.6208 46.9072 57.0559 46.9118C56.4911 46.9164 55.9403 47.0884 55.4732 47.406C55.0061 47.7237 54.6437 48.1727 54.4318 48.6963C54.2198 49.2199 54.168 49.7946 54.2827 50.3477C54.3974 50.9008 54.6735 51.4074 55.0762 51.8036C55.4788 52.1998 55.9899 52.4676 56.5448 52.5733C57.0997 52.679 57.6734 52.6178 58.1935 52.3974C58.7136 52.177 59.1567 51.8073 59.4667 51.3351C59.881 50.7015 60.0273 49.9295 59.8735 49.1882C59.7198 48.447 59.2786 47.7968 58.6465 47.3802Z" fill="#0033AD"/>
<path d="M67.9471 40.0836C67.9742 39.6046 67.8586 39.1284 67.615 38.7151C67.3715 38.3018 67.0108 37.97 66.5787 37.7617C66.1467 37.5533 65.6625 37.4777 65.1874 37.5445C64.7124 37.6112 64.2678 37.8173 63.9098 38.1367C63.5519 38.456 63.2967 38.8744 63.1764 39.3387C63.0562 39.8031 63.0763 40.2928 63.2342 40.7457C63.3922 41.1987 63.6809 41.5947 64.0639 41.8836C64.4468 42.1725 64.9068 42.3414 65.3858 42.3689C66.0284 42.4051 66.6591 42.1848 67.1394 41.7563C67.6196 41.3278 67.9102 40.7262 67.9471 40.0836Z" fill="#0033AD"/>
<path d="M74.6678 38.3556C74.3575 38.3378 74.0489 38.4123 73.781 38.5698C73.5131 38.7274 73.298 38.9608 73.1627 39.2406C73.0275 39.5204 72.9783 39.8341 73.0213 40.1419C73.0643 40.4497 73.1976 40.7378 73.4044 40.9698C73.6112 41.2018 73.8821 41.3673 74.183 41.4454C74.4838 41.5234 74.801 41.5105 75.0945 41.4082C75.388 41.306 75.6445 41.119 75.8317 40.8709C76.019 40.6228 76.1284 40.3248 76.1462 40.0146C76.1695 39.5987 76.0269 39.1906 75.7498 38.8796C75.4727 38.5687 75.0836 38.3803 74.6678 38.3556Z" fill="#0033AD"/>
<path d="M68.34 53.9363C68.0094 53.7198 67.6219 53.6061 67.2267 53.6097C66.8315 53.6133 66.4462 53.7339 66.1196 53.9565C65.793 54.179 65.5396 54.4934 65.3916 54.8598C65.2436 55.2263 65.2076 55.6284 65.2881 56.0154C65.3686 56.4023 65.562 56.7567 65.8439 57.0338C66.1258 57.3108 66.4835 57.498 66.8718 57.5718C67.2601 57.6456 67.6615 57.6026 68.0254 57.4483C68.3892 57.2939 68.6991 57.0352 68.916 56.7047C69.06 56.4852 69.1594 56.2394 69.2084 55.9814C69.2575 55.7234 69.2551 55.4583 69.2017 55.2012C69.1482 54.9441 69.0445 54.7 68.8967 54.483C68.7488 54.266 68.5597 54.0802 68.34 53.9363Z" fill="#0033AD"/>
<path d="M23.7479 68.6066C23.4881 68.4361 23.1836 68.3465 22.8728 68.349C22.5621 68.3516 22.2591 68.4463 22.0022 68.621C21.7452 68.7958 21.5458 69.0428 21.4293 69.3308C21.3127 69.6189 21.2841 69.935 21.3472 70.2393C21.4103 70.5436 21.5622 70.8223 21.7837 71.0403C22.0051 71.2583 22.2863 71.4057 22.5915 71.4639C22.8968 71.5221 23.2124 71.4884 23.4986 71.3673C23.7847 71.2461 24.0285 71.0428 24.1991 70.7831C24.3125 70.6106 24.3907 70.4174 24.4294 70.2146C24.468 70.0119 24.4664 69.8035 24.4245 69.6013C24.3826 69.3992 24.3012 69.2073 24.1851 69.0366C24.0691 68.866 23.9205 68.7198 23.7479 68.6066Z" fill="#0033AD"/>
<path d="M56.6823 68.442C56.4048 68.5819 56.175 68.8009 56.0219 69.0715C55.8689 69.342 55.7995 69.6518 55.8226 69.9618C55.8456 70.2717 55.9601 70.5679 56.1515 70.8128C56.3428 71.0576 56.6026 71.2403 56.8977 71.3376C57.1929 71.4349 57.5103 71.4424 57.8098 71.3593C58.1093 71.2762 58.3774 71.1061 58.5802 70.8706C58.7831 70.6351 58.9115 70.3447 58.9493 70.0362C58.987 69.7277 58.9325 69.4149 58.7925 69.1374C58.6998 68.953 58.5717 68.7887 58.4154 68.6538C58.2591 68.519 58.0778 68.4164 57.8818 68.3518C57.6857 68.2872 57.4789 68.2619 57.273 68.2774C57.0672 68.2928 56.8665 68.3488 56.6823 68.442Z" fill="#0033AD"/>
<path d="M38.4314 52.5853C39.0238 51.6812 39.2978 50.6054 39.2099 49.5281C39.122 48.4508 38.6774 47.4336 37.9463 46.6375C37.2152 45.8414 36.2395 45.3119 35.1735 45.1328C34.1076 44.9537 33.0124 45.1352 32.0613 45.6487C31.1102 46.1621 30.3574 46.9781 29.9223 47.9675C29.4872 48.9569 29.3945 50.0632 29.6589 51.1112C29.9233 52.1592 30.5297 53.0891 31.3821 53.7537C32.2345 54.4183 33.2842 54.7796 34.3651 54.7804C35.1722 54.7831 35.9673 54.5837 36.6776 54.2003C37.3879 53.8168 37.9908 53.2616 38.4314 52.5853Z" fill="#0033AD"/>
<path d="M28.7247 60.0412C28.3232 59.7785 27.853 59.6408 27.3733 59.6454C26.8936 59.6501 26.426 59.7968 26.0297 60.0671C25.6333 60.3374 25.326 60.7191 25.1466 61.164C24.9672 61.6089 24.9237 62.097 25.0216 62.5666C25.1196 63.0362 25.3545 63.4663 25.6968 63.8024C26.0391 64.1385 26.4733 64.3656 26.9447 64.4549C27.416 64.5443 27.9032 64.4919 28.3448 64.3044C28.7863 64.1169 29.1624 63.8027 29.4254 63.4015C29.7777 62.8629 29.9018 62.2064 29.7704 61.5763C29.639 60.9463 29.2629 60.3941 28.7247 60.0412Z" fill="#0033AD"/>
<path d="M40.0505 69.3392C39.6559 69.3167 39.2635 69.4118 38.9229 69.6123C38.5823 69.8129 38.3089 70.1099 38.1371 70.4659C37.9653 70.8218 37.9029 71.2207 37.9577 71.6121C38.0126 72.0036 38.1823 72.3699 38.4454 72.6649C38.7085 72.9599 39.0531 73.1702 39.4357 73.2694C39.8183 73.3685 40.2217 73.352 40.595 73.2219C40.9682 73.0918 41.2945 72.854 41.5325 72.5384C41.7706 72.2229 41.9098 71.8439 41.9324 71.4493C41.9475 71.1872 41.9108 70.9246 41.8243 70.6767C41.7379 70.4288 41.6035 70.2003 41.4287 70.0043C41.2539 69.8083 41.0423 69.6487 40.8058 69.5346C40.5693 69.4205 40.3127 69.3541 40.0505 69.3392Z" fill="#0033AD"/>
<path d="M40.0718 56.7631C39.5075 56.7288 38.9457 56.8628 38.4576 57.148C37.9694 57.4333 37.577 57.857 37.3298 58.3655C37.0827 58.8739 36.992 59.4443 37.0693 60.0044C37.1466 60.5644 37.3884 61.0889 37.764 61.5114C38.1397 61.934 38.6322 62.2355 39.1794 62.3779C39.7265 62.5202 40.3036 62.497 40.8375 62.3111C41.3714 62.1253 41.8382 61.7851 42.1786 61.3338C42.5191 60.8824 42.7179 60.3402 42.75 59.7757C42.7935 59.0213 42.536 58.2804 42.0339 57.7156C41.5318 57.1508 40.8261 56.8083 40.0718 56.7631Z" fill="#0033AD"/>
<path d="M51.7533 59.8474C51.3247 60.0649 50.9703 60.4046 50.7349 60.8236C50.4995 61.2426 50.3937 61.722 50.4309 62.2011C50.468 62.6803 50.6465 63.1376 50.9438 63.5153C51.241 63.893 51.6436 64.1739 52.1006 64.3227C52.5576 64.4714 53.0485 64.4812 53.511 64.3509C53.9736 64.2205 54.3871 63.9558 54.6992 63.5904C55.0113 63.2249 55.2079 62.775 55.2642 62.2977C55.3205 61.8204 55.2339 61.3372 55.0154 60.9091C54.8712 60.625 54.6723 60.3721 54.4302 60.1649C54.1882 59.9577 53.9076 59.8003 53.6046 59.7017C53.3016 59.6031 52.9821 59.5652 52.6644 59.5902C52.3468 59.6152 52.0372 59.7026 51.7533 59.8474Z" fill="#0033AD"/>
</svg>
