<svg width="80" height="80" viewBox="0 0 80 80" fill="none" xmlns="http://www.w3.org/2000/svg">
<path d="M32.9761 66.3157C43.5233 66.3157 52.0733 57.6757 52.0733 47.0175C52.0733 36.3592 43.5233 27.7192 32.9761 27.7192C22.4288 27.7192 13.8788 36.3592 13.8788 47.0175C13.8788 57.6757 22.4288 66.3157 32.9761 66.3157ZM32.9761 73.3332C18.5941 73.3332 6.9344 61.5508 6.9344 47.0175C6.9344 32.4841 18.5941 20.7017 32.9761 20.7017C47.358 20.7017 59.0177 32.4841 59.0177 47.0175C59.0177 61.5508 47.358 73.3332 32.9761 73.3332Z" fill="#FBCC5C"/>
<path d="M46.865 52.2807C57.4122 52.2807 65.9622 43.6407 65.9622 32.9824C65.9622 22.3242 57.4122 13.6842 46.865 13.6842C36.3177 13.6842 27.7677 22.3242 27.7677 32.9824C27.7677 43.6407 36.3177 52.2807 46.865 52.2807ZM46.865 59.2982C32.483 59.2982 20.8233 47.5158 20.8233 32.9824C20.8233 18.4491 32.483 6.66663 46.865 6.66663C61.2469 6.66663 72.9066 18.4491 72.9066 32.9824C72.9066 47.5158 61.2469 59.2982 46.865 59.2982Z" fill="#35D07F"/>
<path d="M47.7192 59.2841C49.524 57.0743 50.8175 54.4849 51.5053 51.7052C54.2559 51.0103 56.8183 49.7034 59.0053 47.8799C58.9056 51.0984 58.2196 54.2707 56.9817 57.2378C54.0451 58.4894 50.9053 59.1831 47.7198 59.2841H47.7192ZM28.3365 28.2932C25.5859 28.9881 23.0235 30.295 20.8365 32.1185C20.9362 28.9 21.6222 25.7277 22.8601 22.7606C25.7968 21.5095 28.9365 20.8163 32.1219 20.7157C30.3176 22.9253 29.0244 25.5141 28.3365 28.2932Z" fill="#5EA33B"/>
</svg>
