<svg width="80" height="80" viewBox="0 0 80 80" fill="none" xmlns="http://www.w3.org/2000/svg">
<path d="M40 73.3333C58.4097 73.3333 73.3333 58.4096 73.3333 40C73.3333 21.5903 58.4097 6.66663 40 6.66663C21.5903 6.66663 6.66666 21.5906 6.66666 40C6.66666 58.4093 21.5907 73.3333 40 73.3333Z" fill="#070A0E"/>
<path fill-rule="evenodd" clip-rule="evenodd" d="M25.9214 51.1773C25.4311 50.8777 25.0259 50.4572 24.7445 49.9562C24.4631 49.4551 24.3151 48.8903 24.3144 48.3157V41.8037C24.3149 41.5577 24.3803 41.3161 24.5039 41.1034C24.6274 40.8907 24.8049 40.7143 25.0184 40.592C25.2318 40.4696 25.4737 40.4057 25.7198 40.4067C25.9658 40.4076 26.2072 40.4734 26.4197 40.5973L41.1171 49.1667C41.5395 49.4131 41.8901 49.7658 42.1338 50.1898C42.3776 50.6138 42.506 51.0943 42.5064 51.5833V58.3313C42.507 58.63 42.4279 58.9233 42.2773 59.1812C42.1267 59.439 41.9099 59.652 41.6495 59.7981C41.389 59.9442 41.0943 60.0181 40.7957 60.0122C40.4972 60.0064 40.2056 59.9209 39.9511 59.7647L25.9214 51.1773ZM47.8297 38.8123C48.2521 39.0588 48.6026 39.4117 48.8462 39.8357C49.0898 40.2598 49.2182 40.7403 49.2184 41.2293V54.921C49.2187 55.1194 49.1661 55.3143 49.0659 55.4856C48.9658 55.6569 48.8218 55.7983 48.6487 55.8953L45.4307 57.707C45.3896 57.7294 45.3463 57.7474 45.3014 57.7607V50.1583C45.3012 49.6741 45.1757 49.1982 44.937 48.777C44.6983 48.3557 44.3546 48.0034 43.9394 47.7543L31.0327 40.0333V31.4503C31.0333 31.2043 31.0986 30.9628 31.2222 30.7501C31.3458 30.5373 31.5232 30.3609 31.7367 30.2386C31.9502 30.1163 32.1921 30.0524 32.4381 30.0534C32.6841 30.0543 32.9255 30.1201 33.1381 30.244L47.8297 38.8123ZM54.2631 28.6997C54.6871 28.9457 55.0391 29.299 55.2836 29.7239C55.5281 30.1489 55.6565 30.6307 55.6561 31.121V51.121C55.655 51.3226 55.5996 51.5203 55.4958 51.6931C55.392 51.866 55.2436 52.0077 55.0661 52.1033L52.0174 53.75V39.8273C52.0171 39.3442 51.892 38.8693 51.6541 38.4488C51.4162 38.0283 51.0737 37.6764 50.6597 37.4273L37.4661 29.5143V21.3733C37.4667 21.1267 37.5311 20.8844 37.6531 20.67C37.8399 20.3493 38.1464 20.1158 38.5052 20.0207C38.864 19.9256 39.2459 19.9766 39.5671 20.1627L54.2631 28.6997Z" fill="#00D395"/>
</svg>
