<svg width="80" height="80" viewBox="0 0 80 80" fill="none" xmlns="http://www.w3.org/2000/svg">
<path d="M17.6425 33.638C18.3014 35.0463 19.932 37.8299 19.932 37.8299L38.7831 6.66663L20.3849 19.5141C19.2887 20.2454 18.3893 21.2353 17.766 22.3965C16.9281 24.1482 16.4829 26.0619 16.4616 28.0036C16.4402 29.9453 16.8433 31.8683 17.6425 33.638Z" fill="url(#paint0_linear_26_25918)"/>
<path d="M10.1729 43.8993C10.3807 46.8802 11.2229 49.7824 12.6432 52.4114C14.0635 55.0404 16.0292 57.3356 18.4085 59.1433L38.7585 73.3331C38.7585 73.3331 26.0263 54.9844 15.2872 36.7262C14.2 34.7972 13.4691 32.6882 13.1295 30.5001C12.9792 29.5093 12.9792 28.5015 13.1295 27.5106C12.8495 28.0295 12.3059 29.0918 12.3059 29.0918C11.217 31.3126 10.4754 33.6874 10.1071 36.1332C9.89502 38.7186 9.91707 41.3179 10.1729 43.8993Z" fill="#A0A8D4"/>
<path d="M62.0898 46.3619C61.4309 44.9537 59.8003 42.17 59.8003 42.17L40.9492 73.3333L59.3473 60.4941C60.4436 59.7628 61.343 58.7728 61.9662 57.6117C62.8054 55.8588 63.2513 53.9437 63.2727 52.0005C63.294 50.0572 62.8903 48.1328 62.0898 46.3619Z" fill="url(#paint1_linear_26_25918)"/>
<path d="M69.5593 36.1004C69.3516 33.1195 68.5094 30.2174 67.0891 27.5884C65.6687 24.9594 63.7031 22.6642 61.3238 20.8565L40.9738 6.66663C40.9738 6.66663 53.6977 25.0154 64.4451 43.2736C65.5294 45.2031 66.2575 47.3121 66.5945 49.4997C66.7449 50.4905 66.7449 51.4983 66.5945 52.4892C66.8745 51.9703 67.4181 50.9079 67.4181 50.9079C68.507 48.6871 69.2486 46.3124 69.617 43.8665C69.8318 41.2814 69.8125 38.6821 69.5593 36.1004Z" fill="#A0A8D4"/>
<path style="mix-blend-mode:color" d="M17.7661 22.3965C18.3893 21.2353 19.2887 20.2454 20.385 19.5141L38.7832 6.66663L19.932 37.8381C19.932 37.8381 18.2849 35.0545 17.6426 33.6462C16.8421 31.8754 16.4384 29.951 16.4597 28.0077C16.481 26.0644 16.9269 24.1493 17.7661 22.3965ZM10.1729 43.8995C10.3807 46.8804 11.2229 49.7825 12.6432 52.4115C14.0635 55.0405 16.0292 57.3358 18.4085 59.1435L38.7585 73.3333C38.7585 73.3333 26.0263 54.9845 15.2872 36.7263C14.2 34.7974 13.4691 32.6883 13.1295 30.5003C12.9792 29.5094 12.9792 28.5016 13.1295 27.5108C12.8495 28.0296 12.3059 29.092 12.3059 29.092C11.217 31.3128 10.4754 33.6876 10.1071 36.1334C9.89502 38.7188 9.91707 41.3181 10.1729 43.8995ZM62.0568 46.3701C61.398 44.9619 59.7673 42.1783 59.7673 42.1783L40.9491 73.3333L59.3473 60.4941C60.4436 59.7627 61.343 58.7728 61.9662 57.6117C62.8054 55.8588 63.2513 53.9437 63.2726 52.0005C63.2939 50.0572 62.8902 48.1328 62.0897 46.3619L62.0568 46.3701ZM69.5264 36.1087C69.3187 33.1278 68.4765 30.2256 67.0562 27.5966C65.6358 24.9676 63.6702 22.6724 61.2909 20.8647L40.9738 6.66663C40.9738 6.66663 53.6977 25.0154 64.4451 43.2736C65.5294 45.2031 66.2576 47.3121 66.5946 49.4997C66.7449 50.4905 66.7449 51.4983 66.5946 52.4891C66.8746 51.9703 67.4181 50.9079 67.4181 50.9079C68.507 48.6871 69.2486 46.3124 69.617 43.8665C69.8318 41.2814 69.8125 38.6821 69.5594 36.1004L69.5264 36.1087Z" fill="url(#paint2_linear_26_25918)"/>
<defs>
<linearGradient id="paint0_linear_26_25918" x1="39.6067" y1="7.43253" x2="15.4107" y2="33.6627" gradientUnits="userSpaceOnUse">
<stop offset="0.58" stop-color="#A0A8D4"/>
<stop offset="0.73" stop-color="#8791C7"/>
<stop offset="0.91" stop-color="#6470B4"/>
</linearGradient>
<linearGradient id="paint1_linear_26_25918" x1="991.295" y1="2586.96" x2="1881.46" y2="1895.9" gradientUnits="userSpaceOnUse">
<stop offset="0.58" stop-color="#A0A8D4"/>
<stop offset="0.73" stop-color="#8791C7"/>
<stop offset="0.91" stop-color="#6470B4"/>
</linearGradient>
<linearGradient id="paint2_linear_26_25918" x1="39.862" y1="6.3372" x2="39.862" y2="73.5392" gradientUnits="userSpaceOnUse">
<stop stop-color="#513EFF"/>
<stop offset="0.18" stop-color="#5157FF"/>
<stop offset="0.57" stop-color="#5298FF"/>
<stop offset="1" stop-color="#52E5FF"/>
</linearGradient>
</defs>
</svg>
