<svg width="80" height="80" viewBox="0 0 80 80" fill="none" xmlns="http://www.w3.org/2000/svg">
<path d="M40.4176 6.66663V31.2064C40.4176 31.3106 40.3134 31.4148 40.2092 31.4148C39.48 31.7332 38.855 32.0487 38.1258 32.3642C37.1883 32.7839 36.1466 33.2065 35.209 33.7333L31.7714 35.3108L28.9587 36.5757L25.5211 38.1561C24.5835 38.5788 23.646 38.9984 22.6043 39.5252C21.8751 39.8407 21.0417 40.2634 20.3125 40.5789C20.2083 40.5789 20.2083 40.683 20.1042 40.5789H20C20.3125 40.052 20.625 39.6294 20.9375 39.1056C22.6043 36.2602 24.3752 33.4178 26.0419 30.5725C27.8128 27.5217 29.6879 24.465 31.4588 21.4113C33.1256 18.5689 34.7923 15.7266 36.4591 12.9883C37.7091 10.8781 38.9592 8.88101 40.1051 6.7708C40.3134 6.7708 40.3134 6.66663 40.4176 6.66663C40.4176 6.66663 40.3134 6.66663 40.4176 6.66663Z" fill="#8C8C8C"/>
<path d="M60.6267 40.5789C59.0642 41.6326 57.3974 42.579 55.8349 43.5255C50.7305 46.5822 45.7302 49.5317 40.6258 52.5854C40.5217 52.5854 40.5217 52.6896 40.4175 52.6896C40.3133 52.6896 40.3133 52.5854 40.3133 52.5854V31.4148C40.3133 31.3107 40.4175 31.3107 40.5217 31.3107C40.9384 31.519 41.355 31.7333 41.8759 31.9416C43.126 32.5756 44.4802 33.1024 45.7302 33.7334C46.8761 34.2602 47.9178 34.787 49.0637 35.2067C50.2096 35.7335 51.2513 36.2603 52.3972 36.7871C53.3347 37.2097 54.3765 37.6294 55.314 38.1562C56.2515 38.5789 57.2933 38.9985 58.2308 39.5253C58.96 39.8408 59.6892 40.2634 60.5226 40.5789C60.5226 40.4748 60.5226 40.5789 60.6267 40.5789Z" fill="#141414"/>
<path d="M40.4177 73.3333C40.4177 73.3333 40.3135 73.3333 40.4177 73.3333C40.3135 73.3333 40.3135 73.3333 40.2093 73.2262C38.1259 70.2796 36.1467 67.4342 34.0632 64.4847L27.813 55.6391C25.8337 52.7967 23.7503 49.9543 21.771 47.0018L20.2084 44.7904C20.2084 44.6862 20.1043 44.6862 20.1043 44.582C20.2084 44.582 20.2084 44.6862 20.3126 44.6862C23.1252 46.3708 26.042 48.0554 28.8547 49.74C32.084 51.7431 35.4175 53.639 38.6468 55.6391C39.1676 55.9546 39.7927 56.2701 40.3135 56.5855C40.4177 56.5855 40.4177 56.6927 40.4177 56.7969V73.3333Z" fill="#8C8C8C"/>
<path d="M20 39.4766C20 39.3724 20 39.3724 20 39.4766C21.0417 38.9498 22.0834 38.5301 23.1251 38.0033L27.1878 36.1074C28.2295 35.5806 29.2712 35.1609 30.313 34.6341C31.7714 33.896 33.3339 33.265 34.7923 32.5269C35.834 32.1043 36.8758 31.5775 37.9175 31.1578C38.6467 30.8423 39.3759 30.5268 40.1051 30.1042C40.2092 30.1042 40.2092 30 40.3134 30V51.4831C40.2092 51.5903 40.2092 51.4831 40.1051 51.4831C39.7926 51.2748 39.48 51.1676 39.2717 50.9563L20.2083 39.5838C20.1042 39.4766 20 39.4766 20 39.4766ZM60.3143 43.3756C60.3143 43.4798 60.3143 43.4798 60.2101 43.5839C54.1682 52.2212 48.1263 60.7514 42.0843 69.3887C41.4593 70.3351 40.8343 71.1774 40.2092 72.1269V55.3791C41.5635 54.5368 42.9177 53.6945 44.2719 52.9594L60.2101 43.4798C60.2101 43.3756 60.3143 43.3756 60.3143 43.3756Z" fill="#3C3C3B"/>
<path d="M40.4176 31.3106V6.77673L60.4185 40.2663C60.5227 40.3705 60.6268 40.4747 60.6268 40.5818C60.2102 40.3735 59.7935 40.1592 59.2726 39.9508C58.7518 39.7395 58.2309 39.424 57.71 39.2127C57.3975 39.1085 57.085 38.8972 56.6683 38.7901C56.1475 38.5817 55.5224 38.2633 55.0016 38.0549C54.6891 37.9478 54.3766 37.7394 54.064 37.6323L51.8765 36.6858C51.4598 36.4745 51.1473 36.3703 50.7306 36.159C50.2097 35.9477 49.6889 35.6322 49.168 35.4209C48.8555 35.3167 48.543 35.1054 48.2305 35.0012L46.0429 34.0518C45.6262 33.8434 45.3137 33.7363 44.897 33.525C44.3761 33.3166 43.8553 32.9981 43.3344 32.7868C43.0219 32.5785 42.6052 32.4713 42.2927 32.263L40.4176 31.3135V31.3106Z" fill="#343434"/>
</svg>
