<svg width="80" height="80" viewBox="0 0 80 80" fill="none" xmlns="http://www.w3.org/2000/svg">
<path d="M73.6011 40C73.6011 21.5905 58.6772 6.66663 40.2677 6.66663C21.8583 6.66663 6.93442 21.5905 6.93442 40C6.93442 58.4095 21.8583 73.3333 40.2677 73.3333C58.6772 73.3333 73.6011 58.4095 73.6011 40Z" fill="#252B3D"/>
<path d="M54.6923 25H58.601L42.7314 42.8897C42.3206 43.3333 42.3089 44.0407 42.708 44.4964L51.8635 55H47.7787L39.3157 45.2637L38.8932 44.7362C38.4941 44.2805 38.5058 43.5731 38.9166 43.1295L54.6923 25Z" fill="#17B5CB"/>
<path d="M47.2332 44.4894C46.9706 44.1891 46.8751 43.7807 46.9706 43.4084C47.0422 43.2042 47.1974 42.9759 47.3406 42.8198L48.4149 41.6666L60.2677 55H56.4958C56.4958 55 49.5488 47.12 47.2332 44.4894Z" fill="#17B5CB"/>
<path d="M24.3217 55H20.2677L32.6982 40.7314C33.0954 40.2757 33.0954 39.5923 32.6982 39.1486L20.3612 25H24.2632L36.6703 39.2686C36.9857 39.6882 37.0441 40.2997 36.7053 40.6954C33.4575 44.4244 24.3217 55 24.3217 55Z" fill="#17B5CB"/>
<path d="M32.4148 25H28.601L40.2919 38.3333C40.2919 38.3333 40.3276 38.3091 41.6344 36.7953C41.9909 36.3836 42.0622 35.875 41.6701 35.4874C39.2107 33.0048 32.4148 25 32.4148 25Z" fill="#17B5CB"/>
<path d="M43.5011 33.3333L50.3843 25H46.7667L43.5381 28.5677L42.2663 30.0781C41.8341 30.5599 41.8218 31.3151 42.2416 31.8229C42.5627 32.2005 43.5011 33.3333 43.5011 33.3333Z" fill="#17B5CB"/>
<path d="M36.4995 45.9651L28.601 55H32.5893L36.9973 49.7657L37.7886 48.95C38.2207 48.4682 38.2084 47.5098 37.7886 47.002C37.4675 46.6244 36.4995 45.9651 36.4995 45.9651Z" fill="#17B5CB"/>
</svg>
