<svg width="80" height="80" viewBox="0 0 80 80" fill="none" xmlns="http://www.w3.org/2000/svg">
<path fill-rule="evenodd" clip-rule="evenodd" d="M39.9767 69.61C30.7246 69.6031 23.273 67.3827 18.0656 63.3954C12.7958 59.3596 10 53.6333 10 47.1532C10 40.9099 12.7899 36.4076 15.9462 33.3642C18.4192 30.9794 21.1487 29.4522 23.0492 28.5728C22.5263 26.9756 22.0441 25.3654 21.6033 23.7437C20.9615 21.3569 20.3316 18.5571 20.3316 16.505C20.3316 14.0766 20.8615 11.6373 22.2896 9.74175C23.7979 7.74019 26.0689 6.66762 28.8003 6.66762C30.9356 6.66762 32.748 7.45992 34.1682 8.82565C35.524 10.131 36.4262 11.8661 37.0502 13.6735C38.1455 16.8507 38.5724 20.8419 38.6912 24.8252H41.3088C41.4276 20.8419 41.8545 16.8507 42.9498 13.6735C43.5738 11.8661 44.476 10.131 45.8318 8.82565C47.252 7.45893 49.0644 6.66663 51.1997 6.66663C53.9311 6.66663 56.2021 7.74019 57.7104 9.74175C59.1385 11.6373 59.6684 14.0766 59.6684 16.506C59.6684 18.5571 59.0385 21.3569 58.3967 23.7437C57.9559 25.3654 57.4738 26.9756 56.9508 28.5728C58.8513 29.4522 61.5808 30.9794 64.0538 33.3642C67.2101 36.4076 70 40.9099 70 47.1532C70 53.6333 67.2042 59.3596 61.9344 63.3954C56.728 67.3827 49.2754 69.6031 40.0233 69.61H39.9767Z" fill="#633001"/>
<path d="M28.8003 8.97717C24.7992 8.97717 22.9571 11.9929 22.9571 16.1633C22.9571 19.4781 25.0963 26.1166 25.9758 28.7015C26.1729 29.2829 25.8629 29.9197 25.2964 30.1455C22.0895 31.4231 12.6255 36.0996 12.6255 46.8116C12.6255 58.0949 22.243 66.6023 39.9787 66.6161H40.0213C57.757 66.6023 67.3745 58.0949 67.3745 46.8116C67.3745 36.0996 57.9105 31.4221 54.7036 30.1455C54.4279 30.0365 54.204 29.8265 54.0778 29.5581C53.9515 29.2898 53.9324 28.9835 54.0242 28.7015C54.9027 26.1166 57.0429 19.4781 57.0429 16.1633C57.0429 11.9929 55.2008 8.97717 51.1997 8.97717C45.4396 8.97717 44.0036 17.2191 43.9006 26.0651C43.8996 26.3475 43.7874 26.618 43.5883 26.8182C43.3892 27.0184 43.1193 27.1321 42.8369 27.1347H37.1621C36.5778 27.1347 36.1053 26.6554 36.0984 26.0651C35.9964 17.2191 34.5604 8.97717 28.8003 8.97717Z" fill="#D1884F"/>
<path d="M40.0213 63.0013C26.9899 63.0013 12.6473 55.9548 12.6255 46.8324V46.875C12.6255 58.1683 22.2589 66.6796 40.0213 66.6796C57.7837 66.6796 67.4161 58.1683 67.4161 46.875V46.8324C67.3943 55.9538 53.0527 63.0013 40.0213 63.0013Z" fill="#FEDC90"/>
<path d="M32.7807 44.0306C32.7807 47.1106 31.3397 48.715 29.5619 48.715C27.7852 48.715 26.3442 47.1106 26.3442 44.0306C26.3442 40.9505 27.7852 39.3461 29.5629 39.3461C31.3397 39.3461 32.7807 40.9505 32.7807 44.0306ZM53.6974 44.0306C53.6974 47.1106 52.2564 48.715 50.4787 48.715C48.702 48.715 47.262 47.1106 47.262 44.0306C47.262 40.9505 48.702 39.3461 50.4797 39.3461C52.2564 39.3461 53.6984 40.9505 53.6984 44.0306H53.6974Z" fill="#633001"/>
</svg>
