<svg width="80" height="80" viewBox="0 0 80 80" fill="none" xmlns="http://www.w3.org/2000/svg">
<path fill-rule="evenodd" clip-rule="evenodd" d="M23.3513 42.9261C23.3513 52.0353 30.7486 59.4326 39.8578 59.4326C48.9671 59.4326 56.3644 52.0353 56.3644 42.905C56.3644 34.0494 41.1682 18.4094 40.513 17.7542L39.7099 16.951L38.9279 17.7753C38.2938 18.4305 23.3513 34.0705 23.3513 42.9261ZM32.9467 28.2159C35.6731 24.623 38.4207 21.5584 39.7311 20.1423C41.0626 21.5584 43.8736 24.6441 46.6423 28.2159C51.5667 34.5987 54.1664 39.6712 54.1664 42.9048C54.1664 50.7882 47.7413 57.2133 39.8579 57.2133C31.9745 57.2133 25.5494 50.7882 25.5494 42.9048C25.5494 39.6712 28.1068 34.5987 32.9467 28.2159Z" fill="url(#paint0_linear_26_25949)"/>
<path d="M39.8576 64.7165C27.8317 64.7165 18.0673 54.9309 18.0673 42.9262C18.0673 31.175 34.4681 14.7742 35.1656 14.0979C35.5883 13.6751 36.3069 13.6751 36.7296 14.0979C37.1523 14.5206 37.1523 15.2391 36.7296 15.6619C36.5605 15.8309 20.2864 32.105 20.2864 42.9262C20.2864 53.7262 29.0787 62.5184 39.8787 62.5184C50.6787 62.5184 59.4709 53.7262 59.4709 42.9262C59.4709 38.4878 56.5966 32.3586 51.1437 25.1515C46.959 19.6353 42.7531 15.4505 42.7108 15.4082C42.267 14.9855 42.267 14.2881 42.7108 13.8442C43.1335 13.4004 43.831 13.4004 44.2748 13.8442C44.9934 14.5417 61.6901 31.1539 61.6901 42.9262C61.6479 54.9309 51.8834 64.7165 39.8576 64.7165Z" fill="url(#paint1_linear_26_25949)"/>
<path d="M39.8579 70C25.2324 70 13.3333 58.1009 13.3333 43.4754C13.3333 37.4308 16.3768 29.9912 22.358 21.3892C26.7753 15.0487 31.108 10.5258 31.2982 10.3356C31.7209 9.89173 32.4183 9.89173 32.8622 10.3144C33.306 10.7371 33.306 11.4346 32.8833 11.8784C32.841 11.9207 28.4661 16.4859 24.1545 22.6785C18.5114 30.7732 15.5314 37.9592 15.5314 43.4754C15.5314 56.8751 26.4371 67.8019 39.8579 67.8019C53.2787 67.8019 64.1844 56.8962 64.1844 43.4754C64.1844 37.9592 61.1832 30.7732 55.4979 22.6785C51.1441 16.4859 46.7268 11.9207 46.6845 11.8784C46.2618 11.4346 46.2618 10.7371 46.7057 10.3144C47.1495 9.89173 47.847 9.89173 48.2697 10.3356C49.0094 11.0964 66.3825 29.1458 66.3825 43.4754C66.3825 58.1009 54.4834 70 39.8579 70Z" fill="url(#paint2_linear_26_25949)"/>
<defs>
<linearGradient id="paint0_linear_26_25949" x1="56.3644" y1="59.43" x2="56.3644" y2="16.9484" gradientUnits="userSpaceOnUse">
<stop stop-color="#05AAC5"/>
<stop offset="1" stop-color="#71E0EC"/>
</linearGradient>
<linearGradient id="paint1_linear_26_25949" x1="61.6901" y1="64.7139" x2="61.6901" y2="13.5088" gradientUnits="userSpaceOnUse">
<stop stop-color="#05AAC5"/>
<stop offset="1" stop-color="#71E0EC"/>
</linearGradient>
<linearGradient id="paint2_linear_26_25949" x1="66.3825" y1="69.9974" x2="66.3825" y2="9.99741" gradientUnits="userSpaceOnUse">
<stop stop-color="#05AAC5"/>
<stop offset="1" stop-color="#71E0EC"/>
</linearGradient>
</defs>
</svg>
