<svg width="80" height="80" viewBox="0 0 80 80" fill="none" xmlns="http://www.w3.org/2000/svg">
<path d="M40 73.3333C58.4095 73.3333 73.3333 58.4095 73.3333 40C73.3333 21.5905 58.4095 6.66663 40 6.66663C21.5905 6.66663 6.66666 21.5905 6.66666 40C6.66666 58.4095 21.5905 73.3333 40 73.3333Z" fill="#F00500"/>
<path d="M52.725 42.1292C52.7042 42.2458 52.3646 42.5917 52.0229 42.8458C51.0229 43.5771 49.2333 44.2583 47.4146 44.5854C46.3792 44.7729 45.3438 44.8021 45.0313 44.65C44.8292 44.5479 44.8 44.4688 44.8729 44.2084C45.025 43.6667 45.5188 43.0708 46.2854 42.5125C46.6771 42.2313 48.2646 41.2667 49.0021 40.8604C50.2188 40.1938 51.2042 39.7979 51.8708 39.7021C52.0813 39.6729 52.3354 39.6646 52.4125 39.7021C52.5458 39.7521 52.6896 40.1375 52.7458 40.6C52.7771 40.8458 52.7625 41.9333 52.725 42.1292ZM35.6563 44.5271C35.6146 44.6146 35.3958 44.7084 35.15 44.7438C34.9021 44.7813 34.15 44.7583 33.7229 44.7083C32.1854 44.5042 30.5563 44.0334 29.3688 43.4542C28.7021 43.1292 28.2229 42.8021 27.8688 42.4479L27.6646 42.2375L27.6438 41.9625C27.6063 41.4833 27.6146 40.7313 27.6729 40.4625C27.7106 40.2386 27.7867 40.023 27.8979 39.825C27.9542 39.7521 27.9542 39.7521 28.2167 39.7521C28.5354 39.7521 28.8021 39.8021 29.2375 39.9396C30.1292 40.2167 31.4542 40.8833 33.0708 41.8542C34.4042 42.65 34.9042 43.0417 35.2875 43.5771C35.5479 43.9104 35.7208 44.3813 35.6563 44.5271ZM45.9167 54.6125C45.9167 54.6334 45.8292 54.9813 45.7208 55.3938C45.651 55.6467 45.5857 55.9009 45.525 56.1563C45.4438 56.1625 45.3729 56.1708 45.2917 56.1625H45.0625L44.7417 56.9167C44.5688 57.3292 44.4083 57.7125 44.3875 57.7709L44.3438 57.8729L44.1917 57.625L44.0396 57.3792V55.3729L43.9813 55.3875C43.8563 55.4167 42.9813 55.5333 42.5979 55.5688C41.0128 55.7269 39.4144 55.6926 37.8375 55.4667C37.6789 55.4393 37.5189 55.4198 37.3583 55.4084C37.3521 55.4167 37.3583 55.8792 37.3729 56.4521L37.3938 57.4813L37.2729 57.6688C37.2063 57.7709 37.1417 57.8563 37.1417 57.8646C37.1208 57.8854 37.0479 57.7709 36.8813 57.4375C36.702 57.0878 36.5656 56.7178 36.475 56.3354L36.425 56.1271L36.2 56.1396L35.975 56.1625L35.9167 55.8938C35.8849 55.7308 35.8585 55.5668 35.8375 55.4021L35.8167 55.1708L35.6292 55.0042L35.3896 54.8C35.3521 54.7709 35.3375 54.7209 35.3375 54.6771V54.5896L36.2438 54.5979L37.15 54.6042L37.1771 54.6979L37.2063 54.7938L37.5188 54.8084L38.7354 54.8438L39.6417 54.8646L39.8729 54.5042L40.1125 54.1417H40.4167L40.4104 53.3875L40.4021 52.6333L40.0042 52.4604C38.7209 51.8959 37.9688 51.2521 37.6854 50.4688C37.6271 50.3083 37.6271 50.25 37.6125 49.5271C37.6063 48.8083 37.6063 48.7438 37.6563 48.5834C37.7052 48.4059 37.7998 48.2444 37.9307 48.115C38.0616 47.9856 38.2241 47.8928 38.4021 47.8459C38.5271 47.8084 38.8521 47.8083 40.5625 47.8083L42.575 47.8167L42.8 47.925C43.0168 48.0141 43.2044 48.1621 43.3417 48.3521C43.5167 48.5834 43.5688 48.7646 43.5688 49.2063C43.5688 49.8375 43.525 50.3813 43.4604 50.5979C43.3644 50.8959 43.2224 51.1771 43.0396 51.4313C42.6771 51.8958 42.0188 52.3584 41.4146 52.5688L41.2417 52.6333L41.25 53.3959L41.2563 54.1563L41.4167 54.1709L41.575 54.1854L41.7938 54.5104L42.0021 54.8375H42.975C43.5104 54.8375 43.9813 54.8438 44.025 54.85C44.0979 54.8667 44.1125 54.8584 44.1833 54.7354L44.2708 54.6042H45.1042C45.7292 54.575 45.9167 54.5896 45.9167 54.6125Z" fill="black"/>
<path d="M42.0896 56.6916C41.9521 56.7708 41.8584 56.8062 41.8375 56.7937C41.8167 56.7854 41.7125 56.6979 41.6042 56.6187L41.4084 56.4604L41.2063 56.677C40.7646 57.1562 40.7479 57.177 40.6188 57.1833C40.4167 57.2041 40.3729 57.1687 40.1271 56.7999C39.9959 56.6124 39.8959 56.452 39.8959 56.452C39.8959 56.452 39.8 56.4374 39.6917 56.4312L39.4896 56.4104L39.3959 56.6041L39.3 56.7999L39.1334 56.75C39.0027 56.7068 38.8747 56.656 38.75 56.5979L38.5334 56.4895V56.075L40.4604 56.0833L42.3875 56.0895L42.3938 56.2854C42.4021 56.5166 42.4084 56.5104 42.0896 56.6916Z" fill="black"/>
<path d="M60.2021 47.8538C60.1958 47.8225 60.1958 47.7704 60.1896 47.6934C58.1663 47.5018 56.1251 47.7124 54.1836 48.3131C52.2421 48.9138 50.4386 49.8927 48.8771 51.1934C48.8771 51.1934 47.3937 44.3809 40.4396 44.3809C33.4812 44.3809 30.9042 51.1934 30.9042 51.1934C27.0062 46.9975 21.7896 47.3017 19.9042 47.5767L19.8979 47.7142C19.8396 48.7642 19.8687 49.2642 20.0437 49.9225C20.5854 51.9892 22.2604 54.2642 24.8833 56.4954C29.1792 60.1475 35.0042 62.7829 39.4167 63.0892C44.0167 63.4017 50.8062 60.7121 55.3271 56.785C56.0354 56.1559 56.7021 55.4892 57.3271 54.7788C57.775 54.2579 58.4417 53.3579 58.3917 53.3579C58.3771 53.3579 58.3917 53.3434 58.4208 53.3288C58.4417 53.3142 58.4625 53.2934 58.45 53.2788C58.4417 53.2704 58.4562 53.2496 58.4792 53.2434C58.5 53.235 58.5146 53.2225 58.5083 53.2059C58.5 53.1913 58.5083 53.1767 58.5375 53.1704C58.5583 53.1621 58.5667 53.1413 58.5583 53.1267C58.55 53.1121 58.5583 53.0975 58.5729 53.0975C58.5875 53.0975 58.6021 53.0767 58.6021 53.0621C58.6021 53.0475 58.6167 53.0246 58.6312 53.0246C58.6458 53.0246 58.6604 53.01 58.6604 52.9954C58.6845 52.9361 58.716 52.8801 58.7542 52.8288C58.8625 52.6621 59.2958 51.8871 59.3562 51.7579C59.7687 50.8225 60.0292 49.9892 60.1521 49.1559C60.1958 48.7579 60.2312 48.0267 60.2021 47.8517V47.8538ZM42.0896 56.6913C41.9521 56.7704 41.8583 56.8059 41.8375 56.7934C41.8167 56.785 41.7125 56.6975 41.6042 56.6184L41.4083 56.46L41.2062 56.6767C40.7646 57.1559 40.7479 57.1767 40.6187 57.1829C40.4167 57.2038 40.3729 57.1684 40.1271 56.7996C39.9958 56.6121 39.8958 56.4517 39.8958 56.4517C39.8958 56.4517 39.8 56.4371 39.6917 56.4309L39.4896 56.41L39.3958 56.6038L39.3 56.7996L39.1333 56.7496C39.0027 56.7065 38.8747 56.6557 38.75 56.5975L38.5333 56.4892V56.0746L40.4604 56.0829L42.3875 56.0892L42.3937 56.285C42.4021 56.5163 42.4083 56.51 42.0896 56.6913ZM45.7146 55.3871C45.6448 55.6396 45.5788 55.8931 45.5167 56.1475C45.4375 56.1538 45.3646 56.1621 45.2854 56.1538H45.0542L44.7417 56.9163C44.5687 57.3288 44.4083 57.7121 44.3875 57.7704L44.3437 57.8725L44.1917 57.6246L44.0396 57.3788V55.3725L43.9812 55.3871C43.8562 55.4163 42.9812 55.5329 42.5979 55.5684C41.0128 55.7265 39.4144 55.6922 37.8375 55.4663C37.6788 55.439 37.5189 55.4195 37.3583 55.4079C37.3521 55.4163 37.3583 55.8788 37.3729 56.4517L37.3937 57.4809L37.2729 57.6684C37.2062 57.7704 37.1417 57.8559 37.1417 57.8642C37.1208 57.885 37.0479 57.7704 36.8812 57.4371C36.7021 57.0874 36.5657 56.7174 36.475 56.335L36.425 56.1267L36.2 56.1413L35.975 56.1621L35.9167 55.8934C35.8849 55.7304 35.8585 55.5664 35.8375 55.4017L35.8167 55.1704L35.6292 55.0038C35.5509 54.9339 35.471 54.8658 35.3896 54.7996C35.3521 54.7704 35.3375 54.7204 35.3375 54.6767V54.5892L36.2437 54.5975L37.15 54.6038L37.1771 54.6975L37.2062 54.7934L37.5187 54.8079L38.7354 54.8434L39.6417 54.8642L39.8729 54.5038L40.1125 54.1413H40.4167L40.4104 53.3871L40.4021 52.6329L40.0042 52.46C38.7208 51.8954 37.9687 51.2517 37.6854 50.4684C37.6271 50.3079 37.6271 50.2496 37.6125 49.5267C37.6062 48.8079 37.6062 48.7434 37.6562 48.5829C37.7052 48.4055 37.7998 48.244 37.9307 48.1146C38.0616 47.9852 38.2241 47.8924 38.4021 47.8454C38.5271 47.8079 38.8521 47.8079 40.5625 47.8079L42.575 47.8163L42.8 47.9246C43.0167 48.0138 43.2043 48.1617 43.3417 48.3517C43.5167 48.5829 43.5687 48.7642 43.5687 49.2059C43.5687 49.8371 43.525 50.3809 43.4604 50.5975C43.3644 50.8955 43.2224 51.1767 43.0396 51.4309C42.6771 51.8954 42.0187 52.3579 41.4146 52.5684L41.2417 52.6329L41.25 53.3954L41.2562 54.1559L41.4167 54.1704L41.575 54.185L41.7937 54.51L42.0021 54.8371H42.975C43.5104 54.8371 43.9812 54.8434 44.025 54.8496C44.0979 54.8663 44.1125 54.8579 44.1833 54.735L44.2708 54.6038H45.1042C45.75 54.6038 45.9375 54.6121 45.9375 54.6329C45.9167 54.6267 45.8208 54.9809 45.7125 55.3871H45.7146Z" fill="white"/>
<path d="M60.1458 47.1146C60.1311 46.778 60.1089 46.4418 60.0791 46.1062C59.7666 42.8167 58.927 40.1292 57.3333 37.2812C57.2736 37.1836 57.2207 37.082 57.1749 36.9771C57.1604 36.9562 57.1541 36.9354 57.1458 36.9208C57.3708 36.2458 58.2916 33.4271 59.0208 30.2042C60.0145 25.8292 60.6458 20.7125 58.7187 19.1771C58.7187 19.1771 55.3854 18.9312 50.9229 23.3062C49.7124 24.5146 48.6041 25.8271 47.6187 27.225L47.3062 27.125C45.513 26.5378 43.6534 26.1774 41.7708 26.0521C41.2062 26.0104 39.0979 26.0104 38.4104 26.0521C36.3312 26.1896 34.7354 26.5021 32.9249 27.1312C32.8583 27.1576 32.7909 27.1819 32.7229 27.2042C31.7016 25.8094 30.5597 24.5072 29.3104 23.3125C24.6645 18.9167 21.2083 19.1708 21.2083 19.1708C19.1666 20.7562 19.8624 26.1042 20.9166 30.625C21.4401 32.8432 22.0644 35.0365 22.7874 37.1979C22.7639 37.2521 22.7375 37.3049 22.7083 37.3562C21.0208 40.7771 20.1062 44.0729 19.8895 47.5792C21.7791 47.3042 26.9895 46.9917 30.8937 51.1937C30.8937 51.1937 33.4729 44.3833 40.4291 44.3833C47.3833 44.3833 48.8687 51.1958 48.8687 51.1958C50.431 49.8971 52.2343 48.9194 54.1751 48.3188C56.116 47.7182 58.1563 47.5065 60.1791 47.6958L60.1437 47.1146H60.1458ZM24.1583 34.4646C24.1583 34.4646 21.4499 27.6896 22.1437 23.8187C22.2604 23.1687 22.477 22.5958 22.8187 22.1625C22.8187 22.1625 25.8895 22.4667 30.8458 27.9729C30.8458 27.9729 29.9041 28.4292 28.6437 29.4C28.6437 29.4 28.6354 29.4062 28.6291 29.4062C26.8232 30.7847 25.3044 32.503 24.1583 34.4646ZM35.6583 44.5271C35.6124 44.6146 35.3958 44.7083 35.1499 44.7437C34.902 44.7812 34.1499 44.7583 33.7229 44.7083C32.1854 44.5042 30.5562 44.0333 29.3687 43.4542C28.702 43.1292 28.2229 42.8021 27.8687 42.4479L27.6645 42.2375L27.6437 41.9625C27.6062 41.4833 27.6145 40.7312 27.6729 40.4625C27.7105 40.2386 27.7866 40.0229 27.8979 39.825C27.9541 39.7521 27.9541 39.7521 28.2166 39.7521C28.5354 39.7521 28.802 39.8021 29.2374 39.9396C30.1291 40.2167 31.4541 40.8833 33.0708 41.8542C34.4041 42.65 34.9041 43.0417 35.2874 43.5771C35.5479 43.9104 35.7208 44.3812 35.6562 44.5271H35.6583ZM52.7249 42.1292C52.7041 42.2458 52.3645 42.5917 52.0229 42.8458C51.0229 43.5771 49.2333 44.2583 47.4145 44.5854C46.3791 44.7729 45.3437 44.8021 45.0312 44.65C44.8291 44.5479 44.7999 44.4687 44.8729 44.2083C45.0249 43.6667 45.5187 43.0708 46.2854 42.5125C46.677 42.2292 48.2645 41.2667 49.002 40.8604C50.2187 40.1937 51.2041 39.7979 51.8708 39.7021C52.0812 39.6729 52.3354 39.6646 52.4145 39.7021C52.5458 39.7521 52.6895 40.1375 52.7479 40.6C52.777 40.8458 52.7624 41.9333 52.727 42.1292H52.7249ZM51.5229 29.4L51.5083 29.3917C50.8454 28.8496 50.1325 28.3717 49.3791 27.9646C54.1687 22.4583 57.1291 22.1542 57.1291 22.1542C57.4562 22.5958 57.6666 23.1604 57.7833 23.8125C58.4562 27.6812 55.8416 34.4625 55.8416 34.4625C54.7441 32.5108 53.2772 30.7914 51.5229 29.4Z" fill="#FFA409"/>
<path d="M57.7917 23.8125C57.225 23.7417 54.5521 23.7271 51.5229 29.4L51.5083 29.3917C50.8455 28.8496 50.1325 28.3717 49.3792 27.9646C54.1688 22.4583 57.1292 22.1542 57.1292 22.1542C57.4625 22.5958 57.675 23.1604 57.7896 23.8125H57.7917Z" fill="#FF9300"/>
<path d="M55.8479 34.4641C54.7502 32.5101 53.281 30.7896 51.5229 29.3995C54.5521 23.7266 57.2187 23.7412 57.7896 23.812C58.4646 27.6891 55.8479 34.4641 55.8479 34.4641ZM57.8979 23.8329L57.7896 23.812L57.8979 23.8329Z" fill="#FF8300"/>
<path d="M30.8459 27.9646C30.8459 27.9646 29.9042 28.4229 28.6438 29.3917C28.6438 29.3917 28.6355 29.4 28.6292 29.4C25.4917 23.7188 22.7292 23.7417 22.1375 23.8125C22.2521 23.1604 22.4709 22.5896 22.8105 22.1542C22.8188 22.1542 25.8896 22.4583 30.8459 27.9667V27.9646Z" fill="#FF9300"/>
<path d="M28.6354 29.3995C26.826 30.7776 25.3048 32.4976 24.1584 34.462C24.1584 34.462 21.45 27.6891 22.1438 23.812C22.7313 23.7412 25.4979 23.7266 28.6354 29.3995Z" fill="#FF8300"/>
<path d="M22.1459 23.8125L22.0292 23.8333L22.1438 23.8125H22.1459Z" fill="#FF8300"/>
<path d="M48.5166 38.2246C48.5166 38.2246 46.1979 38.3683 46.4875 36.5579C46.7791 34.7454 48.5896 34.5287 49.0958 34.5996C49.6041 34.6725 51.6312 35.3975 51.2708 36.9204C50.9083 38.4412 50.4 38.1496 50.1104 38.2246C49.8208 38.2954 48.5166 38.2246 48.5166 38.2246ZM31.4166 38.2246C31.4166 38.2246 29.1 38.3683 29.3896 36.5579C29.6812 34.7454 31.4896 34.5287 31.9979 34.5996C32.5041 34.6725 34.5333 35.3975 34.1708 36.9204C33.8083 38.4412 33.3021 38.1496 33.0125 38.2246C32.7208 38.2954 31.4187 38.2246 31.4187 38.2246H31.4166Z" fill="white"/>
</svg>
