<svg width="80" height="80" viewBox="0 0 80 80" fill="none" xmlns="http://www.w3.org/2000/svg">
<path d="M20.4227 13.5198L72.2108 48.8805L59.403 67.8138L7.61489 32.1746L20.4227 13.5198Z" fill="url(#paint0_linear_26_25937)"/>
<path d="M72.2108 48.8803C67.7559 55.2842 52.7207 52.7783 38.5207 42.7548C24.0423 33.0098 16.2462 19.9235 20.4227 13.5196C24.8776 7.1157 39.9128 9.62158 54.1128 19.6451C68.5912 29.1117 76.3873 42.4764 72.2108 48.8803Z" fill="url(#paint1_linear_26_25937)"/>
<path d="M59.403 67.5351C54.9481 73.939 39.9129 71.4331 25.7129 61.4096C11.5129 51.3861 3.43843 38.5783 7.89332 31.8959C12.3482 25.492 27.3835 27.9979 41.5834 38.0214C55.7834 48.0449 63.5795 61.1312 59.403 67.5351Z" fill="url(#paint2_linear_26_25937)"/>
<path d="M72.2108 48.8804L59.403 67.8137C54.9481 74.2176 39.9128 71.4333 25.7129 61.6882C22.9286 59.7392 20.4227 57.7902 17.9168 55.5627C19.8658 55.2843 22.3717 54.1706 24.8776 51.3863C29.3325 46.653 31.5599 45.5392 33.5089 45.8177C35.4579 45.8177 37.6854 47.7667 41.305 52.5C44.9246 57.2333 49.9363 58.6255 52.9991 56.1196C53.2775 55.8412 53.5559 55.8412 53.8344 55.5627C56.3403 53.6137 57.1755 52.7784 61.9089 43.8687C63.0226 41.6412 66.9206 38.0216 72.2108 39.6922C73.603 43.3118 73.603 46.3745 72.2108 48.8804Z" fill="#0E0F23"/>
<path fill-rule="evenodd" clip-rule="evenodd" d="M70.2618 47.7667C66.3638 53.3353 52.7207 50.551 39.6344 41.3628C26.2697 32.1746 18.4737 20.4805 22.3717 14.9118C26.2697 9.34323 39.9129 12.1275 52.9991 21.3158C66.0853 30.504 73.8814 42.1981 70.2618 47.7667ZM58.0108 39.4138C56.0618 42.1981 49.3795 40.8059 42.6972 36.351C36.2932 31.8961 32.3952 26.0491 34.3442 23.2648C36.2932 20.4805 42.9756 21.8726 49.6579 26.3275C56.0618 30.7824 59.9599 36.6294 58.0108 39.4138Z" fill="white"/>
<path d="M19.309 19.9237C19.309 19.6452 19.0305 19.3668 18.7521 19.6452C18.4737 19.9237 18.1952 19.9237 18.1952 20.2021C18.4737 21.0374 18.7521 21.5943 18.7521 22.1511C18.7521 22.4295 19.0305 22.708 19.309 22.4295C19.5874 22.4295 19.8658 22.1511 19.5874 21.8727C19.5874 21.3158 19.5874 20.759 19.309 19.9237Z" fill="white"/>
<path d="M20.7011 24.3784C20.7011 24.0999 20.4227 23.8215 20.1443 24.0999C19.8658 24.3784 19.8658 24.3784 19.8658 24.6568C22.9286 31.6176 29.3325 39.1352 37.6854 44.7038C37.9638 44.9823 38.2423 44.7038 38.5207 44.7038C38.7991 44.4254 38.5207 44.147 38.5207 43.8685C29.8893 38.2999 23.7639 31.0607 20.7011 24.3784Z" fill="white"/>
<path d="M54.3913 51.6648C54.1128 51.6648 53.8344 51.6648 53.8344 51.9432C53.8344 52.2217 53.8344 52.5001 54.1128 52.5001C54.9481 52.7785 56.0618 53.0569 56.8971 53.3354C57.1756 53.3354 57.454 53.3354 57.454 53.0569C57.454 52.7785 57.454 52.5001 57.1756 52.5001C56.3403 52.2217 55.2265 51.9432 54.3913 51.6648Z" fill="white"/>
<path d="M59.403 52.7783C59.1246 52.7783 58.8462 53.0568 58.8462 53.3352C58.8462 53.6136 59.1246 53.892 59.403 53.892C61.6305 54.1705 64.1363 54.4489 66.0854 54.1705C66.3638 54.1705 66.6422 53.892 66.6422 53.6136C66.6422 53.3352 66.3638 53.0568 66.0854 53.0568C63.8579 53.3352 61.6305 53.0568 59.403 52.7783Z" fill="white"/>
<defs>
<linearGradient id="paint0_linear_26_25937" x1="30.5693" y1="8.49215" x2="40.8395" y2="43.7587" gradientUnits="userSpaceOnUse">
<stop stop-color="#03B8FF"/>
<stop offset="1" stop-color="#FA52A0"/>
</linearGradient>
<linearGradient id="paint1_linear_26_25937" x1="39.0269" y1="6.0287" x2="49.2974" y2="41.2956" gradientUnits="userSpaceOnUse">
<stop stop-color="#03B8FF"/>
<stop offset="1" stop-color="#FA52A0"/>
</linearGradient>
<linearGradient id="paint2_linear_26_25937" x1="22.1378" y1="10.9471" x2="32.4083" y2="46.214" gradientUnits="userSpaceOnUse">
<stop stop-color="#03B8FF"/>
<stop offset="1" stop-color="#FA52A0"/>
</linearGradient>
</defs>
</svg>
