<svg width="26" height="22" viewBox="0 0 26 22" fill="none" xmlns="http://www.w3.org/2000/svg">
<path d="M22.3967 2.34321C20.1469 0.352623 16.5878 0.0151944 16.4355 0.00305617C16.1992 -0.0187916 15.974 0.126862 15.8769 0.367189C15.868 0.381754 15.7908 0.578385 15.7047 0.884256C17.1928 1.161 19.0209 1.7169 20.6746 2.84571C20.9395 3.02535 21.0212 3.40891 20.8578 3.70021C20.7497 3.89199 20.5664 3.99637 20.3765 3.99637C20.275 3.99637 20.1712 3.96481 20.0785 3.9017C17.2347 1.96209 13.6844 1.86499 13 1.86499C12.3156 1.86499 8.76308 1.96209 5.92154 3.9017C5.65659 4.08376 5.30774 3.99394 5.14436 3.70264C4.97877 3.40891 5.06046 3.02778 5.32541 2.84571C6.97911 1.71933 8.80723 1.161 10.2953 0.886684C10.2092 0.578386 10.132 0.384182 10.1253 0.367189C10.026 0.126862 9.80299 -0.0236464 9.56454 0.00305617C9.41219 0.0151944 5.85309 0.352623 3.57235 2.36992C2.3823 3.58126 0 10.66 0 16.7798C0 16.8891 0.0264946 16.9935 0.0750682 17.0881C1.71773 20.2634 6.20194 21.0936 7.22418 21.13C7.2286 21.13 7.23522 21.13 7.24185 21.13C7.42289 21.13 7.5929 21.0353 7.69888 20.8751L8.73217 19.3118C5.94361 18.5204 4.51953 17.1755 4.43784 17.0954C4.2038 16.8697 4.18173 16.4764 4.38927 16.2191C4.5946 15.9618 4.95228 15.9375 5.18631 16.1632C5.21943 16.1972 7.84239 18.6442 13 18.6442C18.1664 18.6442 20.7894 16.1875 20.8159 16.1632C21.0499 15.9399 21.4054 15.9618 21.6129 16.2215C21.8183 16.4788 21.7962 16.8697 21.5622 17.0954C21.4805 17.1755 20.0564 18.5204 17.2678 19.3118L18.3011 20.8751C18.4071 21.0353 18.5771 21.13 18.7582 21.13C18.7648 21.13 18.7714 21.13 18.7758 21.13C19.7981 21.0936 24.2823 20.2634 25.9249 17.0881C25.9735 16.9935 26 16.8891 26 16.7798C26 10.66 23.6177 3.58126 22.3967 2.34321ZM9.32609 14.294C8.23319 14.294 7.34783 13.1822 7.34783 11.8082C7.34783 10.4342 8.23319 9.32241 9.32609 9.32241C10.419 9.32241 11.3043 10.4342 11.3043 11.8082C11.3043 13.1822 10.419 14.294 9.32609 14.294ZM16.6739 14.294C15.581 14.294 14.6957 13.1822 14.6957 11.8082C14.6957 10.4342 15.581 9.32241 16.6739 9.32241C17.7668 9.32241 18.6522 10.4342 18.6522 11.8082C18.6522 13.1822 17.7668 14.294 16.6739 14.294Z" fill="#D6BBFB"/>
</svg>
