<svg width="26" height="24" viewBox="0 0 26 24" fill="none" xmlns="http://www.w3.org/2000/svg">
<path d="M7.58333 0C3.40234 0 0 3.14062 0 7V17C0 20.8594 3.40234 24 7.58333 24H18.4167C22.5977 24 26 20.8594 26 17V7C26 3.14062 22.5977 0 18.4167 0H7.58333ZM20.5833 4C21.18 4 21.6667 4.44922 21.6667 5C21.6667 5.55078 21.18 6 20.5833 6C19.9867 6 19.5 5.55078 19.5 5C19.5 4.44922 19.9867 4 20.5833 4ZM13 6C16.5843 6 19.5 8.69141 19.5 12C19.5 15.3086 16.5843 18 13 18C9.41569 18 6.5 15.3086 6.5 12C6.5 8.69141 9.41569 6 13 6ZM13 8C10.6048 8 8.66667 9.78906 8.66667 12C8.66667 14.2109 10.6048 16 13 16C15.3952 16 17.3333 14.2109 17.3333 12C17.3333 9.78906 15.3952 8 13 8Z" fill="#D6BBFB"/>
</svg>
