<svg width="26" height="23" viewBox="0 0 26 23" fill="none" xmlns="http://www.w3.org/2000/svg">
<path d="M14.3265 4.60364C9.33878 6.65688 4.13878 8.81819 2.65306 9.46659L0 10.7634L3.71429 12.0602C6.89796 13.1408 7.85306 13.1408 10.0816 11.5198C11.5673 10.5472 14.6449 8.60206 16.9796 7.30528C21.2245 4.92783 21.2245 4.92783 15.6 10.115C11.3551 14.1134 10.0816 16.0586 10.0816 18.436C10.0816 21.4619 10.1878 21.5699 12.098 19.6247C14.1143 17.8957 14.3265 17.8957 17.5102 20.1651C19.3143 21.4619 21.1184 22.3264 21.3306 22.0022C21.9673 21.3538 25.8939 4.27944 26 2.01006C26 0.172951 24.5143 0.497147 14.3265 4.60364Z" fill="#D6BBFB"/>
</svg>
