<svg width="26" height="22" viewBox="0 0 26 22" fill="none" xmlns="http://www.w3.org/2000/svg">
<path d="M26.001 2.501C25.044 2.926 24.016 3.212 22.937 3.341C24.039 2.681 24.884 1.636 25.282 0.39C24.252 1.001 23.11 1.445 21.894 1.685C20.921 0.648 19.535 0 18.001 0C15.055 0 12.667 2.389 12.667 5.334C12.667 5.752 12.715 6.16 12.805 6.549C8.372 6.327 4.442 4.203 1.81 0.975C1.352 1.763 1.089 2.679 1.089 3.658C1.089 5.508 2.03 7.141 3.461 8.097C2.587 8.069 1.764 7.829 1.045 7.43C1.045 7.453 1.045 7.474 1.045 7.497C1.045 10.082 2.883 12.238 5.324 12.727C4.877 12.849 4.405 12.914 3.918 12.914C3.575 12.914 3.24 12.88 2.915 12.819C3.594 14.938 5.564 16.481 7.898 16.524C6.073 17.955 3.773 18.808 1.273 18.808C0.843 18.808 0.418 18.783 0 18.733C2.361 20.246 5.164 21.129 8.177 21.129C17.989 21.129 23.353 13.001 23.353 5.952C23.353 5.721 23.348 5.491 23.338 5.262C24.381 4.509 25.286 3.57 26.001 2.501Z" fill="#D6BBFB"/>
</svg>
