<svg width="18" height="24" viewBox="0 0 18 24" fill="none" xmlns="http://www.w3.org/2000/svg">
<path d="M14.7703 10.0969C15.3188 8.56875 16.8985 4.14844 16.8985 2.73281C16.8985 1.48594 16.1625 0.440625 14.85 0.440625C12.7594 0.440625 10.8844 6.61406 10.2985 8.08594C9.84377 6.75 7.71564 0 5.84064 0C4.38283 0 3.69846 1.07344 3.69846 2.42344C3.69846 4.07812 5.30158 8.36719 5.88283 10.0172C5.58752 9.90938 5.26877 9.81562 4.94533 9.81562C3.84845 9.81562 2.68127 11.1797 2.68127 12.2812C2.68127 12.6984 2.91095 13.2844 3.05627 13.6734C1.32658 14.1422 0.660955 15.2953 0.660955 17.0344C0.656267 20.4187 3.86252 24 8.37189 24C13.9031 24 17.3438 19.8469 17.3438 14.4891C17.3438 12.4688 17.0203 10.6453 14.7703 10.0969ZM13.111 5.0625C13.2985 4.48594 14.1 2.04844 14.85 2.04844C15.2531 2.04844 15.361 2.46563 15.361 2.79844C15.361 3.69375 13.5516 8.63906 13.1531 9.73594L11.5594 9.45469L13.111 5.0625ZM5.17033 2.26406C5.17033 1.70625 5.85002 0.121875 7.34064 4.47188L8.96252 9.17344C8.23127 9.1125 7.66408 9.03281 7.30314 9.23906C6.79221 7.88906 5.17033 3.62812 5.17033 2.26406ZM5.06252 11.4375C6.43596 11.4375 8.20783 15.8719 8.20783 16.4719C8.20783 16.7109 7.97814 17.0062 7.71096 17.0062C6.73127 17.0062 4.10627 13.4016 4.10627 12.4266C4.11095 12.0656 4.70158 11.4375 5.06252 11.4375ZM13.7016 20.1703C12.3375 21.6703 10.5938 22.4484 8.55939 22.4484C5.77502 22.4484 3.57658 20.9203 2.5172 18.3094C1.71564 16.275 2.69533 15.1078 3.48283 15.1078C4.01721 15.1078 6.02814 17.9344 6.02814 18.5344C6.02814 18.7641 5.6672 18.9234 5.4797 18.9234C4.72502 18.9234 4.42971 18.1969 3.08439 16.5141C1.69221 17.9062 4.04533 20.5875 5.81721 20.5875C7.04064 20.5875 7.83752 19.4531 7.59846 18.6188C7.77189 18.6188 7.98752 18.6328 8.14689 18.5906C8.19846 19.8609 8.57346 21.375 10.1016 21.4828C10.1016 21.4406 10.1953 21.15 10.1953 21.1359C10.1953 20.3203 9.69846 19.6078 9.69846 18.7781C9.69846 17.4516 10.7156 16.1672 11.7469 15.4172C12.1219 15.1359 12.5766 14.9625 13.0172 14.8031C13.4719 14.6297 13.9547 14.4281 14.3016 14.0812C14.25 13.5562 14.0344 13.0922 13.5094 13.0922C12.211 13.0922 7.85627 13.2797 7.85627 11.2313C7.85627 10.9172 7.86096 10.6172 8.67189 10.6172C10.186 10.6172 14.0297 10.9922 15.1547 11.9813C16.0031 12.7359 16.2938 17.2875 13.7016 20.1703ZM9.07971 14.2641C9.53439 14.4094 10.0031 14.4516 10.4719 14.5453C10.125 14.7984 9.81564 15.1078 9.52033 15.4406C9.38908 15.0422 9.22971 14.6531 9.07971 14.2641Z" fill="#D6BBFB"/>
</svg>
