<svg width="26" height="22" viewBox="0 0 26 22" fill="none" xmlns="http://www.w3.org/2000/svg">
<path d="M25.2742 3.63172C25.0339 2.17955 23.8887 1.12202 22.5597 0.791859C20.571 0.330156 16.8903 0 12.9081 0C8.92822 0 5.18869 0.330156 3.19757 0.791859C1.87094 1.12202 0.723401 2.11248 0.483052 3.63172C0.240348 5.2825 0 7.59359 0 10.565C0 13.5364 0.240348 15.8475 0.541961 17.4983C0.784665 18.9505 1.92985 20.008 3.25648 20.3381C5.36777 20.7998 8.98713 21.13 12.9694 21.13C16.9516 21.13 20.571 20.7998 22.6823 20.3381C24.0089 20.008 25.1541 19.0175 25.3968 17.4983C25.6371 15.8475 25.9387 13.4693 26 10.565C25.8775 7.59359 25.5759 5.2825 25.2742 3.63172ZM9.65162 15.1872V5.94281L17.0105 10.565L9.65162 15.1872Z" fill="#D6BBFB"/>
</svg>
