<svg width="437" height="381" viewBox="0 0 437 381" fill="none" xmlns="http://www.w3.org/2000/svg">
<rect y="0.627441" width="436.887" height="380.371" rx="12" fill="#F2EBF0"/>
<g clip-path="url(#clip0_19_40)">
<path d="M125.095 192.021L132.702 211.426H127.967L124.163 199.502L125.095 192.021Z" fill="#E0E0E0"/>
<path d="M99.2444 174.018L96.605 211.27L123.542 211.894L126.57 174.018H99.2444Z" fill="#EBEBEB"/>
<path d="M101.884 177.058L99.7101 208.075L119.738 209.01L122.533 176.824L101.884 177.058Z" fill="#FAFAFA"/>
<path d="M106.309 181.422L104.678 203.243H115.702L117.642 181.422H106.309Z" fill="#E0E0E0"/>
<path d="M278.8 98.1887C277.791 96.3962 277.014 94.4479 276.549 92.4995L271.037 91.1747L271.114 81.7447L276.704 80.5757C277.247 78.6274 278.023 76.679 279.11 74.8865L276.16 70.0547L282.914 63.4303L287.649 66.5476C289.435 65.5345 291.376 64.7552 293.316 64.2876L294.636 58.7543L304.029 58.8322L305.194 64.4434C307.134 64.989 309.075 65.7683 310.86 66.8594L315.673 63.8979L322.272 70.6781L319.167 75.4321C320.176 77.2245 320.952 79.1729 321.418 81.1212L326.93 82.4461L326.852 91.8761L321.263 92.9671C320.719 94.9155 319.943 96.8638 318.856 98.6563L321.806 103.488L315.052 110.113L310.317 106.995C308.532 108.008 306.591 108.788 304.65 109.255L303.33 114.789L293.937 114.711L292.773 109.099C290.832 108.554 288.891 107.775 287.106 106.683L282.293 109.645L275.695 102.865L278.8 98.1887ZM291.453 93.5127C295.335 97.4873 301.7 97.5652 305.737 93.6685C309.696 89.7719 309.774 83.3813 305.892 79.3288C302.011 75.3541 295.645 75.2762 291.608 79.1729C287.649 83.0696 287.572 89.5381 291.453 93.5127Z" fill="white"/>
<path d="M291.453 93.5127C291.453 93.5127 290.755 92.9672 289.901 91.5644C289.047 90.2395 288.115 87.8235 288.503 84.94C288.736 83.4593 289.202 81.9006 290.211 80.4978C291.22 79.095 292.618 77.7701 294.403 76.9908C295.257 76.6011 296.266 76.2894 297.275 76.1335C298.285 75.9776 299.371 75.9776 300.381 76.1335C302.477 76.4452 304.495 77.5363 306.125 79.095C307.678 80.7316 308.687 82.8358 308.92 84.94C309.075 85.9531 309.075 87.0442 308.92 88.0573C308.764 89.0705 308.454 90.0057 307.988 90.9409C307.134 92.7334 305.815 94.0582 304.417 95.0714C303.02 96.0066 301.39 96.5521 299.992 96.708C297.043 97.0197 294.714 96.0845 293.394 95.1493C291.997 94.2141 291.453 93.5127 291.453 93.5127C291.531 93.4348 292.074 94.1362 293.472 94.9934C294.791 95.7728 297.043 96.6301 299.915 96.3183C301.312 96.1624 302.787 95.6169 304.184 94.6817C305.504 93.7465 306.824 92.4216 307.522 90.7071C307.911 89.8498 308.221 88.9925 308.376 87.9794C308.532 87.0442 308.532 86.0311 308.376 85.0179C308.143 82.9917 307.134 81.0433 305.659 79.5626C304.184 78.0818 302.244 77.0687 300.225 76.757C299.216 76.6011 298.207 76.6011 297.275 76.679C296.344 76.8349 295.412 77.0687 294.558 77.4584C292.851 78.1598 291.531 79.4067 290.522 80.7316C289.59 82.0565 289.047 83.5372 288.814 84.94C288.348 87.7456 289.202 90.0836 289.978 91.4085C290.832 92.8113 291.531 93.4348 291.453 93.5127Z" fill="#E0E0E0"/>
<path d="M278.8 98.1887C278.8 98.1887 278.722 98.2667 278.645 98.5005C278.489 98.7343 278.334 99.046 278.101 99.4357C277.558 100.293 276.781 101.462 275.85 103.021V102.943C277.558 104.657 279.731 106.917 282.448 109.645H282.293C283.768 108.71 285.398 107.697 287.106 106.606L287.184 106.528L287.261 106.606C288.892 107.619 290.755 108.398 292.851 109.021H292.928V109.099C293.316 110.814 293.704 112.684 294.17 114.633L293.937 114.477C296.887 114.477 300.07 114.555 303.33 114.555L303.098 114.711C303.486 112.996 303.951 111.126 304.417 109.177V109.021H304.573C306.436 108.554 308.376 107.775 310.162 106.761L310.317 106.683L310.472 106.761C311.947 107.697 313.577 108.788 315.208 109.879H314.897C316.993 107.775 319.244 105.592 321.573 103.254L321.496 103.566C320.564 102.085 319.555 100.371 318.546 98.7343L318.468 98.5784L318.546 98.4225C319.555 96.7859 320.331 94.8376 320.952 92.8113L321.03 92.6554H321.185C322.893 92.2658 324.834 91.8761 326.774 91.4864L326.541 91.7982C326.541 88.8367 326.619 85.6414 326.619 82.3682L326.852 82.6799C325.144 82.2903 323.203 81.8227 321.34 81.355L321.185 81.2771L321.107 81.1213C320.642 79.2508 319.865 77.3025 318.856 75.51L318.779 75.3542L318.856 75.1983C319.865 73.5617 320.952 72.003 321.961 70.4443V70.834C319.71 68.5739 317.537 66.3139 315.363 64.0538L315.751 64.1317C314.121 65.1449 312.491 66.158 310.938 67.0932L310.783 67.1711L310.628 67.0932C308.842 66.0021 306.979 65.2228 305.038 64.6773L304.883 64.5993V64.4435C304.495 62.573 304.107 60.7026 303.719 58.8322L303.951 59.066C300.769 58.9881 297.586 58.9881 294.558 58.9102L294.791 58.6764C294.326 60.5468 293.937 62.4172 293.472 64.2096V64.3655H293.316C291.298 64.8331 289.435 65.6125 287.727 66.6256L287.572 66.7035L287.417 66.6256C285.786 65.5345 284.234 64.5214 282.681 63.5082H282.992C280.585 65.8463 278.412 68.0284 276.238 70.0547V69.7429C277.247 71.4575 278.256 73.0941 279.188 74.5748L279.266 74.6528L279.188 74.7307C278.101 76.6011 277.325 78.4715 276.781 80.3419V80.4198H276.704C274.685 80.8095 272.9 81.1992 271.114 81.5889L271.27 81.433C271.192 85.0959 271.192 88.2132 271.114 90.863L271.037 90.7071C273.21 91.2526 275.074 91.7202 276.549 92.032H276.626V92.1099C277.092 94.1362 277.713 95.539 278.179 96.4742C278.412 96.9418 278.567 97.2535 278.645 97.4873C278.8 98.0329 278.8 98.1887 278.8 98.1887C278.8 98.1887 278.722 98.1108 278.567 97.877C278.412 97.6432 278.256 97.3314 278.023 96.8638C277.558 95.9286 276.937 94.5258 276.393 92.4996L276.471 92.5775C274.996 92.1878 273.133 91.7982 270.959 91.2526H270.882V91.1747C270.882 88.5249 270.959 85.4076 270.959 81.7447V81.5889H271.114C272.822 81.1992 274.608 80.8095 276.626 80.3419L276.471 80.4978C277.014 78.6274 277.791 76.679 278.877 74.8086V75.0424C277.946 73.4838 276.937 71.9251 275.927 70.2105L275.85 70.0547L276.005 69.8988C278.101 67.7946 280.352 65.6125 282.681 63.2744L282.836 63.1186L282.992 63.1965C284.544 64.2096 286.097 65.2228 287.727 66.3139H287.494C289.28 65.3007 291.22 64.5214 293.239 63.9758L293.083 64.1317C293.549 62.3392 293.937 60.4688 294.403 58.5984L294.481 58.3646H294.714C297.741 58.3646 300.924 58.4426 304.107 58.4426H304.34L304.417 58.6764C304.805 60.5468 305.194 62.3392 305.582 64.2876L305.349 64.0538C307.29 64.5993 309.23 65.4566 311.016 66.4697H310.705C312.335 65.4566 313.888 64.5214 315.518 63.5082L315.751 63.3524L315.906 63.5082C318.08 65.6904 320.254 67.9505 322.505 70.2885L322.66 70.4443L322.505 70.6002C321.496 72.1589 320.486 73.7955 319.4 75.3542V75.0424C320.486 76.9128 321.185 78.8612 321.728 80.8095L321.496 80.5757C323.359 81.0433 325.299 81.5109 327.007 81.9006L327.24 81.9785V82.2123C327.163 85.4855 327.162 88.6808 327.162 91.6423V91.8761L326.93 91.954C324.989 92.3437 323.126 92.7334 321.34 93.123L321.573 92.8892C321.03 94.9934 320.098 96.9418 319.167 98.5784V98.2667C320.176 99.9812 321.185 101.618 322.117 103.099L322.194 103.254L322.039 103.41C319.71 105.67 317.459 107.93 315.285 109.957L315.13 110.113L314.975 110.035C313.345 108.944 311.714 107.93 310.239 106.917H310.472C308.609 108.008 306.591 108.71 304.728 109.177L304.883 109.021C304.417 110.97 303.951 112.84 303.563 114.555L303.486 114.711H303.33C300.07 114.633 296.887 114.633 293.937 114.555H293.782V114.399C293.394 112.451 293.006 110.58 292.618 108.788L292.773 108.944C290.677 108.32 288.736 107.463 287.106 106.528H287.261C285.476 107.619 283.846 108.554 282.448 109.489L282.371 109.567L282.293 109.489C279.654 106.761 277.402 104.423 275.772 102.709L275.695 102.631L275.772 102.553C276.781 100.994 277.558 99.8253 278.101 99.046C278.334 98.6563 278.567 98.3446 278.722 98.1108C278.722 98.2667 278.8 98.1887 278.8 98.1887Z" fill="#E0E0E0"/>
<path d="M262.187 39.5826C261.566 38.4916 261.1 37.3226 260.79 36.1536L257.452 35.3742L257.529 29.763L260.867 29.0616C261.178 27.8926 261.644 26.7236 262.342 25.7105L260.557 22.8269L264.594 18.8523L267.466 20.7227C268.553 20.0992 269.717 19.6316 270.882 19.3199L271.658 15.9688L277.247 16.0467L277.946 19.3978C279.11 19.7096 280.275 20.1772 281.284 20.8786L284.156 19.0861L288.115 23.1386L286.33 25.9443C286.951 27.0353 287.417 28.2043 287.727 29.3733L291.065 30.1527L290.987 35.7639L287.649 36.4653C287.339 37.6343 286.873 38.8033 286.174 39.8164L287.96 42.7L283.923 46.6746L281.051 44.8042C279.964 45.4277 278.8 45.8953 277.635 46.207L276.859 49.5582L271.27 49.4802L270.571 46.1291C269.407 45.8173 268.242 45.3497 267.233 44.6483L264.361 46.4408L260.402 42.3883L262.187 39.5826ZM269.717 36.855C272.046 39.2709 275.85 39.2709 278.256 36.9329C280.663 34.5949 280.663 30.7761 278.334 28.3602C276.005 25.9443 272.201 25.9443 269.795 28.2823C267.466 30.6203 267.388 34.439 269.717 36.855Z" fill="#F5F5F5"/>
<path d="M269.717 36.855C269.717 36.855 269.251 36.5432 268.786 35.686C268.32 34.9066 267.699 33.5038 268.009 31.7113C268.165 30.8541 268.475 29.9189 269.019 29.0616C269.64 28.2043 270.416 27.425 271.503 26.9574C272.046 26.7236 272.589 26.5677 273.21 26.4898C273.831 26.4119 274.453 26.4119 275.074 26.4898C276.316 26.6457 277.558 27.3471 278.489 28.2823C279.421 29.2954 280.042 30.4644 280.197 31.7893C280.275 32.4127 280.275 33.0362 280.197 33.6597C280.119 34.2831 279.887 34.8287 279.654 35.3742C279.188 36.4653 278.334 37.2446 277.48 37.8681C276.626 38.4136 275.695 38.7254 274.841 38.8033C273.055 39.0371 271.658 38.4136 270.882 37.8681C270.028 37.2446 269.717 36.855 269.717 36.855C269.717 36.855 270.105 37.2446 270.882 37.7122C271.658 38.1798 273.055 38.7254 274.685 38.4916C275.539 38.4136 276.393 38.1019 277.247 37.5564C278.023 37.0108 278.8 36.2315 279.266 35.2184C279.498 34.7508 279.654 34.2052 279.731 33.5817C279.809 33.0362 279.809 32.4127 279.731 31.7893C279.576 30.6203 279.033 29.4513 278.101 28.5161C277.17 27.5809 276.083 27.0353 274.841 26.8015C274.22 26.7236 273.676 26.7236 273.055 26.8015C272.512 26.8795 271.968 27.0353 271.425 27.2691C270.416 27.7367 269.64 28.4381 269.019 29.2175C268.475 29.9968 268.165 30.932 268.009 31.7113C267.776 33.4259 268.242 34.7508 268.708 35.608C269.407 36.4653 269.795 36.777 269.717 36.855Z" fill="#F5F5F5"/>
<path d="M262.187 39.5826C262.187 39.5826 262.187 39.6606 262.11 39.7385C262.032 39.8944 261.877 40.0502 261.799 40.284C261.489 40.7516 261.023 41.531 260.479 42.4662V42.3883C261.489 43.4014 262.808 44.8042 264.438 46.4408H264.361C265.215 45.8953 266.224 45.2718 267.233 44.6483H267.311H267.388C268.397 45.1939 269.484 45.7394 270.726 46.0511H270.804V46.1291C271.037 47.1422 271.27 48.3112 271.503 49.4802L271.347 49.4023C273.133 49.4023 274.996 49.4023 276.937 49.4802L276.781 49.5581C277.014 48.545 277.325 47.376 277.558 46.207V46.1291H277.635C278.722 45.8173 279.887 45.4277 280.973 44.8042L281.051 44.7263L281.129 44.8042C281.983 45.3497 282.992 45.9732 284.001 46.6746H283.846C285.088 45.4277 286.485 44.1028 287.882 42.7V42.9338C287.339 41.9986 286.718 41.0634 286.097 40.0502L286.019 39.9723L286.097 39.8944C286.64 38.8812 287.184 37.7902 287.494 36.5432V36.4653H287.572C288.581 36.2315 289.745 35.9977 290.91 35.7639L290.755 35.9198C290.755 34.1273 290.832 32.1789 290.832 30.3085L290.987 30.4644C289.978 30.2306 288.814 29.9189 287.649 29.6851H287.572V29.6071C287.261 28.5161 286.873 27.3471 286.252 26.256L286.174 26.1781L286.252 26.1001C286.873 25.1649 287.494 24.1518 288.115 23.2166V23.4504C286.795 22.0476 285.476 20.7227 284.156 19.3978H284.389C283.38 20.0213 282.448 20.5668 281.517 21.1903L281.439 21.2682L281.361 21.1903C280.275 20.5668 279.188 20.0992 278.023 19.7875H277.946V19.7096C277.713 18.6185 277.48 17.4495 277.247 16.3584L277.402 16.5143C275.462 16.5143 273.599 16.4363 271.813 16.4363L271.968 16.2805C271.736 17.3715 271.425 18.5406 271.192 19.6316V19.7096H271.114C269.95 20.0213 268.786 20.4889 267.776 21.0344L267.699 21.1124L267.621 21.0344C266.612 20.411 265.68 19.7875 264.749 19.164H264.904C263.507 20.5668 262.11 21.8917 260.867 23.1386V22.9828C261.489 23.9959 262.11 24.9311 262.653 25.8663L262.731 25.9442V26.0222C262.032 27.1133 261.566 28.2823 261.256 29.3733V29.4513H261.178C259.936 29.6851 258.849 29.9189 257.84 30.1527L257.918 30.0747C257.918 32.2569 257.84 34.1273 257.84 35.686L257.762 35.608C259.082 35.9198 260.169 36.2315 261.1 36.3874C261.411 37.5564 261.799 38.4136 262.032 38.9592C262.187 39.193 262.265 39.4268 262.342 39.5826C262.11 39.5826 262.187 39.5826 262.187 39.5826C262.187 39.5826 262.11 39.5047 262.032 39.4268C261.954 39.2709 261.877 39.115 261.721 38.8033C261.489 38.2578 261.1 37.4005 260.79 36.2315L260.867 36.3094C259.936 36.0756 258.849 35.8418 257.529 35.5301H257.452V35.4522C257.452 33.8935 257.452 32.0231 257.529 29.8409V29.763H257.607C258.616 29.5292 259.703 29.2954 260.945 29.0616L260.867 29.1395C261.178 28.0485 261.644 26.8795 262.342 25.7104V25.8663C261.799 24.9311 261.178 23.9959 260.557 22.9828L260.479 22.9048L260.557 22.8269C261.799 21.58 263.196 20.2551 264.594 18.8523L264.671 18.7744L264.749 18.8523C265.68 19.4758 266.612 20.0992 267.621 20.7227H267.466C268.553 20.0992 269.64 19.6316 270.882 19.3199L270.804 19.3978C271.037 18.3068 271.347 17.2157 271.58 16.0467V15.8908H271.736C273.599 15.8908 275.462 15.9687 277.325 15.9687H277.48V16.1246C277.713 17.2157 277.946 18.3068 278.179 19.4758L278.023 19.3199C279.188 19.6316 280.352 20.0992 281.439 20.8006H281.284C282.215 20.1772 283.225 19.6316 284.156 19.0082L284.311 18.9302L284.389 19.0082C285.709 20.333 287.028 21.6579 288.348 23.0607L288.426 23.1386L288.348 23.2166C287.727 24.1518 287.106 25.087 286.485 26.1001V25.9442C287.106 27.0353 287.572 28.2823 287.882 29.3733L287.727 29.2175C288.891 29.4513 289.978 29.763 291.065 29.9968H291.22V30.1527C291.22 32.101 291.143 33.9714 291.143 35.7639V35.9198H290.987C289.823 36.1536 288.736 36.3874 287.649 36.6212L287.805 36.4653C287.494 37.7122 286.951 38.8812 286.33 39.8944V39.7385C286.951 40.7516 287.572 41.7648 288.115 42.6221L288.193 42.7L288.115 42.7779C286.718 44.1807 285.321 45.5056 284.079 46.7525L284.001 46.8305L283.923 46.7525C282.914 46.1291 281.983 45.5056 281.051 44.8821H281.206C280.042 45.5056 278.877 45.9732 277.791 46.2849L277.868 46.207C277.558 47.376 277.325 48.4671 277.092 49.5581V49.6361H277.014C275.074 49.6361 273.133 49.5581 271.425 49.5581H271.347V49.4802C271.115 48.3112 270.882 47.2201 270.649 46.1291L270.726 46.207C269.484 45.8173 268.32 45.3497 267.311 44.7263H267.388C266.379 45.3497 265.37 45.9732 264.516 46.5187H264.438L264.361 46.4408C262.808 44.8042 261.489 43.4014 260.479 42.3883C261.1 41.453 261.566 40.7516 261.877 40.284C262.032 40.0502 262.187 39.8944 262.265 39.7385C262.11 39.6606 262.187 39.5826 262.187 39.5826Z" fill="#F5F5F5"/>
<path d="M283.923 365.501H159.795C148.927 365.501 140.155 356.695 140.155 345.784V60.1571C140.155 49.2464 148.927 40.4399 159.795 40.4399H283.923C294.791 40.4399 303.563 49.2464 303.563 60.1571V345.706C303.641 356.695 294.791 365.501 283.923 365.501Z" fill="#455A64"/>
<path d="M142.716 345.628V60.3909C142.716 50.805 150.479 43.0896 159.95 43.0896H283.768C293.316 43.0896 301.002 50.883 301.002 60.3909V345.628C301.002 355.214 293.239 362.929 283.768 362.929H159.95C150.402 362.929 142.716 355.136 142.716 345.628Z" fill="#263238"/>
<path d="M210.098 53.2989C209.089 53.2989 208.313 52.4417 208.313 51.5065C208.313 50.4933 209.167 49.714 210.098 49.714H233.542C234.551 49.714 235.328 50.5713 235.328 51.5065C235.328 52.5196 234.474 53.2989 233.542 53.2989H210.098Z" fill="#455A64"/>
<path d="M197.6 53.2989C196.591 53.2989 195.815 52.4417 195.815 51.5065C195.815 50.4933 196.668 49.714 197.6 49.714C198.609 49.714 199.386 50.5713 199.386 51.5065C199.386 52.4417 198.609 53.2989 197.6 53.2989Z" fill="#455A64"/>
<path d="M204.276 53.2989C203.267 53.2989 202.491 52.4417 202.491 51.5065C202.491 50.4933 203.345 49.714 204.276 49.714C205.285 49.714 206.062 50.5713 206.062 51.5065C206.139 52.4417 205.285 53.2989 204.276 53.2989Z" fill="#455A64"/>
<path d="M246.196 53.2989C245.187 53.2989 244.41 52.4417 244.41 51.5065C244.41 50.4933 245.264 49.714 246.196 49.714C247.205 49.714 247.981 50.5713 247.981 51.5065C247.981 52.4417 247.127 53.2989 246.196 53.2989Z" fill="#455A64"/>
<path d="M239.442 53.2989C238.433 53.2989 237.656 52.4417 237.656 51.5065C237.656 50.4933 238.51 49.714 239.442 49.714C240.451 49.714 241.227 50.5713 241.227 51.5065C241.305 52.4417 240.451 53.2989 239.442 53.2989Z" fill="#455A64"/>
<path d="M286.174 45.1938H257.84C255.666 45.1938 253.803 46.5967 253.26 48.7009L251.474 54.9356C250.776 57.2736 248.68 58.8322 246.351 58.8322H197.6C195.194 58.8322 193.098 57.2736 192.477 54.9356L190.691 48.7009C190.07 46.6746 188.207 45.1938 186.111 45.1938H164.064C154.361 45.1938 146.52 53.0651 146.52 62.8069V346.719C146.52 353.266 151.799 358.643 158.397 358.643H287.106C292.851 358.643 297.508 353.967 297.508 348.2V56.4942C297.353 50.2595 292.307 45.1938 286.174 45.1938Z" fill="white"/>
<path d="M292.307 50.4933C289.124 47.2981 284.7 45.2718 279.809 45.2718H254.191L250.232 58.8322H193.408L189.449 45.2718H157.776C151.489 45.2718 146.287 50.4154 146.287 56.806V262.395L146.753 262.473C161.503 264.109 175.786 254.757 183.86 242.366C191.933 229.897 194.805 214.777 196.203 199.97C197.6 185.163 197.833 170.199 201.249 155.704C207.071 131.466 222.364 109.645 243.168 95.9287C253.415 89.2264 264.904 84.3945 274.763 76.9908C283.457 70.3664 290.91 61.0144 292.307 50.4933Z" fill="white"/>
<path d="M297.353 351.473V260.524C274.142 262.862 252.328 277.046 240.684 297.309C230.127 315.624 228.031 338.536 234.784 358.565H290.289C294.17 358.643 297.353 355.448 297.353 351.473Z" fill="#F5F5F5"/>
<path d="M303.641 111.126H303.874C304.34 111.126 304.728 111.515 304.728 111.983V147.677C304.728 148.144 304.34 148.534 303.874 148.534H303.641V111.126Z" fill="#455A64"/>
<path d="M140.155 134.116H139.844C139.378 134.116 138.99 134.506 138.99 134.973V156.951C138.99 157.418 139.378 157.808 139.844 157.808H140.155V134.116Z" fill="#455A64"/>
<path d="M140.155 103.176H139.844C139.378 103.176 138.99 103.566 138.99 104.034V126.011C138.99 126.479 139.378 126.868 139.844 126.868H140.155V103.176Z" fill="#455A64"/>
<path d="M140.155 80.0302H139.922C139.534 80.0302 139.223 80.3419 139.223 80.7316V90.2395C139.223 90.6291 139.534 90.9409 139.922 90.9409H140.155V80.0302Z" fill="#455A64"/>
<path d="M261.799 55.7928H260.712V57.3515H261.799V55.7928Z" fill="#263238"/>
<path d="M263.662 55.0914H262.575V57.3514H263.662V55.0914Z" fill="#263238"/>
<path d="M265.448 54.5458H264.361V57.3514H265.448V54.5458Z" fill="#263238"/>
<path d="M267.311 53.5327H266.224V57.3515H267.311V53.5327Z" fill="#263238"/>
<path d="M283.923 57.4294H278.256C278.023 57.4294 277.868 57.2736 277.868 57.0398V54.2342C277.868 54.0003 278.023 53.8445 278.256 53.8445H283.923H284.001V53.9224V54.8576H284.622C284.7 54.8576 284.7 54.9356 284.7 54.9356V56.3384C284.7 56.4163 284.622 56.4163 284.622 56.4163H284.001V57.3515C284.001 57.4294 284.001 57.4294 283.923 57.4294ZM283.768 54.0004H278.256C278.179 54.0004 278.101 54.0783 278.101 54.2342V57.0398C278.101 57.1177 278.179 57.2736 278.334 57.2736H283.846V56.3384C283.846 56.2604 283.923 56.2604 283.923 56.2604H284.544V55.0914H283.923C283.846 55.0914 283.846 55.0135 283.846 55.0135V54.0004H283.768Z" fill="#263238"/>
<path d="M278.567 56.806V54.468H283.38V55.559V55.7928V56.806H278.567Z" fill="#263238"/>
<path d="M272.667 57.2736C272.667 57.0398 272.512 56.8839 272.279 56.8839C272.046 56.8839 271.891 57.0398 271.891 57.2736C271.891 57.5074 272.046 57.6632 272.279 57.6632C272.512 57.6632 272.667 57.4294 272.667 57.2736Z" fill="#263238"/>
<path d="M270.882 56.2604L271.425 56.806C271.658 56.5722 271.968 56.4163 272.279 56.4163C272.589 56.4163 272.9 56.5722 273.133 56.806L273.676 56.2604C273.288 55.8708 272.822 55.637 272.279 55.637C271.736 55.637 271.27 55.8708 270.882 56.2604Z" fill="#263238"/>
<path d="M272.279 54.468C271.425 54.468 270.649 54.8576 270.028 55.4032L270.571 55.9487C271.037 55.4811 271.58 55.2473 272.279 55.2473C272.978 55.2473 273.521 55.4811 273.987 55.9487L274.53 55.4032C273.987 54.8576 273.133 54.468 272.279 54.468Z" fill="#263238"/>
<path d="M269.174 54.5459L269.717 55.0914C270.338 54.4679 271.27 54.0003 272.279 54.0003C273.288 54.0003 274.22 54.39 274.841 55.0914L275.384 54.5459C274.608 53.7665 273.521 53.221 272.279 53.221C271.115 53.2989 270.028 53.7665 269.174 54.5459Z" fill="#263238"/>
<path d="M257.425 175.082C261.577 164.835 256.669 153.15 246.463 148.982C236.256 144.814 224.617 149.741 220.465 159.988C216.313 170.234 221.221 181.919 231.428 186.087C241.634 190.255 253.274 185.328 257.425 175.082Z" fill="#F5F5F5"/>
<path d="M168.489 127.492C168.489 122.426 171.129 119.387 174.855 119.387C178.503 119.387 181.22 122.426 181.22 127.492C181.22 132.557 178.503 135.597 174.855 135.597C171.206 135.597 168.489 132.557 168.489 127.492ZM179.513 127.492C179.513 123.205 177.572 120.867 174.855 120.867C172.06 120.867 170.197 123.205 170.197 127.492C170.197 131.778 172.138 134.116 174.855 134.116C177.649 134.116 179.513 131.778 179.513 127.492Z" fill="#263238"/>
<path d="M195.038 127.336C195.038 132.791 192.088 135.597 187.741 135.597C186.344 135.597 184.947 135.363 183.937 134.74L184.558 133.415C185.412 133.96 186.499 134.194 187.664 134.194C191.079 134.194 193.33 132.012 193.33 127.648C193.33 127.258 193.33 126.79 193.253 126.323C192.477 128.115 190.613 129.05 188.362 129.05C185.179 129.05 183.006 127.18 183.006 124.296C183.006 121.335 185.335 119.387 188.44 119.387C192.709 119.387 195.038 122.27 195.038 127.336ZM192.787 124.141C192.787 122.348 191.312 120.712 188.595 120.712C186.266 120.712 184.714 122.036 184.714 124.219C184.714 126.323 186.266 127.648 188.75 127.648C191.157 127.648 192.787 126.167 192.787 124.141Z" fill="#263238"/>
<path d="M197.445 124.608C197.445 123.907 197.988 123.361 198.687 123.361C199.308 123.361 199.929 123.907 199.929 124.608C199.929 125.31 199.385 125.855 198.687 125.855C197.988 125.855 197.445 125.31 197.445 124.608ZM197.445 134.35C197.445 133.649 197.988 133.103 198.687 133.103C199.308 133.103 199.929 133.649 199.929 134.35C199.929 135.051 199.385 135.597 198.687 135.597C197.988 135.597 197.445 135.051 197.445 134.35Z" fill="#263238"/>
<path d="M202.258 127.492C202.258 122.426 204.897 119.387 208.623 119.387C212.272 119.387 214.989 122.426 214.989 127.492C214.989 132.557 212.272 135.597 208.623 135.597C204.897 135.597 202.258 132.557 202.258 127.492ZM213.281 127.492C213.281 123.205 211.34 120.867 208.623 120.867C205.829 120.867 203.966 123.205 203.966 127.492C203.966 131.778 205.906 134.116 208.623 134.116C211.34 134.116 213.281 131.778 213.281 127.492Z" fill="#263238"/>
<path d="M217.24 127.492C217.24 122.426 219.879 119.387 223.606 119.387C227.254 119.387 229.971 122.426 229.971 127.492C229.971 132.557 227.254 135.597 223.606 135.597C219.957 135.597 217.24 132.557 217.24 127.492ZM228.263 127.492C228.263 123.205 226.323 120.867 223.606 120.867C220.811 120.867 218.948 123.205 218.948 127.492C218.948 131.778 220.889 134.116 223.606 134.116C226.4 134.116 228.263 131.778 228.263 127.492Z" fill="#263238"/>
<path d="M274.763 100.994H172.293C166.626 100.994 162.124 96.3963 162.124 90.7851C162.124 85.0959 166.704 80.5757 172.293 80.5757H274.763C280.43 80.5757 284.932 85.1738 284.932 90.7851C284.932 96.3963 280.352 100.994 274.763 100.994Z" fill="#E0E0E0"/>
<path d="M272.046 94.6817C269.872 94.6817 268.165 92.9672 268.165 90.785C268.165 88.6029 269.872 86.8884 272.046 86.8884C274.22 86.8884 275.927 88.6029 275.927 90.785C276.005 92.9672 274.22 94.6817 272.046 94.6817ZM272.046 87.6677C270.338 87.6677 268.941 89.0705 268.941 90.785C268.941 92.4996 270.338 93.9024 272.046 93.9024C273.754 93.9024 275.151 92.4996 275.151 90.785C275.229 89.0705 273.832 87.6677 272.046 87.6677Z" fill="#263238"/>
<path d="M277.325 95.6948C277.247 95.6948 277.17 95.6948 277.092 95.6169L274.53 93.3568C274.375 93.201 274.375 92.9672 274.53 92.8113C274.685 92.6554 274.918 92.6554 275.074 92.8113L277.635 95.0714C277.791 95.2272 277.791 95.461 277.635 95.6169C277.48 95.6169 277.402 95.6948 277.325 95.6948Z" fill="#263238"/>
<path d="M271.503 133.882C271.503 133.882 271.813 133.882 272.357 133.882C272.9 133.804 273.676 133.571 274.453 132.947C274.841 132.635 275.229 132.246 275.539 131.7C275.695 131.466 275.772 131.155 275.85 130.843C275.927 130.531 276.005 130.219 275.927 129.83C275.927 129.518 275.85 129.128 275.772 128.739C275.695 128.349 275.539 128.037 275.306 127.726C274.918 127.024 274.297 126.479 273.521 126.089H273.443V126.011C273.521 124.92 272.9 123.751 271.813 123.283C270.804 122.738 269.329 122.972 268.397 123.829L268.32 123.907V123.751C267.932 122.036 266.612 120.478 264.827 119.776C264.361 119.62 263.895 119.465 263.429 119.387C263.274 119.387 263.196 119.387 263.041 119.387C262.886 119.387 262.808 119.387 262.653 119.387C262.42 119.387 262.187 119.387 261.954 119.465C261.023 119.62 260.169 120.088 259.47 120.634C258.772 121.257 258.228 121.958 257.918 122.738C257.607 123.517 257.374 124.374 257.452 125.154V125.232H257.374C256.443 124.998 255.433 125.154 254.657 125.543C254.269 125.777 253.881 126.011 253.57 126.245C253.26 126.557 253.027 126.868 252.794 127.18C252.561 127.492 252.484 127.881 252.328 128.271C252.251 128.661 252.251 128.973 252.251 129.362C252.328 130.064 252.561 130.687 252.794 131.155C253.415 132.168 254.191 132.713 254.735 132.947C255.278 133.181 255.666 133.259 255.666 133.259C255.666 133.259 255.666 133.259 255.589 133.259C255.511 133.259 255.511 133.259 255.433 133.259C255.356 133.259 255.278 133.259 255.123 133.181C255.045 133.103 254.89 133.103 254.735 133.025C254.191 132.791 253.338 132.246 252.716 131.233C252.406 130.687 252.173 130.064 252.095 129.362C252.095 128.973 252.095 128.661 252.173 128.271C252.251 127.881 252.406 127.492 252.639 127.18C252.872 126.79 253.105 126.479 253.415 126.167C253.726 125.855 254.114 125.621 254.502 125.388C255.356 124.998 256.365 124.764 257.297 125.076L257.219 125.154C257.141 124.297 257.297 123.439 257.685 122.66C258.073 121.881 258.616 121.101 259.315 120.478C260.014 119.854 260.867 119.387 261.877 119.231C262.11 119.153 262.342 119.153 262.575 119.153C262.731 119.153 262.808 119.153 262.963 119.153C263.119 119.153 263.196 119.153 263.352 119.153C263.817 119.231 264.361 119.309 264.827 119.543C266.612 120.244 268.009 121.881 268.397 123.673H268.242C269.174 122.738 270.726 122.504 271.813 123.05C272.9 123.595 273.521 124.842 273.521 125.933V125.855C274.297 126.245 274.918 126.868 275.384 127.57C275.617 127.881 275.695 128.271 275.85 128.661C275.927 129.05 276.005 129.362 276.005 129.752C276.005 130.142 275.927 130.453 275.85 130.765C275.772 131.077 275.617 131.388 275.462 131.622C275.151 132.168 274.763 132.557 274.375 132.869C273.599 133.493 272.745 133.726 272.201 133.804C271.968 133.804 271.736 133.804 271.58 133.804C271.58 133.882 271.503 133.882 271.503 133.882Z" fill="#263238"/>
<path d="M271.891 134.272C271.813 134.272 271.736 134.272 271.658 134.272C271.503 134.272 271.425 134.272 271.425 134.272C271.27 134.272 271.192 134.116 271.114 134.038C271.037 133.882 271.115 133.726 271.192 133.649C271.347 133.493 271.425 133.571 271.58 133.571C271.658 133.571 271.891 133.571 272.279 133.571C272.745 133.493 273.443 133.337 274.22 132.713C274.608 132.402 274.918 132.012 275.151 131.544C275.306 131.311 275.384 130.999 275.462 130.765C275.539 130.453 275.539 130.142 275.539 129.908C275.539 129.596 275.462 129.206 275.384 128.972C275.306 128.661 275.151 128.349 274.996 128.037C274.608 127.414 274.064 126.868 273.366 126.557C273.21 126.479 273.055 126.323 273.133 126.167C273.21 125.154 272.589 124.141 271.736 123.751C270.804 123.283 269.562 123.517 268.786 124.219L268.708 124.296C268.63 124.374 268.475 124.452 268.32 124.374C268.165 124.296 268.087 124.219 268.087 124.063V123.907C267.776 122.27 266.457 120.867 264.827 120.166C264.361 120.01 263.895 119.854 263.507 119.854C263.352 119.854 263.274 119.854 263.196 119.854H263.041C262.963 119.854 262.886 119.854 262.808 119.854H262.653C262.498 119.854 262.342 119.854 262.187 119.932C261.411 120.088 260.557 120.478 259.858 121.023C259.237 121.569 258.694 122.27 258.383 122.972C258.073 123.673 257.918 124.452 257.918 125.232V125.31C257.918 125.465 257.84 125.543 257.762 125.621C257.685 125.699 257.529 125.699 257.452 125.699H257.374C256.598 125.465 255.666 125.621 254.89 126.011C254.502 126.167 254.191 126.401 253.881 126.712C253.648 126.946 253.337 127.258 253.182 127.57C253.027 127.881 252.872 128.193 252.794 128.505C252.716 128.895 252.716 129.206 252.716 129.44C252.794 129.986 252.949 130.609 253.26 131.077C253.803 132.09 254.657 132.557 255.045 132.713C255.433 132.869 255.666 132.947 255.822 132.947C255.899 132.947 256.055 133.025 256.132 133.181C256.21 133.259 256.21 133.415 256.21 133.493C256.132 133.726 255.899 133.804 255.666 133.804H255.511C255.356 133.804 255.278 133.726 255.123 133.726H255.045C254.968 133.726 254.812 133.649 254.735 133.571C254.269 133.337 253.26 132.791 252.561 131.622C252.173 130.999 251.94 130.297 251.94 129.596C251.94 129.206 251.94 128.817 252.018 128.349C252.095 127.959 252.251 127.492 252.484 127.102C252.716 126.712 253.027 126.323 253.338 126.011C253.726 125.699 254.114 125.388 254.502 125.154C255.278 124.764 256.21 124.608 256.986 124.686C256.986 123.985 257.219 123.283 257.452 122.582C257.84 121.725 258.461 120.945 259.16 120.244C260.014 119.543 260.945 119.075 261.877 118.919C262.032 118.841 262.265 118.841 262.42 118.841H262.575C262.653 118.841 262.808 118.841 262.886 118.841H263.041C263.196 118.841 263.352 118.841 263.429 118.841C263.895 118.841 264.361 118.997 264.982 119.231C266.69 119.854 268.009 121.257 268.553 122.894C269.562 122.27 270.882 122.192 271.968 122.738C273.055 123.283 273.832 124.452 273.832 125.699C274.53 126.089 275.151 126.712 275.539 127.414C275.772 127.803 275.927 128.193 276.005 128.583C276.083 128.972 276.16 129.362 276.16 129.752C276.16 130.142 276.083 130.531 276.005 130.843C275.85 131.311 275.772 131.544 275.617 131.856C275.306 132.402 274.918 132.869 274.453 133.259C273.599 133.96 272.667 134.194 272.124 134.272C272.201 134.272 272.046 134.272 271.891 134.272Z" fill="#263238"/>
<path d="M262.265 131.077C262.265 131.077 261.799 131.934 261.178 133.025C260.557 134.116 260.014 134.895 259.936 134.895C259.936 134.895 260.402 134.038 261.023 132.947C261.721 131.856 262.265 131.077 262.265 131.077Z" fill="#263238"/>
<path d="M260.014 135.285C259.936 135.285 259.858 135.285 259.781 135.207C259.393 134.973 259.393 134.895 260.712 132.713C261.877 130.765 261.954 130.687 262.187 130.687C262.265 130.687 262.42 130.687 262.498 130.765C262.575 130.843 262.653 130.921 262.653 130.999C262.731 131.155 262.731 131.233 261.566 133.259C260.557 134.895 260.246 135.285 260.014 135.285Z" fill="#263238"/>
<path d="M265.836 131.077C265.836 131.077 265.37 131.934 264.749 133.025C264.128 134.116 263.584 134.895 263.507 134.895C263.507 134.895 263.973 134.038 264.594 132.947C265.292 131.856 265.836 131.077 265.836 131.077Z" fill="#263238"/>
<path d="M263.585 135.285C263.507 135.285 263.429 135.285 263.352 135.207C262.963 134.973 262.963 134.895 264.283 132.713C265.448 130.765 265.525 130.687 265.758 130.687C265.836 130.687 265.991 130.687 266.069 130.765C266.457 130.999 266.457 131.077 265.137 133.259C263.973 135.207 263.895 135.285 263.662 135.285H263.585Z" fill="#263238"/>
<path d="M269.407 131.077C269.407 131.077 268.941 131.934 268.32 133.025C267.699 134.116 267.155 134.895 267.078 134.895C267.078 134.895 267.544 134.038 268.165 132.947C268.863 131.856 269.407 131.077 269.407 131.077Z" fill="#263238"/>
<path d="M267.155 135.285C267.078 135.285 267 135.285 266.923 135.207C266.534 134.973 266.534 134.895 267.854 132.713C269.019 130.765 269.096 130.687 269.329 130.687C269.407 130.687 269.562 130.687 269.64 130.765C269.717 130.843 269.795 130.921 269.795 130.999C269.872 131.155 269.872 131.233 268.708 133.259C267.699 134.895 267.388 135.285 267.155 135.285Z" fill="#263238"/>
<path d="M258.15 136.454C258.15 136.454 257.685 137.311 257.064 138.402C256.443 139.493 255.899 140.273 255.822 140.273C255.822 140.273 256.287 139.416 256.908 138.324C257.529 137.233 258.073 136.376 258.15 136.454Z" fill="#263238"/>
<path d="M255.822 140.663C255.744 140.663 255.666 140.663 255.589 140.585C255.511 140.507 255.433 140.429 255.433 140.351C255.356 140.195 255.356 140.117 256.52 138.091C257.84 135.909 257.918 135.831 258.228 136.064C258.616 136.298 258.616 136.376 257.297 138.558C256.132 140.507 256.054 140.585 255.822 140.585C255.899 140.663 255.899 140.663 255.822 140.663Z" fill="#263238"/>
<path d="M261.721 136.454C261.721 136.454 261.256 137.311 260.635 138.402C260.014 139.493 259.47 140.273 259.393 140.273C259.393 140.273 259.858 139.416 260.479 138.324C261.1 137.233 261.644 136.376 261.721 136.454Z" fill="#263238"/>
<path d="M259.47 140.663C259.393 140.663 259.315 140.663 259.237 140.585C259.16 140.507 259.082 140.429 259.082 140.351C259.004 140.195 259.004 140.117 260.169 138.091C261.489 135.909 261.566 135.831 261.877 136.064C262.265 136.298 262.265 136.376 260.945 138.558C259.781 140.507 259.703 140.585 259.47 140.585C259.47 140.663 259.47 140.663 259.47 140.663Z" fill="#263238"/>
<path d="M265.292 136.454C265.292 136.454 264.827 137.311 264.206 138.402C263.585 139.493 263.041 140.273 262.963 140.273C262.963 140.273 263.429 139.416 264.05 138.324C264.749 137.233 265.292 136.376 265.292 136.454Z" fill="#263238"/>
<path d="M263.041 140.663C262.963 140.663 262.886 140.663 262.808 140.585C262.731 140.507 262.653 140.429 262.653 140.351C262.575 140.195 262.575 140.117 263.74 138.091C265.059 135.909 265.137 135.831 265.448 136.064C265.836 136.298 265.836 136.376 264.516 138.558C263.352 140.507 263.274 140.585 263.041 140.585C263.041 140.663 263.041 140.663 263.041 140.663Z" fill="#263238"/>
<path d="M269.019 136.532C269.019 136.532 268.553 137.389 267.932 138.48C267.311 139.571 266.767 140.351 266.69 140.351C266.69 140.351 267.155 139.494 267.776 138.402C268.475 137.311 269.019 136.454 269.019 136.532Z" fill="#263238"/>
<path d="M266.767 140.74C266.69 140.74 266.612 140.74 266.534 140.663C266.146 140.429 266.146 140.351 267.466 138.169C268.63 136.22 268.708 136.142 268.941 136.142C269.019 136.142 269.174 136.142 269.251 136.22C269.329 136.298 269.407 136.376 269.407 136.454C269.484 136.61 269.484 136.688 268.32 138.714C267.311 140.351 267 140.74 266.767 140.74Z" fill="#263238"/>
<path d="M207.537 299.335C209.337 299.335 210.797 297.87 210.797 296.062C210.797 294.255 209.337 292.789 207.537 292.789C205.736 292.789 204.276 294.255 204.276 296.062C204.276 297.87 205.736 299.335 207.537 299.335Z" fill="#EBEBEB"/>
<path d="M218.56 299.335C220.36 299.335 221.82 297.87 221.82 296.062C221.82 294.255 220.36 292.789 218.56 292.789C216.759 292.789 215.299 294.255 215.299 296.062C215.299 297.87 216.759 299.335 218.56 299.335Z" fill="#E0E0E0"/>
<path d="M229.583 299.335C231.384 299.335 232.844 297.87 232.844 296.062C232.844 294.255 231.384 292.789 229.583 292.789C227.782 292.789 226.323 294.255 226.323 296.062C226.323 297.87 227.782 299.335 229.583 299.335Z" fill="#E0E0E0"/>
<path d="M240.529 299.335C242.329 299.335 243.789 297.87 243.789 296.062C243.789 294.255 242.329 292.789 240.529 292.789C238.728 292.789 237.268 294.255 237.268 296.062C237.268 297.87 238.728 299.335 240.529 299.335Z" fill="#E0E0E0"/>
<path d="M180.134 339.082H167.713C163.832 339.082 160.649 335.886 160.649 331.99V319.52C160.649 315.624 163.832 312.428 167.713 312.428H180.134C184.015 312.428 187.198 315.624 187.198 319.52V331.99C187.198 335.886 184.015 339.082 180.134 339.082Z" fill="#FE9F03"/>
<path d="M212.738 338.848H201.171C197.057 338.848 193.719 335.497 193.719 331.366V319.754C193.719 315.624 197.057 312.272 201.171 312.272H212.738C216.852 312.272 220.19 315.624 220.19 319.754V331.366C220.268 335.497 216.93 338.848 212.738 338.848Z" fill="#E0E0E0"/>
<path d="M245.419 338.614H234.707C230.359 338.614 226.788 335.107 226.788 330.665V319.91C226.788 315.546 230.282 311.961 234.707 311.961H245.419C249.767 311.961 253.337 315.468 253.337 319.91V330.665C253.26 335.029 249.767 338.614 245.419 338.614Z" fill="#455A64"/>
<path d="M278.334 339.082H267.776C263.352 339.082 259.781 335.497 259.781 331.054V320.456C259.781 316.013 263.352 312.428 267.776 312.428H278.334C282.759 312.428 286.33 316.013 286.33 320.456V331.054C286.33 335.497 282.759 339.082 278.334 339.082Z" fill="#263238"/>
<path d="M180.211 281.489H167.635C163.754 281.489 160.649 278.371 160.649 274.475V261.849C160.649 257.953 163.754 254.835 167.635 254.835H180.211C184.093 254.835 187.198 257.953 187.198 261.849V274.475C187.198 278.293 184.093 281.489 180.211 281.489Z" fill="#455A64"/>
<path d="M212.039 281.177H201.87C197.367 281.177 193.719 277.514 193.719 272.994V262.785C193.719 258.264 197.367 254.602 201.87 254.602H212.039C216.541 254.602 220.19 258.264 220.19 262.785V272.994C220.268 277.514 216.541 281.177 212.039 281.177Z" fill="#263238"/>
<path d="M246.04 280.943H234.008C229.971 280.943 226.788 277.67 226.788 273.695V261.616C226.788 257.563 230.049 254.368 234.008 254.368H246.04C250.077 254.368 253.26 257.641 253.26 261.616V273.695C253.26 277.67 250.077 280.943 246.04 280.943Z" fill="#E0E0E0"/>
<path d="M278.412 280.709H267.699C263.352 280.709 259.781 277.124 259.781 272.76V262.083C259.781 257.719 263.352 254.134 267.699 254.134H278.412C282.759 254.134 286.33 257.719 286.33 262.083V272.838C286.33 277.124 282.759 280.709 278.412 280.709Z" fill="#FE9F03"/>
<path d="M171.051 263.408C171.439 263.174 171.905 262.94 172.371 262.863L172.681 261.538L174.932 261.46L175.243 262.785C175.709 262.863 176.175 263.096 176.563 263.33L177.727 262.551L179.357 264.109L178.659 265.278C178.892 265.668 179.124 266.136 179.202 266.603L180.522 266.915L180.599 269.175L179.28 269.487C179.202 269.954 178.969 270.422 178.736 270.812L179.513 271.981L177.96 273.617L176.796 272.916C176.407 273.15 175.942 273.384 175.476 273.461L175.165 274.786L172.914 274.864L172.604 273.539C172.138 273.461 171.672 273.228 171.284 272.994L170.119 273.773L168.489 272.215L169.188 271.046C168.955 270.656 168.722 270.188 168.645 269.721L167.325 269.409L167.247 267.149L168.567 266.837C168.645 266.37 168.877 265.902 169.11 265.512L168.334 264.343L169.887 262.707L171.051 263.408ZM171.827 266.136C170.74 267.305 170.74 269.175 171.905 270.266C173.069 271.357 174.932 271.357 176.019 270.188C177.106 269.019 177.106 267.149 175.942 266.058C174.777 264.889 172.992 264.967 171.827 266.136Z" fill="white"/>
<path d="M233.853 331.756L234.784 328.171C234.241 327.158 233.93 326.067 233.93 324.976C233.93 321.313 236.88 318.273 240.606 318.273C244.255 318.273 247.282 321.235 247.282 324.976C247.282 328.638 244.333 331.678 240.606 331.678C239.52 331.678 238.433 331.366 237.424 330.899L233.853 331.756ZM237.656 329.418L237.889 329.574C238.743 330.041 239.675 330.353 240.606 330.353C243.556 330.353 246.04 327.937 246.04 324.898C246.04 321.936 243.634 319.442 240.606 319.442C237.656 319.442 235.172 321.858 235.172 324.898C235.172 325.911 235.483 326.846 235.949 327.703L236.104 327.937L235.561 329.963L237.656 329.418Z" fill="white"/>
<path fill-rule="evenodd" clip-rule="evenodd" d="M243.013 325.833C242.702 325.677 242.392 325.521 242.081 325.599C241.848 325.677 241.693 326.067 241.538 326.3C241.46 326.378 241.383 326.456 241.227 326.378C240.296 325.989 239.597 325.365 239.054 324.508C238.976 324.352 238.976 324.274 239.054 324.118C239.209 323.962 239.442 323.729 239.442 323.495C239.52 323.261 239.364 322.949 239.287 322.716C239.131 322.404 238.976 322.014 238.743 321.858C238.51 321.702 238.122 321.78 237.889 322.014C237.501 322.326 237.268 322.871 237.346 323.339C237.346 323.495 237.346 323.651 237.424 323.729C237.501 324.04 237.656 324.352 237.812 324.664C237.967 324.898 238.045 325.131 238.2 325.287C238.666 325.989 239.287 326.534 240.063 327.002C240.451 327.236 240.839 327.392 241.227 327.547C241.693 327.703 242.081 327.859 242.547 327.781C243.09 327.703 243.556 327.392 243.789 326.846C243.867 326.69 243.867 326.534 243.867 326.378C243.712 326.223 243.246 325.989 243.013 325.833Z" fill="white"/>
<path fill-rule="evenodd" clip-rule="evenodd" d="M178.581 327.392C178.038 327.08 177.417 326.768 176.796 327.002C176.33 327.158 176.019 327.937 175.709 328.327C175.553 328.483 175.398 328.561 175.088 328.483C173.302 327.781 171.983 326.612 170.973 324.976C170.818 324.742 170.818 324.508 171.051 324.274C171.362 323.963 171.75 323.495 171.827 323.027C171.905 322.56 171.672 322.014 171.517 321.625C171.284 321.079 170.973 320.3 170.43 320.066C169.964 319.754 169.266 319.91 168.877 320.3C168.101 320.923 167.791 321.858 167.791 322.871C167.791 323.105 167.791 323.417 167.868 323.651C168.023 324.274 168.334 324.898 168.644 325.443C168.877 325.833 169.188 326.301 169.421 326.69C170.352 328.015 171.517 329.106 172.914 329.963C173.613 330.353 174.311 330.743 175.088 330.977C175.942 331.288 176.718 331.522 177.649 331.366C178.581 331.21 179.59 330.587 179.901 329.652C179.978 329.34 180.056 329.106 179.978 328.794C179.901 328.015 179.124 327.625 178.581 327.392Z" fill="white"/>
<path d="M277.247 321.469C276.781 321.469 276.471 321.78 276.471 322.248C276.471 322.716 276.781 323.027 277.247 323.027C277.713 323.027 278.023 322.716 278.023 322.248C278.023 321.858 277.635 321.469 277.247 321.469Z" fill="white"/>
<path d="M273.754 322.248C271.968 322.248 270.493 323.729 270.493 325.521C270.493 327.314 271.968 328.794 273.754 328.794C275.539 328.794 277.014 327.314 277.014 325.521C277.014 323.729 275.539 322.248 273.754 322.248ZM273.754 327.625C272.589 327.625 271.658 326.69 271.658 325.521C271.658 324.352 272.589 323.417 273.754 323.417C274.918 323.417 275.85 324.352 275.85 325.521C275.85 326.69 274.918 327.625 273.754 327.625Z" fill="white"/>
<path d="M276.393 332.379H271.114C268.941 332.379 267.155 330.587 267.155 328.405V323.105C267.155 320.923 268.941 319.131 271.114 319.131H276.393C278.567 319.131 280.352 320.923 280.352 323.105V328.405C280.352 330.587 278.567 332.379 276.393 332.379ZM271.114 320.378C269.64 320.378 268.397 321.624 268.397 323.105V328.405C268.397 329.885 269.64 331.132 271.114 331.132H276.393C277.868 331.132 279.11 329.885 279.11 328.405V323.105C279.11 321.624 277.868 320.378 276.393 320.378H271.114Z" fill="white"/>
<path d="M201.093 331.99C200.938 331.99 200.783 331.912 200.705 331.834C200.472 331.6 200.472 331.21 200.705 330.977L203.888 327.781C202.18 325.677 202.335 322.482 204.276 320.611C205.285 319.598 206.683 319.053 208.08 319.053C209.555 319.053 210.875 319.598 211.884 320.611C213.98 322.716 213.98 326.145 211.884 328.249C210.875 329.262 209.477 329.808 208.08 329.808C206.838 329.808 205.673 329.418 204.742 328.639L201.559 331.834C201.404 331.912 201.249 331.99 201.093 331.99ZM208.08 320.222C206.993 320.222 205.906 320.689 205.13 321.469C204.354 322.248 203.888 323.339 203.888 324.43C203.888 325.599 204.354 326.612 205.13 327.392C205.906 328.171 206.993 328.639 208.08 328.639C209.167 328.639 210.254 328.171 211.03 327.392C211.806 326.612 212.272 325.521 212.272 324.43C212.272 323.261 211.806 322.248 211.03 321.469C210.254 320.689 209.167 320.222 208.08 320.222Z" fill="white"/>
<path d="M225.314 143.156C225.314 143.234 212.893 143.39 197.522 143.39C182.152 143.39 169.731 143.312 169.731 143.156C169.731 143.079 182.152 142.923 197.522 142.923C212.815 143.001 225.314 143.079 225.314 143.156Z" fill="#263238"/>
<path d="M208.158 267.772C209.322 267.305 210.098 266.136 210.098 264.733C210.098 262.94 208.779 261.46 207.071 261.46C205.363 261.46 204.043 262.94 203.966 264.733C203.966 266.136 204.742 267.305 205.906 267.772C201.171 268.474 201.404 273.617 201.404 273.617L212.505 273.695C212.505 273.617 212.815 268.474 208.158 267.772Z" fill="white"/>
<path d="M248.757 271.903C249.378 270.5 248.99 269.097 248.059 267.928C247.127 266.759 245.419 266.214 244.022 266.603C243.789 265.123 242.78 263.876 241.383 263.252C240.063 262.629 238.433 262.785 237.113 263.564C235.871 264.343 235.017 265.746 234.939 267.227C233.93 267.383 232.999 268.006 232.533 268.941C232.067 269.799 231.99 270.968 232.3 271.903H248.757Z" fill="white"/>
<path d="M275.384 271.981C275.384 272.604 274.918 273.072 274.297 273.072C273.676 273.072 273.21 272.604 273.21 271.981C273.21 271.357 273.676 270.89 274.297 270.89C274.841 270.89 275.384 271.435 275.384 271.981Z" fill="white"/>
<path d="M272.124 270.656C273.288 269.409 275.229 269.331 276.471 270.578C277.014 271.123 277.868 270.266 277.325 269.721C275.617 268.006 272.9 268.006 271.27 269.799C270.726 270.344 271.58 271.201 272.124 270.656Z" fill="white"/>
<path d="M268.475 265.59C270.105 264.187 272.046 263.252 274.297 263.252C276.471 263.252 278.644 264.032 280.197 265.512C280.74 266.058 281.594 265.201 281.051 264.655C279.188 262.94 276.781 262.005 274.297 262.005C271.736 262.005 269.484 263.018 267.621 264.655C267 265.201 267.854 266.058 268.475 265.59Z" fill="white"/>
<path d="M269.872 268.396C270.959 267.227 272.512 266.447 274.142 266.447C275.85 266.447 277.402 267.071 278.567 268.318C279.11 268.863 279.964 268.006 279.421 267.461C278.023 266.058 276.083 265.201 274.064 265.278C272.124 265.356 270.261 266.214 268.941 267.616C268.475 268.084 269.329 268.941 269.872 268.396Z" fill="white"/>
<path d="M115.935 340.251L115.624 356.461C115.624 356.461 132.004 362.228 132.237 365.189L100.875 365.735L100.254 340.407L115.935 340.251Z" fill="#6B29FF"/>
<path d="M105.92 355.292C105.299 355.448 104.911 356.149 105.066 356.773C105.222 357.396 105.92 357.786 106.541 357.63C107.162 357.474 107.628 356.617 107.473 356.071C107.24 355.448 106.386 355.058 105.843 355.37" fill="#E0E0E0"/>
<path d="M100.875 365.813L100.952 363.241L130.995 363.631C130.995 363.631 132.392 364.254 132.237 365.189L100.875 365.813Z" fill="#263238"/>
<path d="M116.167 356.305C116.167 356.461 115.391 356.539 114.692 357.084C113.916 357.552 113.528 358.253 113.45 358.175C113.295 358.175 113.528 357.24 114.46 356.617C115.314 355.993 116.245 356.149 116.167 356.305Z" fill="#263238"/>
<path d="M119.505 357.63C119.505 357.786 118.884 358.02 118.341 358.721C117.798 359.344 117.72 360.046 117.565 360.046C117.409 360.046 117.332 359.189 117.953 358.331C118.574 357.552 119.505 357.474 119.505 357.63Z" fill="#263238"/>
<path d="M121.446 361.527C121.291 361.527 121.058 360.825 121.446 359.968C121.834 359.111 122.533 358.799 122.611 358.877C122.688 359.033 122.222 359.5 121.912 360.202C121.601 360.825 121.601 361.527 121.446 361.527Z" fill="#263238"/>
<path d="M115.857 352.564C115.779 352.72 115.081 352.486 114.227 352.564C113.373 352.642 112.674 352.954 112.596 352.798C112.519 352.72 113.14 352.097 114.149 352.019C115.158 352.019 115.935 352.486 115.857 352.564Z" fill="#263238"/>
<path d="M97.6918 331.6L86.4356 343.29C86.4356 343.29 94.509 358.643 92.6459 361.059L69.2796 340.017L86.0475 321.001L97.6918 331.6Z" fill="#6B29FF"/>
<path d="M80.1477 335.731C79.6043 335.419 78.828 335.653 78.5175 336.198C78.207 336.744 78.4398 337.523 78.9832 337.835C79.5266 338.146 80.4582 337.913 80.6911 337.289C80.924 336.744 80.6134 335.808 79.9924 335.653" fill="#E0E0E0"/>
<path d="M69.3573 339.939L71.1427 338.068L92.8788 358.955C92.8788 358.955 93.4998 360.358 92.7235 360.981L69.3573 339.939Z" fill="#263238"/>
<path d="M86.979 343.446C86.9014 343.524 86.2803 343.134 85.3488 342.978C84.4949 342.822 83.7186 343.056 83.641 342.9C83.5633 342.822 84.3396 342.277 85.4264 342.433C86.5132 342.667 87.1343 343.368 86.979 343.446Z" fill="#263238"/>
<path d="M88.5316 346.719C88.4539 346.875 87.7553 346.641 86.979 346.719C86.1251 346.797 85.5817 347.265 85.504 347.187C85.3488 347.109 85.8922 346.33 86.9014 346.252C87.9105 346.018 88.6092 346.563 88.5316 346.719Z" fill="#263238"/>
<path d="M87.2895 350.928C87.1343 350.85 87.5224 350.148 88.3763 349.759C89.2302 349.369 90.0065 349.603 89.9289 349.759C89.9289 349.914 89.2302 349.914 88.5316 350.226C87.8329 350.538 87.4448 351.005 87.2895 350.928Z" fill="#263238"/>
<path d="M89.2302 340.562C89.075 340.64 88.6868 340.017 87.9882 339.471C87.2895 338.926 86.5909 338.692 86.6685 338.536C86.6685 338.38 87.5224 338.38 88.3763 339.082C89.1526 339.627 89.3855 340.484 89.2302 340.562Z" fill="#263238"/>
<path d="M159.64 164.199L145.822 173.317L146.055 176.98L149.625 184.617C149.625 184.617 151.256 186.176 156.146 181.266C161.037 176.278 167.247 166.459 167.247 166.459L159.64 164.199Z" fill="#FFBE9D"/>
<path d="M182.851 145.105C182.695 144.715 182.385 144.481 181.919 144.403L175.165 143.468C174.544 143.39 174.001 143.546 173.535 143.936L154.206 160.769L155.059 161.627L162.357 163.419L183.006 145.494L182.851 145.105Z" fill="#263238"/>
<path d="M177.494 146.508C177.572 146.664 177.882 146.664 178.038 146.508C178.27 146.352 178.348 146.118 178.27 145.962C178.193 145.806 177.882 145.806 177.727 145.962C177.494 146.118 177.339 146.352 177.494 146.508Z" fill="white"/>
<path d="M183.006 145.417C183.006 145.417 182.54 145.417 181.686 145.339C180.755 145.261 179.59 145.105 178.115 144.949C177.339 144.871 176.485 144.715 175.631 144.637C175.243 144.559 174.777 144.637 174.467 144.949C174.079 145.261 173.768 145.572 173.38 145.884C171.827 147.209 170.197 148.612 168.412 150.17C164.918 153.21 161.658 155.938 159.329 157.886C158.165 158.821 157.233 159.6 156.534 160.224C155.836 160.769 155.525 161.081 155.448 161.003C155.448 161.003 155.758 160.692 156.379 160.068C157.078 159.445 158.009 158.665 159.096 157.652C161.347 155.626 164.53 152.898 168.101 149.859C169.887 148.378 171.517 146.897 173.069 145.572C173.457 145.261 173.846 144.949 174.156 144.637C174.544 144.325 175.165 144.17 175.631 144.248C176.485 144.403 177.339 144.481 178.115 144.637C179.59 144.871 180.755 145.027 181.686 145.183C182.54 145.339 183.006 145.417 183.006 145.417Z" fill="#455A64"/>
<path d="M175.942 148.924C175.942 148.924 175.321 148.612 174.467 150.326C173.613 152.041 171.051 156.795 171.051 156.795L168.179 153.989L163.754 153.366C163.754 153.366 162.589 153.989 163.133 154.613C163.676 155.236 166.238 156.483 166.238 156.483L167.402 159.912L162.512 155.548C162.512 155.548 160.493 155.548 160.726 156.795C160.959 158.12 163.754 162.874 163.754 162.874L160.959 161.861L158.165 158.821C158.165 158.821 157.078 158.587 157.233 159.601C157.388 160.614 160.028 164.822 160.028 164.822L163.754 168.095C163.754 168.095 166.16 168.563 166.549 167.939C166.937 167.316 167.325 166.381 167.325 166.381C167.325 166.381 168.644 166.381 169.033 165.835C169.421 165.29 169.576 164.277 169.576 164.277C169.576 164.277 171.439 165.134 171.983 164.121C172.526 163.108 172.914 160.925 172.992 159.99C172.992 159.133 176.252 151.573 176.252 151.34C176.097 151.184 177.339 148.768 175.942 148.924Z" fill="#FFBE9D"/>
<path d="M166.626 168.017C166.626 168.095 166.16 168.173 165.384 168.017C164.608 167.939 163.599 167.628 162.589 167.082C161.58 166.537 160.804 165.757 160.338 165.212C159.872 164.588 159.717 164.199 159.717 164.199C159.795 164.121 160.882 165.679 162.822 166.77C164.763 167.861 166.626 167.861 166.626 168.017Z" fill="#EB996E"/>
<path d="M166.083 166.225C166.005 166.303 165.306 165.679 164.685 164.822C164.064 163.965 163.676 163.108 163.832 163.03C163.909 162.952 164.453 163.653 165.074 164.51C165.695 165.368 166.16 166.147 166.083 166.225Z" fill="#EB996E"/>
<path d="M169.343 163.108C169.266 163.185 168.644 162.562 168.023 161.705C167.48 160.77 167.247 159.912 167.325 159.912C167.48 159.834 167.868 160.614 168.412 161.471C168.955 162.328 169.421 163.03 169.343 163.108Z" fill="#EB996E"/>
<path d="M172.526 160.77C172.371 160.77 172.215 159.834 171.75 158.821C171.361 157.73 170.818 156.951 170.973 156.873C171.051 156.795 171.75 157.496 172.215 158.665C172.681 159.756 172.681 160.77 172.526 160.77Z" fill="#EB996E"/>
<path d="M139.146 145.884C133.867 145.728 122.843 130.453 122.921 125.154L123.309 93.4348C123.154 84.94 127.967 77.6922 136.429 77.7702L137.205 77.8481C145.123 78.3936 151.256 84.9401 151.333 92.8113C151.411 100.215 151.411 108.32 151.1 112.295C150.479 120.478 142.251 121.179 142.251 121.179C142.251 121.179 142.173 123.05 142.095 125.466C141.94 130.843 144.036 145.962 138.68 145.806L139.146 145.884Z" fill="#FFBE9D"/>
<path d="M142.406 121.179C142.406 121.179 137.282 121.101 132.004 117.36C132.004 117.36 134.1 123.673 142.328 123.439L142.406 121.179Z" fill="#EB996E"/>
<path d="M148.694 99.5137C148.694 100.137 148.15 100.605 147.529 100.605C146.908 100.605 146.365 100.059 146.443 99.4357C146.443 98.8123 146.986 98.3447 147.607 98.3447C148.228 98.4226 148.694 98.8902 148.694 99.5137Z" fill="#263238"/>
<path d="M149.47 96.3183C149.315 96.4742 148.461 95.7728 147.219 95.6949C145.977 95.6169 145.045 96.1625 144.89 96.0066C144.812 95.9287 144.968 95.6949 145.433 95.3831C145.822 95.1493 146.52 94.9155 147.297 94.9155C148.073 94.9935 148.694 95.3052 149.082 95.6169C149.47 96.0066 149.548 96.2404 149.47 96.3183Z" fill="#263238"/>
<path d="M137.282 99.2798C137.282 99.9033 136.739 100.371 136.118 100.371C135.497 100.371 134.954 99.8254 135.031 99.2019C135.031 98.5784 135.575 98.1108 136.196 98.1108C136.817 98.1888 137.282 98.6564 137.282 99.2798Z" fill="#263238"/>
<path d="M137.205 95.7728C137.05 95.9287 136.196 95.2273 134.954 95.1493C133.712 95.0714 132.78 95.6169 132.625 95.4611C132.547 95.3831 132.702 95.1493 133.168 94.8376C133.556 94.6038 134.255 94.37 135.031 94.37C135.807 94.4479 136.429 94.7597 136.817 95.0714C137.205 95.4611 137.282 95.7728 137.205 95.7728Z" fill="#263238"/>
<path d="M141.086 105.748C141.086 105.67 141.863 105.592 143.105 105.515C143.415 105.515 143.726 105.437 143.803 105.281C143.881 105.047 143.803 104.735 143.648 104.346C143.415 103.566 143.105 102.709 142.872 101.852C141.785 98.2667 141.009 95.3832 141.164 95.3053C141.319 95.2273 142.328 98.1109 143.338 101.696C143.57 102.553 143.803 103.41 144.114 104.19C144.191 104.579 144.424 104.969 144.191 105.437C144.114 105.67 143.881 105.826 143.648 105.904C143.415 105.982 143.26 105.982 143.105 105.982C141.863 105.826 141.086 105.826 141.086 105.748Z" fill="#263238"/>
<path d="M137.438 91.0968C137.282 91.4085 136.04 91.0188 134.565 90.863C133.09 90.7071 131.848 90.863 131.693 90.5512C131.616 90.3954 131.926 90.0836 132.469 89.9278C133.013 89.694 133.789 89.5381 134.721 89.616C135.575 89.694 136.351 90.0057 136.817 90.3174C137.282 90.6292 137.515 90.9409 137.438 91.0968Z" fill="#263238"/>
<path d="M149.393 93.3569C149.082 93.5907 148.15 93.279 146.908 93.201C145.666 93.1231 144.657 93.279 144.424 92.9672C144.347 92.8114 144.502 92.5776 144.968 92.2658C145.433 92.032 146.21 91.8762 147.064 91.8762C147.918 91.9541 148.616 92.2658 149.004 92.5776C149.393 92.9672 149.47 93.279 149.393 93.3569Z" fill="#263238"/>
<path d="M123.62 99.5136C123.465 99.4357 118.186 97.4874 117.953 103.099C117.72 108.71 123.387 107.697 123.387 107.541C123.465 107.385 123.62 99.5136 123.62 99.5136Z" fill="#FFBE9D"/>
<path d="M121.757 105.359C121.757 105.359 121.679 105.437 121.524 105.515C121.369 105.592 121.058 105.592 120.825 105.515C120.282 105.281 119.816 104.346 119.816 103.332C119.816 102.787 119.971 102.319 120.126 101.93C120.282 101.54 120.592 101.228 120.903 101.228C121.213 101.15 121.369 101.384 121.446 101.54C121.524 101.696 121.446 101.774 121.524 101.852C121.524 101.852 121.679 101.774 121.601 101.54C121.601 101.462 121.524 101.306 121.369 101.15C121.213 101.072 121.058 100.994 120.825 100.994C120.359 100.994 119.971 101.384 119.816 101.852C119.583 102.319 119.428 102.787 119.428 103.41C119.428 104.501 119.971 105.592 120.748 105.904C121.136 105.982 121.446 105.904 121.601 105.826C121.757 105.515 121.834 105.359 121.757 105.359Z" fill="#EB996E"/>
<path d="M137.593 106.294C137.515 106.294 137.438 106.606 137.593 107.073C137.671 107.541 137.981 108.242 138.525 108.71C139.068 109.255 139.689 109.489 140.155 109.723C140.62 109.879 140.853 109.957 140.931 109.879C140.931 109.801 140.776 109.645 140.388 109.333C139.999 109.099 139.456 108.71 138.99 108.32C137.903 107.463 137.748 106.294 137.593 106.294Z" fill="#263238"/>
<path d="M97.1483 203.477L93.5774 226L96.2168 244.548L96.2944 248.601L98.9338 268.396C98.9338 268.396 97.9246 287.1 97.4589 291.152C96.9931 295.205 98.7009 352.33 98.7009 352.33L116.788 351.551C116.788 351.551 123.62 266.837 123.62 265.902C123.62 264.967 133.013 202.542 133.013 202.542L97.1483 203.477Z" fill="#263238"/>
<path d="M142.949 206.984C142.949 206.984 142.561 283.125 140.931 287.49C139.223 291.854 91.7143 339.238 91.7143 339.238L76.6544 327.47L115.081 275.488L117.409 202.932L142.949 206.984Z" fill="#263238"/>
<path d="M130.296 226.857C130.373 226.857 128.122 246.107 125.25 269.799C122.378 293.491 119.971 312.662 119.816 312.662C119.738 312.662 121.99 293.413 124.862 269.721C127.812 246.029 130.218 226.857 130.296 226.857Z" fill="#455A64"/>
<path d="M99.0114 268.474C99.0114 268.474 99.0114 268.552 99.0114 268.63C99.0114 268.786 99.0114 268.941 99.0114 269.175C99.0114 269.721 98.9338 270.422 98.8562 271.279C98.7009 273.072 98.5457 275.8 98.3128 279.073C97.9246 285.619 97.6141 294.737 97.6918 304.713C97.7694 314.766 98.0799 323.807 98.2352 330.353C98.3128 333.626 98.3904 336.276 98.3904 338.146C98.3904 339.004 98.3904 339.783 98.3904 340.251C98.3904 340.484 98.3904 340.64 98.3904 340.796C98.3904 340.952 98.3904 340.952 98.3904 340.952C98.3904 340.952 98.3904 340.874 98.3904 340.796C98.3904 340.64 98.3904 340.484 98.3904 340.251C98.3904 339.705 98.3128 339.004 98.3128 338.146C98.2352 336.276 98.1575 333.626 98.0023 330.353C97.7694 323.807 97.3812 314.688 97.3812 304.635C97.3036 294.582 97.6141 285.541 98.0799 278.995C98.3128 275.722 98.5457 273.072 98.7009 271.201C98.7786 270.344 98.8562 269.643 98.9338 269.097C98.9338 268.863 99.0114 268.708 99.0114 268.552C98.9338 268.474 99.0114 268.474 99.0114 268.474Z" fill="#455A64"/>
<path d="M117.254 225.221C117.332 225.299 113.994 227.091 109.879 229.117C105.765 231.144 102.427 232.78 102.35 232.702C102.272 232.624 105.61 230.832 109.724 228.806C113.839 226.779 117.254 225.143 117.254 225.221Z" fill="#455A64"/>
<path d="M153.74 166.381L162.822 174.564C162.822 174.564 148.616 190.15 144.191 193.58C139.767 197.009 145.589 170.044 145.589 170.044L153.74 166.381Z" fill="#6B29FF"/>
<path d="M122.921 117.594L119.117 122.816L104.368 128.271L97.6918 178.538L93.4998 223.35C93.4998 223.35 99.3996 214.933 103.902 214.777C108.405 214.622 131.227 221.09 132.78 222.259L135.808 212.128L138.214 223.896C138.214 223.896 142.484 224.831 144.735 218.44L143.803 196.151C143.803 196.151 146.831 155.938 146.676 149.937C146.52 143.858 142.406 127.024 142.406 127.024L140.853 132.012L127.579 120.634L122.921 117.594Z" fill="#6B29FF"/>
<path d="M108.637 126.79C108.637 126.79 98.9338 126.79 95.8287 144.715C92.7235 162.718 88.2211 181.967 90.5499 189.215C92.8788 196.463 101.961 217.193 101.961 217.193L114.382 212.673L109.258 180.019L115.158 148.066C115.236 148.066 115.935 128.037 108.637 126.79Z" fill="#6B29FF"/>
<path d="M119.738 219.843C119.738 219.843 113.839 212.829 113.373 212.985L103.514 216.57C103.514 216.57 103.126 220.077 103.592 224.207C103.98 227.87 104.601 231.767 104.601 231.767L117.565 224.831C117.565 224.831 118.108 227.559 118.807 229.039C119.505 230.52 122.067 228.961 122.067 228.961L119.738 219.843Z" fill="#FFBE9D"/>
<path d="M115.236 148.066C115.236 148.066 115.236 148.3 115.158 148.612C115.081 149.001 115.003 149.547 114.848 150.248C114.615 151.729 114.227 153.911 113.683 156.639C112.674 162.172 111.199 170.199 109.414 179.941V179.863C110.889 189.137 112.597 200.282 114.537 212.517V212.673L114.382 212.751C110.423 214.232 106.231 215.713 101.961 217.271L101.806 217.349L101.728 217.193C100.486 214.232 99.0891 211.115 97.7694 207.997C95.3629 202.308 93.1117 196.853 91.0933 191.397C90.8604 190.696 90.6276 189.995 90.3947 189.371C90.317 189.059 90.2394 188.67 90.1618 188.28C90.0842 187.89 90.0065 187.579 89.9289 187.189C89.8513 186.488 89.7736 185.786 89.7736 185.085C89.7736 184.383 89.696 183.682 89.7736 182.981C89.8513 180.175 90.0842 177.447 90.4723 174.798C91.171 169.498 92.1025 164.588 92.9564 159.912C93.8103 155.236 94.5866 150.95 95.3629 146.975C95.6734 145.027 96.0616 143.156 96.4497 141.364C96.6826 140.507 96.9155 139.649 97.1484 138.792C97.4589 138.013 97.7694 137.234 98.0023 136.454C99.2444 133.493 100.797 131.155 102.505 129.596C104.135 128.037 105.765 127.258 106.93 126.946C107.473 126.79 107.939 126.712 108.249 126.635C108.405 126.635 108.482 126.635 108.56 126.635C108.637 126.635 108.637 126.635 108.637 126.635C108.637 126.635 108.482 126.635 108.172 126.712C107.861 126.79 107.395 126.868 106.852 127.024C105.765 127.414 104.135 128.193 102.505 129.752C100.875 131.311 99.322 133.571 98.1575 136.532C97.9247 137.311 97.6141 138.013 97.3036 138.87C97.0707 139.649 96.8379 140.507 96.605 141.364C96.2168 143.156 95.8287 145.027 95.5182 146.975C94.8195 150.95 94.0432 155.236 93.1893 159.912C92.3354 164.588 91.4038 169.498 90.7828 174.798C90.4723 177.447 90.1618 180.175 90.0842 182.903C90.0842 183.604 90.0842 184.305 90.0842 185.007C90.0842 185.708 90.1618 186.41 90.2394 187.111C90.2394 187.501 90.317 187.812 90.3947 188.124C90.4723 188.436 90.5499 188.826 90.6276 189.137C90.8604 189.839 91.0933 190.462 91.3262 191.164C93.3446 196.619 95.6734 202.074 98.0023 207.763C99.322 210.881 100.719 213.998 101.961 216.96L101.728 216.882C105.998 215.323 110.19 213.842 114.149 212.362L113.994 212.595C112.131 200.36 110.345 189.293 108.948 179.941C110.811 170.122 112.286 162.172 113.295 156.639C113.839 153.911 114.227 151.729 114.537 150.248C114.692 149.547 114.77 149.001 114.848 148.612C115.158 148.3 115.236 148.066 115.236 148.066Z" fill="#263238"/>
<path d="M140.853 131.934C140.853 131.934 140.776 132.168 140.543 132.635C140.31 133.103 139.999 133.727 139.611 134.428C138.757 136.065 137.671 138.169 136.351 140.741L136.196 140.974L136.04 140.741C134.876 139.182 133.556 137.389 132.081 135.675C129.209 132.246 126.414 129.284 124.241 127.258C123.154 126.245 122.3 125.466 121.679 124.842C121.058 124.297 120.748 123.985 120.748 123.985C120.748 123.985 121.136 124.219 121.757 124.764C122.378 125.31 123.309 126.089 124.396 127.102C126.57 129.128 129.442 132.012 132.314 135.441C133.789 137.234 135.109 138.948 136.273 140.585H135.963C137.282 138.091 138.447 135.909 139.301 134.35C139.689 133.649 139.999 133.025 140.31 132.558C140.698 132.168 140.853 131.934 140.853 131.934Z" fill="#263238"/>
<path d="M144.114 134.662C144.269 134.584 144.89 136.922 144.424 139.961L144.347 140.507L144.114 140.039C143.959 139.805 143.803 139.494 143.726 139.182C143.027 137.623 142.639 136.065 142.251 135.051C141.863 134.038 141.552 133.415 141.63 133.337C141.707 133.337 142.095 133.882 142.484 134.896C142.949 135.909 143.338 137.389 144.036 138.948C144.191 139.26 144.269 139.494 144.424 139.727L144.114 139.805C144.347 138.403 144.347 137.078 144.269 136.142C144.191 135.207 144.114 134.662 144.114 134.662Z" fill="#263238"/>
<path d="M141.474 134.584C141.474 134.584 141.474 134.662 141.474 134.818C141.474 134.973 141.474 135.129 141.474 135.441C141.474 135.987 141.474 136.688 141.474 137.701C141.474 139.649 141.397 142.533 141.164 146.04C140.776 153.054 139.922 162.796 139.068 173.473C138.136 184.15 137.36 193.813 136.739 200.905C136.429 204.412 136.196 207.218 135.963 209.244C135.885 210.179 135.808 210.959 135.73 211.504C135.73 211.738 135.652 211.972 135.652 212.128C135.652 212.284 135.652 212.362 135.652 212.362C135.652 212.362 135.652 212.284 135.652 212.128C135.652 211.972 135.652 211.816 135.652 211.504C135.652 210.959 135.73 210.179 135.808 209.244C135.963 207.218 136.196 204.412 136.429 200.905C136.972 193.891 137.748 184.15 138.68 173.473C139.534 162.796 140.465 153.054 140.853 146.04C141.086 142.533 141.242 139.649 141.242 137.701C141.242 136.766 141.319 135.987 141.319 135.441C141.319 135.207 141.319 134.973 141.319 134.818C141.474 134.584 141.474 134.584 141.474 134.584Z" fill="#263238"/>
<path d="M146.676 152.041C146.753 152.041 146.21 162.016 145.433 174.252C144.657 186.488 143.959 196.385 143.803 196.385C143.726 196.385 144.269 186.41 145.045 174.174C145.899 161.938 146.598 152.041 146.676 152.041Z" fill="#263238"/>
<path d="M117.642 139.961C117.565 139.961 117.565 139.026 117.254 137.701C116.944 136.298 116.09 134.506 114.692 132.869C113.218 131.233 111.432 130.297 110.112 129.83C108.793 129.362 107.861 129.284 107.861 129.206C107.861 129.206 108.094 129.206 108.482 129.206C108.87 129.284 109.491 129.362 110.19 129.596C111.587 129.986 113.45 130.921 114.925 132.635C116.478 134.272 117.177 136.22 117.487 137.623C117.642 138.325 117.72 138.948 117.72 139.338C117.642 139.805 117.642 139.961 117.642 139.961Z" fill="#263238"/>
<g opacity="0.3">
<path d="M144.347 193.346C147.064 185.942 147.529 177.759 145.744 170.122C145.278 177.915 144.812 185.708 144.347 193.58" fill="black"/>
</g>
<g opacity="0.3">
<path d="M114.692 150.872C111.51 167.472 108.948 183.292 109.258 181.11L114.382 212.673L117.409 217.193C114.77 195.995 112.596 171.992 114.692 150.872Z" fill="black"/>
</g>
<path d="M157.233 83.3034C157.155 82.2124 156.534 81.1992 155.603 80.7316C155.603 80.4199 155.603 80.1082 155.603 79.7964C155.37 77.926 153.662 76.2894 151.799 76.2115C151.566 74.7307 150.557 73.4838 149.16 72.9383C147.762 72.4707 146.132 72.7824 145.123 73.7955C143.803 72.4707 141.707 72.081 139.999 72.7045C139.767 72.7824 139.534 72.9383 139.456 73.0941C139.378 73.25 139.301 73.4059 139.378 73.5617C138.913 72.7045 138.059 72.081 137.05 72.0031C136.739 72.0031 136.351 72.0031 136.04 72.081C135.186 72.081 134.255 72.4707 133.712 73.0941C131.538 72.1589 128.743 73.1721 127.656 75.2763C125.793 75.2763 124.008 76.4453 123.387 78.1598C122.222 78.1598 121.058 78.8612 120.515 79.8743C119.971 80.8875 119.971 82.2124 120.592 83.2255C120.592 83.2255 116.633 83.849 117.409 87.4339C117.798 89.2264 120.204 89.1485 120.204 89.1485L122.378 100.683C122.3 100.761 122.999 102.085 123.697 101.852C124.396 101.618 124.784 100.916 125.25 100.371C125.716 99.6695 126.337 99.046 126.57 98.2667C126.803 97.4874 126.647 96.4742 125.949 96.0066C126.958 95.7728 127.656 94.8376 127.889 93.8245C128.122 92.8113 128.045 91.7982 127.889 90.7851C127.734 89.3043 127.579 87.8236 127.424 86.2649C129.442 86.3428 131.46 85.2518 132.469 83.4593C133.867 84.7062 136.273 84.2386 137.205 82.68C137.748 84.7062 139.999 86.109 142.095 85.6414C141.785 86.8104 143.803 87.9794 144.89 88.3691C145.977 88.7588 147.452 88.0574 147.452 88.0574C147.452 88.0574 148.616 88.8367 149.625 88.9926C149.703 88.9926 149.703 88.9926 149.781 88.9926C151.333 89.2264 152.963 87.9015 153.817 86.5766C154.206 86.6546 154.594 86.6546 155.059 86.4987C156.301 86.109 157.311 84.7842 157.233 83.3034Z" fill="#263238"/>
<path d="M111.898 167.082C111.898 167.16 110.889 166.692 109.181 165.991C107.473 165.29 105.144 164.432 102.505 163.653C99.8654 162.952 97.3812 162.484 95.5958 162.172C93.8103 161.938 92.7235 161.783 92.7235 161.705C92.7235 161.705 93.034 161.705 93.4998 161.705C94.0432 161.705 94.7419 161.783 95.6734 161.861C97.4589 162.094 99.943 162.484 102.66 163.185C105.377 163.965 107.706 164.822 109.336 165.601C110.19 165.991 110.811 166.303 111.277 166.537C111.665 166.848 111.898 167.004 111.898 167.082Z" fill="white"/>
<path d="M104.834 215.791C104.834 215.791 104.756 215.713 104.756 215.557C104.678 215.401 104.601 215.167 104.523 214.933C104.29 214.388 103.98 213.608 103.592 212.595C102.815 210.569 101.651 207.53 100.409 203.789C99.1667 200.048 97.7694 195.528 96.8378 190.384C96.3721 187.812 95.9839 185.085 95.8287 182.279C95.6734 179.474 95.751 176.512 96.0616 173.473C96.6826 167.472 98.0023 161.861 99.1667 156.795C100.331 151.729 101.573 147.209 102.582 143.39C103.592 139.571 104.523 136.532 105.144 134.428C105.455 133.415 105.688 132.557 105.92 132.012C105.998 131.778 106.076 131.544 106.153 131.388C106.231 131.233 106.231 131.155 106.231 131.155C106.231 131.155 106.231 131.233 106.153 131.388C106.076 131.544 106.076 131.778 105.998 132.012C105.843 132.635 105.61 133.415 105.299 134.428C104.678 136.532 103.824 139.649 102.815 143.39C101.806 147.209 100.642 151.729 99.4772 156.795C98.3128 161.861 96.9931 167.472 96.4497 173.473C96.1392 176.434 96.0616 179.396 96.2168 182.201C96.3721 185.007 96.6826 187.734 97.1484 190.306C98.0799 195.45 99.3996 199.892 100.642 203.633C101.884 207.374 102.971 210.335 103.669 212.439C104.057 213.453 104.29 214.232 104.523 214.855C104.601 215.089 104.678 215.323 104.756 215.479C104.834 215.713 104.834 215.791 104.834 215.791Z" fill="white"/>
<path d="M110.656 192.333C110.656 192.333 110.423 192.488 110.035 192.644C109.647 192.8 109.026 193.034 108.249 193.346C106.774 193.891 104.678 194.515 102.272 194.982C99.8654 195.45 97.6918 195.684 96.1392 195.762C95.3629 195.84 94.7419 195.84 94.2761 195.84C93.8103 195.84 93.5775 195.84 93.5775 195.762C93.5775 195.684 94.5866 195.606 96.1392 195.45C97.6918 195.294 99.8654 195.06 102.272 194.593C104.601 194.125 106.697 193.58 108.249 193.112C109.724 192.644 110.656 192.333 110.656 192.333Z" fill="white"/>
<path d="M117.254 142.923C117.177 143.001 116.556 141.987 115.314 140.663C114.692 139.961 113.839 139.26 112.907 138.558C111.898 137.857 110.733 137.156 109.491 136.532C108.172 135.909 106.93 135.519 105.765 135.207C104.601 134.973 103.514 134.74 102.582 134.74C100.719 134.584 99.5549 134.74 99.5549 134.662C99.5549 134.662 99.8654 134.584 100.331 134.506C100.564 134.428 100.875 134.428 101.263 134.428C101.651 134.428 102.039 134.35 102.505 134.428C103.436 134.428 104.523 134.584 105.765 134.818C107.007 135.129 108.327 135.519 109.569 136.142C110.889 136.766 112.053 137.467 113.062 138.247C114.071 139.026 114.848 139.805 115.469 140.507C115.779 140.818 116.012 141.208 116.245 141.52C116.478 141.832 116.633 142.065 116.788 142.299C117.099 142.689 117.254 142.923 117.254 142.923Z" fill="white"/>
<path d="M123.93 218.596C123.93 218.596 123.93 218.518 123.93 218.362C123.93 218.207 123.93 217.895 123.93 217.661C123.93 216.96 123.93 216.024 123.93 214.855C123.93 212.362 124.008 208.777 124.086 204.412C124.241 195.606 124.474 183.448 124.707 170.044C124.862 163.341 124.939 156.951 124.707 151.106C124.629 148.222 124.396 145.417 124.163 142.845C123.93 140.273 123.542 137.857 122.999 135.753C122.455 133.649 121.601 131.778 120.67 130.375C119.738 128.895 118.652 127.804 117.72 127.024C116.788 126.245 115.935 125.777 115.314 125.543C114.692 125.31 114.382 125.154 114.382 125.154C114.382 125.154 114.692 125.232 115.314 125.466C115.935 125.699 116.788 126.167 117.72 126.868C118.729 127.648 119.738 128.739 120.748 130.219C121.757 131.7 122.533 133.571 123.154 135.675C123.775 137.779 124.086 140.195 124.396 142.767C124.629 145.339 124.862 148.144 124.939 151.028C125.172 156.873 125.095 163.263 124.939 169.966C124.629 183.37 124.396 195.528 124.163 204.334C124.086 208.699 123.93 212.284 123.93 214.777C123.853 216.024 123.853 216.96 123.853 217.583C123.853 217.895 123.853 218.129 123.853 218.284C123.93 218.518 123.93 218.596 123.93 218.596Z" fill="white"/>
<path d="M136.429 201.996C136.429 201.996 136.04 201.996 135.419 201.918C134.798 201.84 133.867 201.685 132.78 201.529C130.529 201.139 127.501 200.594 124.086 199.892C120.67 199.191 117.642 198.489 115.469 197.944C114.382 197.71 113.45 197.476 112.907 197.242C112.286 197.087 111.975 196.931 111.975 196.931C111.975 196.931 112.364 196.931 112.985 197.087C113.683 197.242 114.537 197.398 115.624 197.632C117.953 198.1 120.98 198.723 124.318 199.425C127.656 200.126 130.684 200.749 133.013 201.217C134.022 201.451 134.954 201.607 135.652 201.763C136.118 201.84 136.429 201.918 136.429 201.996Z" fill="white"/>
<path d="M138.525 174.018C138.525 174.096 132.314 173.784 124.629 173.161C116.944 172.615 110.733 171.992 110.733 171.914C110.733 171.836 116.944 172.148 124.629 172.771C132.314 173.317 138.525 173.862 138.525 174.018Z" fill="white"/>
<path d="M140.543 149.391C140.543 149.391 140.155 149.469 139.534 149.547C138.913 149.625 137.981 149.703 136.817 149.703C134.488 149.859 131.305 149.937 127.734 149.859C124.163 149.859 120.98 149.703 118.652 149.547C117.487 149.469 116.556 149.391 115.935 149.313C115.314 149.235 114.925 149.235 114.925 149.157C114.925 149.079 115.314 149.157 115.935 149.157C116.633 149.157 117.565 149.235 118.652 149.235C120.98 149.313 124.163 149.391 127.734 149.391C131.227 149.391 134.488 149.391 136.817 149.313C137.903 149.313 138.835 149.313 139.534 149.235C140.232 149.391 140.543 149.391 140.543 149.391Z" fill="white"/>
<path d="M124.008 126.479C124.008 126.557 123.309 126.635 122.145 126.946C120.98 127.18 119.428 127.57 117.72 128.115C116.012 128.661 114.537 129.284 113.45 129.752C112.364 130.219 111.743 130.531 111.665 130.453C111.665 130.375 112.286 129.986 113.295 129.44C114.382 128.895 115.857 128.271 117.565 127.648C119.273 127.102 120.903 126.79 122.067 126.557C123.309 126.401 124.008 126.401 124.008 126.479Z" fill="white"/>
<path d="M139.611 135.285C139.611 135.285 139.301 135.051 138.913 134.662C138.447 134.194 137.826 133.571 137.05 132.869C135.497 131.389 133.323 129.362 130.839 127.18C128.355 124.998 126.104 123.05 124.396 121.725C123.62 121.101 122.921 120.556 122.455 120.088C121.99 119.698 121.757 119.465 121.757 119.465C121.757 119.465 122.067 119.621 122.533 120.01C122.999 120.322 123.697 120.867 124.629 121.569C126.337 122.894 128.666 124.764 131.15 126.946C133.634 129.128 135.807 131.233 137.282 132.791C138.059 133.571 138.68 134.194 139.068 134.662C139.378 134.973 139.611 135.207 139.611 135.285Z" fill="white"/>
<path d="M134.488 126.868C134.565 126.946 133.479 128.271 132.159 129.752C130.762 131.311 129.597 132.48 129.52 132.402C129.442 132.324 130.529 130.999 131.848 129.518C133.246 127.959 134.41 126.79 134.488 126.868Z" fill="white"/>
<path d="M146.676 149.859C146.676 149.937 145.356 149.859 143.803 149.781C142.251 149.703 140.931 149.703 140.931 149.625C140.931 149.547 142.173 149.313 143.803 149.391C145.433 149.469 146.753 149.781 146.676 149.859Z" fill="white"/>
<path d="M144.89 175.889C144.89 175.967 143.57 176.044 142.018 176.044C140.388 176.044 139.146 175.889 139.146 175.811C139.146 175.733 140.465 175.655 142.018 175.655C143.57 175.655 144.89 175.733 144.89 175.889Z" fill="white"/>
<path d="M144.347 140.429C144.347 140.429 144.347 140.507 144.347 140.663C144.347 140.818 144.347 141.052 144.347 141.286C144.347 141.832 144.347 142.689 144.347 143.702C144.347 144.715 144.347 146.04 144.347 147.521C144.347 149.001 144.269 150.716 144.269 152.586C144.036 160.068 143.415 170.277 142.639 181.656C141.863 193.034 141.164 203.243 140.853 210.725C140.776 212.595 140.698 214.232 140.698 215.713C140.62 217.193 140.62 218.44 140.62 219.531C140.62 220.545 140.62 221.324 140.543 221.947C140.543 222.181 140.543 222.415 140.543 222.571C140.543 222.727 140.543 222.805 140.543 222.805C140.543 222.805 140.543 222.727 140.543 222.571C140.543 222.415 140.543 222.181 140.543 221.947C140.543 221.402 140.543 220.545 140.543 219.531C140.543 218.518 140.543 217.193 140.543 215.713C140.543 214.232 140.62 212.517 140.62 210.647C140.853 203.165 141.474 192.956 142.251 181.578C143.027 170.277 143.726 159.99 144.036 152.508C144.114 150.638 144.191 149.001 144.191 147.521C144.269 146.04 144.269 144.793 144.269 143.702C144.269 142.689 144.269 141.91 144.347 141.286C144.347 141.052 144.347 140.818 144.347 140.663C144.347 140.507 144.347 140.429 144.347 140.429Z" fill="white"/>
<path d="M143.959 201.841C143.959 201.918 142.328 202.308 140.31 202.698C138.292 203.087 136.584 203.321 136.584 203.165C136.584 203.087 138.214 202.698 140.232 202.308C142.251 201.918 143.959 201.763 143.959 201.841Z" fill="white"/>
<path d="M158.553 171.057C158.553 171.135 157.776 171.602 156.534 172.382C155.292 173.161 153.507 174.33 151.644 175.577C149.781 176.902 148.073 178.149 146.908 179.084C145.744 180.019 144.968 180.565 144.968 180.565C144.968 180.487 145.589 179.863 146.753 178.928C147.918 177.915 149.548 176.668 151.411 175.343C153.274 174.018 155.059 172.927 156.379 172.226C157.699 171.446 158.553 171.057 158.553 171.057Z" fill="white"/>
<path d="M156.069 181.5C155.991 181.5 155.603 180.798 154.982 179.707C154.361 178.616 153.429 177.058 152.42 175.421C151.411 173.784 150.402 172.304 149.703 171.213C149.004 170.121 148.539 169.498 148.616 169.42C148.694 169.42 149.16 169.966 149.936 170.979C150.712 171.992 151.721 173.473 152.808 175.109C153.817 176.746 154.671 178.382 155.292 179.474C155.836 180.798 156.146 181.5 156.069 181.5Z" fill="white"/>
<path d="M383.443 365.345C383.443 365.423 309.541 365.579 218.482 365.579C127.268 365.579 53.4434 365.501 53.4434 365.345C53.4434 365.189 127.268 365.111 218.405 365.111C309.541 365.189 383.443 365.267 383.443 365.345Z" fill="#263238"/>
</g>
<defs>
<clipPath id="clip0_19_40">
<rect width="330" height="350" fill="white" transform="translate(53.4434 15.8129)"/>
</clipPath>
</defs>
</svg>
