<svg width="438" height="452" viewBox="0 0 438 452" fill="none" xmlns="http://www.w3.org/2000/svg">
<rect x="0.556641" y="0.438843" width="436.887" height="451.559" rx="12" fill="#FFF5E8"/>
<path fill-rule="evenodd" clip-rule="evenodd" d="M137.688 330.367C140.336 330.679 142.829 331.382 145.243 332.396L150.773 327.714L160.353 334.971L157.315 341.603C158.873 343.632 160.275 345.894 161.288 348.391L168.531 349.015L170.166 360.953L163.39 363.528C163.079 366.181 162.378 368.678 161.365 371.096L166.039 376.636L158.795 386.233L152.175 383.19C150.15 384.751 147.891 386.155 145.399 387.17L144.776 394.426L132.859 396.065L130.289 389.276C127.641 388.964 125.149 388.262 122.734 387.248L117.204 391.929L107.625 384.673L110.662 378.041C109.104 376.012 107.702 373.749 106.69 371.253L99.4466 370.628L97.811 358.69L104.587 356.116C104.899 353.463 105.6 350.966 106.612 348.547L101.939 343.007L109.182 333.41L115.802 336.453C117.828 334.893 120.086 333.488 122.579 332.474L123.202 325.217L135.118 323.579L137.688 330.367ZM134.106 346.831C125.928 347.143 120.086 354.789 121.955 362.748C123.357 368.678 128.887 372.813 134.884 372.657C143.062 372.345 148.904 364.698 146.957 356.74C145.71 350.81 140.181 346.596 134.106 346.831Z" fill="white"/>
<path d="M56.1424 90.5813V55.938C75.1464 55.938 90.7235 71.6211 90.7235 90.5813C90.7235 109.62 75.0685 125.225 56.1424 125.225C37.4499 125.225 21.9507 110.088 21.5613 91.3616L56.1424 90.5813Z" fill="white"/>
<path d="M47.7307 81.2183L13.1497 81.9985C13.1497 72.9476 16.6545 63.5065 22.9632 57.0304C29.194 50.5543 38.2287 46.809 47.1855 46.575L47.7307 81.2183Z" fill="white"/>
<path d="M433.046 406.598C433.046 406.66 340.51 406.783 226.364 406.783C112.157 406.783 19.6211 406.721 19.6211 406.598C19.6211 406.475 112.157 406.413 226.364 406.413C340.51 406.475 433.046 406.536 433.046 406.598Z" fill="#263238"/>
<path fill-rule="evenodd" clip-rule="evenodd" d="M401.096 193.433C402.888 193.667 404.679 194.135 406.315 194.837L410.131 191.638L416.673 196.632L414.571 201.157C415.661 202.562 416.596 204.122 417.297 205.839L422.281 206.307L423.372 214.5L418.699 216.216C418.465 218.011 417.998 219.805 417.297 221.444L420.49 225.267L415.505 231.821L410.988 229.714C409.586 230.807 408.028 231.743 406.315 232.445L405.847 237.439L397.669 238.531L395.956 233.85C394.165 233.616 392.373 233.148 390.738 232.445L386.921 235.644L380.379 230.651L382.482 226.125C381.391 224.721 380.457 223.16 379.756 221.444L374.771 220.976L373.681 212.783L378.354 211.066C378.588 209.272 379.055 207.477 379.756 205.839L376.563 202.015L381.547 195.461L386.065 197.568C387.466 196.476 389.024 195.539 390.738 194.837L391.205 189.843L399.383 188.751L401.096 193.433ZM398.604 204.746C392.996 204.98 389.024 210.208 390.27 215.67C391.205 219.727 395.021 222.614 399.149 222.458C404.757 222.224 408.729 216.996 407.483 211.535C406.548 207.477 402.732 204.59 398.604 204.746Z" fill="#6D2AFE"/>
<path d="M395.021 100.582H36.7489V348.703H395.021V100.582Z" fill="white"/>
<path d="M395.021 348.781C395.021 347.455 394.943 251.561 394.866 100.66L395.021 100.816C295.64 100.816 171.335 100.816 36.7489 100.894L36.9825 100.66C36.9825 189.297 36.9825 273.487 36.9825 348.781L36.8267 348.625C248.208 348.703 393.386 348.781 395.021 348.781C393.386 348.781 248.208 348.859 36.7489 348.937H36.5931V348.781C36.5931 273.487 36.5931 189.297 36.5931 100.66V100.426H36.8267C171.413 100.426 295.718 100.426 395.099 100.504H395.255V100.66C395.099 251.561 395.021 347.455 395.021 348.781Z" fill="#263238"/>
<path d="M395.021 100.582H36.7489V115.017H395.021V100.582Z" fill="#263238"/>
<path d="M46.9518 107.526C46.9518 108.775 45.9393 109.711 44.771 109.711C43.5249 109.711 42.5903 108.697 42.5903 107.526C42.5903 106.278 43.6028 105.342 44.771 105.342C45.9393 105.342 46.9518 106.356 46.9518 107.526Z" fill="white"/>
<path d="M54.8961 107.526C54.8961 108.775 53.8836 109.711 52.7154 109.711C51.4692 109.711 50.5346 108.697 50.5346 107.526C50.5346 106.278 51.5471 105.342 52.7154 105.342C53.8836 105.342 54.8961 106.356 54.8961 107.526Z" fill="white"/>
<path d="M62.8404 107.526C62.8404 108.775 61.8279 109.711 60.6597 109.711C59.4135 109.711 58.4789 108.697 58.4789 107.526C58.4789 106.278 59.4914 105.342 60.6597 105.342C61.9058 105.342 62.8404 106.356 62.8404 107.526Z" fill="white"/>
<path d="M382.17 333.176C382.17 332.24 382.092 303.526 382.015 252.576L382.17 252.732C308.257 252.732 187.535 252.81 51.3913 252.81L51.625 252.576C51.625 280.197 51.625 307.194 51.625 333.176L51.3913 332.942C240.03 333.098 380.223 333.176 382.17 333.176C380.223 333.176 240.03 333.254 51.3913 333.41H51.1576V333.176C51.1576 307.194 51.1576 280.197 51.1576 252.576V252.342H51.3913C187.535 252.342 308.257 252.42 382.17 252.42H382.326V252.576C382.248 303.526 382.17 332.24 382.17 333.176Z" fill="#E0E0E0"/>
<path d="M212.069 245.787C212.069 245.787 212.069 245.085 212.069 243.759C212.069 242.432 212.069 240.404 212.069 237.829C212.069 232.601 212.069 224.955 211.991 215.123C211.991 195.461 211.913 167.294 211.913 133.041L212.069 133.197C167.518 133.197 112.142 133.197 52.1702 133.197L52.4038 132.963C52.4038 173.302 52.4038 211.612 52.4038 245.787L52.248 245.631C99.4465 245.631 139.402 245.709 167.596 245.709C181.693 245.709 192.831 245.709 200.464 245.787C204.28 245.787 207.24 245.787 209.187 245.787C210.2 245.787 210.9 245.787 211.446 245.787C211.835 245.787 212.069 245.787 212.069 245.787C212.069 245.787 211.835 245.787 211.29 245.787C210.823 245.787 210.044 245.787 209.031 245.787C207.084 245.787 204.124 245.787 200.308 245.787C192.675 245.787 181.538 245.787 167.518 245.866C139.324 245.866 99.2908 245.944 52.0923 245.944H51.9365V245.787C51.9365 211.612 51.9365 173.302 51.9365 132.963V132.729H52.1702C112.142 132.729 167.596 132.729 212.069 132.729H212.225V132.885C212.225 167.216 212.147 195.383 212.147 215.045C212.147 224.877 212.147 232.523 212.069 237.751C212.069 240.326 212.069 242.354 212.069 243.681C212.069 245.085 212.069 245.787 212.069 245.787Z" fill="#E0E0E0"/>
<path d="M69.4607 224.487L80.9877 207.789C83.3243 204.356 87.9974 203.576 91.3465 205.994L92.9821 207.165C97.0321 210.052 102.64 208.257 104.275 203.576L109.883 187.19C112.142 180.558 121.566 180.558 123.825 187.19L126.473 195.071C128.654 201.469 137.455 201.859 140.181 195.695L142.517 190.389C144.854 185.084 152.097 184.459 155.368 189.219C158.795 194.213 166.506 193.198 168.453 187.424L171.101 179.778C173.515 172.756 183.641 173.302 185.276 180.558L195.323 224.565C195.245 224.487 69.7722 224.096 69.4607 224.487Z" fill="#FFBF55"/>
<path d="M69.1492 224.877L78.4954 197.412C80.6762 191.014 89.7109 190.858 92.0474 197.256L96.5648 209.428C98.5119 214.655 105.444 215.826 108.949 211.456L112.609 206.931C115.024 203.888 119.385 203.342 122.501 205.604L130.99 211.768C132.236 212.705 133.716 213.173 135.274 213.173H146.022C147.58 213.173 149.06 213.641 150.306 214.577L158.328 220.429C161.599 222.848 166.272 222.068 168.531 218.713L176.086 207.711C176.164 207.555 176.319 207.399 176.397 207.321C179.435 203.498 185.432 204.278 187.613 208.647L195.635 224.643C195.479 224.643 69.1492 224.408 69.1492 224.877Z" fill="#FE9F03"/>
<path d="M195.401 224.643L185.666 216.684C172.269 206.775 165.883 225.579 155.368 211.534L151.708 207.009C149.293 203.966 144.932 203.42 141.816 205.682L137.61 208.725C133.638 211.69 128.809 213.251 123.825 213.251H118.295C116.737 213.251 115.257 213.719 114.011 214.655L105.989 220.507C102.718 222.926 100.381 223.238 95.1629 218.791C95.1629 218.791 89.4772 214.109 89.3215 213.953C86.5176 210.52 80.6762 210.52 78.1839 213.953C77.5608 214.733 76.9377 215.514 76.2367 216.294L68.6818 224.643C68.7597 224.643 195.401 224.096 195.401 224.643Z" fill="#FFD289"/>
<path d="M103.886 161.286C103.886 161.364 99.4465 161.52 93.9167 161.52C88.3868 161.52 83.9474 161.442 83.9474 161.286C83.9474 161.208 88.3868 161.052 93.9167 161.052C99.3687 161.052 103.886 161.208 103.886 161.286Z" fill="#263238"/>
<path d="M81.6887 159.569H78.2617V163.002H81.6887V159.569Z" fill="#FFBF55"/>
<path d="M141.583 161.286C141.583 161.364 137.143 161.52 131.613 161.52C126.083 161.52 121.644 161.442 121.644 161.286C121.644 161.208 126.083 161.052 131.613 161.052C137.065 161.052 141.583 161.208 141.583 161.286Z" fill="#263238"/>
<path d="M119.385 159.569H115.958V163.002H119.385V159.569Z" fill="#FFBF55"/>
<path d="M179.279 161.286C179.279 161.364 174.84 161.52 169.31 161.52C163.78 161.52 159.34 161.442 159.34 161.286C159.34 161.208 163.78 161.052 169.31 161.052C174.762 161.052 179.279 161.208 179.279 161.286Z" fill="#263238"/>
<path d="M157.082 159.569H153.655V163.002H157.082V159.569Z" fill="#FFBF55"/>
<path d="M179.746 319.365L188.002 307.584C188.937 306.179 190.884 305.945 192.208 306.959L196.57 310.237C197.971 311.329 199.997 310.861 200.931 309.378L213.393 287.687C214.405 285.893 216.975 285.658 218.3 287.297L226.088 297.206C227.334 298.767 229.827 298.689 230.917 296.972L236.603 287.999C237.771 286.127 240.575 286.205 241.665 288.077L246.338 296.27C247.429 298.221 250.155 298.221 251.401 296.348L267.523 271.068C268.691 269.273 271.262 269.273 272.43 270.99L298.989 310.861C300.079 312.421 302.338 312.655 303.662 311.173L319.784 293.383C320.952 292.135 322.9 292.057 324.068 293.305L336.919 306.257C338.321 307.662 340.58 307.35 341.592 305.633L364.568 265.762C366.048 263.109 370.098 264.201 370.098 267.244V319.365H179.746Z" fill="#FE9F03"/>
<path d="M369.475 325.92C369.475 325.92 369.475 325.842 369.475 325.686C369.475 325.529 369.475 325.295 369.475 324.983C369.475 324.359 369.475 323.345 369.475 322.096L369.553 322.174C358.571 322.252 320.329 322.33 275 322.33C229.593 322.33 191.429 322.252 180.447 322.174L180.525 322.096C180.525 323.423 180.525 324.359 180.525 324.983C180.525 325.295 180.525 325.529 180.525 325.686C180.525 325.842 180.525 325.92 180.525 325.92C180.525 325.92 180.525 325.842 180.525 325.686C180.525 325.529 180.525 325.295 180.525 324.983C180.525 324.359 180.525 323.345 180.525 322.096V322.018H180.603C191.585 321.94 229.827 321.862 275.156 321.862C320.563 321.862 358.727 321.94 369.709 322.018H369.787V322.096C369.787 323.423 369.787 324.359 369.787 324.983C369.787 325.295 369.787 325.529 369.787 325.686C369.475 325.842 369.475 325.92 369.475 325.92Z" fill="#263238"/>
<path d="M201.321 325.608C201.243 325.608 201.087 325.217 201.087 324.827C201.087 324.359 201.165 324.047 201.321 324.047C201.398 324.047 201.554 324.437 201.554 324.827C201.554 325.217 201.476 325.608 201.321 325.608Z" fill="#263238"/>
<path d="M222.35 325.608C222.272 325.608 222.116 325.217 222.116 324.827C222.116 324.359 222.194 324.047 222.35 324.047C222.505 324.047 222.583 324.437 222.583 324.827C222.583 325.217 222.427 325.608 222.35 325.608Z" fill="#263238"/>
<path d="M243.379 325.608C243.301 325.608 243.145 325.217 243.145 324.827C243.145 324.359 243.223 324.047 243.379 324.047C243.534 324.047 243.612 324.437 243.612 324.827C243.612 325.217 243.457 325.608 243.379 325.608Z" fill="#263238"/>
<path d="M264.408 325.608C264.33 325.608 264.174 325.217 264.174 324.827C264.174 324.359 264.252 324.047 264.408 324.047C264.486 324.047 264.641 324.437 264.641 324.827C264.563 325.217 264.486 325.608 264.408 325.608Z" fill="#263238"/>
<path d="M285.437 325.608C285.359 325.608 285.203 325.217 285.203 324.827C285.203 324.359 285.281 324.047 285.437 324.047C285.593 324.047 285.67 324.437 285.67 324.827C285.592 325.217 285.515 325.608 285.437 325.608Z" fill="#263238"/>
<path d="M306.388 325.608C306.31 325.608 306.154 325.217 306.154 324.827C306.154 324.359 306.232 324.047 306.388 324.047C306.466 324.047 306.622 324.437 306.622 324.827C306.622 325.217 306.544 325.608 306.388 325.608Z" fill="#263238"/>
<path d="M327.417 325.608C327.339 325.608 327.183 325.217 327.183 324.827C327.183 324.359 327.261 324.047 327.417 324.047C327.495 324.047 327.651 324.437 327.651 324.827C327.651 325.217 327.573 325.608 327.417 325.608Z" fill="#263238"/>
<path d="M348.446 325.608C348.368 325.608 348.212 325.217 348.212 324.827C348.212 324.359 348.29 324.047 348.446 324.047C348.602 324.047 348.68 324.437 348.68 324.827C348.68 325.217 348.602 325.608 348.446 325.608Z" fill="#263238"/>
<path d="M383.261 219.961C383.261 219.961 383.261 219.493 383.261 218.557C383.261 217.62 383.261 216.294 383.261 214.577C383.261 211.066 383.261 205.916 383.261 199.284C383.261 186.02 383.183 166.904 383.183 143.34L383.339 143.496C341.67 143.496 285.281 143.496 223.44 143.574L223.674 143.34C223.674 170.337 223.674 196.241 223.674 219.961L223.518 219.805C270.093 219.805 310.048 219.883 338.399 219.883C352.574 219.883 363.789 219.961 371.578 219.961C375.472 219.961 378.432 219.961 380.457 219.961C381.469 219.961 382.248 219.961 382.715 219.961C382.949 219.961 383.261 219.961 383.261 219.961C383.261 219.961 383.027 219.961 382.482 219.961C381.937 219.961 381.236 219.961 380.223 219.961C378.198 219.961 375.238 219.961 371.422 219.961C363.711 219.961 352.496 219.961 338.321 220.039C309.971 220.039 269.938 220.117 223.284 220.117H223.128V219.961C223.128 196.241 223.128 170.337 223.128 143.34V143.106H223.362C285.281 143.106 341.592 143.184 383.261 143.184H383.416V143.34C383.416 166.982 383.339 186.176 383.339 199.44C383.339 206.073 383.339 211.144 383.339 214.655C383.339 216.372 383.339 217.698 383.339 218.635C383.261 219.493 383.261 219.961 383.261 219.961Z" fill="#E0E0E0"/>
<path d="M347.044 176.735H236.836C235.824 176.735 234.967 175.877 234.967 174.862C234.967 173.848 235.824 172.99 236.836 172.99H347.044C348.057 172.99 348.913 173.848 348.913 174.862C348.913 175.955 348.057 176.735 347.044 176.735Z" fill="#E0E0E0"/>
<path d="M347.044 162.222H236.836C235.824 162.222 234.967 161.364 234.967 160.35C234.967 159.335 235.824 158.477 236.836 158.477H347.044C348.057 158.477 348.913 159.335 348.913 160.35C348.913 161.364 348.057 162.222 347.044 162.222Z" fill="#E0E0E0"/>
<path d="M286.683 176.735H236.914C235.902 176.735 235.045 175.877 235.045 174.862C235.045 173.848 235.902 172.99 236.914 172.99H286.683C287.695 172.99 288.552 173.848 288.552 174.862C288.474 175.955 287.695 176.735 286.683 176.735Z" fill="#455A64"/>
<path d="M360.985 175.721H360.207V176.813H359.584V175.721H357.169V175.252L359.35 172.444H359.973L357.87 175.174H359.506V174.238H360.051V175.174H360.83V175.721H360.985Z" fill="#263238"/>
<path d="M364.335 175.487C364.335 176.267 363.789 176.813 362.699 176.813C362.076 176.813 361.531 176.579 361.141 176.267L361.453 175.799C361.764 176.033 362.232 176.267 362.777 176.267C363.4 176.267 363.789 175.955 363.789 175.487C363.789 175.018 363.478 174.706 362.465 174.706H361.453L361.686 172.444H364.101V172.99H362.232L362.154 174.16H362.621C363.867 174.16 364.335 174.706 364.335 175.487Z" fill="#263238"/>
<path d="M364.724 173.614C364.724 172.912 365.113 172.444 365.737 172.444C366.36 172.444 366.749 172.912 366.749 173.614C366.749 174.316 366.36 174.784 365.737 174.784C365.113 174.784 364.724 174.316 364.724 173.614ZM366.36 173.614C366.36 173.068 366.126 172.756 365.737 172.756C365.347 172.756 365.113 173.068 365.113 173.614C365.113 174.16 365.347 174.472 365.737 174.472C366.126 174.394 366.36 174.082 366.36 173.614ZM368.307 172.444H368.774L365.814 176.735H365.347L368.307 172.444ZM367.45 175.643C367.45 174.94 367.839 174.472 368.463 174.472C369.086 174.472 369.475 174.94 369.475 175.643C369.475 176.345 369.086 176.813 368.463 176.813C367.839 176.813 367.45 176.345 367.45 175.643ZM369.086 175.643C369.086 175.096 368.852 174.784 368.463 174.784C368.073 174.784 367.839 175.096 367.839 175.643C367.839 176.189 368.073 176.501 368.463 176.501C368.852 176.423 369.086 176.111 369.086 175.643Z" fill="#263238"/>
<path d="M347.044 190.233H236.836C235.824 190.233 234.967 189.375 234.967 188.361C234.967 187.346 235.824 186.488 236.836 186.488H347.044C348.057 186.488 348.913 187.346 348.913 188.361C348.913 189.375 348.057 190.233 347.044 190.233Z" fill="#E0E0E0"/>
<path d="M302.883 190.233H236.992C235.59 190.233 235.045 189.375 235.045 188.361C235.045 187.346 235.59 186.488 236.369 186.488H302.26C303.584 186.488 304.363 187.346 304.363 188.361C304.363 189.921 302.961 190.233 302.883 190.233Z" fill="#455A64"/>
<path d="M360.44 185.942V186.332L358.727 190.233H358.104L359.817 186.488H357.792V187.268H357.169V185.942H360.44Z" fill="#263238"/>
<path d="M360.83 188.127C360.83 186.722 361.609 185.942 362.543 185.942C363.556 185.942 364.257 186.722 364.257 188.127C364.257 189.531 363.478 190.311 362.543 190.311C361.609 190.311 360.83 189.531 360.83 188.127ZM363.711 188.127C363.711 187.034 363.244 186.488 362.543 186.488C361.842 186.488 361.375 187.034 361.375 188.127C361.375 189.219 361.842 189.765 362.543 189.765C363.244 189.765 363.711 189.219 363.711 188.127Z" fill="#263238"/>
<path d="M364.802 187.112C364.802 186.41 365.191 185.942 365.814 185.942C366.437 185.942 366.827 186.41 366.827 187.112C366.827 187.815 366.437 188.283 365.814 188.283C365.269 188.283 364.802 187.815 364.802 187.112ZM366.437 187.112C366.437 186.566 366.204 186.254 365.814 186.254C365.425 186.254 365.191 186.566 365.191 187.112C365.191 187.659 365.425 187.971 365.814 187.971C366.204 187.893 366.437 187.58 366.437 187.112ZM368.385 185.942H368.852L365.892 190.233H365.425L368.385 185.942ZM367.528 189.141C367.528 188.439 367.917 187.971 368.54 187.971C369.163 187.971 369.553 188.439 369.553 189.141C369.553 189.843 369.163 190.311 368.54 190.311C367.917 190.311 367.528 189.843 367.528 189.141ZM369.163 189.141C369.163 188.595 368.93 188.283 368.54 188.283C368.151 188.283 367.917 188.595 367.917 189.141C367.917 189.687 368.151 189.999 368.54 189.999C368.93 189.921 369.163 189.609 369.163 189.141Z" fill="#263238"/>
<path d="M347.044 203.42H236.836C235.824 203.42 234.967 202.561 234.967 201.547C234.967 200.533 235.824 199.674 236.836 199.674H347.044C348.057 199.674 348.913 200.533 348.913 201.547C348.913 202.561 348.057 203.42 347.044 203.42Z" fill="#E0E0E0"/>
<path d="M277.804 203.42H236.914C235.902 203.42 235.045 202.561 235.045 201.547C235.045 200.533 235.902 199.674 236.914 199.674H277.804C278.816 199.674 279.673 200.533 279.673 201.547C279.595 202.561 278.816 203.42 277.804 203.42Z" fill="#455A64"/>
<path d="M360.285 202.093C360.285 202.873 359.739 203.42 358.649 203.42C358.026 203.42 357.481 203.186 357.091 202.873L357.403 202.405C357.714 202.639 358.182 202.873 358.727 202.873C359.35 202.873 359.739 202.561 359.739 202.093C359.739 201.625 359.428 201.313 358.415 201.313H357.403L357.636 199.05H360.051V199.596H358.182L358.104 200.767H358.571C359.817 200.845 360.285 201.391 360.285 202.093Z" fill="#263238"/>
<path d="M360.83 201.235C360.83 199.83 361.609 199.05 362.543 199.05C363.556 199.05 364.257 199.83 364.257 201.235C364.257 202.639 363.478 203.42 362.543 203.42C361.531 203.498 360.83 202.639 360.83 201.235ZM363.711 201.235C363.711 200.143 363.244 199.596 362.543 199.596C361.842 199.596 361.375 200.143 361.375 201.235C361.375 202.327 361.842 202.873 362.543 202.873C363.244 202.952 363.711 202.327 363.711 201.235Z" fill="#263238"/>
<path d="M364.802 200.221C364.802 199.518 365.191 199.05 365.814 199.05C366.437 199.05 366.827 199.518 366.827 200.221C366.827 200.923 366.437 201.391 365.814 201.391C365.191 201.391 364.802 200.923 364.802 200.221ZM366.437 200.221C366.437 199.674 366.204 199.362 365.814 199.362C365.425 199.362 365.191 199.674 365.191 200.221C365.191 200.767 365.425 201.079 365.814 201.079C366.204 201.079 366.437 200.767 366.437 200.221ZM368.385 199.128H368.852L365.892 203.42H365.425L368.385 199.128ZM367.528 202.249C367.528 201.547 367.917 201.079 368.54 201.079C369.163 201.079 369.553 201.547 369.553 202.249C369.553 202.951 369.163 203.42 368.54 203.42C367.917 203.42 367.528 202.951 367.528 202.249ZM369.086 202.249C369.086 201.703 368.852 201.391 368.462 201.391C368.073 201.391 367.839 201.703 367.839 202.249C367.839 202.795 368.073 203.108 368.462 203.108C368.93 203.108 369.086 202.795 369.086 202.249Z" fill="#263238"/>
<path d="M309.815 162.222H236.914C235.902 162.222 235.045 161.364 235.045 160.35C235.045 159.335 235.902 158.477 236.914 158.477H309.815C310.827 158.477 311.684 159.335 311.684 160.35C311.684 161.364 310.827 162.222 309.815 162.222Z" fill="#6D2AFE"/>
<path d="M360.596 160.896C360.596 161.754 359.895 162.222 359.116 162.222C357.948 162.222 357.325 161.442 357.325 160.116C357.325 158.633 358.182 157.853 359.35 157.853C359.739 157.853 360.129 157.931 360.44 158.087L360.207 158.555C359.973 158.399 359.661 158.321 359.35 158.321C358.493 158.321 357.948 158.867 357.948 159.959C357.948 160.037 357.948 160.037 357.948 160.116C358.182 159.725 358.649 159.569 359.194 159.569C359.973 159.569 360.596 160.116 360.596 160.896ZM359.973 160.896C359.973 160.428 359.584 160.037 358.96 160.037C358.415 160.037 357.948 160.428 357.948 160.896C357.948 161.364 358.337 161.754 358.96 161.754C359.584 161.754 359.973 161.442 359.973 160.896Z" fill="#263238"/>
<path d="M361.063 160.037C361.063 158.633 361.842 157.853 362.777 157.853C363.789 157.853 364.49 158.633 364.49 160.037C364.49 161.442 363.711 162.222 362.777 162.222C361.842 162.222 361.063 161.442 361.063 160.037ZM363.945 160.037C363.945 158.945 363.478 158.399 362.777 158.399C362.076 158.399 361.609 158.945 361.609 160.037C361.609 161.13 362.076 161.676 362.777 161.676C363.478 161.676 363.945 161.13 363.945 160.037Z" fill="#263238"/>
<path d="M365.113 159.023C365.113 158.321 365.503 157.853 366.126 157.853C366.749 157.853 367.138 158.321 367.138 159.023C367.138 159.725 366.749 160.194 366.126 160.194C365.503 160.194 365.113 159.725 365.113 159.023ZM366.671 159.023C366.671 158.477 366.437 158.165 366.048 158.165C365.659 158.165 365.425 158.477 365.425 159.023C365.425 159.569 365.659 159.881 366.048 159.881C366.437 159.881 366.671 159.569 366.671 159.023ZM368.696 157.931H369.163L366.204 162.222H365.737L368.696 157.931ZM367.762 161.052C367.762 160.35 368.151 159.881 368.774 159.881C369.397 159.881 369.787 160.35 369.787 161.052C369.787 161.754 369.397 162.222 368.774 162.222C368.229 162.222 367.762 161.754 367.762 161.052ZM369.397 161.052C369.397 160.506 369.163 160.194 368.774 160.194C368.385 160.194 368.151 160.506 368.151 161.052C368.151 161.598 368.385 161.91 368.774 161.91C369.163 161.91 369.397 161.52 369.397 161.052Z" fill="#263238"/>
<path d="M344.474 227.764C344.474 227.842 317.525 227.998 284.268 227.998C251.011 227.998 224.063 227.92 224.063 227.764C224.063 227.608 251.011 227.53 284.268 227.53C317.525 227.608 344.474 227.686 344.474 227.764Z" fill="#E0E0E0"/>
<path d="M344.474 234.942C344.474 235.02 317.525 235.176 284.268 235.176C251.011 235.176 224.063 235.098 224.063 234.942C224.063 234.864 251.011 234.708 284.268 234.708C317.525 234.786 344.474 234.864 344.474 234.942Z" fill="#E0E0E0"/>
<path d="M344.474 241.418C344.474 241.496 317.525 241.652 284.268 241.652C251.011 241.652 224.063 241.574 224.063 241.418C224.063 241.262 251.011 241.184 284.268 241.184C317.525 241.184 344.474 241.34 344.474 241.418Z" fill="#E0E0E0"/>
<path d="M73.4328 314.684C72.2646 314.684 71.2521 313.748 71.2521 312.499V271.848C71.2521 270.678 72.1867 269.663 73.4328 269.663C74.6011 269.663 75.6136 270.6 75.6136 271.848V312.499C75.6136 313.748 74.6011 314.684 73.4328 314.684Z" fill="#E0E0E0"/>
<path d="M73.4328 314.918C72.2646 314.918 71.2521 313.982 71.2521 312.733V286.517C71.2521 285.346 72.1867 284.332 73.4328 284.332C74.6011 284.332 75.6136 285.268 75.6136 286.517V312.733C75.6136 313.904 74.6011 314.918 73.4328 314.918Z" fill="#6D2AFE"/>
<path d="M72.0309 316.635V320.224H71.6415V316.947H70.7847V316.635H72.0309Z" fill="#263238"/>
<path d="M72.8876 318.429C72.8876 317.259 73.5107 316.557 74.2896 316.557C75.1463 316.557 75.7694 317.259 75.7694 318.429C75.7694 319.6 75.1463 320.302 74.2896 320.302C73.5107 320.224 72.8876 319.522 72.8876 318.429ZM75.4579 318.429C75.4579 317.493 74.9906 316.947 74.3675 316.947C73.7444 316.947 73.2771 317.493 73.2771 318.429C73.2771 319.365 73.7444 319.912 74.3675 319.912C74.9906 319.912 75.4579 319.365 75.4579 318.429Z" fill="#263238"/>
<path d="M82.0781 314.684C80.9098 314.684 79.8973 313.748 79.8973 312.499V271.848C79.8973 270.678 80.832 269.663 82.0781 269.663C83.2464 269.663 84.2589 270.6 84.2589 271.848V312.499C84.2589 313.748 83.2464 314.684 82.0781 314.684Z" fill="#E0E0E0"/>
<path d="M82.0781 314.918C80.9098 314.918 79.8973 313.982 79.8973 312.733V278.246C79.8973 277.076 80.832 276.061 82.0781 276.061C83.2464 276.061 84.2589 276.998 84.2589 278.246V312.733C84.2589 313.904 83.2464 314.918 82.0781 314.918Z" fill="#6D2AFE"/>
<path d="M81.5329 319.912V320.224H78.9627V319.99L80.4425 318.507C80.8319 318.117 80.9098 317.883 80.9098 317.649C80.9098 317.259 80.5983 316.947 80.0531 316.947C79.6637 316.947 79.2743 317.103 79.0406 317.337L78.8069 317.103C79.1185 316.791 79.5079 316.557 80.0531 316.557C80.7541 316.557 81.2214 316.947 81.2214 317.571C81.2214 317.883 81.1435 318.195 80.5983 318.741L79.3521 319.912H81.5329Z" fill="#263238"/>
<path d="M82.0002 318.429C82.0002 317.259 82.6233 316.557 83.4022 316.557C84.2589 316.557 84.882 317.259 84.882 318.429C84.882 319.6 84.2589 320.302 83.4022 320.302C82.6233 320.224 82.0002 319.522 82.0002 318.429ZM84.4926 318.429C84.4926 317.493 84.0252 316.947 83.4022 316.947C82.7791 316.947 82.3118 317.493 82.3118 318.429C82.3118 319.365 82.7791 319.912 83.4022 319.912C84.1031 319.912 84.4926 319.365 84.4926 318.429Z" fill="#263238"/>
<path d="M90.7234 314.684C89.5551 314.684 88.5426 313.748 88.5426 312.499V271.848C88.5426 270.678 89.4772 269.663 90.7234 269.663C91.8917 269.663 92.9042 270.6 92.9042 271.848V312.499C92.9042 313.748 91.8917 314.684 90.7234 314.684Z" fill="#E0E0E0"/>
<path d="M90.7234 314.918C89.5551 314.918 88.5426 313.982 88.5426 312.733V292.681C88.5426 291.51 89.4772 290.496 90.7234 290.496C91.8917 290.496 92.9042 291.432 92.9042 292.681V312.733C92.9042 313.904 91.8917 314.918 90.7234 314.918Z" fill="#6D2AFE"/>
<path d="M90.1782 319.209C90.1782 319.834 89.7109 320.302 88.8541 320.302C88.3089 320.302 87.8416 320.146 87.5301 319.834L87.6859 319.522C87.9195 319.756 88.3089 319.912 88.7763 319.912C89.3993 319.912 89.7109 319.6 89.7109 319.209C89.7109 318.741 89.3993 318.507 88.6984 318.507H88.4647V318.195L89.4772 316.947H87.608V316.635H89.9445V316.869L88.932 318.117C89.7888 318.195 90.1782 318.585 90.1782 319.209Z" fill="#263238"/>
<path d="M90.7234 318.429C90.7234 317.259 91.3465 316.557 92.1253 316.557C92.9821 316.557 93.6052 317.259 93.6052 318.429C93.6052 319.6 92.9821 320.302 92.1253 320.302C91.2686 320.224 90.7234 319.522 90.7234 318.429ZM93.2157 318.429C93.2157 317.493 92.7484 316.947 92.1253 316.947C91.5022 316.947 91.0349 317.493 91.0349 318.429C91.0349 319.365 91.5022 319.912 92.1253 319.912C92.7484 319.912 93.2157 319.365 93.2157 318.429Z" fill="#263238"/>
<path d="M99.3687 314.684C98.2004 314.684 97.1879 313.748 97.1879 312.499V271.848C97.1879 270.678 98.1225 269.663 99.3687 269.663C100.537 269.663 101.549 270.6 101.549 271.848V312.499C101.549 313.748 100.615 314.684 99.3687 314.684Z" fill="#E0E0E0"/>
<path d="M99.3687 314.918C98.2004 314.918 97.1879 313.982 97.1879 312.733V278.246C97.1879 277.076 98.1225 276.061 99.3687 276.061C100.537 276.061 101.549 276.998 101.549 278.246V312.733C101.549 313.904 100.615 314.918 99.3687 314.918Z" fill="#6D2AFE"/>
<path d="M99.3687 319.287H98.6677V320.224H98.2783V319.287H96.2532V319.053L98.2004 316.635H98.5898L96.7206 318.975H98.2783V318.117H98.6677V318.975H99.3687V319.287Z" fill="#263238"/>
<path d="M99.7581 318.429C99.7581 317.259 100.381 316.557 101.16 316.557C102.017 316.557 102.64 317.259 102.64 318.429C102.64 319.6 102.017 320.302 101.16 320.302C100.381 320.224 99.7581 319.522 99.7581 318.429ZM102.25 318.429C102.25 317.493 101.783 316.947 101.16 316.947C100.537 316.947 100.07 317.493 100.07 318.429C100.07 319.365 100.537 319.912 101.16 319.912C101.783 319.912 102.25 319.365 102.25 318.429Z" fill="#263238"/>
<path d="M108.014 314.684C106.846 314.684 105.833 313.748 105.833 312.499V271.848C105.833 270.678 106.768 269.663 108.014 269.663C109.182 269.663 110.195 270.6 110.195 271.848V312.499C110.195 313.748 109.26 314.684 108.014 314.684Z" fill="#E0E0E0"/>
<path d="M108.014 314.918C106.846 314.918 105.833 313.982 105.833 312.733V284.878C105.833 283.708 106.768 282.693 108.014 282.693C109.182 282.693 110.195 283.63 110.195 284.878V312.733C110.195 313.904 109.26 314.918 108.014 314.918Z" fill="#6D2AFE"/>
<path d="M107.858 319.131C107.858 319.756 107.469 320.224 106.534 320.224C105.989 320.224 105.522 320.068 105.21 319.756L105.366 319.444C105.599 319.678 105.989 319.834 106.456 319.834C107.079 319.834 107.391 319.522 107.391 319.131C107.391 318.663 107.079 318.351 106.223 318.351H105.444L105.599 316.557H107.547V316.869H105.911L105.755 318.039H106.223C107.469 318.117 107.858 318.507 107.858 319.131Z" fill="#263238"/>
<path d="M108.325 318.429C108.325 317.259 108.949 316.557 109.727 316.557C110.584 316.557 111.207 317.259 111.207 318.429C111.207 319.6 110.584 320.302 109.727 320.302C108.949 320.224 108.325 319.522 108.325 318.429ZM110.818 318.429C110.818 317.493 110.35 316.947 109.727 316.947C109.104 316.947 108.637 317.493 108.637 318.429C108.637 319.365 109.104 319.912 109.727 319.912C110.35 319.912 110.818 319.365 110.818 318.429Z" fill="#263238"/>
<path d="M116.659 314.684C115.491 314.684 114.478 313.748 114.478 312.499V271.848C114.478 270.678 115.413 269.663 116.659 269.663C117.827 269.663 118.84 270.6 118.84 271.848V312.499C118.84 313.748 117.905 314.684 116.659 314.684Z" fill="#E0E0E0"/>
<path d="M116.659 314.684C115.491 314.684 114.478 313.748 114.478 312.733V292.681C114.478 291.276 115.413 290.34 116.659 290.34C117.827 290.34 118.84 291.276 118.84 292.525V312.577C118.84 313.748 117.905 314.684 116.659 314.684Z" fill="#6D2AFE"/>
<path d="M116.426 319.131C116.426 319.834 115.88 320.224 115.179 320.224C114.245 320.224 113.7 319.522 113.7 318.429C113.7 317.181 114.401 316.557 115.335 316.557C115.647 316.557 115.958 316.635 116.192 316.791L116.036 317.103C115.88 316.947 115.569 316.947 115.335 316.947C114.556 316.947 114.089 317.415 114.089 318.429C114.089 318.507 114.089 318.585 114.089 318.741C114.245 318.351 114.712 318.117 115.179 318.117C115.88 318.039 116.426 318.507 116.426 319.131ZM116.036 319.131C116.036 318.663 115.647 318.351 115.101 318.351C114.556 318.351 114.167 318.663 114.167 319.131C114.167 319.522 114.478 319.912 115.101 319.912C115.647 319.912 116.036 319.6 116.036 319.131Z" fill="#263238"/>
<path d="M116.815 318.429C116.815 317.259 117.438 316.557 118.217 316.557C119.074 316.557 119.697 317.259 119.697 318.429C119.697 319.6 119.074 320.302 118.217 320.302C117.438 320.224 116.815 319.522 116.815 318.429ZM119.307 318.429C119.307 317.493 118.84 316.947 118.217 316.947C117.594 316.947 117.127 317.493 117.127 318.429C117.127 319.365 117.594 319.912 118.217 319.912C118.918 319.912 119.307 319.365 119.307 318.429Z" fill="#263238"/>
<path d="M125.382 314.684C124.214 314.684 123.202 313.748 123.202 312.499V271.848C123.202 270.678 124.136 269.663 125.382 269.663C126.551 269.663 127.563 270.6 127.563 271.848V312.499C127.485 313.748 126.551 314.684 125.382 314.684Z" fill="#E0E0E0"/>
<path d="M125.382 314.918C124.214 314.918 123.202 313.982 123.202 312.733V276.139C123.202 274.969 124.136 273.955 125.382 273.955C126.551 273.955 127.563 274.891 127.563 276.139V312.733C127.485 313.904 126.551 314.918 125.382 314.918Z" fill="#6D2AFE"/>
<path d="M124.915 316.635V316.869L123.435 320.224H123.046L124.526 316.947H122.578V317.649H122.189V316.635H124.915Z" fill="#263238"/>
<path d="M125.304 318.429C125.304 317.259 125.928 316.557 126.706 316.557C127.563 316.557 128.186 317.259 128.186 318.429C128.186 319.6 127.563 320.302 126.706 320.302C125.85 320.224 125.304 319.522 125.304 318.429ZM127.797 318.429C127.797 317.493 127.329 316.947 126.706 316.947C126.083 316.947 125.616 317.493 125.616 318.429C125.616 319.365 126.083 319.912 126.706 319.912C127.329 319.912 127.797 319.365 127.797 318.429Z" fill="#263238"/>
<path d="M134.028 314.684C132.859 314.684 131.847 313.748 131.847 312.499V271.848C131.847 270.678 132.781 269.663 134.028 269.663C135.196 269.663 136.208 270.6 136.208 271.848V312.499C136.131 313.748 135.196 314.684 134.028 314.684Z" fill="#E0E0E0"/>
<path d="M134.028 314.918C132.859 314.918 131.847 313.982 131.847 312.733V296.816C131.847 295.646 132.781 294.631 134.028 294.631C135.196 294.631 136.208 295.568 136.208 296.816V312.733C136.131 313.904 135.196 314.918 134.028 314.918Z" fill="#6D2AFE"/>
<path d="M133.56 319.209C133.56 319.834 133.015 320.224 132.158 320.224C131.302 320.224 130.756 319.834 130.756 319.209C130.756 318.741 130.99 318.507 131.457 318.351C131.068 318.195 130.912 317.961 130.912 317.571C130.912 316.947 131.38 316.635 132.158 316.635C132.937 316.635 133.405 317.025 133.405 317.571C133.405 317.961 133.171 318.195 132.859 318.351C133.327 318.507 133.56 318.741 133.56 319.209ZM133.171 319.209C133.171 318.741 132.781 318.507 132.158 318.507C131.535 318.507 131.146 318.819 131.146 319.209C131.146 319.678 131.535 319.912 132.158 319.912C132.781 319.912 133.171 319.678 133.171 319.209ZM132.158 318.195C132.704 318.195 133.093 317.961 133.093 317.571C133.093 317.181 132.704 316.947 132.158 316.947C131.613 316.947 131.302 317.181 131.302 317.571C131.302 317.961 131.613 318.195 132.158 318.195Z" fill="#263238"/>
<path d="M134.106 318.429C134.106 317.259 134.729 316.557 135.507 316.557C136.364 316.557 136.987 317.259 136.987 318.429C136.987 319.6 136.364 320.302 135.507 320.302C134.651 320.224 134.106 319.522 134.106 318.429ZM136.598 318.429C136.598 317.493 136.131 316.947 135.507 316.947C134.884 316.947 134.417 317.493 134.417 318.429C134.417 319.365 134.884 319.912 135.507 319.912C136.131 319.912 136.598 319.365 136.598 318.429Z" fill="#263238"/>
<path d="M142.673 314.684C141.505 314.684 140.492 313.748 140.492 312.499V271.848C140.492 270.678 141.427 269.663 142.673 269.663C143.841 269.663 144.854 270.6 144.854 271.848V312.499C144.854 313.748 143.841 314.684 142.673 314.684Z" fill="#E0E0E0"/>
<path d="M142.673 314.684C141.505 314.684 140.492 313.748 140.492 312.733V307.194C140.492 305.789 141.427 304.853 142.673 304.853C143.841 304.853 144.854 305.789 144.854 307.037V312.577C144.854 313.748 143.841 314.684 142.673 314.684Z" fill="#6D2AFE"/>
<path d="M141.972 318.351C141.972 319.6 141.271 320.224 140.336 320.224C140.025 320.224 139.713 320.146 139.48 319.99L139.635 319.678C139.791 319.834 140.103 319.834 140.336 319.834C141.115 319.834 141.583 319.366 141.583 318.351C141.583 318.273 141.583 318.195 141.583 318.039C141.427 318.429 140.959 318.663 140.492 318.663C139.791 318.663 139.246 318.273 139.246 317.571C139.246 316.869 139.791 316.479 140.492 316.479C141.505 316.557 141.972 317.259 141.972 318.351ZM141.505 317.649C141.505 317.259 141.193 316.869 140.57 316.869C140.025 316.869 139.713 317.181 139.713 317.649C139.713 318.117 140.103 318.429 140.648 318.429C141.115 318.429 141.505 318.117 141.505 317.649Z" fill="#263238"/>
<path d="M142.517 318.429C142.517 317.259 143.14 316.557 143.919 316.557C144.776 316.557 145.399 317.259 145.399 318.429C145.399 319.6 144.776 320.302 143.919 320.302C143.14 320.224 142.517 319.522 142.517 318.429ZM145.009 318.429C145.009 317.493 144.542 316.947 143.919 316.947C143.296 316.947 142.829 317.493 142.829 318.429C142.829 319.365 143.296 319.912 143.919 319.912C144.62 319.912 145.009 319.365 145.009 318.429Z" fill="#263238"/>
<path d="M151.318 314.684C150.15 314.684 149.137 313.748 149.137 312.499V271.848C149.137 270.678 150.072 269.663 151.318 269.663C152.486 269.663 153.499 270.6 153.499 271.848V312.499C153.499 313.748 152.486 314.684 151.318 314.684Z" fill="#E0E0E0"/>
<path d="M151.318 314.684C150.15 314.684 149.137 313.748 149.137 312.733V292.681C149.137 291.276 150.072 290.34 151.318 290.34C152.486 290.34 153.499 291.276 153.499 292.525V312.577C153.499 313.748 152.486 314.684 151.318 314.684Z" fill="#6D2AFE"/>
<path d="M148.203 316.635V320.224H147.813V316.947H146.957V316.635H148.203Z" fill="#263238"/>
<path d="M149.06 318.429C149.06 317.259 149.683 316.557 150.461 316.557C151.318 316.557 151.941 317.259 151.941 318.429C151.941 319.6 151.318 320.302 150.461 320.302C149.683 320.224 149.06 319.522 149.06 318.429ZM151.552 318.429C151.552 317.493 151.085 316.947 150.461 316.947C149.838 316.947 149.371 317.493 149.371 318.429C149.371 319.365 149.838 319.912 150.461 319.912C151.162 319.912 151.552 319.365 151.552 318.429Z" fill="#263238"/>
<path d="M152.486 318.429C152.486 317.259 153.11 316.557 153.888 316.557C154.745 316.557 155.368 317.259 155.368 318.429C155.368 319.6 154.745 320.302 153.888 320.302C153.11 320.224 152.486 319.522 152.486 318.429ZM154.979 318.429C154.979 317.493 154.511 316.947 153.888 316.947C153.265 316.947 152.798 317.493 152.798 318.429C152.798 319.365 153.265 319.912 153.888 319.912C154.511 319.912 154.979 319.365 154.979 318.429Z" fill="#263238"/>
<path d="M169.232 323.189C169.154 323.189 168.998 309.768 168.998 293.305C168.998 276.764 169.076 263.421 169.232 263.421C169.388 263.421 169.465 276.842 169.465 293.305C169.465 309.846 169.388 323.189 169.232 323.189Z" fill="#E0E0E0"/>
<path d="M219.624 267.323C219.624 267.401 211.368 267.557 201.243 267.557C191.04 267.557 182.862 267.479 182.862 267.323C182.862 267.244 191.118 267.088 201.243 267.088C211.368 267.088 219.624 267.166 219.624 267.323Z" fill="#263238"/>
<path d="M386.478 355.882C392.085 357.832 399.407 356.116 404.158 352.605C408.987 349.094 412.414 344.1 415.451 338.95C416.775 336.766 418.021 334.503 418.411 332.006C418.8 329.509 418.177 326.7 416.308 325.062C413.27 322.487 408.675 323.813 405.248 325.764C394.578 331.85 387.257 343.554 386.478 355.882Z" fill="#E8505B"/>
<path d="M392.475 369.302C395.824 373.75 401.587 375.7 407.195 376.012C412.725 376.246 418.255 374.764 423.473 372.735C425.343 372.033 427.445 371.019 428.069 369.068C428.536 367.586 428.068 365.947 427.056 364.777C426.121 363.606 424.719 362.826 423.317 362.202C418.177 360.017 412.336 359.939 406.962 361.344C401.587 362.748 396.836 365.869 392.475 369.302Z" fill="#E8505B"/>
<path d="M386.4 331.772C391.073 331.85 394.578 327.793 396.681 323.657C399.562 317.883 400.575 311.251 399.407 304.853C399.017 302.512 398.083 299.937 395.98 298.767C393.799 297.597 390.995 298.377 389.204 300.015C387.412 301.654 386.4 303.995 385.699 306.336C383.129 314.528 383.674 323.813 386.4 331.772Z" fill="#E8505B"/>
<path d="M371.134 357.52C379.079 344.022 380.325 327.559 375.73 312.578C374.951 310.159 373.549 307.35 370.979 307.194C368.175 307.038 366.461 310.159 365.682 312.812C362.956 322.253 363.579 332.396 364.125 342.227C364.514 348.313 366.539 353.541 371.134 357.52Z" fill="#E8505B"/>
<path d="M362.878 363.06C359.997 353.853 352.753 346.051 343.719 342.695C341.616 341.915 338.968 341.447 337.41 343.086C335.852 344.646 336.32 347.299 337.332 349.25C338.89 352.449 341.538 355.023 344.108 357.442C346.445 359.705 348.859 361.89 351.819 363.216C354.778 364.465 360.23 364.855 362.878 363.06Z" fill="#E8505B"/>
<path d="M411.946 328.417C411.946 328.417 411.868 328.495 411.79 328.573C411.713 328.651 411.557 328.807 411.401 328.885C411.012 329.197 410.466 329.587 409.765 330.133C409.376 330.367 408.987 330.68 408.597 330.992C408.13 331.304 407.74 331.694 407.195 332.084C406.183 332.942 405.092 333.801 403.924 334.893C403.301 335.439 402.678 335.985 402.055 336.609C401.432 337.234 400.809 337.858 400.108 338.56C398.784 339.886 397.46 341.369 395.98 343.008C393.254 346.285 390.45 349.952 387.802 354.165C385.232 358.379 383.129 362.514 381.493 366.493C380.714 368.444 379.935 370.316 379.39 372.111C379.079 373.047 378.767 373.828 378.533 374.686C378.3 375.544 378.066 376.324 377.832 377.105C377.365 378.665 377.054 380.07 376.82 381.318C376.664 381.942 376.508 382.488 376.431 383.035C376.353 383.581 376.275 384.049 376.197 384.517C376.041 385.375 375.885 386.078 375.807 386.546C375.73 386.78 375.73 386.936 375.73 387.092C375.73 387.248 375.652 387.248 375.652 387.248C375.652 387.248 375.652 387.17 375.652 387.092C375.652 386.936 375.73 386.78 375.73 386.546C375.807 386.078 375.885 385.375 376.041 384.517C376.119 384.049 376.197 383.581 376.275 383.035C376.353 382.488 376.508 381.942 376.664 381.318C376.976 380.07 377.209 378.665 377.677 377.105C377.91 376.324 378.144 375.544 378.3 374.686C378.533 373.828 378.845 372.969 379.157 372.033C379.702 370.238 380.481 368.366 381.259 366.337C382.895 362.436 384.998 358.222 387.568 354.009C390.138 349.796 393.02 346.051 395.746 342.851C397.148 341.291 398.472 339.73 399.874 338.404C400.575 337.78 401.198 337.078 401.821 336.453C402.444 335.829 403.145 335.283 403.69 334.737C404.859 333.644 406.027 332.786 407.04 331.928C407.507 331.538 407.974 331.148 408.441 330.836C408.909 330.523 409.298 330.211 409.688 329.977C410.389 329.509 411.012 329.041 411.401 328.807C411.557 328.651 411.713 328.573 411.868 328.495C411.868 328.417 411.946 328.417 411.946 328.417Z" fill="#263238"/>
<path d="M422.461 365.791C422.461 365.791 422.305 365.791 421.916 365.713C421.526 365.635 421.059 365.479 420.358 365.401C419.034 365.167 417.087 364.855 414.594 364.699C409.765 364.386 402.912 364.933 395.98 367.82C389.126 370.707 383.83 375.154 380.636 378.821C379.001 380.616 377.832 382.254 377.132 383.347C376.742 383.893 376.508 384.361 376.275 384.673C376.041 384.985 375.963 385.141 375.963 385.141C375.963 385.141 376.041 384.985 376.197 384.673C376.353 384.361 376.664 383.893 376.976 383.347C377.677 382.176 378.845 380.538 380.403 378.665C383.596 374.92 388.814 370.394 395.824 367.508C402.756 364.621 409.688 364.074 414.594 364.465C417.009 364.621 419.034 365.011 420.358 365.323C421.059 365.479 421.526 365.635 421.916 365.713C422.227 365.713 422.461 365.791 422.461 365.791Z" fill="#263238"/>
<path d="M393.176 304.229C393.176 304.229 393.176 304.307 393.176 304.463C393.176 304.619 393.098 304.853 393.02 305.087C392.864 305.633 392.709 306.414 392.475 307.428C392.008 309.457 391.307 312.344 390.45 315.933C388.736 323.111 386.166 333.02 383.518 343.944C382.194 349.406 381.026 354.633 380.013 359.471C379.001 364.23 378.144 368.6 377.521 372.189C377.209 373.984 376.898 375.622 376.664 377.105C376.431 378.587 376.197 379.836 376.041 380.85C375.885 381.864 375.73 382.644 375.652 383.191C375.574 383.425 375.574 383.659 375.574 383.815C375.574 383.971 375.496 384.049 375.496 384.049C375.496 384.049 375.496 383.971 375.496 383.815C375.496 383.659 375.574 383.425 375.574 383.191C375.652 382.644 375.73 381.864 375.885 380.85C376.041 379.836 376.197 378.587 376.43 377.105C376.664 375.622 376.898 373.984 377.209 372.189C377.832 368.522 378.611 364.23 379.624 359.471C380.636 354.711 381.805 349.484 383.129 343.944C385.777 333.02 388.347 323.111 390.138 315.933C391.073 312.344 391.774 309.457 392.241 307.428C392.475 306.414 392.709 305.711 392.864 305.087C392.942 304.853 393.02 304.619 393.02 304.463C393.176 304.307 393.176 304.229 393.176 304.229Z" fill="#263238"/>
<path d="M375.029 382.801C375.029 382.801 375.029 382.723 374.951 382.645C374.951 382.488 374.873 382.332 374.873 382.176C374.795 381.708 374.639 381.084 374.483 380.304C374.172 378.665 373.705 376.324 373.159 373.359C372.147 367.508 370.979 359.315 370.2 350.264C369.81 345.738 369.654 341.369 369.577 337.468C369.499 333.566 369.577 329.977 369.655 327.012C369.655 325.53 369.81 324.203 369.888 323.033C369.966 321.863 370.044 320.848 370.122 319.99C370.2 319.21 370.278 318.586 370.278 318.117C370.278 317.883 370.355 317.727 370.355 317.649C370.355 317.571 370.355 317.493 370.355 317.493C370.355 317.493 370.355 317.571 370.355 317.649C370.355 317.805 370.355 317.961 370.355 318.117C370.355 318.586 370.278 319.21 370.278 320.068C370.2 320.926 370.2 321.941 370.122 323.111C370.044 324.281 369.966 325.608 369.966 327.09C369.888 330.055 369.888 333.645 369.966 337.546C370.044 341.447 370.278 345.816 370.667 350.342C371.368 359.393 372.536 367.508 373.549 373.438C374.016 376.402 374.406 378.743 374.717 380.382C374.873 381.162 374.951 381.786 375.029 382.254C375.029 382.488 375.106 382.645 375.106 382.723C375.029 382.723 375.029 382.801 375.029 382.801Z" fill="#263238"/>
<path d="M375.652 384.517C375.652 384.517 375.574 384.361 375.418 384.049C375.262 383.737 375.106 383.269 374.873 382.723C374.795 382.41 374.639 382.098 374.483 381.708C374.328 381.318 374.172 381.006 373.938 380.538C373.782 380.148 373.549 379.68 373.393 379.211C373.159 378.743 372.926 378.275 372.692 377.807C372.458 377.339 372.147 376.793 371.913 376.246C371.602 375.7 371.29 375.154 370.979 374.608C370.355 373.437 369.499 372.267 368.72 371.019C367.006 368.6 365.059 365.947 362.801 363.372C360.542 360.797 358.205 358.535 355.947 356.506C354.778 355.57 353.766 354.555 352.753 353.775C352.208 353.385 351.741 352.995 351.274 352.605C350.806 352.215 350.339 351.902 349.872 351.59C348.937 350.888 348.158 350.342 347.379 349.874C346.678 349.328 345.977 348.937 345.432 348.625C344.887 348.313 344.498 348.079 344.186 347.845C343.874 347.689 343.797 347.533 343.797 347.533C343.797 347.533 343.952 347.611 344.264 347.767C344.575 347.923 345.043 348.157 345.51 348.469C346.055 348.781 346.756 349.172 347.457 349.718C348.236 350.186 349.093 350.732 349.95 351.434C350.417 351.746 350.884 352.137 351.429 352.449C351.897 352.839 352.442 353.229 352.909 353.619C354 354.399 355.012 355.336 356.18 356.35C358.439 358.379 360.776 360.641 363.034 363.216C365.293 365.791 367.318 368.444 369.031 370.863C369.81 372.111 370.667 373.281 371.29 374.452C371.602 374.998 371.913 375.622 372.225 376.09C372.536 376.637 372.77 377.183 373.004 377.651C373.237 378.197 373.471 378.665 373.705 379.133C373.938 379.601 374.094 380.07 374.25 380.46C374.406 380.85 374.561 381.24 374.717 381.63C374.873 382.02 374.951 382.332 375.029 382.644C375.184 383.191 375.34 383.659 375.496 384.049C375.574 384.361 375.652 384.517 375.652 384.517Z" fill="#263238"/>
<path d="M408.987 344.022C408.987 344.1 408.052 344.1 406.494 344.178C404.937 344.256 402.834 344.49 400.497 344.88C398.161 345.348 396.136 345.894 394.656 346.363C393.176 346.831 392.319 347.221 392.241 347.143C392.241 347.143 392.475 346.987 392.864 346.831C393.254 346.675 393.799 346.363 394.578 346.129C396.058 345.582 398.083 344.958 400.419 344.49C402.756 344.022 404.937 343.866 406.416 343.866C407.195 343.866 407.818 343.866 408.286 343.866C408.753 344.022 408.987 344.022 408.987 344.022Z" fill="#263238"/>
<path d="M414.984 373.281C414.906 373.359 413.971 370.785 411.713 368.366C409.532 365.947 406.962 364.855 407.04 364.777C407.04 364.777 407.663 364.933 408.675 365.479C409.61 366.025 410.856 366.883 412.024 368.132C413.192 369.38 413.971 370.629 414.439 371.643C414.828 372.579 415.062 373.203 414.984 373.281Z" fill="#263238"/>
<path d="M394.656 315.152C394.734 315.23 393.254 316.713 391.696 318.664C390.06 320.614 388.97 322.331 388.892 322.253C388.814 322.175 389.827 320.38 391.385 318.43C393.02 316.401 394.578 315.074 394.656 315.152Z" fill="#263238"/>
<path d="M389.827 306.882C389.905 306.882 390.216 308.286 390.528 310.003C390.839 311.719 390.995 313.202 390.917 313.202C390.839 313.202 390.528 311.797 390.216 310.081C389.905 308.364 389.749 306.882 389.827 306.882Z" fill="#263238"/>
<path d="M375.029 332.864C375.106 332.942 374.094 335.127 372.692 337.78C371.29 340.433 370.122 342.539 370.044 342.461C369.966 342.383 370.979 340.199 372.381 337.546C373.782 334.893 374.951 332.786 375.029 332.864Z" fill="#263238"/>
<path d="M366.228 324.047C366.305 323.969 367.162 325.608 368.175 327.559C369.187 329.587 369.888 331.226 369.81 331.226C369.732 331.304 368.876 329.665 367.863 327.715C366.851 325.764 366.15 324.047 366.228 324.047Z" fill="#263238"/>
<path d="M353.299 354.165C353.299 354.243 351.741 353.931 349.716 353.853C347.769 353.697 346.133 353.775 346.133 353.697C346.133 353.619 347.769 353.385 349.716 353.463C351.741 353.619 353.299 354.087 353.299 354.165Z" fill="#263238"/>
<path d="M362.177 380.772L366.617 403.945C366.929 405.506 368.253 406.598 369.81 406.598H382.817C384.375 406.598 385.777 405.428 386.01 403.867L389.827 380.772H362.177Z" fill="#263238"/>
<path d="M363.579 388.34H388.425L389.749 380.772H362.177L363.579 388.34Z" fill="#455A64"/>
<path d="M363.579 388.34L364.125 391.071H388.113L388.425 388.34H363.579Z" fill="#FAFAFA"/>
<g clip-path="url(#clip0_19_41)">
<path d="M225.338 302.592L222.41 300.839C222.41 300.839 218.571 297.465 217.595 296.751C216.553 296.038 212.584 294.221 211.998 294.286C211.413 294.35 205.947 293.961 204.645 293.377C203.344 292.793 201.912 291.95 201.912 291.95C201.912 291.95 201.001 292.923 201.782 294.286C202.563 295.648 206.598 298.179 206.598 298.179L205.101 307.977C205.101 307.977 208.875 310.897 211.153 311.092C213.495 311.287 215.708 310.833 216.358 311.027C217.009 311.222 218.636 311.806 218.636 311.806L225.338 302.592Z" fill="#FFBF9D"/>
<path d="M214.927 303.24L189.419 286.369L187.922 288.445L213.235 305.252L214.927 303.24Z" fill="#263238"/>
<path d="M200.611 298.244C200.611 298.244 198.659 299.023 199.7 300.839C200.741 302.592 202.043 302.072 202.043 302.072C202.043 302.072 201.587 304.019 203.8 305.057C203.8 305.057 203.539 306.939 205.101 308.042L206.337 308.691L207.053 307.069C207.053 307.069 211.738 306.615 212.454 304.798L212.519 303.824C212.519 303.824 213.43 303.37 213.3 302.462C213.17 301.553 213.235 301.553 211.478 300.969C209.721 300.385 206.012 300.775 206.012 300.775C206.012 300.775 208.029 299.996 207.964 298.958C207.899 297.919 207.118 297.271 204.971 297.4C202.758 297.53 200.611 298.244 200.611 298.244Z" fill="#FFBF9D"/>
<path d="M200.611 298.244C200.611 298.244 200.871 298.179 201.392 298.049C201.912 297.919 202.628 297.79 203.604 297.66C204.06 297.595 204.58 297.53 205.166 297.53C205.752 297.53 206.402 297.53 206.988 297.79C207.248 297.919 207.509 298.114 207.704 298.439C207.834 298.698 207.899 299.087 207.769 299.412C207.639 299.736 207.313 299.931 206.988 300.191C206.663 300.385 206.337 300.58 205.947 300.71L205.036 301.099L206.012 301.034C207.443 300.904 209.005 300.84 210.567 301.034C210.957 301.099 211.348 301.229 211.738 301.359C212.129 301.488 212.584 301.618 212.844 301.878C212.975 302.008 213.04 302.137 213.04 302.332L213.105 302.656C213.105 302.721 213.105 302.851 213.105 302.916C213.04 303.305 212.779 303.63 212.454 303.824L212.389 303.889V303.954C212.389 304.279 212.389 304.603 212.324 304.928V304.863C212.259 304.928 212.259 304.992 212.194 305.057C211.933 305.447 211.543 305.706 211.153 305.966C210.762 306.225 210.307 306.355 209.851 306.485C208.94 306.745 208.029 306.939 207.118 307.004H207.053L206.988 307.069C206.728 307.588 206.467 308.107 206.207 308.626L206.402 308.561C206.012 308.367 205.556 308.107 205.166 307.913C204.19 307.264 203.865 306.096 203.93 305.122V304.992L203.865 304.928C203.279 304.668 202.758 304.214 202.498 303.76C202.173 303.24 202.108 302.656 202.238 302.137L202.303 301.943L202.108 302.008C201.717 302.137 201.262 302.072 200.871 301.878C200.481 301.683 200.221 301.424 200.025 301.099C199.83 300.775 199.635 300.515 199.57 300.191C199.505 299.866 199.505 299.607 199.57 299.347C199.765 298.893 200.09 298.633 200.286 298.439C200.481 298.309 200.611 298.244 200.611 298.244C200.611 298.244 200.481 298.244 200.221 298.439C200.025 298.568 199.635 298.828 199.44 299.347C199.31 299.607 199.31 299.931 199.375 300.255C199.44 300.58 199.635 300.904 199.83 301.229C200.025 301.553 200.351 301.878 200.741 302.072C201.132 302.267 201.652 302.397 202.108 302.202L201.978 302.072C201.847 302.656 201.912 303.305 202.238 303.889C202.563 304.473 203.084 304.928 203.734 305.187L203.669 305.057C203.604 305.641 203.669 306.161 203.93 306.745C204.125 307.264 204.515 307.783 205.036 308.172C205.426 308.367 205.882 308.626 206.272 308.821L206.402 308.886L206.467 308.756C206.728 308.237 206.988 307.783 207.248 307.264L207.118 307.329C208.029 307.199 209.005 307.069 209.916 306.809C210.372 306.68 210.827 306.485 211.283 306.225C211.738 305.966 212.194 305.706 212.454 305.187C212.519 305.122 212.519 304.992 212.584 304.928V304.863C212.584 304.538 212.584 304.214 212.649 303.889L212.584 304.019C213.04 303.76 213.365 303.37 213.43 302.851C213.43 302.721 213.43 302.592 213.43 302.462L213.365 302.137C213.3 301.943 213.235 301.618 213.04 301.488C212.649 301.164 212.194 301.099 211.803 300.969C211.413 300.84 210.957 300.71 210.567 300.645C208.875 300.45 207.313 300.515 205.882 300.645L205.947 300.904C206.337 300.71 206.728 300.58 207.053 300.32C207.378 300.061 207.704 299.801 207.899 299.412C208.224 298.568 207.704 297.725 206.988 297.53C206.337 297.271 205.687 297.271 205.101 297.335C204.515 297.4 203.995 297.465 203.539 297.53C202.563 297.725 201.847 297.919 201.327 298.049C201.067 298.114 200.871 298.179 200.741 298.244C200.611 298.179 200.546 298.244 200.611 298.244Z" fill="#FF9A6C"/>
<path d="M204.32 305.057C204.385 305.187 206.012 304.214 208.354 303.889C210.632 303.5 212.519 303.954 212.519 303.824C212.519 303.76 212.064 303.63 211.283 303.5C210.502 303.37 209.461 303.37 208.224 303.5C207.053 303.695 206.012 304.019 205.296 304.344C204.645 304.733 204.255 304.992 204.32 305.057Z" fill="#FF9A6C"/>
<path d="M202.108 302.137C202.173 302.202 203.019 301.618 204.255 301.294C205.491 300.969 206.532 300.904 206.532 300.775C206.532 300.71 205.426 300.58 204.19 300.969C202.889 301.359 202.043 302.072 202.108 302.137Z" fill="#FF9A6C"/>
<path d="M313.444 203.569C312.663 201.947 310.711 200.974 308.954 201.233C306.872 199.546 303.619 199.546 301.601 201.233C300.04 200.26 297.957 200.195 296.331 201.038C294.704 201.882 293.598 203.634 293.467 205.451C291.645 205.126 289.628 206.1 288.782 207.722C287.871 209.344 288.197 211.551 289.433 212.848C287.416 213.432 286.049 215.704 286.44 217.78C286.83 219.857 288.978 221.414 291.06 221.219L312.533 208.566C313.835 207.333 314.225 205.191 313.444 203.569Z" fill="#263238"/>
<path d="M290.409 221.738C291.32 212.394 299.389 205.321 308.824 205.516H309.735C319.886 206.294 324.897 215.314 323.791 225.372L321.643 259.05L320.147 263.268L302.708 285.071L298.283 265.409L298.218 256.26C298.218 256.26 288.522 254.573 288.587 244.839C288.652 240.167 289.498 230.498 290.409 221.738Z" fill="#FFBF9D"/>
<path d="M298.218 256.325C298.218 256.325 304.334 256.779 310.972 252.821C310.972 252.821 307.848 259.764 298.218 258.726V256.325Z" fill="#FF9A6C"/>
<path d="M293.012 230.823C292.947 231.537 293.532 232.186 294.313 232.25C295.094 232.315 295.745 231.731 295.745 231.018C295.81 230.304 295.224 229.655 294.443 229.59C293.728 229.525 293.077 230.109 293.012 230.823Z" fill="#263238"/>
<path d="M292.231 227.059C292.426 227.254 293.467 226.475 294.964 226.54C296.461 226.54 297.567 227.319 297.697 227.189C297.762 227.124 297.632 226.8 297.111 226.41C296.656 226.086 295.875 225.697 294.899 225.697C293.988 225.697 293.142 226.021 292.687 226.345C292.361 226.67 292.166 226.994 292.231 227.059Z" fill="#263238"/>
<path d="M305.831 231.731C305.766 232.445 306.351 233.094 307.132 233.159C307.913 233.224 308.564 232.64 308.564 231.926C308.629 231.212 308.043 230.563 307.262 230.498C306.547 230.434 305.896 231.018 305.831 231.731Z" fill="#263238"/>
<path d="M306.612 227.124C306.807 227.319 307.848 226.54 309.345 226.605C310.841 226.605 311.948 227.384 312.078 227.254C312.143 227.189 312.013 226.865 311.492 226.475C311.037 226.151 310.256 225.761 309.28 225.761C308.369 225.761 307.523 226.086 307.067 226.41C306.677 226.735 306.482 227.059 306.612 227.124Z" fill="#263238"/>
<path d="M301.406 238.091C301.406 238.026 300.495 237.831 298.998 237.571C298.608 237.507 298.283 237.442 298.218 237.182C298.153 236.923 298.283 236.468 298.478 236.079C298.868 235.17 299.259 234.197 299.649 233.224C301.276 229.136 302.512 225.761 302.317 225.697C302.122 225.632 300.69 228.876 298.998 233.029C298.608 234.067 298.218 234.976 297.827 235.949C297.697 236.403 297.437 236.858 297.567 237.442C297.632 237.701 297.957 237.961 298.153 238.026C298.413 238.091 298.608 238.091 298.803 238.155C300.495 238.155 301.406 238.22 301.406 238.091Z" fill="#263238"/>
<path d="M305.831 239.259C305.571 239.259 305.571 240.881 304.139 241.984C302.708 243.087 301.016 242.892 300.951 243.087C300.951 243.217 301.341 243.412 302.057 243.476C302.773 243.541 303.814 243.282 304.725 242.633C305.571 241.919 305.961 241.011 306.026 240.362C306.091 239.648 305.961 239.259 305.831 239.259Z" fill="#263238"/>
<path d="M306.677 222.906C306.872 223.296 308.173 222.971 309.735 223.036C311.297 223.036 312.598 223.425 312.794 223.036C312.859 222.841 312.598 222.517 312.078 222.128C311.557 221.803 310.711 221.479 309.735 221.479C308.824 221.479 307.978 221.673 307.393 221.998C306.872 222.322 306.612 222.712 306.677 222.906Z" fill="#263238"/>
<path d="M292.687 222.971C292.882 223.361 293.988 223.101 295.224 223.231C296.461 223.296 297.502 223.685 297.762 223.361C297.892 223.231 297.762 222.841 297.307 222.452C296.916 222.063 296.135 221.738 295.289 221.673C294.443 221.608 293.663 221.868 293.207 222.128C292.752 222.452 292.556 222.776 292.687 222.971Z" fill="#263238"/>
<path d="M291.385 217.326C291.385 217.326 294.053 211.291 297.046 209.928C300.625 208.306 302.122 212.199 305.506 211.356C308.889 210.447 312.338 208.89 315.787 211.615C319.496 214.535 317.674 216.547 317.869 220.83C318.455 238.35 321.578 243.347 322.619 235.106C322.749 234.197 325.287 233.548 325.743 229.72C326.328 224.788 326.654 218.818 325.613 215.249C324.767 212.264 323.075 210.188 320.081 207.852C315.396 204.218 308.824 203.958 304.334 204.348C299.844 204.737 291.19 209.669 291.385 217.326Z" fill="#263238"/>
<path d="M322.034 234.846C322.099 233.354 323.465 232.186 324.962 232.38C326.784 232.575 328.801 233.678 328.606 237.377C328.215 243.996 321.578 242.308 321.578 242.114C321.578 241.984 321.838 237.636 322.034 234.846Z" fill="#FFBF9D"/>
<path d="M323.205 239.648C323.205 239.648 323.335 239.713 323.53 239.843C323.725 239.908 324.051 240.037 324.376 239.908C325.092 239.713 325.743 238.61 325.808 237.377C325.873 236.793 325.743 236.209 325.547 235.69C325.352 235.171 325.092 234.846 324.702 234.781C324.376 234.651 324.116 234.911 323.986 235.041C323.856 235.235 323.921 235.365 323.856 235.365C323.856 235.365 323.725 235.235 323.791 234.976C323.856 234.846 323.921 234.716 324.051 234.587C324.246 234.457 324.441 234.392 324.702 234.457C325.222 234.522 325.678 235.041 325.873 235.56C326.133 236.079 326.263 236.728 326.198 237.442C326.068 238.804 325.352 239.972 324.376 240.232C323.921 240.297 323.53 240.167 323.335 239.972C323.205 239.843 323.14 239.713 323.205 239.648Z" fill="#FF9A6C"/>
<path d="M322.164 221.933C321.318 222.517 320.342 223.101 319.301 223.166C318.259 223.231 317.088 222.647 316.893 221.608C316.828 221.154 316.958 220.635 316.633 220.246C316.307 219.792 315.592 219.921 315.071 219.986C313.119 220.181 311.167 218.753 310.711 216.871C310.191 217.585 309.019 217.52 308.304 217.066C307.588 216.547 307.132 215.768 306.547 215.119C305.961 214.471 305.18 213.822 304.269 213.951C303.749 214.016 303.293 214.276 302.838 214.211C301.992 214.146 301.536 213.108 301.471 212.199C301.341 211.356 301.276 210.318 300.56 209.863C299.909 209.409 298.998 209.669 298.153 209.734C297.372 209.863 296.331 209.604 296.135 208.825C296.005 208.436 296.2 207.982 296.461 207.657C297.502 206.035 299.779 205.386 301.601 206.165C302.317 203.958 304.399 202.336 306.677 202.141C308.954 201.947 311.297 203.245 312.338 205.256C313.77 203.893 315.852 203.439 317.674 203.893C319.496 204.348 321.123 205.775 321.773 207.527C323.4 207.138 325.222 207.787 326.263 209.15C327.239 210.512 327.369 212.459 326.524 213.887C327.695 214.6 328.736 215.833 328.736 217.196C328.736 218.559 327.369 219.921 326.068 219.532C326.589 220.635 326.133 222.063 325.092 222.647C324.051 223.231 322.554 222.841 321.903 221.803" fill="#263238"/>
<path d="M326.458 219.467C326.458 219.467 326.589 220.051 326.003 220.765C325.743 221.089 325.287 221.414 324.636 221.544C324.051 221.608 323.27 221.479 322.749 220.96L323.01 220.895C322.684 221.479 322.229 222.063 321.643 222.517C321.253 222.841 320.862 223.101 320.407 223.231C319.951 223.425 319.496 223.425 319.04 223.296C318.194 223.166 317.479 222.712 317.153 222.128C316.828 221.608 316.698 221.089 316.633 220.765C316.568 220.44 316.568 220.246 316.568 220.246C316.568 220.246 316.633 220.44 316.763 220.765C316.893 221.089 317.023 221.544 317.348 222.063C317.934 223.036 320.016 223.555 321.383 222.257C321.903 221.803 322.359 221.284 322.684 220.7L322.88 220.505L323.01 220.635C323.465 221.089 324.116 221.219 324.636 221.154C325.157 221.089 325.613 220.83 325.873 220.57C326.393 219.986 326.458 219.467 326.458 219.467Z" fill="#455A64"/>
<path d="M314.225 204.023C314.225 204.023 314.03 204.088 313.77 204.218C313.444 204.348 313.054 204.607 312.728 205.061L312.598 205.191L312.533 205.061C311.948 204.218 310.906 203.115 309.345 202.401C308.564 202.012 307.718 201.817 306.742 201.752C305.766 201.752 304.79 202.012 303.879 202.466C303.163 202.855 302.577 203.439 302.187 204.023C301.731 204.672 301.471 205.321 301.406 206.035V206.229L301.211 206.165C300.235 205.84 299.194 206.035 298.413 206.424C297.632 206.813 297.176 207.462 296.851 207.982C296.265 209.15 296.461 209.928 296.396 209.928C296.396 209.928 296.331 209.734 296.331 209.409C296.331 209.085 296.396 208.501 296.656 207.917C296.916 207.333 297.437 206.619 298.283 206.165C299.064 205.71 300.17 205.516 301.276 205.775L301.081 205.905C301.146 205.191 301.471 204.413 301.927 203.764C302.382 203.115 303.033 202.531 303.749 202.077C304.725 201.492 305.766 201.233 306.807 201.298C307.848 201.298 308.759 201.622 309.54 202.012C311.167 202.79 312.143 203.958 312.728 204.867H312.533C312.924 204.348 313.379 204.088 313.705 204.023C314.03 204.023 314.225 204.023 314.225 204.023Z" fill="#455A64"/>
<path d="M335.699 407L335.438 372.024L330.493 359.306V355.866L274.857 354.893V358.916L268.415 374.749L268.09 407H300.235L302.968 392.465L303.553 407H335.699Z" fill="#263238"/>
<path d="M321.773 256.325L310.126 265.409L302.773 274.754L300.105 265.085L298.153 257.493L294.964 260.608L286.96 277.674L277.981 360.019C277.981 360.019 293.728 364.627 301.862 365.146C309.995 365.73 323.01 363.459 323.01 363.459V320.112L327.63 277.219L322.034 260.802L321.773 256.325Z" fill="#F5F5F5"/>
<path d="M298.283 364.627C298.283 364.627 298.283 364.562 298.283 364.367C298.283 364.172 298.283 363.978 298.348 363.718C298.348 363.069 298.413 362.226 298.413 361.123C298.478 358.851 298.608 355.542 298.738 351.519C298.998 343.408 299.454 332.246 300.105 319.852C300.755 307.523 301.471 296.297 301.992 288.251C302.252 284.228 302.512 280.983 302.642 278.647C302.707 277.544 302.773 276.635 302.838 276.051C302.838 275.792 302.838 275.532 302.903 275.403C302.903 275.273 302.903 275.143 302.903 275.143C302.903 275.143 302.903 275.208 302.838 275.403C302.838 275.597 302.773 275.792 302.773 276.051C302.707 276.635 302.642 277.544 302.512 278.647C302.317 280.918 302.057 284.163 301.731 288.186C301.081 296.297 300.365 307.458 299.714 319.787C299.064 332.117 298.673 343.343 298.413 351.454C298.283 355.477 298.218 358.787 298.218 361.058C298.218 362.161 298.218 363.069 298.218 363.653C298.218 363.913 298.218 364.172 298.218 364.302C298.283 364.562 298.283 364.627 298.283 364.627Z" fill="#263238"/>
<path d="M323.595 260.608L326.263 264.306L348.257 275.857L336.024 313.104L332.705 333.998L345.069 383.639C345.069 383.639 330.037 388.766 328.736 387.144C328.15 386.43 326.589 382.861 324.962 378.967C321.708 371.181 319.561 363.004 318.65 354.569C317.739 346.133 316.893 335.361 317.479 328.029C318.65 314.402 320.472 291.82 320.602 285.915C320.797 280.01 321.838 257.623 321.838 257.623L323.595 260.608Z" fill="#6D2AFE"/>
<path d="M296.591 258.401L289.303 262.619L265.747 270.341L267.634 286.953L268.74 329.975L261.322 381.628C261.322 381.628 269.261 384.418 272.384 383.25C275.508 382.082 279.802 375.009 279.998 370.726C280.193 366.444 286.245 324.979 286.245 324.979L292.166 269.173L296.591 258.401Z" fill="#6D2AFE"/>
<path d="M288.847 262.619C288.847 262.619 288.717 262.749 288.522 262.944C288.327 263.203 288.067 263.528 287.676 263.917C286.96 264.825 285.919 266.123 284.618 267.681L284.553 267.745L284.618 267.81C285.399 268.394 286.245 269.043 287.156 269.757L287.221 269.562C286.31 269.887 285.268 270.146 284.227 270.536H284.162V270.666C284.227 275.987 284.292 282.735 284.357 290.068C284.488 298.958 284.618 307.069 284.683 312.909C284.748 315.829 284.813 318.165 284.813 319.852C284.813 320.631 284.878 321.28 284.878 321.734C284.878 321.929 284.878 322.124 284.878 322.253C284.878 322.383 284.878 322.448 284.878 322.448C284.878 322.448 284.878 322.383 284.878 322.253C284.878 322.124 284.878 321.994 284.878 321.734C284.878 321.28 284.878 320.631 284.878 319.852C284.878 318.165 284.878 315.829 284.878 312.909C284.813 307.069 284.748 298.958 284.618 290.068C284.488 282.735 284.423 276.051 284.357 270.666L284.292 270.795C285.334 270.471 286.375 270.146 287.286 269.822L287.481 269.757L287.286 269.627C286.375 268.914 285.464 268.265 284.683 267.745V267.875C285.919 266.253 286.96 264.955 287.611 264.047C287.936 263.592 288.197 263.268 288.392 263.008C288.782 262.749 288.912 262.619 288.847 262.619Z" fill="#263238"/>
<path d="M318.194 321.02C318.194 321.02 318.194 320.956 318.259 320.891C318.325 320.761 318.325 320.631 318.39 320.436C318.52 319.982 318.715 319.398 318.975 318.619C319.496 316.997 320.277 314.726 321.318 311.871C321.838 310.443 322.359 308.886 323.01 307.264C323.66 305.577 324.181 303.76 324.702 301.878C325.678 297.984 326.458 293.702 327.044 289.159C327.89 283.254 328.411 277.609 328.736 272.807V272.742L328.671 272.677C327.76 271.834 326.914 270.99 326.068 270.211V270.406C326.914 269.757 327.76 269.108 328.541 268.524L328.606 268.459L328.541 268.394C326.654 265.864 325.157 263.852 324.116 262.36C323.595 261.646 323.205 261.127 322.88 260.737C322.749 260.543 322.619 260.413 322.554 260.348C322.489 260.283 322.424 260.218 322.424 260.218C322.424 260.218 322.424 260.283 322.489 260.348C322.554 260.478 322.684 260.608 322.814 260.802C323.075 261.192 323.465 261.776 323.986 262.489C325.027 263.917 326.524 265.993 328.346 268.589V268.394C327.565 268.978 326.719 269.562 325.873 270.211L325.743 270.276L325.873 270.406C326.719 271.185 327.565 272.028 328.476 272.937L328.411 272.807C328.085 277.609 327.5 283.189 326.719 289.094C326.068 293.637 325.352 297.984 324.376 301.813C323.856 303.76 323.335 305.512 322.749 307.199C322.164 308.886 321.643 310.443 321.123 311.871C320.147 314.726 319.431 317.062 318.91 318.684C318.65 319.463 318.455 320.112 318.39 320.566C318.325 320.761 318.325 320.956 318.259 321.085C318.194 320.956 318.194 321.02 318.194 321.02Z" fill="#263238"/>
<path opacity="0.3" d="M337.13 351.778L324.311 356.775L323.465 353.92L319.105 357.878L318.325 351L322.359 343.537L336.219 348.015L337.13 351.778Z" fill="black"/>
<path d="M293.598 351.649L298.803 348.534L303.358 344.381C303.358 344.381 301.927 345.614 299.779 346.328C297.632 347.041 296.461 345.095 296.461 345.095C296.461 345.095 298.348 343.927 298.998 343.537C299.649 343.213 306.091 338.346 307.783 338.022C309.41 337.697 320.277 335.491 320.277 335.491L320.472 336.075L325.808 347.431L321.058 348.729C321.058 348.729 319.691 350.61 318.65 352.687C317.609 354.828 312.403 356.905 310.386 357.943C308.369 358.981 306.156 357.164 306.156 357.164C303.879 357.683 303.293 355.218 303.293 355.218C300.625 354.893 300.43 351.973 300.43 351.973C300.43 351.973 295.615 353.855 294.183 354.114C293.598 354.244 293.272 353.92 293.077 353.53C292.687 352.817 293.012 352.038 293.598 351.649Z" fill="#FFBF9D"/>
<path d="M300.3 351.973C300.365 352.038 301.731 351.519 303.358 350.61C304.985 349.702 306.091 348.729 306.026 348.664C305.961 348.599 304.79 349.442 303.163 350.286C301.601 351.194 300.3 351.908 300.3 351.973Z" fill="#FF9A6C"/>
<path d="M308.759 351.519C308.694 351.454 307.328 352.168 305.766 353.271C304.204 354.374 302.903 355.218 302.968 355.282C303.033 355.347 304.399 354.634 305.961 353.53C307.523 352.492 308.824 351.649 308.759 351.519Z" fill="#FF9A6C"/>
<path d="M310.841 353.725C310.776 353.66 309.8 354.504 308.434 355.412C307.067 356.321 306.026 357.099 306.091 357.164C306.156 357.229 307.263 356.58 308.629 355.672C309.93 354.763 310.906 353.79 310.841 353.725Z" fill="#FF9A6C"/>
<path d="M309.475 339.839C309.475 339.774 309.019 339.839 308.304 340.098C307.588 340.358 306.677 340.812 305.831 341.461C304.92 342.175 304.269 342.888 303.814 343.472C303.358 344.056 303.163 344.446 303.163 344.446C303.228 344.511 304.269 343.018 306.026 341.72C307.718 340.358 309.54 339.903 309.475 339.839Z" fill="#FF9A6C"/>
<path d="M359.645 338.281C361.011 337.438 361.857 335.945 361.922 334.323C361.987 332.895 361.922 330.754 361.532 327.574C360.621 319.982 348.127 275.857 348.127 275.857L335.568 310.249L339.863 325.238L317.934 335.686L324.051 352.882C324.051 352.882 353.203 342.24 359.645 338.281Z" fill="#6D2AFE"/>
<path d="M265.747 270.406L245.575 308.626L245.055 309.405L223.061 298.244L215.838 312.844L245.445 330.689C248.829 332.701 253.188 331.727 255.336 328.483L268.415 309.016L271.929 293.053L265.747 270.406Z" fill="#6D2AFE"/>
<path d="M268.285 281.308C268.285 281.308 268.285 281.502 268.22 281.762C268.22 282.086 268.22 282.54 268.155 283.124C268.155 284.357 268.09 286.109 268.09 288.186C268.025 292.469 268.025 298.374 268.09 304.928C268.155 311.482 268.285 317.387 268.415 321.669C268.48 323.811 268.545 325.498 268.61 326.731C268.61 327.315 268.675 327.769 268.675 328.093C268.675 328.418 268.74 328.548 268.74 328.548C268.74 328.548 268.74 328.353 268.74 328.093C268.74 327.769 268.74 327.315 268.74 326.731C268.74 325.498 268.675 323.746 268.675 321.669C268.61 317.387 268.48 311.482 268.415 304.928C268.35 298.374 268.35 292.469 268.35 288.186C268.35 286.045 268.35 284.357 268.35 283.124C268.35 282.54 268.35 282.086 268.35 281.762C268.285 281.437 268.285 281.308 268.285 281.308Z" fill="#263238"/>
<path d="M343.247 285.461C343.247 285.461 343.182 285.59 343.117 285.85C343.052 286.109 342.921 286.499 342.791 286.953C342.531 287.991 342.075 289.354 341.62 291.106C340.644 294.61 339.277 299.477 337.911 304.863C336.544 310.249 335.438 315.18 334.788 318.749C334.462 320.566 334.202 321.994 334.007 322.967C333.942 323.421 333.877 323.811 333.811 324.135C333.746 324.395 333.746 324.524 333.746 324.524C333.746 324.524 333.811 324.395 333.877 324.135C333.942 323.811 334.007 323.486 334.137 322.967C334.332 321.929 334.657 320.501 334.983 318.749C335.699 315.18 336.87 310.313 338.171 304.928C339.538 299.542 340.839 294.675 341.75 291.171C342.206 289.419 342.531 288.056 342.856 287.018C342.986 286.564 343.052 286.174 343.117 285.85C343.247 285.59 343.247 285.461 343.247 285.461Z" fill="#263238"/>
<path d="M352.357 341.85C352.357 341.85 352.292 341.85 352.227 341.915C352.096 341.98 351.966 341.98 351.836 342.045C351.446 342.175 350.925 342.369 350.274 342.629C348.908 343.148 346.891 343.927 344.353 344.9C339.277 346.847 332.25 349.637 324.051 352.817L324.246 352.882C322.945 349.313 321.578 345.354 320.147 341.331C319.431 339.384 318.78 337.503 318.129 335.686L318.064 335.88C326.458 331.857 334.007 328.223 339.733 325.433C341.555 324.849 343.312 324.719 344.874 324.849C346.37 324.979 347.672 325.368 348.648 325.822C349.624 326.212 350.34 326.666 350.86 326.99C351.055 327.12 351.251 327.25 351.381 327.315C351.511 327.38 351.576 327.445 351.576 327.445C351.576 327.445 351.511 327.38 351.381 327.315C351.251 327.25 351.055 327.12 350.86 326.925C350.405 326.601 349.689 326.147 348.648 325.692C347.672 325.238 346.37 324.849 344.808 324.654C343.247 324.46 341.49 324.654 339.603 325.173C333.877 327.899 326.328 331.533 317.869 335.556L317.739 335.621L317.804 335.75C318.455 337.567 319.105 339.514 319.821 341.396C321.253 345.419 322.619 349.313 323.921 352.946L323.986 353.076L324.116 353.011C332.315 349.767 339.343 346.977 344.418 345.03C346.891 344.056 348.908 343.213 350.274 342.694C350.925 342.434 351.446 342.24 351.836 342.045C352.031 341.98 352.162 341.915 352.227 341.85C352.292 341.85 352.357 341.85 352.357 341.85Z" fill="#263238"/>
<path d="M244.924 308.951C244.859 308.951 244.794 309.535 244.859 310.443C244.924 311.352 245.055 312.65 245.38 314.012C245.64 315.375 245.966 316.608 246.161 317.516C246.356 318.425 246.486 318.944 246.551 318.944C246.616 318.944 246.551 318.36 246.421 317.451C246.291 316.543 246.031 315.31 245.705 313.882C245.445 312.52 245.185 311.287 245.12 310.314C244.989 309.535 244.989 308.951 244.924 308.951Z" fill="#263238"/>
<path d="M244.924 309.924C244.859 309.924 245.25 311.546 245.966 313.363C246.681 315.245 247.267 316.738 247.332 316.738C247.397 316.738 247.007 315.115 246.291 313.298C245.575 311.352 244.989 309.859 244.924 309.924Z" fill="#263238"/>
<path d="M303.033 274.364C303.033 274.364 303.293 274.17 303.619 273.78C304.009 273.391 304.595 272.807 305.245 272.158C306.677 270.73 308.564 268.784 310.776 266.513H310.516C311.232 267.291 311.687 268.394 311.948 269.562C312.078 270.146 312.143 270.795 312.078 271.314V271.704L312.403 271.444C315.201 269.173 317.479 266.967 319.17 265.474C320.016 264.696 320.667 264.112 321.188 263.722C321.643 263.333 321.903 263.073 321.903 263.073C321.903 263.073 321.578 263.268 321.123 263.657C320.602 264.047 319.886 264.631 319.04 265.345C317.283 266.837 315.006 268.978 312.208 271.25L312.468 271.379C312.533 270.795 312.468 270.146 312.338 269.498C312.078 268.329 311.557 267.161 310.841 266.318L310.711 266.188L310.581 266.318C308.434 268.589 306.547 270.536 305.115 272.028C304.464 272.742 303.944 273.261 303.553 273.715C303.228 274.17 303.033 274.364 303.033 274.364Z" fill="#263238"/>
<path d="M295.68 262.1C295.68 262.1 295.68 262.295 295.68 262.619C295.68 262.944 295.68 263.463 295.745 264.047C295.81 265.28 296.07 267.032 296.591 269.043L296.721 269.433L296.916 269.043C297.437 268.07 298.153 267.032 299.064 266.123C299.324 265.864 299.584 265.669 299.779 265.409L299.519 265.344C300.105 268.005 300.886 270.276 301.536 271.898C301.862 272.677 302.122 273.326 302.317 273.78C302.512 274.234 302.642 274.429 302.642 274.429C302.642 274.429 302.577 274.17 302.382 273.715C302.187 273.196 301.992 272.547 301.666 271.769C301.081 270.146 300.365 267.81 299.779 265.215L299.714 264.955L299.519 265.15C299.259 265.344 298.998 265.604 298.738 265.864C297.827 266.837 297.046 267.875 296.526 268.913H296.851C296.331 266.967 296.07 265.215 295.94 263.982C295.745 262.814 295.68 262.1 295.68 262.1Z" fill="#263238"/>
<path d="M275.638 348.664L273.686 354.763L262.559 353.725L266.007 347.885L275.638 348.664Z" fill="#6D2AFE"/>
<path d="M275.638 348.664C275.638 348.664 275.443 348.599 274.987 348.599C274.467 348.534 273.816 348.469 273.035 348.404C271.343 348.274 268.936 348.015 266.007 347.755H265.942L265.877 347.82C264.836 349.572 263.665 351.584 262.363 353.66L262.233 353.92H262.494C262.689 353.92 262.884 353.985 263.079 353.985C267.114 354.309 270.758 354.634 273.621 354.893H273.751V354.763C274.337 352.882 274.792 351.324 275.117 350.221C275.248 349.702 275.378 349.313 275.443 348.988C275.573 348.793 275.638 348.664 275.638 348.664C275.638 348.664 275.573 348.793 275.443 349.118C275.313 349.442 275.182 349.832 274.987 350.351C274.597 351.454 274.141 352.946 273.491 354.763L273.621 354.698C270.758 354.439 267.049 354.05 263.079 353.66C262.884 353.66 262.689 353.595 262.494 353.595L262.624 353.855C263.86 351.778 265.031 349.767 266.072 348.015L265.942 348.08C268.74 348.274 271.148 348.404 272.84 348.534C273.686 348.599 274.337 348.599 274.857 348.664C275.378 348.664 275.638 348.664 275.638 348.664Z" fill="#6D2AFE"/>
<path d="M270.562 300.32H282.535V304.149H270.562V300.32Z" fill="#FF725E"/>
<path d="M270.562 304.149C270.562 304.149 270.562 304.019 270.562 303.889C270.562 303.695 270.562 303.435 270.562 303.111C270.562 302.397 270.627 301.488 270.627 300.32L270.497 300.45C273.36 300.515 277.655 300.515 282.47 300.515C282.405 300.45 282.666 300.71 282.275 300.32V300.385V300.515V300.775V301.294C282.275 301.618 282.275 301.943 282.275 302.267C282.275 302.916 282.275 303.565 282.275 304.149L282.47 303.954C279.087 303.954 276.093 304.019 273.946 304.019C272.905 304.019 272.059 304.084 271.408 304.084C270.953 304.149 270.627 304.149 270.562 304.149C270.562 304.149 270.823 304.149 271.408 304.214C272.059 304.214 272.84 304.214 273.881 304.279C276.028 304.279 279.022 304.344 282.47 304.344H282.666V304.149C282.666 303.565 282.666 302.916 282.666 302.267C282.666 301.943 282.666 301.618 282.666 301.294V300.775V300.515V300.385V300.32C282.34 299.996 282.601 300.256 282.47 300.126C277.655 300.126 273.36 300.126 270.497 300.191H270.367V300.32C270.367 301.488 270.432 302.462 270.432 303.176C270.562 303.824 270.562 304.214 270.562 304.149Z" fill="#6D2AFE"/>
<path opacity="0.3" d="M284.423 270.73L282.601 273.261C282.601 273.261 283.121 311.546 285.073 321.085L284.423 270.73Z" fill="black"/>
</g>
<defs>
<clipPath id="clip0_19_41">
<rect width="174" height="207" fill="white" transform="matrix(-1 0 0 1 361.922 200)"/>
</clipPath>
</defs>
</svg>
