<svg width="437" height="413" viewBox="0 0 437 413" fill="none" xmlns="http://www.w3.org/2000/svg">
<rect x="0.113281" y="0.385498" width="436.887" height="412.613" rx="12" fill="#EBDDF1"/>
<g clip-path="url(#clip0_19_42)">
<path d="M41.71 75.7181L119.822 55.2621C120.459 55.1029 121.096 55.5009 121.255 56.0581L136.702 107.874C136.862 108.511 136.463 109.228 135.826 109.387L54.6092 129.206C53.9722 129.365 53.3352 128.967 53.176 128.33L40.8341 77.1508C40.6749 76.514 41.073 75.8773 41.71 75.7181Z" fill="#EBEBEB"/>
<path d="M40.5953 76.0365L70.8527 35.5225C72.1267 33.7714 74.4358 33.2143 76.3468 34.1694L120.937 55.0233" fill="#EBEBEB"/>
<path d="M45.3728 77.9468L40.8342 60.5154L111.939 42.4473L116.717 60.3562L88.609 97.1292L45.3728 77.9468Z" fill="#FAFAFA"/>
<path d="M45.3728 77.9468C45.3728 77.9468 45.6116 78.0264 46.169 78.2651C46.7264 78.5039 47.443 78.8223 48.4781 79.2999C50.4687 80.1754 53.4945 81.5285 57.2368 83.1204C64.8012 86.4634 75.6302 91.2391 88.609 96.97H88.5294C96.6511 86.3042 106.286 73.7282 116.637 60.1971V60.2766C116 57.7296 115.283 55.0234 114.567 52.3171C113.691 48.9741 112.815 45.6311 111.939 42.3677L112.019 42.4473C82.3983 50.0089 56.7591 56.4561 40.8341 60.5154V60.4358C42.2674 65.9279 43.3821 70.3056 44.1784 73.3302C44.5765 74.8426 44.895 75.9569 45.0543 76.7528C45.1339 77.1508 45.2135 77.4692 45.2931 77.6284C45.3728 77.8672 45.3728 77.9468 45.3728 77.9468C45.3728 77.9468 45.3728 77.8672 45.2931 77.6284C45.2135 77.4692 45.1339 77.1508 45.0543 76.7528C44.8154 75.9569 44.5765 74.8426 44.1784 73.3302C43.3821 70.3056 42.2674 65.9279 40.7545 60.4358V60.3562H40.8341C56.7591 56.2969 82.4779 49.7701 112.019 42.2881H112.098V42.3677C112.974 45.6311 113.85 48.9741 114.726 52.3171C115.443 55.0234 116.159 57.8092 116.796 60.2766C106.445 73.8078 96.8104 86.3838 88.6886 97.0496H88.609C75.5505 91.2391 64.7216 86.4634 57.2368 83.1204C53.4945 81.4489 50.5484 80.0958 48.4781 79.2203C47.443 78.7427 46.7264 78.4243 46.169 78.1856C45.6116 78.106 45.3728 77.9468 45.3728 77.9468Z" fill="#E0E0E0"/>
<path d="M96.8104 58.2867C96.8104 58.2867 88.8479 60.4358 78.9744 63.0625C69.101 65.6891 61.1385 67.679 61.1385 67.679C61.1385 67.679 69.101 65.5299 78.9744 62.9033C88.8479 60.3562 96.8104 58.2867 96.8104 58.2867Z" fill="#E0E0E0"/>
<path d="M105.171 64.8931C105.171 64.8931 94.4216 67.7586 81.1243 71.2607C67.827 74.6833 57.0776 77.4692 56.998 77.4692C56.998 77.4692 67.7473 74.6037 81.0447 71.1015C94.342 67.679 105.091 64.8931 105.171 64.8931Z" fill="#E0E0E0"/>
<path d="M107.241 73.0914C107.241 73.0914 96.9696 75.7977 84.3093 79.1407C71.6489 82.4041 61.3773 85.1103 61.3773 85.0307C61.3773 85.0307 71.6489 82.3245 84.3093 78.9815C96.89 75.7181 107.241 73.0914 107.241 73.0914Z" fill="#E0E0E0"/>
<path d="M99.9953 82.5632C99.8361 82.6428 99.8361 82.6428 99.7565 82.6428C99.5972 82.7224 99.2787 82.802 98.9602 82.8816C98.2436 83.0408 97.2085 83.3592 96.0141 83.6776C93.4661 84.3143 90.0422 85.2695 86.2203 86.3042C82.3983 87.3389 78.8948 88.2145 76.4264 88.9308C75.1524 89.2492 74.1969 89.488 73.4803 89.6472C73.1618 89.7268 72.8433 89.8064 72.684 89.8064C72.6044 89.8064 72.5248 89.8064 72.4452 89.886C72.3655 89.886 72.3655 89.886 72.3655 89.886C72.3655 89.886 72.3655 89.886 72.4452 89.886C72.5248 89.886 72.6044 89.886 72.684 89.8064C72.8433 89.7268 73.1618 89.6472 73.4803 89.5676C74.1969 89.4084 75.232 89.09 76.4264 88.7716C78.9744 88.1349 82.3983 87.1797 86.2203 86.145C90.0422 85.1103 93.5457 84.2347 96.0141 83.5184C97.2881 83.2 98.2436 82.9612 98.9602 82.802C99.2787 82.7224 99.5972 82.6428 99.7565 82.6428C99.8361 82.6428 99.9157 82.5632 99.9953 82.5632Z" fill="#E0E0E0"/>
<path d="M92.6699 91.7963C92.6699 91.7963 90.3608 92.433 87.5739 93.1494C84.7074 93.8657 82.3983 94.4229 82.3983 94.4229C82.3983 94.4229 84.7074 93.7861 87.4943 93.0698C90.3608 92.2738 92.6699 91.7167 92.6699 91.7963Z" fill="#E0E0E0"/>
<path d="M136.543 108.989C136.543 108.989 136.464 108.989 136.304 108.909C136.145 108.909 135.906 108.83 135.588 108.75C134.951 108.591 134.075 108.352 132.88 108.034C130.492 107.397 127.068 106.521 122.848 105.407C118.628 104.293 113.532 103.019 107.958 101.507C105.171 100.791 102.225 99.9946 99.1991 99.1986C97.6863 98.8006 96.0938 98.4027 94.5809 98.0047C94.1828 97.9251 93.7847 97.7659 93.3865 97.6863C92.9884 97.6067 92.5903 97.4475 92.1922 97.3679C91.3959 97.2087 90.5997 97.2087 89.8034 97.2883C88.2109 97.4475 86.698 98.1639 85.5037 99.2782C84.3093 100.393 83.1946 101.507 82.0002 102.621C79.6911 104.77 77.5412 106.919 75.3913 108.909C71.1712 112.889 67.4289 116.471 64.2439 119.495C61.0589 122.52 58.5109 124.908 56.6795 126.579C55.8036 127.375 55.087 128.092 54.6093 128.49C54.3704 128.728 54.2111 128.888 54.0519 128.967C53.8926 129.047 53.8926 129.126 53.8926 129.126C53.8926 129.126 53.9723 129.047 54.0519 128.967C54.1315 128.808 54.3704 128.649 54.5296 128.41C55.0074 127.932 55.6444 127.296 56.5203 126.42C58.272 124.749 60.82 122.281 63.9254 119.177C67.1104 116.152 70.8527 112.491 74.9932 108.511C77.0635 106.521 79.2929 104.372 81.5224 102.223C82.6372 101.109 83.8316 99.9946 85.0259 98.8802C86.2203 97.7659 87.8924 96.97 89.5645 96.8108C90.4404 96.7312 91.3163 96.7312 92.1125 96.8904C92.5107 96.97 92.9088 97.1291 93.3069 97.2087C93.705 97.2883 94.1032 97.4475 94.5013 97.5271C96.0938 97.9251 97.527 98.8006 99.0399 99.1986C102.066 99.9946 105.091 100.393 107.958 101.109C113.532 102.621 118.548 103.974 122.848 105.089C127.068 106.203 130.492 107.158 132.88 107.795C134.075 108.113 134.951 108.352 135.588 108.591C135.906 108.67 136.145 108.75 136.304 108.83C136.464 108.989 136.543 108.989 136.543 108.989Z" fill="#E0E0E0"/>
<path d="M379.876 303.758C383.937 301.689 388.635 301.37 393.174 302.166C395.563 302.564 398.111 303.281 399.703 305.111C401.375 306.942 401.614 310.126 399.783 311.638C398.668 312.593 397.075 312.673 395.642 312.673C392.139 312.593 388.237 312.036 385.45 314.105C383.858 315.299 382.823 317.289 380.912 317.926C379.001 318.483 376.93 317.369 375.975 315.697C375.019 314.026 374.94 311.877 375.417 309.967C375.258 309.967 375.816 305.828 379.876 303.758Z" fill="white"/>
<path d="M370.56 285.849C373.029 289.351 377.806 288.237 380.036 286.088C382.265 283.939 383.221 280.835 384.097 277.81C386.087 271.045 387.998 263.881 386.565 256.956C386.167 254.887 385.371 252.817 383.937 251.305C382.504 249.793 380.275 248.837 378.204 249.395C375.816 250.031 374.303 252.419 373.188 254.648C370.003 261.254 368.331 268.657 368.251 275.979C368.251 279.482 368.649 283.063 370.56 285.849Z" fill="white"/>
<path d="M363.792 290.943C366.499 287.76 366.977 283.143 365.783 279.163C364.588 275.183 361.881 271.761 358.776 269.055C355.113 265.791 350.813 263.244 346.275 261.652C344.443 261.016 342.532 260.538 340.621 260.697C338.71 260.856 336.799 261.891 335.924 263.563C334.57 266.11 335.844 269.134 337.198 271.602C339.586 275.979 342.373 280.198 345.399 284.098C347.867 287.282 350.654 290.386 354.476 291.819C358.218 293.252 362.12 293.092 364.111 290.466" fill="white"/>
<path d="M370.401 339.098C370.481 339.098 370.56 338.541 370.64 337.506C370.72 336.313 370.879 334.88 371.038 333.129C371.277 331.298 371.516 329.069 371.994 326.682C372.471 324.294 373.268 321.747 374.303 319.12C375.338 316.493 376.691 314.185 378.204 312.275C379.717 310.365 381.469 309.011 383.061 308.215C384.734 307.419 386.167 307.101 387.202 306.942C388.237 306.862 388.794 306.783 388.794 306.703C388.794 306.624 388.237 306.624 387.202 306.703C386.167 306.783 384.654 307.022 382.902 307.817C381.15 308.613 379.319 309.967 377.727 311.877C376.134 313.787 374.78 316.255 373.745 318.881C372.71 321.508 371.914 324.134 371.436 326.602C370.958 328.99 370.72 331.218 370.56 333.129C370.401 334.959 370.401 336.472 370.321 337.506C370.401 338.541 370.401 339.098 370.401 339.098Z" fill="#A6A6A6"/>
<path d="M370.72 335.755C370.72 335.755 370.72 335.517 370.799 335.039C370.799 334.482 370.799 333.765 370.799 332.89C370.799 331.059 370.799 328.353 370.879 325.09C371.038 318.483 371.595 311.399 372.71 301.37C373.745 291.978 375.179 280.994 376.612 273.91C376.93 272.318 377.249 270.806 377.567 269.532C377.886 268.259 378.125 267.144 378.364 266.269C378.602 265.393 378.762 264.756 378.841 264.199C378.921 263.722 379.001 263.483 379.001 263.483C379.001 263.483 378.921 263.722 378.762 264.199C378.602 264.756 378.364 265.393 378.125 266.269C377.886 267.144 377.567 268.259 377.249 269.532C376.93 270.806 376.532 272.238 376.214 273.91C374.781 280.357 373.188 289.351 372.073 299.38C370.959 309.409 370.481 318.563 370.401 325.169C370.401 328.512 370.401 331.139 370.481 332.97C370.56 333.845 370.56 334.561 370.64 335.119C370.72 335.437 370.72 335.755 370.72 335.755Z" fill="#A6A6A6"/>
<path d="M370.799 318.085C370.879 318.085 370.799 317.289 370.799 315.857C370.72 314.424 370.56 312.354 370.083 309.807C369.684 307.26 369.047 304.315 368.092 301.052C367.694 299.54 366.738 296.037 364.429 290.705C361.404 283.461 357.263 277.571 353.68 273.91C352.804 272.955 351.928 272.238 351.132 271.522C350.734 271.204 350.415 270.885 350.017 270.567C349.699 270.328 349.301 270.089 349.062 269.851C347.867 269.055 347.23 268.577 347.23 268.657C347.151 268.816 349.858 270.408 353.361 274.149C356.865 277.81 360.846 283.7 363.872 290.864C365.544 294.764 366.738 298.186 367.535 301.131C368.49 304.315 369.127 307.34 369.605 309.807C370.083 312.275 370.321 314.344 370.481 315.777C370.64 317.289 370.72 318.085 370.799 318.085Z" fill="#A6A6A6"/>
<path d="M353.76 349.207L355.511 373.324H386.565L388.317 349.207H353.76Z" fill="white"/>
<path d="M392.059 339.656H350.734V349.207H392.059V339.656Z" fill="white"/>
<path d="M350.734 372.449V375.075H352.724H391.342V372.449H350.734Z" fill="#EBEBEB"/>
<path d="M354.556 379.692L352.724 375.075H389.909L387.68 379.692H354.556Z" fill="#E0E0E0"/>
<path d="M387.759 357.087C387.759 357.087 387.68 357.166 387.6 357.326C387.441 357.485 387.361 357.724 387.122 357.962C386.645 358.52 386.087 359.315 385.291 360.271L385.211 360.35L385.132 360.271C384.017 358.679 382.504 356.609 380.673 354.142H380.912C379.558 356.052 378.125 358.122 376.532 360.35L376.373 360.509L376.214 360.35C374.621 358.44 372.869 356.37 371.038 354.142H371.357C371.277 354.221 371.197 354.381 371.038 354.54C369.446 356.53 367.853 358.52 366.42 360.35L366.261 360.509L366.101 360.271C364.509 358.042 363.076 355.973 361.722 354.062H361.961C359.811 356.53 357.98 358.599 356.546 360.191L356.467 360.271L356.387 360.111C355.671 358.918 355.113 357.962 354.715 357.246C354.556 356.928 354.397 356.689 354.317 356.53C354.237 356.37 354.158 356.291 354.158 356.291C354.158 356.291 354.237 356.37 354.317 356.53C354.476 356.689 354.635 356.928 354.795 357.246C355.193 357.962 355.83 358.838 356.546 360.032H356.387C357.741 358.44 359.572 356.291 361.722 353.823L361.881 353.664L362.041 353.823C363.394 355.734 364.907 357.803 366.42 359.952H366.101C367.535 358.122 369.127 356.132 370.72 354.142C370.799 353.983 370.879 353.903 371.038 353.744L371.197 353.585L371.357 353.744C373.188 355.893 374.94 358.042 376.532 359.952H376.214C377.806 357.724 379.319 355.654 380.673 353.823L380.832 353.664L380.991 353.823C382.743 356.291 384.256 358.44 385.371 360.032H385.211C386.008 359.077 386.645 358.36 387.122 357.803C387.361 357.564 387.52 357.405 387.6 357.246C387.68 357.166 387.759 357.087 387.759 357.087Z" fill="#F5F5F5"/>
<path d="M388.794 349.048C388.794 349.127 380.991 349.207 371.436 349.207C361.802 349.207 354.078 349.127 354.078 349.048C354.078 348.968 361.881 348.889 371.436 348.889C380.991 348.809 388.794 348.889 388.794 349.048Z" fill="#F5F5F5"/>
<path d="M390.387 375.314C390.387 375.394 381.947 375.473 371.516 375.473C361.085 375.473 352.645 375.394 352.645 375.314C352.645 375.235 361.085 375.155 371.516 375.155C381.867 375.155 390.387 375.235 390.387 375.314Z" fill="#F5F5F5"/>
<path d="M248.973 378.657L124.759 378.737C114.726 378.737 106.684 370.618 106.604 360.669L106.445 80.8918C106.445 69.5097 115.681 60.2766 127.068 60.2766L248.973 60.197C259.086 60.197 267.287 68.3953 267.287 78.5039L267.446 360.111C267.446 370.379 259.165 378.657 248.973 378.657Z" fill="#455A64"/>
<path d="M109.152 354.142L108.993 84.7919C108.993 72.6139 118.866 62.7441 130.969 62.7441L242.683 62.6645C254.866 62.6645 264.739 72.5343 264.739 84.6327L264.898 353.983C264.898 366.161 255.025 376.031 242.922 376.031L131.208 376.11C119.026 376.19 109.152 366.32 109.152 354.142Z" fill="#263238"/>
<path d="M175.32 72.7731C174.365 72.7731 173.569 71.9771 173.569 71.022C173.569 70.0668 174.365 69.2709 175.32 69.2709H198.332C199.287 69.2709 200.084 70.0668 200.084 71.022C200.084 71.9771 199.287 72.7731 198.332 72.7731H175.32Z" fill="#455A64"/>
<path d="M162.979 72.8529C162.023 72.8529 161.227 72.0569 161.227 71.1018C161.227 70.1467 162.023 69.3507 162.979 69.3507C163.934 69.3507 164.73 70.1467 164.73 71.1018C164.81 71.9773 164.014 72.8529 162.979 72.8529Z" fill="#455A64"/>
<path d="M169.587 72.7731C168.632 72.7731 167.836 71.9771 167.836 71.022C167.836 70.0668 168.632 69.2709 169.587 69.2709C170.543 69.2709 171.339 70.0668 171.339 71.022C171.339 71.9771 170.543 72.7731 169.587 72.7731Z" fill="#455A64"/>
<path d="M210.753 72.7731C209.798 72.7731 209.002 71.9771 209.002 71.022C209.002 70.0668 209.798 69.2709 210.753 69.2709C211.709 69.2709 212.505 70.0668 212.505 71.022C212.585 71.9771 211.789 72.7731 210.753 72.7731Z" fill="#455A64"/>
<path d="M204.224 72.7731C203.269 72.7731 202.472 71.9771 202.472 71.022C202.472 70.0668 203.269 69.2709 204.224 69.2709C205.18 69.2709 205.976 70.0668 205.976 71.022C205.976 71.9771 205.18 72.7731 204.224 72.7731Z" fill="#455A64"/>
<path d="M243.877 66.4055H222.219C220.149 66.4055 218.238 67.7586 217.681 69.828L215.929 75.8773C215.292 78.1059 213.222 79.6978 210.833 79.6978H162.819C160.431 79.6978 158.36 78.1855 157.723 75.8773L155.972 69.828C155.414 67.8382 153.503 66.4055 151.433 66.4055H129.775C120.22 66.4055 112.496 74.1262 112.576 83.598L112.735 354.699C112.735 364.171 120.459 371.812 130.014 371.812L244.037 371.732C253.592 371.732 261.315 364.012 261.236 354.54L261.076 83.4388C261.156 74.1262 253.432 66.4055 243.877 66.4055Z" fill="white"/>
<path d="M267.367 129.365C267.924 129.365 268.402 129.843 268.402 130.4V164.865C268.402 165.422 267.924 165.899 267.367 165.899V129.365Z" fill="#455A64"/>
<path d="M106.525 152.05C105.888 152.05 105.41 152.527 105.41 153.164V174.177C105.41 174.814 105.888 175.292 106.525 175.292V152.05Z" fill="#455A64"/>
<path d="M106.445 121.804C105.808 121.804 105.33 122.281 105.33 122.918V143.931C105.33 144.568 105.808 145.045 106.445 145.045V121.804Z" fill="#455A64"/>
<path d="M106.445 99.0394C105.888 99.0394 105.489 99.4374 105.489 99.9946V108.909C105.489 109.466 105.888 109.864 106.445 109.864V99.0394Z" fill="#455A64"/>
<path d="M226.201 75.2405H225.086V76.7528H226.201V75.2405Z" fill="white"/>
<path d="M228.032 74.5242H226.917V76.7528H228.032V74.5242Z" fill="white"/>
<path d="M229.784 74.0466H228.669V76.8324H229.784V74.0466Z" fill="white"/>
<path d="M231.615 73.0118H230.5V76.7528H231.615V73.0118Z" fill="white"/>
<path d="M247.938 76.8325H242.364C242.126 76.8325 241.966 76.6733 241.966 76.4345V73.6486C241.966 73.4099 242.126 73.2507 242.364 73.2507H247.938H248.018V73.3303V74.2058H248.575C248.655 74.2058 248.655 74.2854 248.655 74.2854V75.6385C248.655 75.7181 248.575 75.7181 248.575 75.7181H248.018V76.5937C248.018 76.8325 247.938 76.8325 247.938 76.8325ZM247.779 73.4895H242.364C242.285 73.4895 242.205 73.5691 242.205 73.6486V76.4345C242.205 76.5141 242.285 76.5937 242.364 76.5937H247.779V75.7181C247.779 75.6385 247.859 75.6385 247.859 75.6385H248.416V74.5242H247.859C247.779 74.5242 247.779 74.4446 247.779 74.4446V73.4895Z" fill="white"/>
<path d="M242.603 76.1957V73.967H247.381V75.0018V75.2406V76.1957H242.603Z" fill="white"/>
<path d="M236.87 76.6732C236.87 76.4345 236.711 76.2753 236.472 76.2753C236.233 76.2753 236.074 76.4345 236.074 76.6732C236.074 76.912 236.233 77.0712 236.472 77.0712C236.711 77.0712 236.87 76.912 236.87 76.6732Z" fill="white"/>
<path d="M235.119 75.7181L235.676 76.1957C235.915 75.9569 236.233 75.7977 236.552 75.7977C236.87 75.7977 237.189 75.9569 237.428 76.1957L237.905 75.7181C237.587 75.3997 237.03 75.1609 236.552 75.1609C235.915 75.0813 235.437 75.3201 235.119 75.7181Z" fill="white"/>
<path d="M236.472 73.967C235.596 73.967 234.8 74.2854 234.243 74.8425L234.8 75.3201C235.198 74.9221 235.835 74.6037 236.472 74.6037C237.109 74.6037 237.746 74.8425 238.144 75.3201L238.622 74.7629C238.144 74.2854 237.348 73.967 236.472 73.967Z" fill="white"/>
<path d="M233.446 74.0466L234.004 74.5242C234.641 73.8874 235.517 73.4894 236.552 73.4894C237.507 73.4894 238.463 73.8874 239.1 74.5242L239.578 73.967C238.781 73.1711 237.746 72.6935 236.552 72.6935C235.278 72.7731 234.243 73.2506 233.446 74.0466Z" fill="white"/>
<path d="M143.232 142.18C143.152 147.831 138.534 152.368 132.88 152.368C127.227 152.289 122.688 147.672 122.688 142.021C122.768 136.37 127.386 131.833 133.04 131.833C138.693 131.912 143.232 136.529 143.232 142.18Z" fill="#FE9F03"/>
<path d="M194.51 134.3C194.51 134.38 184.955 134.459 173.25 134.3C161.466 134.22 151.99 134.061 151.99 133.902C151.99 133.822 161.545 133.743 173.25 133.902C184.955 133.982 194.51 134.141 194.51 134.3Z" fill="#263238"/>
<path d="M229.226 144.011C229.226 144.09 211.868 144.09 190.449 143.931C169.03 143.772 151.672 143.533 151.672 143.374C151.672 143.294 169.03 143.294 190.449 143.454C211.868 143.692 229.226 143.931 229.226 144.011Z" fill="#E0E0E0"/>
<path d="M229.147 151.652C229.147 151.731 211.789 151.731 190.369 151.572C168.95 151.413 151.592 151.174 151.592 151.015C151.592 150.935 168.95 150.935 190.369 151.095C211.789 151.333 229.147 151.572 229.147 151.652Z" fill="#E0E0E0"/>
<path d="M251.999 132.788C251.999 132.867 248.257 132.947 243.638 132.947C239.02 132.947 235.278 132.788 235.278 132.708C235.278 132.629 239.02 132.549 243.638 132.549C248.257 132.549 251.999 132.708 251.999 132.788Z" fill="#263238"/>
<path d="M245.549 143.454L246.266 144.886C246.425 145.125 246.585 145.284 246.903 145.364L248.496 145.603C249.212 145.682 249.451 146.558 248.973 147.035L247.859 148.15C247.699 148.309 247.54 148.627 247.62 148.866L247.859 150.458C247.938 151.174 247.222 151.652 246.664 151.333L245.231 150.617C244.992 150.458 244.674 150.458 244.435 150.617L243.001 151.333C242.364 151.652 241.648 151.095 241.807 150.458L242.126 148.866C242.205 148.627 242.126 148.309 241.887 148.15L240.772 147.035C240.294 146.558 240.533 145.682 241.25 145.603L242.842 145.364C243.081 145.364 243.32 145.125 243.479 144.886L244.196 143.454C244.355 142.896 245.231 142.896 245.549 143.454Z" fill="#FE9F03"/>
<path d="M205.817 133.823C205.817 134.857 204.941 135.733 203.906 135.733C202.871 135.733 201.995 134.857 201.995 133.823C201.995 132.788 202.871 131.912 203.906 131.912C205.02 131.912 205.817 132.788 205.817 133.823Z" fill="#FF725E"/>
<path d="M260.598 115.277C260.598 115.356 227.395 115.197 186.547 114.879C145.62 114.56 112.496 114.163 112.496 114.083C112.496 114.003 145.62 114.163 186.547 114.481C227.395 114.799 260.598 115.118 260.598 115.277Z" fill="#E0E0E0"/>
<path d="M260.121 168.287C260.121 168.367 226.917 168.208 186.07 167.889C145.143 167.571 112.019 167.173 112.019 167.093C112.019 167.014 145.143 167.173 186.07 167.491C226.997 167.81 260.121 168.128 260.121 168.287Z" fill="#E0E0E0"/>
<path d="M139.324 255.211C143.335 251.201 143.335 244.7 139.324 240.69C135.313 236.68 128.809 236.68 124.798 240.69C120.787 244.7 120.787 251.201 124.798 255.211C128.809 259.221 135.313 259.221 139.324 255.211Z" fill="#FE9F03"/>
<path d="M193.634 240.162C193.634 240.241 184.079 240.321 172.374 240.162C160.59 240.082 151.114 239.923 151.114 239.764C151.114 239.684 160.669 239.604 172.374 239.764C184.079 239.843 193.634 240.082 193.634 240.162Z" fill="#263238"/>
<path d="M228.35 249.872C228.35 249.952 210.992 249.952 189.573 249.793C168.154 249.633 150.796 249.395 150.796 249.235C150.796 249.156 168.154 249.156 189.573 249.315C210.992 249.554 228.35 249.793 228.35 249.872Z" fill="#E0E0E0"/>
<path d="M228.271 257.513C228.271 257.593 210.913 257.593 189.494 257.434C168.075 257.275 150.716 257.036 150.716 256.877C150.716 256.797 168.075 256.797 189.494 256.956C210.913 257.195 228.271 257.434 228.271 257.513Z" fill="#E0E0E0"/>
<path d="M251.123 238.729C251.123 238.808 247.381 238.888 242.763 238.888C238.144 238.888 234.402 238.729 234.402 238.649C234.402 238.57 238.144 238.49 242.763 238.49C247.381 238.49 251.123 238.57 251.123 238.729Z" fill="#263238"/>
<path d="M244.674 249.395L245.39 250.827C245.549 251.066 245.709 251.225 246.027 251.305L247.62 251.544C248.336 251.623 248.575 252.499 248.097 252.976L246.983 254.091C246.823 254.25 246.664 254.568 246.744 254.807L246.983 256.399C247.062 257.115 246.346 257.593 245.788 257.275L244.355 256.558C244.116 256.399 243.798 256.399 243.559 256.558L242.126 257.275C241.489 257.593 240.772 257.036 240.931 256.399L241.25 254.807C241.329 254.568 241.25 254.25 241.011 254.091L239.896 252.976C239.418 252.499 239.657 251.623 240.374 251.544L241.966 251.305C242.205 251.305 242.444 251.066 242.603 250.827L243.32 249.395C243.479 248.758 244.355 248.758 244.674 249.395Z" fill="#FF725E"/>
<path d="M204.901 240.079C205.107 239.045 204.434 238.039 203.399 237.834C202.364 237.628 201.358 238.3 201.152 239.335C200.947 240.37 201.619 241.375 202.655 241.581C203.69 241.786 204.696 241.114 204.901 240.079Z" fill="#FF725E"/>
<path d="M259.723 221.138C259.723 221.218 226.519 221.059 185.672 220.74C144.744 220.422 111.621 220.024 111.621 219.944C111.621 219.865 144.744 220.024 185.672 220.342C226.519 220.661 259.723 220.979 259.723 221.138Z" fill="#E0E0E0"/>
<path d="M259.245 274.149C259.245 274.228 226.599 274.069 186.309 273.671C146.018 273.273 113.372 272.875 113.372 272.796C113.372 272.716 146.018 272.875 186.309 273.273C226.599 273.671 259.245 274.069 259.245 274.149Z" fill="#E0E0E0"/>
<path d="M141.48 348.729C141.4 354.381 136.782 358.918 131.129 358.918C125.475 358.838 120.937 354.221 120.937 348.57C121.016 342.919 125.635 338.382 131.288 338.382C137.021 338.462 141.559 343.078 141.48 348.729Z" fill="#E0E0E0"/>
<path d="M192.838 340.849C192.838 340.929 183.283 341.009 171.578 340.849C159.794 340.77 150.318 340.611 150.318 340.451C150.318 340.372 159.873 340.292 171.578 340.451C183.283 340.611 192.838 340.77 192.838 340.849Z" fill="#263238"/>
<path d="M227.475 350.56C227.475 350.64 210.116 350.64 188.697 350.48C167.278 350.321 149.92 350.082 149.92 349.923C149.92 349.844 167.278 349.844 188.697 350.003C210.116 350.242 227.475 350.48 227.475 350.56Z" fill="#E0E0E0"/>
<path d="M227.475 358.201C227.475 358.281 210.116 358.281 188.697 358.122C167.278 357.962 149.92 357.724 149.92 357.564C149.92 357.485 167.278 357.485 188.697 357.644C210.116 357.883 227.475 358.122 227.475 358.201Z" fill="#E0E0E0"/>
<path d="M250.327 339.417C250.327 339.496 246.585 339.576 241.966 339.576C237.348 339.576 233.606 339.417 233.606 339.337C233.606 339.258 237.348 339.178 241.966 339.178C246.585 339.178 250.327 339.258 250.327 339.417Z" fill="#263238"/>
<path d="M204.145 340.372C204.145 341.407 203.269 342.282 202.234 342.282C201.198 342.282 200.323 341.407 200.323 340.372C200.323 339.337 201.198 338.462 202.234 338.462C203.269 338.462 204.145 339.337 204.145 340.372Z" fill="#FF725E"/>
<path d="M260.98 168.26L113.356 167.052L112.922 220.062L260.546 221.27L260.98 168.26Z" fill="#F5F5F5"/>
<path d="M140.052 201.26C144.063 197.25 144.063 190.749 140.052 186.739C136.04 182.73 129.537 182.73 125.525 186.739C121.514 190.749 121.514 197.25 125.525 201.26C129.537 205.27 136.04 205.27 140.052 201.26Z" fill="#455A64"/>
<path d="M194.351 186.196C194.351 186.276 184.796 186.355 173.091 186.196C161.306 186.116 151.831 185.957 151.831 185.798C151.831 185.639 161.386 185.639 173.091 185.798C184.875 185.878 194.351 186.116 194.351 186.196Z" fill="#263238"/>
<path d="M229.067 195.907C229.067 195.986 211.709 195.986 190.29 195.827C168.871 195.668 151.513 195.429 151.513 195.27C151.513 195.19 168.871 195.19 190.29 195.35C211.709 195.588 229.067 195.827 229.067 195.907Z" fill="#E0E0E0"/>
<path d="M228.987 203.548C228.987 203.627 211.629 203.627 190.21 203.468C168.791 203.309 151.433 203.07 151.433 202.911C151.433 202.831 168.791 202.831 190.21 202.991C211.629 203.229 228.987 203.468 228.987 203.548Z" fill="#E0E0E0"/>
<path d="M251.919 184.763C251.919 184.843 248.177 184.923 243.559 184.923C238.941 184.923 235.198 184.763 235.198 184.684C235.198 184.604 238.941 184.525 243.559 184.525C248.177 184.525 251.919 184.604 251.919 184.763Z" fill="#263238"/>
<path d="M245.39 195.429C245.39 195.429 245.311 195.35 245.151 195.19C244.992 195.031 244.753 194.952 244.435 195.031C244.275 195.111 244.116 195.19 244.037 195.35C243.957 195.509 243.798 195.747 243.718 195.986C243.638 196.225 243.479 196.464 243.32 196.782C243.24 197.101 242.922 197.419 242.524 197.419C242.205 197.499 241.887 197.499 241.489 197.578C241.329 197.578 241.09 197.658 240.931 197.658C240.772 197.658 240.613 197.737 240.533 197.897C240.294 198.135 240.294 198.533 240.533 198.772C240.852 199.09 241.09 199.329 241.409 199.648L241.648 199.886C241.727 199.966 241.807 200.125 241.887 200.205C242.046 200.444 241.966 200.762 241.966 201.001C241.887 201.478 241.807 201.876 241.727 202.354C241.648 202.752 241.966 203.15 242.285 203.15C242.444 203.15 242.603 203.07 242.842 202.911C243.081 202.831 243.32 202.672 243.479 202.593C243.718 202.513 243.877 202.354 244.196 202.274C244.514 202.195 244.833 202.354 245.072 202.433C245.47 202.672 245.948 202.911 246.346 203.15C246.664 203.309 247.142 203.15 247.222 202.831C247.301 202.672 247.222 202.513 247.222 202.274C247.222 202.036 247.142 201.797 247.142 201.638C247.142 201.399 247.062 201.24 247.062 201.001C246.983 200.762 247.062 200.444 247.222 200.284C247.381 200.046 247.54 199.966 247.699 199.807C247.859 199.648 248.018 199.568 248.097 199.409C248.257 199.25 248.416 199.17 248.496 199.011C248.655 198.931 248.655 198.772 248.734 198.613C248.814 198.295 248.655 198.056 248.416 197.897C248.177 197.817 247.859 197.737 247.54 197.737C247.222 197.658 246.983 197.658 246.744 197.578C246.505 197.578 246.186 197.419 246.027 197.18C245.868 196.941 245.868 196.782 245.788 196.623C245.549 195.827 245.39 195.429 245.39 195.429C245.39 195.429 245.629 195.748 245.948 196.464C246.027 196.623 246.107 196.862 246.266 197.021C246.425 197.18 246.585 197.26 246.823 197.26C247.062 197.26 247.381 197.339 247.62 197.339C247.938 197.419 248.177 197.339 248.575 197.499C248.894 197.658 249.133 198.135 249.053 198.533C249.053 198.772 248.894 198.931 248.734 199.091C248.575 199.25 248.496 199.329 248.336 199.488C248.177 199.648 248.018 199.727 247.938 199.886C247.779 200.046 247.62 200.205 247.54 200.284C247.46 200.444 247.46 200.603 247.46 200.762C247.46 201.001 247.54 201.16 247.54 201.399C247.54 201.638 247.62 201.797 247.62 202.036C247.62 202.195 247.699 202.513 247.62 202.831C247.46 203.389 246.744 203.707 246.186 203.389C245.788 203.15 245.311 202.911 244.912 202.672C244.674 202.513 244.514 202.513 244.355 202.513C244.196 202.513 243.957 202.672 243.718 202.831C243.479 202.911 243.24 203.07 243.081 203.15C243.001 203.229 242.842 203.229 242.763 203.309C242.603 203.389 242.444 203.389 242.285 203.389C241.648 203.389 241.17 202.752 241.329 202.115C241.409 201.638 241.489 201.16 241.568 200.762C241.648 200.523 241.648 200.364 241.568 200.205C241.489 200.046 241.329 199.886 241.17 199.727C240.852 199.409 240.533 199.09 240.294 198.772C239.976 198.374 239.976 197.817 240.294 197.419C240.453 197.26 240.692 197.101 240.852 197.101C241.011 197.101 241.25 197.021 241.409 197.021C241.727 196.941 242.126 196.941 242.444 196.862C242.763 196.862 242.922 196.623 243.081 196.384C243.24 196.145 243.32 195.907 243.479 195.668C243.638 195.429 243.718 195.19 243.798 195.031C243.957 194.792 244.116 194.713 244.355 194.633C244.753 194.554 245.072 194.713 245.231 194.872C245.39 195.27 245.39 195.429 245.39 195.429Z" fill="#263238"/>
<path d="M205.737 185.719C205.737 186.753 204.861 187.629 203.826 187.629C202.791 187.629 201.915 186.753 201.915 185.719C201.915 184.684 202.791 183.808 203.826 183.808C204.861 183.808 205.737 184.684 205.737 185.719Z" fill="#FF725E"/>
<path d="M261.06 273.966L113.435 272.757L113.001 325.768L260.626 326.976L261.06 273.966Z" fill="#F5F5F5"/>
<path d="M140.137 306.986C144.148 302.976 144.148 296.475 140.137 292.465C136.125 288.455 129.622 288.455 125.61 292.465C121.599 296.475 121.599 302.976 125.61 306.986C129.622 310.996 136.125 310.996 140.137 306.986Z" fill="#455A64"/>
<path d="M194.51 291.898C194.51 291.978 184.955 292.058 173.25 291.898C161.466 291.819 151.99 291.66 151.99 291.5C151.99 291.421 161.545 291.341 173.25 291.5C184.955 291.58 194.51 291.819 194.51 291.898Z" fill="#263238"/>
<path d="M229.147 301.609C229.147 301.689 211.789 301.689 190.369 301.529C168.95 301.37 151.592 301.131 151.592 300.972C151.592 300.893 168.95 300.893 190.369 301.052C211.789 301.291 229.147 301.529 229.147 301.609Z" fill="#E0E0E0"/>
<path d="M229.147 309.25C229.147 309.33 211.789 309.33 190.369 309.171C168.95 309.011 151.592 308.773 151.592 308.613C151.592 308.534 168.95 308.534 190.369 308.693C211.789 308.932 229.147 309.171 229.147 309.25Z" fill="#E0E0E0"/>
<path d="M251.999 290.466C251.999 290.545 248.257 290.625 243.638 290.625C239.02 290.625 235.278 290.466 235.278 290.386C235.278 290.307 239.02 290.227 243.638 290.227C248.257 290.227 251.999 290.307 251.999 290.466Z" fill="#263238"/>
<path d="M245.47 301.131C245.47 301.131 245.39 301.052 245.231 300.893C245.072 300.733 244.833 300.654 244.514 300.733C244.355 300.813 244.196 300.893 244.116 301.052C244.037 301.211 243.877 301.45 243.798 301.689C243.718 301.927 243.559 302.166 243.4 302.485C243.32 302.803 243.001 303.121 242.603 303.121C242.285 303.201 241.966 303.201 241.568 303.281C241.409 303.281 241.17 303.36 241.011 303.36C240.852 303.36 240.692 303.44 240.613 303.599C240.374 303.838 240.374 304.236 240.613 304.474C240.931 304.793 241.17 305.032 241.489 305.35L241.727 305.589C241.807 305.668 241.887 305.828 241.966 305.907C242.126 306.146 242.046 306.464 242.046 306.703C241.966 307.181 241.887 307.579 241.807 308.056C241.727 308.454 242.046 308.852 242.364 308.852C242.524 308.852 242.683 308.773 242.922 308.613C243.161 308.534 243.4 308.375 243.559 308.295C243.798 308.215 243.957 308.056 244.275 307.977C244.594 307.897 244.912 308.056 245.151 308.136C245.549 308.375 246.027 308.613 246.425 308.852C246.744 309.011 247.222 308.852 247.301 308.534C247.381 308.375 247.301 308.215 247.301 307.977C247.301 307.738 247.222 307.499 247.222 307.34C247.222 307.101 247.142 306.942 247.142 306.703C247.062 306.464 247.142 306.146 247.301 305.987C247.46 305.748 247.62 305.668 247.779 305.509C247.938 305.35 248.097 305.27 248.177 305.111C248.336 304.952 248.496 304.872 248.575 304.713C248.734 304.634 248.734 304.474 248.814 304.315C248.894 303.997 248.734 303.758 248.496 303.599C248.257 303.519 247.938 303.44 247.62 303.44C247.301 303.36 247.062 303.36 246.823 303.281C246.585 303.281 246.266 303.121 246.107 302.883C245.948 302.644 245.948 302.485 245.868 302.325C245.629 301.529 245.47 301.131 245.47 301.131C245.47 301.131 245.709 301.45 246.027 302.166C246.107 302.325 246.186 302.564 246.346 302.723C246.505 302.883 246.664 302.962 246.903 302.962C247.142 302.962 247.46 303.042 247.699 303.042C248.018 303.121 248.257 303.042 248.655 303.201C248.973 303.36 249.212 303.838 249.133 304.236C249.133 304.474 248.973 304.634 248.814 304.793C248.655 304.952 248.575 305.032 248.416 305.191C248.257 305.35 248.097 305.43 248.018 305.589C247.859 305.748 247.699 305.907 247.62 305.987C247.54 306.146 247.54 306.305 247.54 306.464C247.54 306.703 247.62 306.862 247.62 307.101C247.62 307.34 247.699 307.499 247.699 307.738C247.699 307.897 247.779 308.215 247.699 308.534C247.54 309.091 246.823 309.409 246.266 309.091C245.868 308.852 245.39 308.613 244.992 308.375C244.753 308.215 244.594 308.215 244.435 308.215C244.275 308.215 244.037 308.375 243.798 308.534C243.559 308.613 243.32 308.773 243.161 308.852C243.081 308.932 242.922 308.932 242.842 309.011C242.683 309.091 242.524 309.091 242.364 309.091C241.727 309.091 241.25 308.454 241.409 307.817C241.489 307.34 241.568 306.862 241.648 306.464C241.727 306.226 241.727 306.066 241.648 305.907C241.568 305.748 241.409 305.589 241.25 305.43C240.931 305.111 240.613 304.793 240.374 304.474C240.055 304.076 240.055 303.519 240.374 303.121C240.533 302.962 240.772 302.803 240.931 302.803C241.09 302.803 241.329 302.723 241.489 302.723C241.807 302.644 242.205 302.644 242.524 302.564C242.842 302.564 243.001 302.325 243.161 302.087C243.32 301.848 243.4 301.609 243.559 301.37C243.718 301.131 243.798 300.893 243.877 300.733C244.037 300.495 244.196 300.415 244.435 300.336C244.833 300.256 245.151 300.415 245.311 300.574C245.47 300.972 245.549 301.131 245.47 301.131Z" fill="#263238"/>
<path d="M205.817 291.421C205.817 292.456 204.941 293.331 203.906 293.331C202.871 293.331 201.995 292.456 201.995 291.421C201.995 290.386 202.871 289.511 203.906 289.511C205.02 289.511 205.817 290.386 205.817 291.421Z" fill="#FF725E"/>
<path d="M192.997 108.432L180.655 108.352C179.7 108.352 178.904 107.556 178.904 106.521L178.983 97.2087C178.983 96.2536 179.779 95.4576 180.815 95.4576L193.156 95.5372C194.112 95.5372 194.908 96.3332 194.908 97.3679L194.828 106.681C194.828 107.636 194.032 108.432 192.997 108.432Z" fill="#6B29FF"/>
<path d="M194.032 96.0944C194.032 96.0944 193.873 96.3332 193.554 96.7312C193.236 97.1292 192.758 97.7659 192.121 98.4823C191.484 99.1986 190.768 100.074 189.892 101.029C189.494 101.507 189.016 101.984 188.618 102.542C188.379 102.78 188.22 103.019 187.901 103.338C187.583 103.576 187.185 103.736 186.707 103.656C186.309 103.656 185.911 103.417 185.672 103.099C185.433 102.86 185.194 102.542 184.955 102.303C184.477 101.825 184.079 101.348 183.601 100.87C182.805 99.915 182.009 99.119 181.372 98.4027C180.735 97.6863 180.257 97.1292 179.859 96.7312C179.541 96.3332 179.302 96.0944 179.381 96.0944C179.381 96.0944 179.62 96.2536 180.018 96.6516C180.416 97.0496 180.974 97.6067 181.611 98.2435C182.327 98.9598 183.044 99.7558 183.92 100.711C184.318 101.189 184.796 101.666 185.274 102.144C185.512 102.382 185.751 102.621 185.99 102.94C186.229 103.178 186.468 103.338 186.786 103.338C187.105 103.338 187.423 103.258 187.662 103.099C187.901 102.94 188.14 102.621 188.379 102.382C188.857 101.905 189.255 101.427 189.732 100.95C190.529 100.074 191.325 99.1986 191.962 98.4823C192.599 97.7659 193.156 97.2088 193.554 96.8108C193.793 96.2536 194.032 96.0944 194.032 96.0944Z" fill="white"/>
<path d="M184.477 101.905C184.557 101.984 183.363 103.258 181.929 104.77C180.496 106.283 179.142 107.476 179.063 107.397C178.983 107.317 180.178 106.044 181.611 104.531C183.044 102.94 184.398 101.825 184.477 101.905Z" fill="white"/>
<path d="M194.828 107.715C194.749 107.795 193.395 106.521 191.882 104.77C190.369 103.099 189.175 101.666 189.255 101.586C189.334 101.507 190.688 102.78 192.201 104.531C193.714 106.203 194.908 107.636 194.828 107.715Z" fill="white"/>
<path d="M135.508 100.791C135.508 100.87 132.801 100.95 129.457 100.95C126.112 100.95 123.405 100.87 123.405 100.791C123.405 100.711 126.112 100.631 129.457 100.631C132.721 100.631 135.508 100.711 135.508 100.791Z" fill="#263238"/>
<path d="M135.508 103.895C135.508 103.974 132.801 104.054 129.457 104.054C126.112 104.054 123.405 103.974 123.405 103.895C123.405 103.815 126.112 103.736 129.457 103.736C132.721 103.736 135.508 103.815 135.508 103.895Z" fill="#263238"/>
<path d="M135.508 106.999C135.508 107.079 132.801 107.158 129.457 107.158C126.112 107.158 123.405 107.079 123.405 106.999C123.405 106.919 126.112 106.84 129.457 106.84C132.721 106.84 135.508 106.919 135.508 106.999Z" fill="#263238"/>
<path d="M249.69 102.701C249.69 102.701 249.69 102.382 249.531 101.905C249.371 101.427 249.053 100.711 248.336 100.154C247.62 99.5966 246.425 99.2782 245.311 99.6762C244.196 100.074 243.24 101.268 243.24 102.621C243.24 104.054 244.196 105.248 245.311 105.646C246.425 106.044 247.62 105.805 248.336 105.248C249.053 104.691 249.451 103.974 249.61 103.497C249.61 103.019 249.61 102.701 249.69 102.701C249.69 102.701 249.69 102.78 249.69 102.94C249.69 103.099 249.69 103.258 249.61 103.576C249.531 104.134 249.212 104.85 248.416 105.487C247.62 106.123 246.346 106.442 245.072 105.964C243.798 105.566 242.763 104.213 242.763 102.621C242.763 101.029 243.877 99.7558 245.151 99.3578C246.425 98.8802 247.699 99.2782 248.416 99.915C249.212 100.552 249.531 101.348 249.61 101.825C249.69 102.064 249.69 102.303 249.69 102.462C249.69 102.621 249.69 102.701 249.69 102.701Z" fill="#263238"/>
<path d="M251.442 108.511C251.362 108.591 250.645 107.874 249.849 106.999C249.053 106.123 248.416 105.327 248.496 105.248C248.575 105.168 249.292 105.885 250.088 106.76C250.964 107.636 251.521 108.432 251.442 108.511Z" fill="#263238"/>
<path d="M242.205 268.975L242.126 311.718L223.254 307.817L207.33 304.474C207.33 304.474 229.147 347.456 252.875 347.456C276.603 347.456 279.629 311.718 279.629 311.718L281.062 268.975H242.205Z" fill="#FFBE9D"/>
<path d="M340.462 158.656C338.71 159.611 336.322 158.338 335.525 156.507C334.729 154.676 335.127 152.527 335.685 150.617C336.322 148.707 337.118 146.797 337.277 144.807C337.516 141.145 334.968 137.484 331.544 136.37C334.968 133.663 335.287 127.853 332.102 124.828C330.668 123.396 328.678 122.679 326.926 121.565C325.97 120.928 325.095 120.212 324.219 119.336C325.811 119.655 327.324 119.814 328.917 119.495C331.385 118.938 333.614 117.108 334.411 114.72C335.207 112.332 334.57 109.466 332.739 107.715C330.907 105.964 327.961 105.487 325.652 106.681C323.423 107.875 322.228 110.262 321.113 112.491C320.795 113.207 320.476 113.924 320.078 114.561C316.973 110.422 314.027 106.203 309.249 104.691C304.87 103.338 300.172 104.85 295.633 104.532C292.289 104.293 289.184 103.099 285.84 102.701C282.575 102.303 278.833 103.019 276.842 105.725C275.727 107.317 275.329 109.307 274.214 110.899C271.826 114.163 266.65 114.561 264.739 118.063C263.147 120.928 264.341 124.51 263.704 127.694C262.987 131.196 260.121 133.663 257.732 136.37C255.423 138.996 253.353 142.737 254.627 146.001C255.821 148.866 259.165 150.458 260.28 153.403C261.076 155.552 260.519 157.94 260.439 160.169C260.36 162.477 261.315 165.183 263.545 165.661L288.786 172.347C297.465 175.849 306.462 179.51 315.858 179.431C325.254 179.431 335.287 174.894 338.949 166.297C337.596 166.218 336.242 165.661 335.287 164.705C337.914 163.512 339.825 161.283 340.462 158.656Z" fill="#263238"/>
<path d="M319.76 166.536C321.83 160.169 323.9 153.642 324.856 147.035C325.811 140.349 325.572 133.425 323.263 127.137C322.945 126.181 319.839 119.734 318.884 119.893C318.167 119.973 319.999 125.943 319.68 126.579C316.177 132.629 315.221 139.872 315.779 146.797C316.256 153.642 317.69 159.93 319.76 166.536Z" fill="#263238"/>
<path d="M297.385 222.571C307.816 222.332 319.68 199.489 319.68 199.489L320.397 140.827C320.954 123.953 311.558 109.546 294.678 109.466L293.085 109.546C277.399 110.422 264.898 123.157 264.5 138.917C264.102 153.562 263.863 169.72 264.341 177.52C265.376 193.678 281.779 195.35 281.779 195.35C281.779 195.35 281.858 199.091 281.938 203.866C282.018 214.612 293.245 222.889 297.385 222.571Z" fill="#FFBE9D"/>
<path d="M281.779 195.35C281.779 195.35 292.05 195.429 302.561 188.027C302.561 188.027 298.022 200.046 281.779 199.488V195.35Z" fill="#9B7564"/>
<path d="M271.507 151.652C271.507 152.846 272.622 153.88 273.896 153.88C275.17 153.88 276.205 152.925 276.205 151.652C276.205 150.458 275.09 149.423 273.816 149.423C272.463 149.423 271.507 150.378 271.507 151.652Z" fill="#263238"/>
<path d="M268.322 145.443C268.641 145.762 270.313 144.329 272.781 144.25C275.25 144.09 277.161 145.284 277.399 144.966C277.559 144.807 277.24 144.329 276.364 143.772C275.568 143.215 274.214 142.737 272.622 142.817C271.109 142.896 269.835 143.533 269.118 144.17C268.402 144.807 268.163 145.364 268.322 145.443Z" fill="#263238"/>
<path d="M293.882 151.015C293.882 152.209 294.996 153.244 296.27 153.244C297.544 153.244 298.58 152.289 298.58 151.015C298.58 149.821 297.465 148.786 296.191 148.786C294.917 148.786 293.882 149.821 293.882 151.015Z" fill="#263238"/>
<path d="M292.767 145.125C293.085 145.443 294.758 144.011 297.226 143.931C299.694 143.772 301.605 144.966 301.844 144.647C302.003 144.488 301.685 144.011 300.809 143.454C300.013 142.896 298.659 142.419 297.067 142.498C295.554 142.578 294.28 143.215 293.563 143.852C292.847 144.488 292.608 145.045 292.767 145.125Z" fill="#263238"/>
<path d="M284.884 164.785C284.884 164.626 283.292 164.467 280.823 164.307C280.186 164.307 279.549 164.148 279.47 163.75C279.31 163.273 279.549 162.636 279.788 161.84C280.266 160.248 280.823 158.656 281.381 156.905C283.61 149.901 285.203 144.09 284.884 144.011C284.566 143.931 282.575 149.582 280.345 156.587C279.788 158.338 279.31 160.009 278.833 161.522C278.594 162.238 278.275 163.114 278.673 164.069C278.833 164.546 279.39 164.865 279.788 164.944C280.186 165.024 280.584 165.024 280.903 165.024C283.292 164.944 284.884 164.865 284.884 164.785Z" fill="#263238"/>
<path d="M292.289 166.059C291.891 166.059 292.05 168.765 289.821 170.834C287.591 172.904 284.725 172.745 284.725 173.143C284.725 173.302 285.362 173.62 286.636 173.62C287.83 173.62 289.582 173.143 290.936 171.869C292.289 170.596 292.767 169.004 292.847 167.889C292.767 166.695 292.448 166.059 292.289 166.059Z" fill="#263238"/>
<path d="M292.369 135.096C292.687 135.733 295.156 135.335 298.022 135.494C300.968 135.653 303.357 136.37 303.755 135.733C303.914 135.414 303.437 134.857 302.481 134.221C301.526 133.584 299.933 133.106 298.181 132.947C296.43 132.867 294.837 133.186 293.802 133.663C292.767 134.221 292.21 134.778 292.369 135.096Z" fill="#263238"/>
<path d="M268.88 137.166C269.357 137.723 271.029 137.006 273.1 136.927C275.17 136.688 276.922 137.086 277.32 136.529C277.479 136.21 277.161 135.653 276.364 135.176C275.568 134.698 274.294 134.3 272.861 134.459C271.428 134.618 270.233 135.176 269.596 135.812C268.88 136.29 268.72 136.847 268.88 137.166Z" fill="#263238"/>
<path d="M319.68 152.925C319.919 152.766 330.668 149.025 330.907 160.089C331.146 171.153 319.999 169.163 319.919 168.844C319.919 168.526 319.68 152.925 319.68 152.925Z" fill="#FFBE9D"/>
<path d="M323.184 164.546C323.263 164.546 323.343 164.705 323.741 164.785C324.06 164.944 324.617 165.024 325.174 164.785C326.369 164.307 327.245 162.477 327.324 160.487C327.324 159.452 327.085 158.497 326.687 157.701C326.369 156.905 325.811 156.348 325.174 156.268C324.617 156.109 324.139 156.507 324.06 156.826C323.9 157.144 323.98 157.383 323.9 157.383C323.9 157.383 323.661 157.223 323.741 156.746C323.821 156.507 323.9 156.268 324.139 156.03C324.378 155.791 324.776 155.711 325.174 155.711C326.05 155.791 326.846 156.507 327.245 157.383C327.722 158.258 327.961 159.293 327.961 160.487C327.961 162.716 326.846 164.865 325.254 165.342C324.458 165.581 323.821 165.342 323.502 165.103C323.263 164.865 323.184 164.626 323.184 164.546Z" fill="#9B7564"/>
<path d="M271.427 120.451C269.596 119.495 274.931 113.605 279.31 111.536C285.919 108.432 296.111 106.442 302.242 108.113C309.647 110.103 315.858 113.685 319.68 120.371C323.502 127.057 325.015 134.857 324.856 142.578C324.856 144.886 324.617 147.354 323.343 149.344C321.83 151.811 318.884 153.403 319.043 156.746C319.123 158.019 318.804 159.213 317.928 160.169C315.938 162.318 313.39 160.328 312.275 158.338C309.807 154.04 309.409 148.866 309.17 143.852C309.01 140.349 308.772 136.688 309.727 133.265C310.284 131.435 311.081 129.684 311.479 127.773C311.877 125.863 311.797 123.794 310.603 122.281C310.444 122.042 310.125 121.724 309.727 121.406C306.542 118.699 302.163 117.904 298.261 119.336C292.05 121.644 281.381 125.067 278.594 122.998C274.533 119.973 273.577 118.063 273.577 118.063L271.427 120.451Z" fill="#263238"/>
<path d="M301.685 106.601C295.554 104.611 288.626 104.85 282.973 107.875C279.947 109.466 277.24 112.013 276.364 115.356C275.488 118.62 276.922 122.679 280.107 123.953L280.345 124.112C285.123 125.624 288.149 124.987 292.847 123.316C296.828 121.883 300.331 119.416 304.233 117.983C308.453 116.471 313.071 116.312 317.451 117.426C313.151 112.571 307.816 108.591 301.685 106.601Z" fill="#263238"/>
<path d="M322.785 117.585C322.706 117.665 321.83 116.63 319.999 115.356C319.123 114.72 318.008 114.083 316.654 113.526C315.301 113.048 313.788 112.65 312.116 112.809C308.851 113.128 306.064 114.64 304.392 115.993C302.64 117.346 301.844 118.461 301.765 118.381C301.765 118.381 301.844 118.063 302.242 117.506C302.64 117.028 303.198 116.312 304.074 115.516C305.746 114.003 308.533 112.332 312.116 112.013C313.867 111.854 315.54 112.332 316.973 112.889C318.406 113.446 319.521 114.242 320.397 114.879C322.069 116.312 322.865 117.585 322.785 117.585Z" fill="#455A64"/>
<path d="M323.9 121.485C323.98 121.485 323.821 122.759 323.024 124.669C322.308 126.579 320.954 129.047 318.884 131.435C316.814 133.743 314.504 135.414 312.673 136.37C310.842 137.325 309.647 137.643 309.647 137.564C309.488 137.325 314.266 135.494 318.326 130.957C322.387 126.42 323.661 121.406 323.9 121.485Z" fill="#455A64"/>
<path d="M328.439 123.316C328.518 123.316 328.518 123.794 328.518 124.589C328.518 125.385 328.359 126.579 328.041 128.012C327.404 130.878 325.891 134.698 322.945 138.121C319.999 141.543 316.415 143.533 313.629 144.568C312.275 145.045 311.081 145.364 310.284 145.523C309.488 145.682 309.01 145.682 309.01 145.682C309.01 145.523 310.762 145.284 313.39 144.09C316.017 142.976 319.441 140.907 322.308 137.643C325.174 134.38 326.767 130.639 327.483 127.932C328.2 125.067 328.28 123.316 328.439 123.316Z" fill="#455A64"/>
<path d="M289.025 105.646C289.025 105.805 287.91 106.044 286.078 106.76C284.327 107.477 281.938 108.67 279.629 110.581C277.399 112.411 275.727 114.56 274.692 116.152C273.657 117.744 273.179 118.859 273.02 118.859C272.94 118.859 273.259 117.665 274.214 115.914C275.17 114.163 276.842 111.934 279.151 110.024C281.46 108.113 284.008 106.919 285.84 106.283C287.751 105.646 288.945 105.566 289.025 105.646Z" fill="#455A64"/>
<path d="M331.863 106.999C332.022 106.999 331.544 110.183 329.076 113.207C326.607 116.232 323.502 117.267 323.502 117.028C323.422 116.789 326.209 115.516 328.518 112.73C330.907 109.944 331.703 106.919 331.863 106.999Z" fill="#455A64"/>
<path d="M214.018 304.872L220.627 300.813C221.742 300.097 223.016 299.778 224.29 299.778H237.03L250.168 311.718L254.069 313.707L252.636 334.402L244.116 333.367C244.116 333.367 225.882 334.163 224.051 332.969C222.299 331.776 219.751 328.035 219.751 328.035C219.751 328.035 209.718 324.771 208.763 323.896C205.02 320.553 206.533 319.757 206.533 319.757L204.861 318.961C204.543 319.598 202.074 315.538 202.313 313.469C202.472 312.275 202.154 312.275 202.154 312.275C202.154 312.275 199.447 310.842 198.969 307.738C198.81 306.544 203.746 307.419 203.746 307.419L216.088 307.579L214.018 304.872Z" fill="#FFBE9D"/>
<path d="M225.006 307.419L213.381 291.58C212.505 290.386 211.152 289.749 209.718 289.749H186.707C185.751 289.749 185.035 290.466 185.035 291.421C185.035 291.819 185.194 292.217 185.433 292.535L198.571 307.817L225.006 307.419Z" fill="#455A64"/>
<path d="M219.433 313.867C219.433 313.946 218.477 314.105 216.805 314.185C215.212 314.265 212.983 314.344 210.515 314.105C208.046 313.867 205.817 313.469 204.304 313.071C202.711 312.673 201.756 312.354 201.835 312.275C201.835 312.195 202.871 312.354 204.383 312.673C205.976 312.991 208.126 313.31 210.594 313.469C213.063 313.708 215.212 313.708 216.885 313.708C218.397 313.867 219.433 313.787 219.433 313.867Z" fill="#7F6358"/>
<path d="M222.697 320.871C222.697 320.951 221.742 321.11 220.07 321.189C218.477 321.269 216.248 321.349 213.779 321.11C211.311 320.871 209.081 320.473 207.568 320.075C205.976 319.677 205.02 319.359 205.1 319.279C205.1 319.2 206.135 319.359 207.648 319.677C209.241 319.995 211.39 320.314 213.859 320.473C216.327 320.712 218.477 320.712 220.149 320.712C221.742 320.791 222.697 320.712 222.697 320.871Z" fill="#7F6358"/>
<path d="M198.969 307.897C199.049 307.897 199.049 308.454 199.367 309.33C199.686 310.205 200.561 311.479 202.154 312.275L202.234 312.354V312.434C202.234 313.628 202.393 315.061 203.109 316.493C203.826 317.846 205.02 319.2 206.693 319.996L206.931 320.075L206.852 320.314C206.613 320.791 206.613 321.349 206.852 321.906C207.091 322.463 207.489 322.861 207.967 323.259C208.922 324.055 210.116 324.692 211.39 325.249C213.938 326.363 216.805 327.239 219.831 327.875H219.91L219.99 327.955C220.707 328.99 221.582 329.945 222.538 330.82C223.493 331.776 224.608 332.492 225.882 332.81C226.838 333.129 227.873 333.129 228.908 333.129C229.943 333.129 230.978 333.208 231.934 333.208C233.924 333.288 235.915 333.288 237.746 333.367C241.489 333.447 245.072 333.606 248.257 333.686C253.432 334.721 257.732 335.596 260.758 336.233C262.191 336.551 263.385 336.79 264.261 336.949C264.659 337.029 264.898 337.108 265.137 337.188C265.376 337.268 265.456 337.268 265.456 337.268C265.456 337.268 265.376 337.268 265.137 337.268C264.898 337.268 264.58 337.188 264.182 337.108C263.306 336.949 262.111 336.71 260.678 336.472C257.573 335.915 253.273 335.119 248.097 334.084C244.912 334.004 241.329 333.925 237.587 333.845C235.676 333.765 233.765 333.765 231.774 333.686C230.739 333.686 229.784 333.606 228.749 333.606C227.714 333.606 226.678 333.606 225.643 333.288C224.29 332.89 223.016 332.094 222.06 331.139C221.025 330.263 220.149 329.229 219.353 328.114L219.512 328.194C216.486 327.477 213.62 326.602 210.992 325.488C209.718 324.93 208.444 324.294 207.409 323.418C206.931 323.02 206.454 322.463 206.135 321.826C205.817 321.189 205.896 320.473 206.215 319.916L206.294 320.234C204.463 319.359 203.269 317.926 202.552 316.493C201.835 314.981 201.676 313.548 201.676 312.275L201.756 312.434C200.004 311.558 199.208 310.205 198.889 309.25C198.889 308.375 198.969 307.897 198.969 307.897Z" fill="#7F6358"/>
<path d="M226.439 326.92C226.519 327.079 224.927 327.796 222.856 328.114C220.786 328.433 219.034 328.035 219.114 327.875C219.114 327.716 220.786 327.796 222.777 327.557C224.847 327.318 226.439 326.761 226.439 326.92Z" fill="#7F6358"/>
<path d="M232.411 307.419C232.411 307.579 229.863 307.817 226.758 307.897C223.653 307.977 221.105 307.977 221.105 307.817C221.105 307.658 223.653 307.419 226.758 307.34C229.863 307.181 232.411 307.26 232.411 307.419Z" fill="#7F6358"/>
<path d="M253.91 312.036C253.91 312.036 253.671 312.275 253.114 312.354C252.556 312.434 251.681 312.354 250.805 311.877C249.929 311.399 249.053 310.524 248.097 309.728C247.142 308.852 246.107 307.977 244.992 307.022C242.842 305.191 240.852 303.44 239.259 302.087C237.826 300.813 236.87 300.017 236.95 299.938C237.03 299.858 237.985 300.574 239.498 301.768C241.011 302.962 243.081 304.634 245.39 306.544C246.505 307.499 247.54 308.454 248.496 309.33C249.451 310.205 250.247 311.001 251.044 311.558C251.84 312.036 252.636 312.195 253.114 312.195C253.592 312.116 253.91 312.036 253.91 312.036Z" fill="#7F6358"/>
<path d="M222.617 307.738C222.617 307.738 222.538 307.658 222.299 307.419C222.06 307.181 221.821 306.783 221.503 306.385C220.786 305.43 219.751 304.156 218.557 302.564C217.283 300.893 215.849 298.982 214.177 296.913C213.381 295.878 212.505 294.684 211.629 293.57C211.152 293.013 210.594 292.615 209.878 292.376C209.559 292.296 209.161 292.217 208.842 292.137C208.444 292.137 208.046 292.137 207.728 292.137C201.517 292.137 195.943 292.058 191.803 292.058C189.812 292.058 188.14 291.978 186.946 291.978C186.388 291.978 185.99 291.978 185.672 291.978C185.353 291.978 185.194 291.978 185.194 291.898C185.194 291.898 185.353 291.898 185.672 291.819C185.99 291.819 186.468 291.819 186.946 291.819C188.14 291.819 189.812 291.819 191.803 291.739C195.943 291.739 201.517 291.739 207.728 291.66C208.126 291.66 208.524 291.66 208.922 291.66C209.32 291.66 209.718 291.739 210.116 291.898C210.833 292.137 211.55 292.615 212.027 293.252C212.903 294.445 213.779 295.56 214.575 296.674C216.168 298.823 217.601 300.734 218.875 302.405C220.07 303.997 221.025 305.35 221.742 306.305C222.06 306.703 222.299 307.101 222.538 307.34C222.538 307.579 222.617 307.738 222.617 307.738Z" fill="#263238"/>
<path d="M197.615 294.366C198.013 294.048 198.65 294.127 198.889 294.525C199.208 294.923 199.128 295.56 198.73 295.878C198.332 296.197 197.695 296.117 197.376 295.719C197.138 295.321 197.138 294.684 197.615 294.366Z" fill="#F5F5F5"/>
<path d="M320.875 194.872L353.282 213.895L359.254 318.961L366.977 378.418H250.486C250.486 378.418 251.76 306.066 252.158 284.178C252.477 268.816 251.999 239.127 257.254 220.82C259.484 213.02 281.142 202.991 281.142 202.991C293.006 213.418 306.303 210.313 320.875 194.872Z" fill="#6B29FF"/>
<path d="M363.474 352.152C363.474 352.232 338.312 352.391 307.338 352.391C276.364 352.391 251.203 352.311 251.203 352.152C251.203 352.072 276.364 351.913 307.338 351.913C338.392 351.913 363.474 351.993 363.474 352.152Z" fill="white"/>
<g opacity="0.3">
<path d="M251.123 334.243C260.121 341.805 274.135 345.864 285.68 348.252C297.226 350.56 309.01 351.436 320.556 353.585C328.678 355.097 337.118 357.246 344.921 354.619C352.724 351.993 358.537 344.431 359.174 336.233C359.254 335.676 359.174 335.039 358.856 334.641C358.457 334.243 357.82 334.243 357.183 334.243C322.387 335.755 285.521 335.517 251.123 334.243Z" fill="black"/>
</g>
<path d="M244.992 312.514H326.369L326.767 269.691L364.27 264.836C364.27 264.836 364.429 308.375 364.429 322.622C364.429 339.735 349.619 351.674 337.198 349.844C324.776 348.013 244.992 333.129 244.992 333.129V312.514Z" fill="#FFBE9D"/>
<path d="M366.898 273.671L323.184 278.208V226.869C323.184 226.869 327.483 209.518 342.612 210.234C357.741 210.95 366.659 227.267 366.977 242.311C367.216 257.354 366.898 273.671 366.898 273.671Z" fill="#6B29FF"/>
<path d="M261.873 214.771C261.873 214.771 247.859 224.004 244.116 234.192C240.135 244.858 234.641 279.482 234.641 279.482H254.308L261.873 214.771Z" fill="#6B29FF"/>
<path d="M322.786 228.939C322.786 228.939 322.786 229.575 322.786 230.849C322.706 232.123 322.706 233.874 322.626 235.943C322.467 240.241 322.387 246.211 322.387 252.738C322.387 259.344 322.547 265.234 322.706 269.532C322.786 271.602 322.865 273.353 322.865 274.626C322.945 275.82 322.945 276.537 322.865 276.537C322.865 276.537 322.786 275.9 322.626 274.706C322.547 273.512 322.387 271.761 322.228 269.612C321.989 265.314 321.75 259.344 321.671 252.817C321.671 246.211 321.83 240.321 322.069 236.023C322.149 233.874 322.308 232.123 322.387 230.929C322.626 229.655 322.706 228.939 322.786 228.939Z" fill="#263238"/>
<path d="M344.762 211.109C344.762 211.189 343.329 210.791 340.94 210.871C338.631 210.871 335.287 211.507 332.181 213.418C329.076 215.328 327.085 217.955 325.971 220.104C324.856 222.173 324.537 223.685 324.458 223.606C324.458 223.606 324.458 223.208 324.617 222.571C324.776 221.934 325.095 220.979 325.572 219.865C326.608 217.716 328.678 214.85 331.863 212.94C335.048 210.95 338.472 210.393 340.94 210.473C342.134 210.473 343.09 210.632 343.806 210.791C344.443 210.95 344.842 211.109 344.762 211.109Z" fill="#263238"/>
<path d="M252.875 238.968C252.875 238.968 252.875 239.207 252.955 239.525C252.955 240.002 252.955 240.48 253.034 241.196C253.034 242.629 253.114 244.699 253.114 247.325C253.114 252.499 253.034 259.583 252.875 267.463C252.716 275.263 252.556 282.347 252.477 287.6C252.397 290.147 252.397 292.217 252.318 293.729C252.318 294.366 252.238 294.923 252.238 295.401C252.238 295.799 252.238 295.958 252.158 295.958C252.079 295.958 252.158 295.719 252.079 295.401C252.079 294.923 252.079 294.446 251.999 293.729C251.999 292.296 251.919 290.227 251.919 287.6C251.919 282.427 251.999 275.343 252.158 267.463C252.318 259.662 252.477 252.578 252.556 247.325C252.636 244.778 252.636 242.709 252.716 241.196C252.716 240.56 252.795 240.002 252.795 239.525C252.875 239.207 252.875 238.968 252.875 238.968Z" fill="#263238"/>
<path d="M252.397 256.16C252.397 256.24 249.451 256.319 245.709 256.319C242.046 256.319 239.02 256.16 239.02 256.081C239.02 256.001 241.966 255.921 245.709 255.921C249.371 255.921 252.397 256.001 252.397 256.16Z" fill="white"/>
<path d="M321.989 244.301C321.989 244.38 306.861 244.539 288.228 244.539C269.596 244.539 254.467 244.46 254.467 244.301C254.467 244.221 269.596 244.062 288.228 244.062C306.94 244.062 321.989 244.141 321.989 244.301Z" fill="white"/>
<path d="M365.942 237.296C365.942 237.296 365.783 237.296 365.464 237.296C365.146 237.296 364.748 237.217 364.19 237.217C363.076 237.137 361.483 236.978 359.572 236.819C355.671 236.5 350.256 236.102 344.284 235.943C338.312 235.784 332.898 235.864 328.996 235.943C327.085 236.023 325.493 236.023 324.378 236.102C323.9 236.102 323.423 236.102 323.104 236.102C322.786 236.102 322.626 236.102 322.626 236.102C322.626 236.102 322.786 236.102 323.024 236.023C323.343 236.023 323.741 235.943 324.298 235.943C325.413 235.864 327.006 235.784 328.917 235.704C332.818 235.545 338.233 235.386 344.205 235.545C350.176 235.704 355.591 236.102 359.493 236.5C361.483 236.659 362.996 236.898 364.111 237.057C364.589 237.137 365.066 237.217 365.385 237.217C365.783 237.217 365.942 237.296 365.942 237.296Z" fill="white"/>
<path d="M366.34 267.702C366.34 267.781 356.467 267.702 344.284 267.383C332.102 267.144 322.228 266.826 322.228 266.667C322.228 266.587 332.102 266.667 344.284 266.985C356.467 267.224 366.34 267.542 366.34 267.702Z" fill="white"/>
<path d="M326.607 218.751C326.607 218.83 311.001 218.989 291.811 218.989C272.542 218.989 257.015 218.91 257.015 218.751C257.015 218.671 272.622 218.512 291.811 218.512C311.001 218.512 326.607 218.671 326.607 218.751Z" fill="white"/>
<path d="M322.228 276.616C322.228 276.696 306.622 276.855 287.273 276.855C268.004 276.855 252.318 276.775 252.318 276.616C252.318 276.457 267.924 276.377 287.273 276.377C306.622 276.377 322.228 276.457 322.228 276.616Z" fill="white"/>
<path d="M327.245 302.087C327.245 302.166 310.205 302.325 289.264 302.325C268.243 302.325 251.282 302.246 251.282 302.087C251.282 301.927 268.322 301.848 289.264 301.848C310.284 301.927 327.245 302.007 327.245 302.087Z" fill="white"/>
<path d="M365.703 375.712C365.703 375.792 340.064 375.951 308.453 375.951C276.842 375.951 251.203 375.871 251.203 375.712C251.203 375.633 276.842 375.473 308.453 375.473C340.064 375.553 365.703 375.633 365.703 375.712Z" fill="white"/>
<g opacity="0.3">
<path d="M322.626 278.686C322.149 268.577 322.467 259.026 321.989 248.917C318.565 263.801 316.893 279.084 317.132 294.286C317.212 297.948 317.371 301.609 318.565 305.032C319.76 308.454 322.945 311.399 326.289 312.832L326.608 278.208C325.015 278.367 324.06 278.686 322.626 278.686Z" fill="black"/>
</g>
<path d="M97.2085 341.009L91.4755 378.737H58.1127L50.3891 341.566L97.2085 341.009Z" fill="#6B29FF"/>
<path d="M55.0074 365.205C55.0074 365.285 63.5272 365.365 74.1173 365.365C84.6278 365.365 93.2273 365.285 93.2273 365.205C93.2273 365.126 84.7074 365.046 74.1173 365.046C63.6069 364.967 55.0074 365.046 55.0074 365.205Z" fill="#FAFAFA"/>
<path d="M54.9277 363.295C54.9277 363.375 63.5272 363.454 74.1173 363.454C84.7074 363.454 93.3069 363.375 93.3069 363.295C93.3069 363.216 84.7074 363.136 74.1173 363.136C63.5272 363.136 54.9277 363.216 54.9277 363.295Z" fill="#FAFAFA"/>
<path d="M55.0074 361.226C55.0074 361.305 63.6069 361.385 74.197 361.385C84.7871 361.385 93.3865 361.305 93.3865 361.226C93.3865 361.146 84.7871 361.067 74.197 361.067C63.6069 360.987 55.0074 361.146 55.0074 361.226Z" fill="#FAFAFA"/>
<path d="M87.6535 376.588C87.7332 376.588 88.2109 374.518 88.6887 371.812C89.1664 369.185 89.4053 367.036 89.3257 367.036C89.246 367.036 88.7683 369.106 88.2905 371.812C87.8128 374.359 87.4943 376.508 87.6535 376.588Z" fill="#FAFAFA"/>
<path d="M85.3444 376.19C85.424 376.19 85.5833 374.12 85.7425 371.573C85.9018 369.026 86.061 366.957 85.9814 366.957C85.9018 366.957 85.5833 369.026 85.3444 371.573C85.1851 374.041 85.2648 376.19 85.3444 376.19Z" fill="#FAFAFA"/>
<path d="M81.2039 376.19C81.2835 376.19 81.7613 374.12 82.0798 371.414C82.3983 368.787 82.4779 366.559 82.3187 366.559C82.239 366.559 82.0002 368.708 81.6817 371.334C81.3632 374.041 81.1243 376.11 81.2039 376.19Z" fill="#FAFAFA"/>
<path d="M78.3374 376.349C78.4171 376.349 78.7356 374.2 78.8152 371.493C78.8948 368.787 78.7356 366.638 78.6559 366.638C78.5763 366.638 78.4967 368.787 78.4171 371.493C78.3374 374.2 78.1782 376.349 78.3374 376.349Z" fill="#FAFAFA"/>
<path d="M73.1618 376.19C73.2414 376.19 73.4007 374.12 73.4803 371.573C73.5599 369.026 73.5599 366.957 73.4007 366.957C73.321 366.957 73.1618 369.026 73.0822 371.573C73.0822 374.12 73.0822 376.19 73.1618 376.19Z" fill="#FAFAFA"/>
<path d="M69.4194 376.349C69.499 376.349 69.5787 374.2 69.5787 371.573C69.5787 368.946 69.4194 366.797 69.3398 366.877C69.2602 366.877 69.1805 369.026 69.1805 371.653C69.2602 374.2 69.3398 376.349 69.4194 376.349Z" fill="#FAFAFA"/>
<path d="M65.916 375.871C65.9956 375.871 65.916 373.643 65.5975 370.936C65.3586 368.23 65.0401 366.001 64.9605 366.001C64.8809 366.001 64.9605 368.23 65.279 370.936C65.5179 373.643 65.8364 375.871 65.916 375.871Z" fill="#FAFAFA"/>
<path d="M61.3773 375.394C61.457 375.394 61.2977 373.483 60.82 371.175C60.3422 368.867 59.7052 367.116 59.546 367.116C59.4664 367.116 59.9441 368.946 60.4219 371.255C60.8996 373.483 61.2977 375.394 61.3773 375.394Z" fill="#FAFAFA"/>
<path d="M64.5623 266.587C64.5623 266.587 64.5623 266.667 64.6419 266.746C64.7216 266.906 64.7216 267.065 64.8012 267.304C64.9604 267.781 65.1993 268.497 65.4382 269.373C65.7567 270.249 66.0752 271.363 66.3937 272.636C66.7918 273.91 67.1899 275.343 67.5881 276.935C67.9862 278.526 68.4639 280.278 68.8621 282.188C69.3398 284.098 69.7379 286.088 70.1361 288.237C70.9323 292.535 71.6489 297.311 72.2063 302.325C72.684 307.34 72.9229 312.116 73.0025 316.493C73.0025 318.642 73.0025 320.791 72.9229 322.702C72.9229 324.612 72.7637 326.443 72.684 328.114C72.6044 329.786 72.4452 331.218 72.3655 332.572C72.2859 333.845 72.1267 335.039 72.047 335.915C71.9674 336.79 71.8878 337.506 71.8082 338.064C71.8082 338.302 71.8082 338.462 71.7285 338.621C71.7285 338.78 71.7285 338.78 71.7285 338.78C71.7285 338.78 71.7285 338.7 71.8082 338.621C71.8082 338.462 71.8878 338.302 71.8878 338.064C71.9674 337.586 72.047 336.87 72.2063 335.915C72.3655 334.959 72.4452 333.845 72.6044 332.572C72.7637 331.298 72.9229 329.786 73.0025 328.114C73.0822 326.443 73.2414 324.612 73.321 322.702C73.4007 320.791 73.4007 318.642 73.4007 316.493C73.321 312.116 73.1618 307.26 72.684 302.246C72.2063 297.231 71.41 292.456 70.6138 288.157C70.1361 286.008 69.7379 283.939 69.2602 282.108C68.8621 280.198 68.3843 278.447 67.9066 276.855C67.5084 275.263 67.0307 273.83 66.6326 272.557C66.2344 271.283 65.9159 270.249 65.5974 269.373C65.2789 268.497 65.0401 267.861 64.8808 267.383C64.8012 267.144 64.7216 266.985 64.7216 266.826C64.6419 266.667 64.5623 266.587 64.5623 266.587Z" fill="#263238"/>
<path d="M70.6138 289.909C69.7379 287.202 67.8269 284.894 65.4382 283.382C64.6419 282.904 63.6068 282.427 62.7309 282.904C61.5366 283.461 61.457 285.133 61.8551 286.327C62.4125 288.396 63.8457 290.307 65.5974 291.5C67.4288 292.694 69.1009 293.252 71.2508 292.933" fill="#263238"/>
<path d="M72.6045 305.748C71.7286 302.485 69.1806 297.868 66.4734 295.878C66.0752 295.56 65.5975 295.241 65.0401 295.162C64.4827 295.003 63.9254 295.082 63.5272 295.48C62.9699 296.037 63.0495 296.913 63.2087 297.629C64.2439 302.405 68.2251 306.385 72.923 307.419" fill="#263238"/>
<path d="M73.1618 319.598C71.8082 316.493 69.6583 313.787 66.9511 311.797C66.3141 311.32 65.5975 310.922 64.8012 311.001C63.6068 311.24 63.0495 312.673 63.2087 313.867C63.4476 316.334 65.279 318.324 67.2696 319.836C69.3398 321.508 73.0026 322.781 73.0026 322.781" fill="#263238"/>
<path d="M72.8433 329.547C71.4897 327.239 69.8175 325.01 67.588 323.498C67.1103 323.179 66.5529 322.861 65.9955 322.781C65.4382 322.702 64.8012 322.861 64.4031 323.338C63.8457 324.134 64.4031 325.169 64.9604 325.886C66.951 328.512 69.4194 330.422 72.5248 331.378" fill="#263238"/>
<path d="M73.1618 325.488C75.4709 322.702 77.9393 320.155 80.7261 317.767C81.1243 317.369 81.6816 317.05 82.239 317.21C82.6371 317.369 82.876 317.767 82.9556 318.244C82.9556 318.642 82.7964 319.12 82.6371 319.518C80.965 323.498 77.0634 326.602 72.9229 327.716" fill="#263238"/>
<path d="M72.9229 312.514C74.9135 310.126 76.9042 307.658 78.8948 305.27C79.4521 304.554 80.0095 303.917 80.8058 303.44C81.602 303.042 82.6371 302.883 83.3538 303.44C84.0704 303.917 84.3093 304.952 84.15 305.828C83.9908 306.703 83.513 307.499 82.9556 308.215C81.7613 309.966 80.4076 311.638 78.6559 312.832C76.9042 314.026 75.3117 314.822 73.2414 314.503" fill="#263238"/>
<path d="M72.0471 297.948C73.1618 294.525 75.3117 291.341 78.0189 288.953C78.4967 288.555 78.9744 288.157 79.6114 288.078C80.8058 287.839 81.9205 288.874 82.3187 289.988C82.7168 291.262 82.4779 292.774 81.7613 293.888C81.0447 295.082 80.0892 296.037 78.9744 296.833C76.9838 298.346 74.7543 299.54 72.3656 300.415" fill="#263238"/>
<path d="M69.7379 284.894C70.2953 280.676 72.5248 277.173 74.9932 273.83C75.5505 273.114 76.2671 272.318 77.143 272.477C77.7004 272.557 78.1781 273.034 78.417 273.512C78.6559 274.069 78.6559 274.626 78.6559 275.183C78.4966 280.278 74.9932 285.053 70.2157 286.725" fill="#263238"/>
<path d="M68.0658 278.208C68.3047 276.059 68.4639 273.91 68.3047 271.761C68.1454 269.612 67.5084 267.463 66.1548 265.712C65.5975 264.995 64.8808 264.279 64.005 263.961C63.1291 263.642 62.094 263.722 61.3773 264.279C60.7403 264.836 60.4218 265.712 60.5015 266.587C60.5015 267.463 60.82 268.259 61.1385 269.055C62.6513 272.955 65.279 277.173 68.0658 278.208Z" fill="#263238"/>
<path d="M93.8642 283.223C93.8642 283.223 93.8642 283.382 93.8642 283.78C93.8642 284.178 93.8642 284.655 93.8642 285.292C93.8642 285.929 93.8642 286.725 93.8642 287.68C93.8642 288.635 93.8642 289.67 93.7846 290.864C93.705 293.252 93.4661 296.037 93.068 299.142C92.6698 302.246 92.1921 305.668 91.3958 309.171C90.6792 312.673 89.8033 316.016 88.8478 319.04C87.8923 321.985 87.0165 324.692 86.1406 326.92C85.7425 328.035 85.3444 328.99 84.9462 329.865C84.6277 330.741 84.3092 331.457 83.9907 332.094C83.7519 332.651 83.513 333.129 83.4334 333.527C83.2741 333.845 83.2741 334.004 83.2741 334.004C83.2741 334.004 83.3537 333.845 83.513 333.527C83.6722 333.208 83.9111 332.731 84.15 332.174C84.4685 331.616 84.787 330.82 85.1851 329.945C85.5832 329.069 85.9814 328.114 86.3795 327C87.2553 324.771 88.2108 322.145 89.1663 319.2C90.0422 316.175 90.9977 312.912 91.7143 309.33C92.431 305.828 92.9883 302.405 93.3068 299.301C93.6253 296.197 93.8642 293.411 93.9438 291.023C94.0235 289.829 94.0235 288.794 94.0235 287.839C94.0235 286.884 94.0235 286.088 94.0235 285.451C94.0235 284.814 93.9438 284.337 93.9438 283.939C93.9438 283.382 93.9438 283.223 93.8642 283.223Z" fill="#263238"/>
<path d="M92.9883 300.415C92.9883 298.425 92.1921 296.356 90.8385 294.843C90.3607 294.286 89.8034 293.809 89.0867 293.888C88.2109 294.047 87.7331 295.082 87.7331 296.037C87.6535 297.55 88.2109 299.142 89.1664 300.335C90.1219 301.529 91.157 302.246 92.7495 302.564" fill="#263238"/>
<path d="M90.9181 311.558C90.9977 309.171 90.2811 305.43 88.8479 303.519C88.609 303.201 88.3701 302.883 88.0516 302.723C87.7331 302.564 87.335 302.485 86.9369 302.644C86.4591 302.883 86.2999 303.519 86.2202 304.077C85.9017 307.499 87.7331 311.081 90.7588 312.832" fill="#263238"/>
<path d="M88.3701 321.189C88.1312 318.802 87.2553 316.493 85.8221 314.503C85.5036 314.026 85.1055 313.548 84.5481 313.548C83.6722 313.469 83.0352 314.265 82.876 315.14C82.4779 316.891 83.3537 318.563 84.3092 320.075C85.3444 321.667 87.5738 323.338 87.5738 323.338" fill="#263238"/>
<path d="M85.9814 327.875C85.5832 325.965 84.8666 324.134 83.6723 322.622C83.4334 322.304 83.1149 321.985 82.7168 321.826C82.3186 321.667 81.8409 321.667 81.5224 321.906C80.965 322.304 81.1243 323.179 81.3631 323.816C82.1594 325.965 83.4334 327.875 85.3444 329.229" fill="#263238"/>
<path d="M87.0165 325.169C89.1664 323.736 91.4755 322.543 93.7846 321.587C94.1827 321.428 94.5808 321.269 94.8993 321.508C95.1382 321.667 95.2178 322.065 95.1382 322.383C95.0586 322.702 94.8993 322.941 94.6605 323.179C92.6698 325.567 89.3256 326.841 86.2999 326.681" fill="#263238"/>
<path d="M89.6441 316.255C91.4755 315.061 93.3865 313.787 95.2178 312.593C95.7752 312.275 96.3326 311.877 96.8899 311.797C97.5269 311.638 98.2436 311.797 98.6417 312.354C99.0398 312.832 98.9602 313.628 98.6417 314.185C98.3232 314.742 97.8454 315.14 97.3677 315.538C96.1733 316.493 94.8993 317.289 93.4661 317.767C92.0328 318.244 90.7588 318.404 89.4052 317.767" fill="#263238"/>
<path d="M92.2717 306.146C93.7846 304.076 95.8549 302.405 98.2436 301.291C98.6417 301.131 99.0399 300.972 99.5176 300.972C100.393 301.052 100.951 302.007 100.951 302.883C100.951 303.838 100.473 304.793 99.7565 305.43C99.0399 306.066 98.164 306.544 97.2085 306.862C95.5364 307.499 93.705 307.817 91.9532 307.897" fill="#263238"/>
<path d="M93.4661 296.754C94.7401 294.047 96.9696 292.137 99.438 290.386C99.9157 289.988 100.632 289.67 101.19 289.909C101.588 290.068 101.747 290.466 101.827 290.864C101.827 291.262 101.747 291.66 101.588 292.058C100.393 295.48 96.9696 298.027 93.3865 298.107" fill="#263238"/>
<path d="M93.7846 291.898C94.4216 290.466 94.979 289.033 95.2974 287.521C95.6159 286.008 95.6956 284.416 95.1382 282.984C94.8993 282.347 94.5808 281.79 94.0235 281.312C93.4661 280.914 92.7495 280.755 92.1125 280.994C91.5551 281.233 91.157 281.79 90.9977 282.347C90.8385 282.904 90.8385 283.541 90.9181 284.178C91.2366 287.123 92.1125 290.545 93.7846 291.898Z" fill="#263238"/>
<path d="M51.7427 282.825C51.7427 282.825 51.7427 282.984 51.6631 283.382C51.6631 283.78 51.6631 284.257 51.5835 284.894C51.5835 285.531 51.5039 286.327 51.5835 287.282C51.5835 288.237 51.5835 289.272 51.6631 290.466C51.7427 292.854 51.902 295.639 52.3001 298.744C52.6982 301.848 53.176 305.27 53.8926 308.773C54.6092 312.275 55.5647 315.618 56.4406 318.642C57.3961 321.667 58.3516 324.294 59.2275 326.443C59.6256 327.557 60.1033 328.512 60.4218 329.388C60.82 330.263 61.1385 330.98 61.457 331.616C61.6958 332.174 61.9347 332.651 62.094 332.97C62.2532 333.288 62.3328 333.447 62.3328 333.447C62.3328 333.447 62.2532 333.288 62.1736 332.97C62.0143 332.651 61.8551 332.174 61.6162 331.537C61.3773 330.9 61.0588 330.184 60.6607 329.308C60.3422 328.433 59.8645 327.477 59.4663 326.363C58.5905 324.134 57.7146 321.508 56.7591 318.483C55.8832 315.459 55.0073 312.195 54.2111 308.613C53.4945 305.111 52.9371 301.689 52.539 298.584C52.2205 295.48 51.9816 292.694 51.8224 290.307C51.7427 289.113 51.7427 288.078 51.7427 287.123C51.7427 286.168 51.7427 285.372 51.7427 284.735C51.7427 284.098 51.7427 283.621 51.7427 283.223C51.7427 283.063 51.7427 282.825 51.7427 282.825Z" fill="#455A64"/>
<path d="M52.6982 300.017C52.6982 298.027 53.4945 295.958 54.8481 294.445C55.3259 293.888 55.8832 293.411 56.5999 293.49C57.4757 293.649 57.9535 294.684 57.9535 295.639C58.0331 297.152 57.4757 298.744 56.5202 299.937C55.5647 301.131 54.5296 301.848 52.9371 302.166" fill="#455A64"/>
<path d="M54.6888 311.24C54.6092 308.852 55.3258 305.111 56.7591 303.201C56.998 302.883 57.2368 302.564 57.5553 302.405C57.8738 302.246 58.272 302.166 58.6701 302.325C59.1478 302.564 59.3071 303.201 59.3867 303.758C59.7052 307.181 57.8738 310.762 54.8481 312.514" fill="#455A64"/>
<path d="M57.3165 320.791C57.5553 318.404 58.4312 316.095 59.8645 314.105C60.183 313.628 60.5811 313.15 61.1385 313.15C62.0143 313.071 62.6513 313.867 62.8106 314.742C63.2087 316.493 62.3328 318.165 61.3773 319.677C60.3422 321.269 58.1127 322.94 58.1127 322.94" fill="#455A64"/>
<path d="M59.6255 327.477C60.0237 325.567 60.7403 323.736 61.9347 322.224C62.1735 321.906 62.492 321.587 62.8902 321.428C63.2883 321.269 63.766 321.269 64.0845 321.508C64.6419 321.906 64.4827 322.781 64.2438 323.418C63.4475 325.567 62.1735 327.477 60.2625 328.831" fill="#455A64"/>
<path d="M58.5904 324.771C56.4406 323.338 54.1314 322.145 51.8223 321.189C51.4242 321.03 51.0261 320.871 50.7076 321.11C50.4687 321.269 50.3891 321.667 50.4687 321.985C50.5483 322.304 50.7076 322.543 50.9465 322.781C52.9371 325.169 56.2813 326.443 59.3071 326.283" fill="#455A64"/>
<path d="M55.9628 315.936C54.1315 314.742 52.2205 313.469 50.3891 312.275C49.8317 311.956 49.2744 311.558 48.717 311.479C48.08 311.32 47.3634 311.479 46.9652 312.036C46.5671 312.514 46.6467 313.309 46.9652 313.867C47.2837 314.424 47.7615 314.822 48.2392 315.22C49.4336 316.175 50.7076 316.971 52.1408 317.448C53.5741 317.926 54.8481 318.085 56.2017 317.448" fill="#455A64"/>
<path d="M53.4148 305.828C51.9019 303.758 49.8317 302.087 47.443 300.972C47.0448 300.813 46.6467 300.654 46.169 300.654C45.2931 300.733 44.7357 301.689 44.7357 302.564C44.7357 303.519 45.2135 304.474 45.9301 305.111C46.6467 305.748 47.5226 306.226 48.4781 306.544C50.1502 307.181 51.9816 307.499 53.7333 307.579" fill="#455A64"/>
<path d="M52.2205 296.435C50.9465 293.729 48.717 291.819 46.2486 290.068C45.7709 289.67 45.0542 289.351 44.4969 289.59C44.0987 289.749 43.9395 290.147 43.8599 290.545C43.8599 290.943 43.9395 291.341 44.0987 291.739C45.2931 295.162 48.717 297.709 52.3001 297.788" fill="#455A64"/>
<path d="M51.902 291.5C51.265 290.068 50.7076 288.635 50.3891 287.123C50.0706 285.61 49.991 284.018 50.5483 282.586C50.7872 281.949 51.1057 281.392 51.6631 280.914C52.2205 280.516 52.9371 280.357 53.5741 280.596C54.1315 280.835 54.5296 281.392 54.6888 281.949C54.8481 282.506 54.8481 283.143 54.7685 283.78C54.45 286.804 53.5741 290.227 51.902 291.5Z" fill="#455A64"/>
<path d="M101.03 333.527V340.611C101.03 342.123 99.7565 343.396 98.2436 343.396H49.991C48.4781 343.396 47.2041 342.123 47.2041 340.611V333.527H101.03Z" fill="#6B29FF"/>
<g opacity="0.4">
<path d="M96.8104 343.396L96.4122 345.625L51.902 348.809L50.7872 343.396H96.8104Z" fill="black"/>
</g>
<path d="M388.157 378.578C388.157 378.657 309.329 378.816 212.107 378.816C114.885 378.737 36.0566 378.657 36.0566 378.578C36.0566 378.498 114.885 378.339 212.107 378.339C309.329 378.339 388.157 378.418 388.157 378.578Z" fill="#263238"/>
</g>
<defs>
<clipPath id="clip0_19_42">
<rect width="365" height="346" fill="white" transform="translate(36.0566 33.6919)"/>
</clipPath>
</defs>
</svg>
