<svg width="201" height="61" viewBox="0 0 201 61" fill="none" xmlns="http://www.w3.org/2000/svg">
<rect x="0.697678" y="1.28198" width="199" height="59" rx="7.5" stroke="#D9C8FF"/>
<g clip-path="url(#clip0_118_123)">
<path d="M24.7057 14.782H42.6897C46.5602 14.782 49.6977 17.9195 49.6977 21.79V39.774C49.6977 43.6445 46.5602 46.782 42.6897 46.782H24.7057C20.8352 46.782 17.6977 43.6445 17.6977 39.774V21.79C17.6977 17.9195 20.8352 14.782 24.7057 14.782Z" fill="url(#paint0_linear_118_123)"/>
<path d="M27.953 38.0083L27.956 38.0093L26.8619 39.9043C26.4625 40.5961 25.578 40.8331 24.8863 40.4337C24.1946 40.0343 23.9575 39.1498 24.3569 38.4581L25.1629 37.0621L25.2403 36.9281C25.3784 36.7296 25.7193 36.3868 26.4011 36.4513C26.4011 36.4513 28.0058 36.6254 28.1219 37.4594C28.1219 37.4594 28.1376 37.7338 27.953 38.0083ZM43.4709 33.1683H40.0591C39.8267 33.1527 39.7254 33.0697 39.6854 33.0214L39.6829 33.0171L36.0307 26.6913L36.026 26.6944L35.807 26.3804C35.448 25.8314 34.878 27.2354 34.878 27.2354C34.1974 28.7999 34.9746 30.5786 35.2455 31.1162L40.3182 39.9024C40.7175 40.5941 41.602 40.8312 42.2939 40.4317C42.9855 40.0323 43.2226 39.1478 42.8231 38.4561L41.5547 36.2591C41.5301 36.2058 41.4874 36.0613 41.7475 36.0607H43.4709C44.2696 36.0607 44.9171 35.4132 44.9171 34.6144C44.9171 33.8157 44.2696 33.1682 43.4709 33.1682V33.1683ZM36.8441 35.1343C36.8441 35.1343 37.0262 36.0607 36.3216 36.0607H23.7093C22.9105 36.0607 22.263 35.4132 22.263 34.6144C22.263 33.8157 22.9105 33.1682 23.7093 33.1682H26.9517C27.4752 33.1379 27.5992 32.8357 27.5992 32.8357L27.6023 32.8372L31.8348 25.5062L31.8335 25.5059C31.9106 25.3643 31.8464 25.2304 31.8352 25.2093L30.4374 22.7882C30.038 22.0966 30.275 21.2119 30.9668 20.8127C31.6585 20.4133 32.543 20.6502 32.9424 21.3419L33.5906 22.4648L34.2378 21.3439C34.6371 20.6523 35.5216 20.4152 36.2134 20.8147C36.9051 21.2141 37.1421 22.0984 36.7427 22.7902L30.853 32.9914C30.8273 33.0536 30.8194 33.1511 31.011 33.1682H34.5315L34.5322 33.2026C34.5322 33.2026 36.567 33.2342 36.8441 35.1343Z" fill="white"/>
</g>
<path d="M67.4477 26.782H64.7545V18.0547H67.567C68.4136 18.0547 69.138 18.2294 69.7403 18.5789C70.3426 18.9254 70.8042 19.424 71.1252 20.0746C71.4463 20.7223 71.6068 21.4979 71.6068 22.4013C71.6068 23.3104 71.4449 24.0931 71.121 24.7493C70.7971 25.4027 70.3255 25.9056 69.7062 26.2578C69.0869 26.6073 68.3341 26.782 67.4477 26.782ZM65.8113 25.8445H67.3795C68.1011 25.8445 68.6991 25.7053 69.1735 25.4269C69.648 25.1485 70.0017 24.7522 70.2346 24.2379C70.4676 23.7237 70.5841 23.1115 70.5841 22.4013C70.5841 21.6968 70.469 21.0902 70.2389 20.5817C70.0088 20.0703 69.665 19.6783 69.2076 19.4056C68.7502 19.13 68.1806 18.9922 67.4988 18.9922H65.8113V25.8445ZM80.7431 22.4183C80.7431 23.3388 80.577 24.1343 80.2446 24.8047C79.9122 25.4752 79.4562 25.9922 78.8767 26.3558C78.2971 26.7195 77.6352 26.9013 76.8909 26.9013C76.1466 26.9013 75.4846 26.7195 74.9051 26.3558C74.3255 25.9922 73.8696 25.4752 73.5372 24.8047C73.2048 24.1343 73.0386 23.3388 73.0386 22.4183C73.0386 21.4979 73.2048 20.7024 73.5372 20.032C73.8696 19.3615 74.3255 18.8445 74.9051 18.4808C75.4846 18.1172 76.1466 17.9354 76.8909 17.9354C77.6352 17.9354 78.2971 18.1172 78.8767 18.4808C79.4562 18.8445 79.9122 19.3615 80.2446 20.032C80.577 20.7024 80.7431 21.4979 80.7431 22.4183ZM79.7204 22.4183C79.7204 21.6627 79.594 21.0249 79.3412 20.505C79.0912 19.9851 78.7517 19.5916 78.3227 19.3246C77.8966 19.0576 77.4193 18.924 76.8909 18.924C76.3625 18.924 75.8838 19.0576 75.4548 19.3246C75.0287 19.5916 74.6892 19.9851 74.4363 20.505C74.1863 21.0249 74.0613 21.6627 74.0613 22.4183C74.0613 23.174 74.1863 23.8118 74.4363 24.3317C74.6892 24.8516 75.0287 25.2451 75.4548 25.5121C75.8838 25.7791 76.3625 25.9127 76.8909 25.9127C77.4193 25.9127 77.8966 25.7791 78.3227 25.5121C78.7517 25.2451 79.0912 24.8516 79.3412 24.3317C79.594 23.8118 79.7204 23.174 79.7204 22.4183ZM84.1054 26.782L81.719 18.0547H82.7929L84.6167 25.1627H84.702L86.5599 18.0547H87.7531L89.611 25.1627H89.6963L91.5201 18.0547H92.594L90.2076 26.782H89.1167L87.1906 19.8274H87.1224L85.1963 26.782H84.1054ZM100.831 18.0547V26.782H99.8085L95.0528 19.9297H94.9676V26.782H93.9108V18.0547H94.9335L99.7062 24.924H99.7914V18.0547H100.831ZM102.946 26.782V18.0547H104.003V25.8445H108.06V26.782H102.946ZM116.72 22.4183C116.72 23.3388 116.554 24.1343 116.221 24.8047C115.889 25.4752 115.433 25.9922 114.853 26.3558C114.274 26.7195 113.612 26.9013 112.867 26.9013C112.123 26.9013 111.461 26.7195 110.882 26.3558C110.302 25.9922 109.846 25.4752 109.514 24.8047C109.181 24.1343 109.015 23.3388 109.015 22.4183C109.015 21.4979 109.181 20.7024 109.514 20.032C109.846 19.3615 110.302 18.8445 110.882 18.4808C111.461 18.1172 112.123 17.9354 112.867 17.9354C113.612 17.9354 114.274 18.1172 114.853 18.4808C115.433 18.8445 115.889 19.3615 116.221 20.032C116.554 20.7024 116.72 21.4979 116.72 22.4183ZM115.697 22.4183C115.697 21.6627 115.571 21.0249 115.318 20.505C115.068 19.9851 114.728 19.5916 114.299 19.3246C113.873 19.0576 113.396 18.924 112.867 18.924C112.339 18.924 111.86 19.0576 111.431 19.3246C111.005 19.5916 110.666 19.9851 110.413 20.505C110.163 21.0249 110.038 21.6627 110.038 22.4183C110.038 23.174 110.163 23.8118 110.413 24.3317C110.666 24.8516 111.005 25.2451 111.431 25.5121C111.86 25.7791 112.339 25.9127 112.867 25.9127C113.396 25.9127 113.873 25.7791 114.299 25.5121C114.728 25.2451 115.068 24.8516 115.318 24.3317C115.571 23.8118 115.697 23.174 115.697 22.4183ZM118.444 26.782H117.337L120.541 18.0547H121.632L124.837 26.782H123.729L121.121 19.4354H121.052L118.444 26.782ZM118.854 23.3729H123.319V24.3104H118.854V23.3729ZM128.889 26.782H126.196V18.0547H129.008C129.855 18.0547 130.579 18.2294 131.182 18.5789C131.784 18.9254 132.246 19.424 132.567 20.0746C132.888 20.7223 133.048 21.4979 133.048 22.4013C133.048 23.3104 132.886 24.0931 132.562 24.7493C132.239 25.4027 131.767 25.9056 131.148 26.2578C130.528 26.6073 129.775 26.782 128.889 26.782ZM127.253 25.8445H128.821C129.543 25.8445 130.141 25.7053 130.615 25.4269C131.089 25.1485 131.443 24.7522 131.676 24.2379C131.909 23.7237 132.025 23.1115 132.025 22.4013C132.025 21.6968 131.91 21.0902 131.68 20.5817C131.45 20.0703 131.106 19.6783 130.649 19.4056C130.192 19.13 129.622 18.9922 128.94 18.9922H127.253V25.8445ZM145.56 22.4183C145.56 23.3388 145.393 24.1343 145.061 24.8047C144.729 25.4752 144.273 25.9922 143.693 26.3558C143.114 26.7195 142.452 26.9013 141.707 26.9013C140.963 26.9013 140.301 26.7195 139.721 26.3558C139.142 25.9922 138.686 25.4752 138.354 24.8047C138.021 24.1343 137.855 23.3388 137.855 22.4183C137.855 21.4979 138.021 20.7024 138.354 20.032C138.686 19.3615 139.142 18.8445 139.721 18.4808C140.301 18.1172 140.963 17.9354 141.707 17.9354C142.452 17.9354 143.114 18.1172 143.693 18.4808C144.273 18.8445 144.729 19.3615 145.061 20.032C145.393 20.7024 145.56 21.4979 145.56 22.4183ZM144.537 22.4183C144.537 21.6627 144.41 21.0249 144.158 20.505C143.908 19.9851 143.568 19.5916 143.139 19.3246C142.713 19.0576 142.236 18.924 141.707 18.924C141.179 18.924 140.7 19.0576 140.271 19.3246C139.845 19.5916 139.506 19.9851 139.253 20.505C139.003 21.0249 138.878 21.6627 138.878 22.4183C138.878 23.174 139.003 23.8118 139.253 24.3317C139.506 24.8516 139.845 25.2451 140.271 25.5121C140.7 25.7791 141.179 25.9127 141.707 25.9127C142.236 25.9127 142.713 25.7791 143.139 25.5121C143.568 25.2451 143.908 24.8516 144.158 24.3317C144.41 23.8118 144.537 23.174 144.537 22.4183ZM154.257 18.0547V26.782H153.234L148.479 19.9297H148.393V26.782H147.337V18.0547H148.359L153.132 24.924H153.217V18.0547H154.257ZM159.269 18.9922V18.0547H165.815V18.9922H163.071V26.782H162.014V18.9922H159.269ZM167.446 26.782V18.0547H168.503V21.9411H173.156V18.0547H174.213V26.782H173.156V22.8786H168.503V26.782H167.446ZM176.329 26.782V18.0547H181.596V18.9922H177.386V21.9411H181.323V22.8786H177.386V25.8445H181.664V26.782H176.329Z" fill="#4E5871"/>
<path d="M65.6764 44.782H64.0457L67.7098 34.6002H69.4846L73.1487 44.782H71.518L68.6395 36.4496H68.5599L65.6764 44.782ZM65.9498 40.7948H71.2396V42.0874H65.9498V40.7948ZM74.4997 47.6456V37.1456H75.9514V38.3835H76.0757C76.1619 38.2245 76.2862 38.0405 76.4486 37.8317C76.611 37.6229 76.8364 37.4406 77.1247 37.2848C77.4131 37.1257 77.7942 37.0462 78.2682 37.0462C78.8847 37.0462 79.4348 37.202 79.9188 37.5135C80.4027 37.8251 80.7822 38.2742 81.0572 38.8608C81.3357 39.4475 81.4749 40.1534 81.4749 40.9787C81.4749 41.804 81.3373 42.5116 81.0622 43.1016C80.7871 43.6882 80.4093 44.1406 79.9287 44.4588C79.4481 44.7737 78.8996 44.9311 78.2831 44.9311C77.8191 44.9311 77.4396 44.8532 77.1446 44.6975C76.8529 44.5417 76.6242 44.3594 76.4585 44.1506C76.2928 43.9418 76.1652 43.7562 76.0757 43.5938H75.9862V47.6456H74.4997ZM75.9564 40.9638C75.9564 41.5007 76.0343 41.9714 76.1901 42.3757C76.3458 42.7801 76.5712 43.0966 76.8662 43.3253C77.1612 43.5507 77.5224 43.6634 77.95 43.6634C78.3941 43.6634 78.7653 43.5457 79.0636 43.3104C79.3619 43.0718 79.5873 42.7486 79.7398 42.3409C79.8956 41.9333 79.9734 41.4742 79.9734 40.9638C79.9734 40.46 79.8972 40.0076 79.7447 39.6066C79.5956 39.2055 79.3702 38.889 79.0686 38.657C78.7703 38.425 78.3974 38.309 77.95 38.309C77.5191 38.309 77.1545 38.42 76.8563 38.6421C76.5613 38.8641 76.3375 39.174 76.1851 39.5718C76.0326 39.9695 75.9564 40.4335 75.9564 40.9638ZM83.1403 47.6456V37.1456H84.592V38.3835H84.7163C84.8025 38.2245 84.9268 38.0405 85.0892 37.8317C85.2516 37.6229 85.477 37.4406 85.7653 37.2848C86.0537 37.1257 86.4348 37.0462 86.9088 37.0462C87.5253 37.0462 88.0755 37.202 88.5594 37.5135C89.0433 37.8251 89.4228 38.2742 89.6979 38.8608C89.9763 39.4475 90.1155 40.1534 90.1155 40.9787C90.1155 41.804 89.9779 42.5116 89.7028 43.1016C89.4277 43.6882 89.0499 44.1406 88.5693 44.4588C88.0887 44.7737 87.5402 44.9311 86.9237 44.9311C86.4597 44.9311 86.0802 44.8532 85.7852 44.6975C85.4936 44.5417 85.2649 44.3594 85.0991 44.1506C84.9334 43.9418 84.8058 43.7562 84.7163 43.5938H84.6268V47.6456H83.1403ZM84.597 40.9638C84.597 41.5007 84.6749 41.9714 84.8307 42.3757C84.9865 42.7801 85.2118 43.0966 85.5068 43.3253C85.8018 43.5507 86.1631 43.6634 86.5906 43.6634C87.0348 43.6634 87.406 43.5457 87.7043 43.3104C88.0026 43.0718 88.2279 42.7486 88.3804 42.3409C88.5362 41.9333 88.6141 41.4742 88.6141 40.9638C88.6141 40.46 88.5378 40.0076 88.3854 39.6066C88.2362 39.2055 88.0108 38.889 87.7092 38.657C87.4109 38.425 87.0381 38.309 86.5906 38.309C86.1598 38.309 85.7952 38.42 85.4969 38.6421C85.2019 38.8641 84.9782 39.174 84.8257 39.5718C84.6732 39.9695 84.597 40.4335 84.597 40.9638ZM101.159 37.2749C101.106 36.8042 100.887 36.4397 100.502 36.1811C100.118 35.9193 99.634 35.7884 99.0507 35.7884C98.6331 35.7884 98.2718 35.8547 97.9669 35.9872C97.6619 36.1165 97.425 36.2955 97.2559 36.5242C97.0902 36.7495 97.0074 37.0064 97.0074 37.2948C97.0074 37.5367 97.0637 37.7455 97.1764 37.9212C97.2924 38.0968 97.4432 38.2443 97.6288 38.3637C97.8177 38.4797 98.0199 38.5774 98.2353 38.657C98.4508 38.7332 98.6579 38.7962 98.8568 38.8459L99.8511 39.1044C100.176 39.184 100.509 39.2917 100.85 39.4276C101.192 39.5635 101.508 39.7424 101.8 39.9645C102.092 40.1866 102.327 40.4617 102.506 40.7898C102.688 41.1179 102.779 41.5107 102.779 41.9681C102.779 42.5448 102.63 43.0568 102.332 43.5043C102.037 43.9517 101.608 44.3047 101.044 44.5632C100.484 44.8218 99.8064 44.951 99.0109 44.951C98.2486 44.951 97.589 44.83 97.0322 44.5881C96.4754 44.3461 96.0395 44.0031 95.7247 43.559C95.4098 43.1115 95.2358 42.5812 95.2027 41.9681H96.7439C96.7737 42.336 96.893 42.6425 97.1018 42.8878C97.3139 43.1298 97.5841 43.3104 97.9122 43.4297C98.2436 43.5457 98.6065 43.6037 99.001 43.6037C99.4351 43.6037 99.8213 43.5358 100.159 43.3999C100.501 43.2607 100.769 43.0684 100.965 42.8232C101.16 42.5746 101.258 42.2846 101.258 41.9531C101.258 41.6515 101.172 41.4046 101 41.2124C100.831 41.0201 100.6 40.8611 100.308 40.7351C100.02 40.6092 99.6937 40.4981 99.3291 40.402L98.126 40.0739C97.3106 39.8518 96.6643 39.5254 96.187 39.0945C95.7131 38.6636 95.4761 38.0935 95.4761 37.3843C95.4761 36.7976 95.6352 36.2855 95.9534 35.848C96.2716 35.4105 96.7024 35.0708 97.246 34.8289C97.7895 34.5836 98.4027 34.461 99.0855 34.461C99.7749 34.461 100.383 34.5819 100.91 34.8239C101.44 35.0658 101.858 35.3989 102.163 35.8232C102.468 36.2441 102.627 36.728 102.64 37.2749H101.159ZM108.06 37.1456V38.3388H103.889V37.1456H108.06ZM105.008 35.3161H106.494V42.5398C106.494 42.8281 106.537 43.0452 106.624 43.1911C106.71 43.3336 106.821 43.4314 106.957 43.4844C107.096 43.5341 107.247 43.559 107.409 43.559C107.528 43.559 107.633 43.5507 107.722 43.5341C107.812 43.5175 107.881 43.5043 107.931 43.4943L108.2 44.7223C108.113 44.7555 107.991 44.7886 107.832 44.8218C107.673 44.8582 107.474 44.8781 107.235 44.8814C106.844 44.888 106.479 44.8184 106.141 44.6726C105.803 44.5268 105.53 44.3014 105.321 43.9965C105.112 43.6915 105.008 43.3087 105.008 42.848V35.3161ZM112.839 44.9361C112.123 44.9361 111.499 44.772 110.965 44.4439C110.431 44.1158 110.017 43.6567 109.722 43.0668C109.427 42.4768 109.28 41.7874 109.28 40.9986C109.28 40.2065 109.427 39.5138 109.722 38.9205C110.017 38.3272 110.431 37.8665 110.965 37.5384C111.499 37.2102 112.123 37.0462 112.839 37.0462C113.555 37.0462 114.18 37.2102 114.714 37.5384C115.247 37.8665 115.662 38.3272 115.957 38.9205C116.252 39.5138 116.399 40.2065 116.399 40.9986C116.399 41.7874 116.252 42.4768 115.957 43.0668C115.662 43.6567 115.247 44.1158 114.714 44.4439C114.18 44.772 113.555 44.9361 112.839 44.9361ZM112.844 43.6882C113.308 43.6882 113.693 43.5656 113.998 43.3203C114.303 43.0751 114.528 42.7486 114.674 42.3409C114.823 41.9333 114.898 41.4842 114.898 40.9936C114.898 40.5064 114.823 40.059 114.674 39.6513C114.528 39.2403 114.303 38.9105 113.998 38.662C113.693 38.4134 113.308 38.2891 112.844 38.2891C112.377 38.2891 111.989 38.4134 111.681 38.662C111.376 38.9105 111.149 39.2403 111 39.6513C110.854 40.059 110.781 40.5064 110.781 40.9936C110.781 41.4842 110.854 41.9333 111 42.3409C111.149 42.7486 111.376 43.0751 111.681 43.3203C111.989 43.5656 112.377 43.6882 112.844 43.6882ZM118.058 44.782V37.1456H119.495V38.3587H119.575C119.714 37.9477 119.959 37.6245 120.31 37.3892C120.665 37.1506 121.066 37.0313 121.514 37.0313C121.606 37.0313 121.716 37.0346 121.842 37.0412C121.971 37.0478 122.072 37.0561 122.145 37.0661V38.4879C122.085 38.4714 121.979 38.4531 121.827 38.4333C121.674 38.4101 121.522 38.3985 121.369 38.3985C121.018 38.3985 120.705 38.473 120.43 38.6222C120.158 38.768 119.943 38.9718 119.783 39.2337C119.624 39.4922 119.545 39.7872 119.545 40.1186V44.782H118.058ZM126.449 44.9361C125.697 44.9361 125.049 44.7754 124.505 44.4539C123.965 44.129 123.547 43.6733 123.252 43.0867C122.961 42.4967 122.815 41.8057 122.815 41.0135C122.815 40.2313 122.961 39.5419 123.252 38.9453C123.547 38.3487 123.958 37.8831 124.485 37.5483C125.016 37.2136 125.635 37.0462 126.345 37.0462C126.776 37.0462 127.193 37.1174 127.598 37.26C128.002 37.4025 128.365 37.6262 128.686 37.9311C129.008 38.2361 129.261 38.6321 129.447 39.1193C129.633 39.6032 129.725 40.1915 129.725 40.8843V41.4112H123.655V40.2976H128.269C128.269 39.9065 128.189 39.5602 128.03 39.2585C127.871 38.9536 127.647 38.7133 127.359 38.5377C127.074 38.362 126.739 38.2742 126.355 38.2742C125.937 38.2742 125.572 38.3769 125.261 38.5824C124.953 38.7846 124.714 39.0497 124.545 39.3779C124.379 39.7027 124.296 40.0557 124.296 40.4368V41.3068C124.296 41.8173 124.386 42.2514 124.565 42.6094C124.747 42.9674 125.001 43.2408 125.326 43.4297C125.65 43.6153 126.03 43.7081 126.464 43.7081C126.746 43.7081 127.003 43.6683 127.235 43.5888C127.467 43.5059 127.667 43.3833 127.836 43.2209C128.005 43.0585 128.134 42.858 128.224 42.6193L129.631 42.8729C129.518 43.2872 129.316 43.6501 129.024 43.9617C128.736 44.2699 128.373 44.5102 127.936 44.6826C127.501 44.8516 127.006 44.9361 126.449 44.9361Z" fill="#081537"/>
<defs>
<linearGradient id="paint0_linear_118_123" x1="33.6977" y1="14.782" x2="33.6977" y2="46.782" gradientUnits="userSpaceOnUse">
<stop stop-color="#17C9FB"/>
<stop offset="1" stop-color="#1A74E8"/>
</linearGradient>
<clipPath id="clip0_118_123">
<rect width="32" height="32" fill="white" transform="translate(17.6977 14.782)"/>
</clipPath>
</defs>
</svg>
