<svg width="200" height="61" viewBox="0 0 200 61" fill="none" xmlns="http://www.w3.org/2000/svg">
<rect x="0.5" y="0.611237" width="199" height="59" rx="7.5" stroke="#D9C8FF"/>
<path d="M63.916 26.1112H61.2228V17.384H64.0353C64.8819 17.384 65.6064 17.5587 66.2086 17.9081C66.8109 18.2547 67.2725 18.7533 67.5936 19.4039C67.9146 20.0516 68.0751 20.8271 68.0751 21.7306C68.0751 22.6396 67.9132 23.4223 67.5893 24.0786C67.2654 24.732 66.7939 25.2348 66.1745 25.5871C65.5552 25.9365 64.8024 26.1112 63.916 26.1112ZM62.2797 25.1737H63.8478C64.5694 25.1737 65.1674 25.0345 65.6419 24.7561C66.1163 24.4777 66.47 24.0814 66.7029 23.5672C66.9359 23.053 67.0524 22.4408 67.0524 21.7306C67.0524 21.026 66.9373 20.4195 66.7072 19.911C66.4771 19.3996 66.1333 19.0075 65.676 18.7348C65.2186 18.4592 64.649 18.3215 63.9672 18.3215H62.2797V25.1737ZM77.2115 21.7476C77.2115 22.6681 77.0453 23.4635 76.7129 24.134C76.3805 24.8044 75.9245 25.3215 75.345 25.6851C74.7654 26.0487 74.1035 26.2306 73.3592 26.2306C72.6149 26.2306 71.9529 26.0487 71.3734 25.6851C70.7939 25.3215 70.3379 24.8044 70.0055 24.134C69.6731 23.4635 69.5069 22.6681 69.5069 21.7476C69.5069 20.8271 69.6731 20.0317 70.0055 19.3612C70.3379 18.6908 70.7939 18.1737 71.3734 17.8101C71.9529 17.4465 72.6149 17.2646 73.3592 17.2646C74.1035 17.2646 74.7654 17.4465 75.345 17.8101C75.9245 18.1737 76.3805 18.6908 76.7129 19.3612C77.0453 20.0317 77.2115 20.8271 77.2115 21.7476ZM76.1887 21.7476C76.1887 20.9919 76.0623 20.3541 75.8095 19.8342C75.5595 19.3144 75.22 18.9209 74.791 18.6539C74.3649 18.3868 73.8876 18.2533 73.3592 18.2533C72.8308 18.2533 72.3521 18.3868 71.9231 18.6539C71.497 18.9209 71.1575 19.3144 70.9047 19.8342C70.6547 20.3541 70.5297 20.9919 70.5297 21.7476C70.5297 22.5033 70.6547 23.1411 70.9047 23.661C71.1575 24.1808 71.497 24.5743 71.9231 24.8414C72.3521 25.1084 72.8308 25.2419 73.3592 25.2419C73.8876 25.2419 74.3649 25.1084 74.791 24.8414C75.22 24.5743 75.5595 24.1808 75.8095 23.661C76.0623 23.1411 76.1887 22.5033 76.1887 21.7476ZM80.5737 26.1112L78.1873 17.384H79.2612L81.085 24.4919H81.1703L83.0282 17.384H84.2214L86.0794 24.4919H86.1646L87.9885 17.384H89.0623L86.676 26.1112H85.5851L83.6589 19.1567H83.5907L81.6646 26.1112H80.5737ZM97.2995 17.384V26.1112H96.2768L91.5211 19.259H91.4359V26.1112H90.3791V17.384H91.4018L96.1745 24.2533H96.2598V17.384H97.2995ZM99.4142 26.1112V17.384H100.471V25.1737H104.528V26.1112H99.4142ZM113.188 21.7476C113.188 22.6681 113.022 23.4635 112.689 24.134C112.357 24.8044 111.901 25.3215 111.322 25.6851C110.742 26.0487 110.08 26.2306 109.336 26.2306C108.591 26.2306 107.93 26.0487 107.35 25.6851C106.77 25.3215 106.314 24.8044 105.982 24.134C105.65 23.4635 105.483 22.6681 105.483 21.7476C105.483 20.8271 105.65 20.0317 105.982 19.3612C106.314 18.6908 106.77 18.1737 107.35 17.8101C107.93 17.4465 108.591 17.2646 109.336 17.2646C110.08 17.2646 110.742 17.4465 111.322 17.8101C111.901 18.1737 112.357 18.6908 112.689 19.3612C113.022 20.0317 113.188 20.8271 113.188 21.7476ZM112.165 21.7476C112.165 20.9919 112.039 20.3541 111.786 19.8342C111.536 19.3144 111.197 18.9209 110.768 18.6539C110.341 18.3868 109.864 18.2533 109.336 18.2533C108.807 18.2533 108.329 18.3868 107.9 18.6539C107.474 18.9209 107.134 19.3144 106.881 19.8342C106.631 20.3541 106.506 20.9919 106.506 21.7476C106.506 22.5033 106.631 23.1411 106.881 23.661C107.134 24.1808 107.474 24.5743 107.9 24.8414C108.329 25.1084 108.807 25.2419 109.336 25.2419C109.864 25.2419 110.341 25.1084 110.768 24.8414C111.197 24.5743 111.536 24.1808 111.786 23.661C112.039 23.1411 112.165 22.5033 112.165 21.7476ZM114.913 26.1112H113.805L117.009 17.384H118.1L121.305 26.1112H120.197L117.589 18.7646H117.521L114.913 26.1112ZM115.322 22.7021H119.788V23.6396H115.322V22.7021ZM125.357 26.1112H122.664V17.384H125.477C126.323 17.384 127.048 17.5587 127.65 17.9081C128.252 18.2547 128.714 18.7533 129.035 19.4039C129.356 20.0516 129.517 20.8271 129.517 21.7306C129.517 22.6396 129.355 23.4223 129.031 24.0786C128.707 24.732 128.235 25.2348 127.616 25.5871C126.997 25.9365 126.244 26.1112 125.357 26.1112ZM123.721 25.1737H125.289C126.011 25.1737 126.609 25.0345 127.083 24.7561C127.558 24.4777 127.911 24.0814 128.144 23.5672C128.377 23.053 128.494 22.4408 128.494 21.7306C128.494 21.026 128.379 20.4195 128.149 19.911C127.919 19.3996 127.575 19.0075 127.117 18.7348C126.66 18.4592 126.09 18.3215 125.409 18.3215H123.721V25.1737ZM135.022 26.1112H133.914L137.119 17.384H138.21L141.414 26.1112H140.306L137.698 18.7646H137.63L135.022 26.1112ZM135.431 22.7021H139.897V23.6396H135.431V22.7021ZM142.774 26.1112V17.384H145.722C146.407 17.384 146.967 17.5075 147.401 17.7547C147.839 17.999 148.163 18.33 148.373 18.7476C148.583 19.1652 148.688 19.6311 148.688 20.1453C148.688 20.6595 148.583 21.1269 148.373 21.5473C148.166 21.9678 147.845 22.303 147.41 22.553C146.975 22.8002 146.419 22.9237 145.74 22.9237H143.626V21.9862H145.705C146.174 21.9862 146.551 21.9053 146.835 21.7433C147.119 21.5814 147.325 21.3627 147.453 21.0871C147.583 20.8087 147.649 20.4948 147.649 20.1453C147.649 19.7959 147.583 19.4834 147.453 19.2078C147.325 18.9323 147.117 18.7164 146.83 18.5601C146.544 18.401 146.163 18.3215 145.688 18.3215H143.83V26.1112H142.774ZM150.391 26.1112V17.384H151.448V21.7135H151.55L155.47 17.384H156.851L153.186 21.3215L156.851 26.1112H155.573L152.539 22.0544L151.448 23.2817V26.1112H150.391ZM164.338 26.2306C163.98 26.2249 163.622 26.1567 163.264 26.026C162.906 25.8953 162.58 25.6752 162.284 25.3655C161.989 25.053 161.752 24.6311 161.573 24.0999C161.394 23.5658 161.304 22.8953 161.304 22.0885C161.304 21.3158 161.377 20.6311 161.521 20.0345C161.666 19.4351 161.877 18.9308 162.152 18.5217C162.428 18.1098 162.76 17.7973 163.149 17.5842C163.541 17.3712 163.983 17.2646 164.475 17.2646C164.963 17.2646 165.398 17.3627 165.779 17.5587C166.162 17.7519 166.475 18.0217 166.716 18.3683C166.958 18.7149 167.114 19.1141 167.185 19.5658H166.145C166.048 19.1737 165.861 18.8485 165.583 18.5899C165.304 18.3314 164.935 18.2021 164.475 18.2021C163.798 18.2021 163.266 18.4962 162.877 19.0842C162.49 19.6723 162.296 20.4976 162.293 21.5601H162.361C162.52 21.3186 162.709 21.1127 162.928 20.9422C163.149 20.7689 163.394 20.6354 163.661 20.5416C163.928 20.4479 164.21 20.401 164.509 20.401C165.009 20.401 165.466 20.526 165.881 20.776C166.296 21.0232 166.628 21.3655 166.878 21.803C167.128 22.2377 167.253 22.7362 167.253 23.2987C167.253 23.8385 167.132 24.3328 166.891 24.7817C166.649 25.2277 166.31 25.5828 165.872 25.847C165.438 26.1084 164.926 26.2362 164.338 26.2306ZM164.338 25.2931C164.696 25.2931 165.017 25.2036 165.301 25.0246C165.588 24.8456 165.814 24.6056 165.979 24.3044C166.146 24.0033 166.23 23.6681 166.23 23.2987C166.23 22.9379 166.149 22.6098 165.987 22.3144C165.828 22.0161 165.608 21.7789 165.327 21.6027C165.048 21.4266 164.73 21.3385 164.372 21.3385C164.102 21.3385 163.851 21.3925 163.618 21.5004C163.385 21.6056 163.181 21.7504 163.004 21.9351C162.831 22.1198 162.695 22.3314 162.595 22.57C162.496 22.8058 162.446 23.0544 162.446 23.3158C162.446 23.6624 162.527 23.9862 162.689 24.2874C162.854 24.5885 163.078 24.8314 163.362 25.0161C163.649 25.2007 163.975 25.2931 164.338 25.2931ZM169.269 26.1794C169.058 26.1794 168.878 26.1041 168.727 25.9536C168.577 25.803 168.502 25.6226 168.502 25.4124C168.502 25.2021 168.577 25.0217 168.727 24.8712C168.878 24.7206 169.058 24.6453 169.269 24.6453C169.479 24.6453 169.659 24.7206 169.81 24.8712C169.96 25.0217 170.036 25.2021 170.036 25.4124C170.036 25.5516 170 25.6794 169.929 25.7959C169.861 25.9124 169.769 26.0061 169.652 26.0771C169.539 26.1453 169.411 26.1794 169.269 26.1794ZM174.365 26.2306C173.723 26.2306 173.176 26.0558 172.725 25.7064C172.273 25.3541 171.928 24.8442 171.689 24.1766C171.45 23.5061 171.331 22.6965 171.331 21.7476C171.331 20.8044 171.45 19.999 171.689 19.3314C171.931 18.661 172.277 18.1496 172.729 17.7973C173.183 17.4422 173.729 17.2646 174.365 17.2646C175.002 17.2646 175.546 17.4422 175.997 17.7973C176.452 18.1496 176.798 18.661 177.037 19.3314C177.279 19.999 177.399 20.8044 177.399 21.7476C177.399 22.6965 177.28 23.5061 177.041 24.1766C176.803 24.8442 176.458 25.3541 176.006 25.7064C175.554 26.0558 175.007 26.2306 174.365 26.2306ZM174.365 25.2931C175.002 25.2931 175.496 24.9862 175.848 24.3726C176.2 23.759 176.377 22.884 176.377 21.7476C176.377 20.9919 176.296 20.3485 176.134 19.8172C175.975 19.286 175.744 18.8811 175.443 18.6027C175.145 18.3243 174.786 18.1851 174.365 18.1851C173.735 18.1851 173.242 18.4962 172.887 19.1183C172.531 19.7377 172.354 20.6141 172.354 21.7476C172.354 22.5033 172.433 23.1453 172.593 23.6737C172.752 24.2021 172.98 24.6041 173.279 24.8797C173.58 25.1553 173.942 25.2931 174.365 25.2931ZM181.593 24.5771V18.9521H182.547V24.5771H181.593ZM179.257 22.2419V21.2874H184.882V22.2419H179.257Z" fill="#4E5871"/>
<path d="M62.1447 44.1112H60.514L64.1781 33.9294H65.9529L69.617 44.1112H67.9863L65.1078 35.7788H65.0282L62.1447 44.1112ZM62.4181 40.124H67.7079V41.4166H62.4181V40.124ZM72.4545 39.5771V44.1112H70.968V36.4749H72.3949V37.7178H72.4893C72.665 37.3134 72.9401 36.9886 73.3146 36.7433C73.6925 36.4981 74.1681 36.3754 74.7415 36.3754C75.2618 36.3754 75.7176 36.4848 76.1087 36.7036C76.4998 36.919 76.803 37.2405 77.0185 37.6681C77.2339 38.0956 77.3416 38.6243 77.3416 39.254V44.1112H75.8551V39.433C75.8551 38.8795 75.7109 38.4469 75.4226 38.1354C75.1342 37.8205 74.7382 37.6631 74.2344 37.6631C73.8897 37.6631 73.5831 37.7377 73.3146 37.8868C73.0495 38.036 72.839 38.2547 72.6832 38.5431C72.5308 38.8281 72.4545 39.1728 72.4545 39.5771ZM82.1939 44.2604C81.5774 44.2604 81.0272 44.103 80.5433 43.7881C80.0627 43.4699 79.6849 43.0175 79.4098 42.4308C79.138 41.8409 79.0021 41.1333 79.0021 40.308C79.0021 39.4827 79.1397 38.7767 79.4148 38.1901C79.6932 37.6034 80.0743 37.1543 80.5582 36.8428C81.0421 36.5312 81.5907 36.3754 82.2038 36.3754C82.6778 36.3754 83.0589 36.455 83.3473 36.6141C83.639 36.7699 83.8643 36.9521 84.0234 37.161C84.1858 37.3698 84.3118 37.5537 84.4013 37.7128H84.4908V33.9294H85.9773V44.1112H84.5256V42.923H84.4013C84.3118 43.0854 84.1825 43.271 84.0135 43.4798C83.8478 43.6887 83.6191 43.8709 83.3274 44.0267C83.0357 44.1825 82.6579 44.2604 82.1939 44.2604ZM82.522 42.9926C82.9496 42.9926 83.3108 42.8799 83.6058 42.6546C83.9041 42.4259 84.1295 42.1093 84.282 41.705C84.4377 41.3006 84.5156 40.83 84.5156 40.2931C84.5156 39.7628 84.4394 39.2987 84.2869 38.901C84.1345 38.5033 83.9107 38.1934 83.6158 37.9713C83.3208 37.7493 82.9562 37.6382 82.522 37.6382C82.0746 37.6382 81.7017 37.7542 81.4034 37.9862C81.1051 38.2182 80.8797 38.5348 80.7273 38.9358C80.5781 39.3369 80.5036 39.7893 80.5036 40.2931C80.5036 40.8035 80.5798 41.2625 80.7322 41.6702C80.8847 42.0779 81.1101 42.401 81.4084 42.6396C81.71 42.875 82.0812 42.9926 82.522 42.9926ZM88.0989 44.1112V36.4749H89.5357V37.6879H89.6152C89.7544 37.277 89.9997 36.9538 90.351 36.7185C90.7057 36.4798 91.1067 36.3605 91.5542 36.3605C91.647 36.3605 91.7563 36.3638 91.8823 36.3705C92.0115 36.3771 92.1126 36.3854 92.1855 36.3953V37.8172C92.1259 37.8006 92.0198 37.7824 91.8674 37.7625C91.7149 37.7393 91.5624 37.7277 91.41 37.7277C91.0587 37.7277 90.7454 37.8023 90.4703 37.9514C90.1986 38.0973 89.9831 38.3011 89.824 38.5629C89.665 38.8215 89.5854 39.1164 89.5854 39.4479V44.1112H88.0989ZM96.4151 44.2654C95.6992 44.2654 95.0745 44.1013 94.5408 43.7732C94.0072 43.445 93.5929 42.986 93.2979 42.396C93.003 41.8061 92.8555 41.1167 92.8555 40.3279C92.8555 39.5357 93.003 38.843 93.2979 38.2497C93.5929 37.6565 94.0072 37.1958 94.5408 36.8676C95.0745 36.5395 95.6992 36.3754 96.4151 36.3754C97.131 36.3754 97.7558 36.5395 98.2894 36.8676C98.823 37.1958 99.2373 37.6565 99.5323 38.2497C99.8273 38.843 99.9748 39.5357 99.9748 40.3279C99.9748 41.1167 99.8273 41.8061 99.5323 42.396C99.2373 42.986 98.823 43.445 98.2894 43.7732C97.7558 44.1013 97.131 44.2654 96.4151 44.2654ZM96.4201 43.0175C96.8841 43.0175 97.2686 42.8949 97.5735 42.6496C97.8784 42.4043 98.1038 42.0779 98.2496 41.6702C98.3988 41.2625 98.4734 40.8134 98.4734 40.3229C98.4734 39.8357 98.3988 39.3882 98.2496 38.9806C98.1038 38.5696 97.8784 38.2398 97.5735 37.9912C97.2686 37.7426 96.8841 37.6183 96.4201 37.6183C95.9528 37.6183 95.565 37.7426 95.2567 37.9912C94.9518 38.2398 94.7248 38.5696 94.5756 38.9806C94.4298 39.3882 94.3569 39.8357 94.3569 40.3229C94.3569 40.8134 94.4298 41.2625 94.5756 41.6702C94.7248 42.0779 94.9518 42.4043 95.2567 42.6496C95.565 42.8949 95.9528 43.0175 96.4201 43.0175ZM101.634 44.1112V36.4749H103.121V44.1112H101.634ZM102.385 35.2966C102.126 35.2966 101.904 35.2104 101.719 35.0381C101.536 34.8624 101.445 34.6536 101.445 34.4117C101.445 34.1664 101.536 33.9576 101.719 33.7852C101.904 33.6096 102.126 33.5217 102.385 33.5217C102.643 33.5217 102.864 33.6096 103.046 33.7852C103.232 33.9576 103.324 34.1664 103.324 34.4117C103.324 34.6536 103.232 34.8624 103.046 35.0381C102.864 35.2104 102.643 35.2966 102.385 35.2966ZM107.979 44.2604C107.363 44.2604 106.812 44.103 106.328 43.7881C105.848 43.4699 105.47 43.0175 105.195 42.4308C104.923 41.8409 104.787 41.1333 104.787 40.308C104.787 39.4827 104.925 38.7767 105.2 38.1901C105.478 37.6034 105.859 37.1543 106.343 36.8428C106.827 36.5312 107.376 36.3754 107.989 36.3754C108.463 36.3754 108.844 36.455 109.132 36.6141C109.424 36.7699 109.65 36.9521 109.809 37.161C109.971 37.3698 110.097 37.5537 110.186 37.7128H110.276V33.9294H111.762V44.1112H110.311V42.923H110.186C110.097 43.0854 109.968 43.271 109.799 43.4798C109.633 43.6887 109.404 43.8709 109.113 44.0267C108.821 44.1825 108.443 44.2604 107.979 44.2604ZM108.307 42.9926C108.735 42.9926 109.096 42.8799 109.391 42.6546C109.689 42.4259 109.915 42.1093 110.067 41.705C110.223 41.3006 110.301 40.83 110.301 40.2931C110.301 39.7628 110.225 39.2987 110.072 38.901C109.92 38.5033 109.696 38.1934 109.401 37.9713C109.106 37.7493 108.741 37.6382 108.307 37.6382C107.86 37.6382 107.487 37.7542 107.189 37.9862C106.89 38.2182 106.665 38.5348 106.512 38.9358C106.363 39.3369 106.289 39.7893 106.289 40.2931C106.289 40.8035 106.365 41.2625 106.517 41.6702C106.67 42.0779 106.895 42.401 107.194 42.6396C107.495 42.875 107.866 42.9926 108.307 42.9926Z" fill="#081537"/>
<path d="M24.7872 33.8433C26.0228 33.8433 27.0245 34.845 27.0245 36.0806V45.678C27.0245 46.9136 26.0228 47.9151 24.7872 47.9151C23.5518 47.9151 22.5501 46.9136 22.5501 45.678V36.0806C22.5501 34.8452 23.5518 33.8435 24.7872 33.8435V33.8433Z" fill="#A4C639"/>
<path d="M19.6797 22.3047C19.6723 22.3896 19.6658 22.4753 19.6658 22.5621V37.1029C19.6658 38.6667 20.9036 39.9265 22.4402 39.9265H37.2273C38.764 39.9265 40.0018 38.6665 40.0018 37.1029V22.5621C40.0018 22.4753 39.9987 22.3892 39.9915 22.3047H19.6797Z" fill="#A4C639"/>
<path d="M34.8807 33.8433C36.1163 33.8433 37.1179 34.845 37.1179 36.0806V45.678C37.1179 46.9136 36.1163 47.9151 34.8807 47.9151C33.6452 47.9151 32.6435 46.9136 32.6435 45.678V36.0806C32.6435 34.8452 33.6452 33.8435 34.8807 33.8435V33.8433ZM16.0712 23.5988C17.3067 23.5988 18.3083 24.6004 18.3083 25.836V35.4334C18.3083 36.669 17.3067 37.6707 16.0712 37.6707C14.8356 37.6707 13.8339 36.669 13.8339 35.4335V25.8362C13.8338 24.6006 14.8354 23.5988 16.0712 23.5988ZM43.5968 23.5988C44.8322 23.5988 45.8339 24.6004 45.8339 25.836V35.4334C45.8339 36.669 44.8322 37.6707 43.5968 37.6707C42.3612 37.6707 41.3595 36.669 41.3595 35.4335V25.8362C41.3595 24.6006 42.3612 23.5988 43.5968 23.5988ZM19.745 21.3495C19.8072 16.8831 23.7056 13.2211 28.7095 12.7385H30.958C35.9623 13.2213 39.8603 16.8835 39.9225 21.3495H19.745Z" fill="#A4C639"/>
<path d="M20.5231 12.3074L22.8831 16.3952M39.1448 12.3074L36.7847 16.3952" stroke="#A4C639" stroke-width="2" stroke-linecap="round" stroke-linejoin="round"/>
<path d="M26.8284 17.3469C26.8303 17.9712 26.3136 18.4788 25.6742 18.4805C25.0351 18.4821 24.5154 17.9775 24.5135 17.3532V17.3469C24.5118 16.7224 25.0285 16.215 25.6677 16.2133C26.3068 16.2115 26.8265 16.716 26.8284 17.3406V17.3469ZM35.4684 17.3469C35.4703 17.9712 34.9535 18.4788 34.3141 18.4805C33.6751 18.4821 33.1554 17.9775 33.1535 17.3532V17.3469C33.1517 16.7224 33.6685 16.215 34.3077 16.2133C34.9468 16.2115 35.4665 16.716 35.4684 17.3406V17.3469Z" fill="white"/>
</svg>
