<svg width="540" height="540" viewBox="0 0 540 540" fill="none" xmlns="http://www.w3.org/2000/svg">
<circle cx="270" cy="270" r="270" fill="#6C2BFB" fill-opacity="0.1"/>
<g clip-path="url(#clip0_26_25674)">
<path d="M106.151 252.813C98.746 258.872 110.864 312.056 110.864 312.056C110.864 312.056 113.557 393.178 119.279 396.881C125.001 400.583 137.792 396.544 142.841 395.871C147.89 395.198 143.515 345.043 136.109 326.53C128.704 308.017 134.426 281.088 134.426 281.088L174.482 288.83C174.482 288.83 150.247 309.363 151.257 313.739C152.266 318.115 178.185 332.925 182.898 333.599C187.61 334.272 196.698 306.67 204.777 287.82C212.856 268.97 149.574 256.852 149.574 256.852L140.822 240.359C140.822 240.359 113.557 246.754 106.151 252.813Z" fill="#2F2E41"/>
<path d="M126.255 398.277C126.255 398.277 123.813 406.827 126.255 406.827C128.698 406.827 133.176 409.269 140.097 408.455C147.017 407.641 144.982 399.092 140.097 397.87C135.211 396.649 136.433 386.879 136.433 386.879C134.804 383.622 127.069 387.693 127.069 387.693L126.255 398.277Z" fill="#2F2E41"/>
<path d="M160.933 330.294C160.933 330.294 156.743 338.136 159.13 338.651C161.518 339.166 165.38 342.498 172.317 343.162C179.254 343.825 179.067 335.039 174.549 332.815C170.031 330.591 173.286 321.298 173.286 321.298C172.381 317.771 163.961 320.119 163.961 320.119L160.933 330.294Z" fill="#2F2E41"/>
<path d="M110.696 179.938C111.369 181.284 108.339 198.115 108.339 198.115L111.032 202.827C111.032 202.827 126.516 196.768 124.16 195.758C121.804 194.749 122.14 182.294 122.14 182.294C122.14 182.294 110.022 178.591 110.696 179.938Z" fill="#FFB9B9"/>
<path d="M116.523 185.126C127.922 185.126 137.162 175.886 137.162 164.487C137.162 153.089 127.922 143.849 116.523 143.849C105.125 143.849 95.8849 153.089 95.8849 164.487C95.8849 175.886 105.125 185.126 116.523 185.126Z" fill="#2F2E41"/>
<path d="M115.1 153.706C119.817 153.706 123.64 149.883 123.64 145.166C123.64 140.449 119.817 136.626 115.1 136.626C110.384 136.626 106.56 140.449 106.56 145.166C106.56 149.883 110.384 153.706 115.1 153.706Z" fill="#2F2E41"/>
<path d="M118.836 149.034C119.132 149.065 119.429 149.08 119.726 149.08C120.848 149.08 121.958 148.859 122.994 148.43C124.03 148.001 124.972 147.372 125.765 146.579C126.558 145.786 127.187 144.844 127.616 143.808C128.045 142.772 128.266 141.662 128.266 140.54C128.266 139.419 128.045 138.308 127.616 137.272C127.187 136.236 126.558 135.294 125.765 134.501C124.972 133.708 124.03 133.079 122.994 132.65C121.958 132.221 120.848 132 119.726 132C119.429 132 119.132 132.015 118.836 132.046C120.936 132.266 122.88 133.256 124.292 134.824C125.705 136.393 126.487 138.429 126.487 140.54C126.487 142.651 125.705 144.687 124.292 146.256C122.88 147.824 120.936 148.814 118.836 149.034Z" fill="#2F2E41"/>
<path d="M117.091 188.69C124.899 188.69 131.229 182.36 131.229 174.552C131.229 166.744 124.899 160.415 117.091 160.415C109.283 160.415 102.954 166.744 102.954 174.552C102.954 182.36 109.283 188.69 117.091 188.69Z" fill="#FFB9B9"/>
<path d="M96.7263 196.263C92.3504 197.273 84.9451 208.044 84.9451 208.044L96.7263 219.826C96.7263 219.826 105.141 251.467 106.151 252.813C112.767 261.634 142.505 242.042 142.505 242.042C142.505 242.042 141.327 232.448 142 227.736C142.647 223.204 139.475 214.103 139.475 214.103C139.475 214.103 150.583 209.391 148.227 204.678C145.871 199.966 131.397 189.195 125.338 192.897C119.279 196.6 107.161 192.897 107.161 192.897C107.161 192.897 101.102 195.253 96.7263 196.263Z" fill="#E6E6E6"/>
<path d="M182.729 264.089C182.729 264.089 201.916 280.583 206.628 277.217C211.341 273.851 188.452 262.07 188.452 262.07L182.729 264.089Z" fill="#FFB9B9"/>
<path d="M96.5581 258.367C99.2509 261.397 112.042 253.655 110.402 250.216C108.762 246.778 98.5777 253.655 98.5777 253.655C98.5777 253.655 93.8652 255.338 96.5581 258.367Z" fill="#FFB9B9"/>
<path d="M96.7264 212.757L82.5889 239.012C82.5889 239.012 98.746 252.477 100.766 252.813C102.785 253.15 96.7263 261.901 96.7263 261.901C96.7263 261.901 78.5496 249.11 71.4809 242.715C64.4121 236.319 84.9451 208.044 84.9451 208.044L91.0041 204.342L96.7264 212.757Z" fill="#E6E6E6"/>
<path d="M137.792 211.747L154.286 237.329C154.286 237.329 179.532 265.604 182.898 266.951C186.264 268.297 190.303 261.901 190.303 261.901L160.008 225.211L148.564 204.678L144.188 202.995L137.792 211.747Z" fill="#E6E6E6"/>
<path d="M116.523 166.295C124.384 166.295 130.757 162.472 130.757 157.755C130.757 153.038 124.384 149.215 116.523 149.215C108.663 149.215 102.29 153.038 102.29 157.755C102.29 162.472 108.663 166.295 116.523 166.295Z" fill="#2F2E41"/>
<path d="M156.453 342.018C155.987 342.018 155.54 342.204 155.21 342.534C154.88 342.863 154.694 343.311 154.694 343.777V403.79C154.694 404.257 154.88 404.704 155.21 405.034C155.54 405.363 155.987 405.549 156.453 405.55H361.087C361.553 405.549 362 405.363 362.33 405.034C362.66 404.704 362.846 404.256 362.846 403.79V343.777C362.846 343.311 362.66 342.863 362.33 342.534C362 342.204 361.553 342.018 361.087 342.018L156.453 342.018Z" fill="#E6E6E6"/>
<path d="M159.103 401.14H358.437V346.427H159.103V401.14Z" fill="white"/>
<path d="M333.276 389.79C332.893 389.789 332.514 389.864 332.16 390.011C331.806 390.157 331.484 390.371 331.213 390.642C330.942 390.913 330.727 391.234 330.58 391.588C330.433 391.942 330.358 392.321 330.358 392.704C330.358 393.087 330.433 393.467 330.58 393.821C330.727 394.174 330.942 394.496 331.213 394.767C331.484 395.037 331.806 395.252 332.16 395.398C332.514 395.544 332.893 395.619 333.276 395.619H344.935C345.708 395.619 346.449 395.312 346.995 394.765C347.542 394.219 347.849 393.477 347.849 392.704C347.849 391.931 347.542 391.19 346.995 390.643C346.449 390.097 345.708 389.79 344.935 389.79H333.276Z" fill="#FB9B04"/>
<path d="M347.849 384.136H213.265V384.903H347.849V384.136Z" fill="#E6E6E6"/>
<path d="M185.133 390.76C194.509 390.76 202.109 383.159 202.109 373.784C202.109 364.408 194.509 356.807 185.133 356.807C175.757 356.807 168.157 364.408 168.157 373.784C168.157 383.159 175.757 390.76 185.133 390.76Z" fill="#FB9B04"/>
<path d="M213.478 379.854L213.053 379.216L227.038 369.892L236.628 374.496L250.422 365.683L277.862 377.388L299.714 366.654L320.933 375.256L347.595 351.641L348.103 352.215L321.085 376.146L299.744 367.493L277.884 378.231L250.494 366.547L236.681 375.372L227.1 370.773L213.478 379.854Z" fill="#3F3D56"/>
<path d="M215.758 390.191C215.43 390.19 215.106 390.254 214.803 390.379C214.5 390.504 214.225 390.688 213.993 390.919C213.762 391.151 213.578 391.426 213.452 391.728C213.327 392.031 213.262 392.355 213.262 392.683C213.262 393.01 213.327 393.335 213.452 393.637C213.578 393.94 213.762 394.215 213.993 394.446C214.225 394.678 214.5 394.861 214.803 394.986C215.106 395.111 215.43 395.176 215.758 395.175H241.831C242.491 395.174 243.124 394.911 243.591 394.444C244.058 393.977 244.32 393.343 244.32 392.683C244.32 392.022 244.058 391.389 243.591 390.922C243.124 390.454 242.491 390.191 241.831 390.191H215.758Z" fill="#E6E6E6"/>
<path d="M191.617 366.189H194.27L188.75 371.651C187.786 372.602 186.486 373.134 185.132 373.134C183.779 373.134 182.479 372.602 181.515 371.651L175.996 366.189H178.649L182.842 370.338C183.452 370.94 184.275 371.278 185.133 371.278C185.99 371.278 186.813 370.94 187.424 370.338L191.617 366.189ZM178.615 381.378H175.962L181.516 375.882C182.48 374.932 183.779 374.399 185.133 374.399C186.487 374.399 187.787 374.932 188.751 375.882L194.304 381.378H191.651L187.424 377.195C186.813 376.593 185.99 376.255 185.133 376.255C184.275 376.255 183.452 376.593 182.842 377.195L178.615 381.378Z" fill="white"/>
<path d="M183.1 149.791C182.634 149.791 182.186 149.977 181.856 150.307C181.527 150.637 181.341 151.084 181.34 151.55V211.563C181.341 212.03 181.527 212.477 181.856 212.807C182.186 213.137 182.634 213.322 183.1 213.323H387.733C388.2 213.322 388.647 213.137 388.977 212.807C389.307 212.477 389.492 212.03 389.493 211.563V151.55C389.492 151.084 389.307 150.637 388.977 150.307C388.647 149.977 388.2 149.791 387.733 149.791L183.1 149.791Z" fill="#E6E6E6"/>
<path d="M185.75 208.913H385.083V154.2H185.75V208.913Z" fill="white"/>
<path d="M359.923 197.563C359.15 197.563 358.408 197.87 357.862 198.417C357.315 198.963 357.008 199.705 357.008 200.478C357.008 201.251 357.315 201.992 357.862 202.539C358.408 203.085 359.15 203.392 359.923 203.392H371.581C372.354 203.392 373.096 203.085 373.642 202.539C374.189 201.992 374.496 201.251 374.496 200.478C374.496 199.705 374.189 198.963 373.642 198.417C373.096 197.87 372.354 197.563 371.581 197.563H359.923Z" fill="#FB9B04"/>
<path d="M374.496 191.909H239.912V192.676H374.496V191.909Z" fill="#E6E6E6"/>
<path d="M211.78 198.533C221.156 198.533 228.756 190.933 228.756 181.557C228.756 172.181 221.156 164.581 211.78 164.581C202.404 164.581 194.804 172.181 194.804 181.557C194.804 190.933 202.404 198.533 211.78 198.533Z" fill="#FB9B04"/>
<path d="M240.125 187.627L239.7 186.989L253.685 177.666L263.275 182.269L277.069 173.456L277.255 173.535L304.509 185.161L326.36 174.427L347.579 183.029L374.242 159.414L374.75 159.988L347.732 183.919L326.39 175.267L304.531 186.005L277.141 174.32L263.328 183.145L253.747 178.546L240.125 187.627Z" fill="#3F3D56"/>
<path d="M242.404 197.964C241.744 197.965 241.111 198.228 240.644 198.695C240.178 199.162 239.915 199.796 239.915 200.456C239.915 201.117 240.178 201.75 240.644 202.217C241.111 202.685 241.744 202.948 242.404 202.948H268.478C269.139 202.948 269.773 202.686 270.24 202.218C270.707 201.751 270.97 201.117 270.97 200.456C270.97 199.795 270.707 199.161 270.24 198.694C269.773 198.226 269.139 197.964 268.478 197.964H242.404Z" fill="#E6E6E6"/>
<path d="M218.61 179.575C218.928 177.451 217.31 176.309 215.099 175.547L215.816 172.669L214.064 172.233L213.365 175.035C212.905 174.92 212.432 174.812 211.962 174.704L212.666 171.884L210.915 171.448L210.197 174.324C209.816 174.237 209.442 174.152 209.079 174.061L209.081 174.052L206.665 173.449L206.199 175.32C206.199 175.32 207.499 175.618 207.471 175.636C207.714 175.665 207.935 175.788 208.087 175.979C208.24 176.169 208.312 176.412 208.287 176.655L207.47 179.934C207.532 179.949 207.593 179.969 207.652 179.992L207.468 179.946L206.322 184.539C206.296 184.619 206.256 184.693 206.202 184.757C206.148 184.822 206.081 184.875 206.007 184.914C205.932 184.952 205.851 184.976 205.767 184.983C205.683 184.99 205.599 184.98 205.519 184.955C205.536 184.98 204.246 184.637 204.246 184.637L203.376 186.643L205.656 187.211C206.08 187.317 206.496 187.428 206.904 187.533L206.179 190.444L207.929 190.881L208.648 188.001C209.125 188.131 209.589 188.251 210.043 188.363L209.328 191.23L211.079 191.666L211.804 188.761C214.791 189.326 217.038 189.098 217.982 186.397C218.744 184.222 217.945 182.967 216.373 182.148C217.518 181.883 218.38 181.13 218.61 179.575L218.61 179.575ZM214.608 185.188C214.066 187.363 210.404 186.187 209.216 185.892L210.178 182.036C211.365 182.332 215.172 182.919 214.608 185.188H214.608ZM215.149 179.544C214.655 181.523 211.607 180.517 210.617 180.271L211.489 176.773C212.479 177.02 215.664 177.48 215.149 179.544Z" fill="white"/>
<path d="M263.607 245.904C263.141 245.905 262.693 246.09 262.363 246.42C262.034 246.75 261.848 247.197 261.847 247.664V307.677C261.848 308.143 262.034 308.59 262.363 308.92C262.693 309.25 263.141 309.436 263.607 309.436H468.24C468.707 309.436 469.154 309.25 469.484 308.92C469.814 308.59 469.999 308.143 470 307.677V247.664C469.999 247.197 469.814 246.75 469.484 246.42C469.154 246.09 468.707 245.905 468.24 245.904L263.607 245.904Z" fill="#E6E6E6"/>
<path d="M266.257 305.027H465.59V250.314H266.257V305.027Z" fill="white"/>
<path d="M440.43 293.676C439.657 293.676 438.915 293.983 438.369 294.53C437.822 295.077 437.515 295.818 437.515 296.591C437.515 297.364 437.822 298.105 438.369 298.652C438.915 299.198 439.657 299.506 440.43 299.506H452.088C452.861 299.506 453.603 299.198 454.149 298.652C454.696 298.105 455.003 297.364 455.003 296.591C455.003 295.818 454.696 295.077 454.149 294.53C453.603 293.983 452.861 293.676 452.088 293.676H440.43Z" fill="#FB9B04"/>
<path d="M455.003 288.023H320.419V288.79H455.003V288.023Z" fill="#E6E6E6"/>
<path d="M292.287 294.646C301.663 294.646 309.263 287.046 309.263 277.67C309.263 268.294 301.663 260.694 292.287 260.694C282.911 260.694 275.311 268.294 275.311 277.67C275.311 287.046 282.911 294.646 292.287 294.646Z" fill="#FB9B04"/>
<path d="M320.632 283.741L320.206 283.102L334.191 273.779L343.782 278.383L357.576 269.57L357.762 269.649L385.016 281.275L406.868 270.541L428.087 279.143L454.749 255.528L455.257 256.102L428.239 280.032L406.898 271.38L385.038 282.118L357.648 270.434L343.835 279.259L334.254 274.66L320.632 283.741Z" fill="#3F3D56"/>
<path d="M322.912 294.077C322.251 294.077 321.617 294.34 321.149 294.807C320.682 295.275 320.419 295.909 320.419 296.57C320.419 297.231 320.682 297.864 321.149 298.332C321.617 298.799 322.251 299.062 322.912 299.062H348.985C349.646 299.062 350.28 298.799 350.747 298.332C351.214 297.864 351.477 297.231 351.477 296.57C351.477 295.909 351.214 295.275 350.747 294.807C350.28 294.34 349.646 294.077 348.985 294.077H322.912Z" fill="#E6E6E6"/>
<path d="M292.285 288.859L299.157 279.18L292.285 283.238L285.417 279.18L292.285 288.859H292.285Z" fill="white"/>
<path d="M292.285 281.938H292.285L299.153 277.878L292.285 266.482H292.285L285.417 277.878L292.285 281.938Z" fill="white"/>
</g>
<defs>
<clipPath id="clip0_26_25674">
<rect width="400" height="276.621" fill="white" transform="translate(70 132)"/>
</clipPath>
</defs>
</svg>
