<svg width="540" height="540" viewBox="0 0 540 540" fill="none" xmlns="http://www.w3.org/2000/svg">
<circle cx="270" cy="270" r="270" fill="#6C2BFB" fill-opacity="0.1"/>
<g clip-path="url(#clip0_26_25727)">
<path d="M453.426 385.398C451.837 372.625 443.921 360.04 431.74 355.883C436.544 369.03 436.543 383.452 431.737 396.599C429.865 401.662 427.256 407.098 429.017 412.201C430.112 415.377 432.792 417.806 435.788 419.325C438.784 420.844 442.108 421.568 445.392 422.277L446.038 422.812C451.25 411.043 455.014 398.17 453.426 385.398Z" fill="#F0F0F0"/>
<path d="M431.619 356.124C438.713 364.073 443.122 374.055 444.22 384.652C444.497 386.929 444.413 389.235 443.972 391.486C443.471 393.665 442.396 395.67 440.858 397.293C439.455 398.835 437.84 400.25 436.836 402.106C436.336 403.064 436.045 404.117 435.98 405.195C435.915 406.273 436.08 407.353 436.462 408.364C437.348 410.907 439.096 412.979 440.875 414.947C442.85 417.131 444.937 419.369 445.777 422.265C445.878 422.616 446.417 422.438 446.315 422.087C444.854 417.049 439.963 414.187 437.63 409.648C436.542 407.531 436.085 405.072 437.106 402.837C437.998 400.882 439.661 399.422 441.096 397.873C442.619 396.312 443.737 394.401 444.352 392.309C444.906 390.087 445.079 387.788 444.862 385.509C444.455 380.37 443.243 375.327 441.27 370.564C439.049 365.116 435.911 360.089 431.994 355.699C431.752 355.427 431.378 355.855 431.619 356.124H431.619Z" fill="white"/>
<path d="M444.067 381.219C445.82 380.793 447.365 379.758 448.425 378.299C449.486 376.84 449.993 375.051 449.856 373.252C449.827 372.888 449.26 372.916 449.289 373.281C449.42 374.955 448.947 376.622 447.957 377.978C446.967 379.335 445.524 380.293 443.889 380.68C443.534 380.764 443.714 381.303 444.067 381.219Z" fill="white"/>
<path d="M441.672 396.605C438.506 394.715 436.169 391.7 435.127 388.163C435.024 387.813 434.485 387.991 434.588 388.341C435.68 392.02 438.118 395.152 441.417 397.112C441.732 397.298 441.985 396.791 441.672 396.605Z" fill="white"/>
<path d="M438.522 365.654C437.878 365.96 437.169 366.101 436.457 366.065C435.744 366.029 435.053 365.816 434.443 365.447C434.131 365.256 433.878 365.764 434.188 365.953C434.863 366.359 435.628 366.592 436.414 366.634C437.201 366.676 437.986 366.524 438.7 366.193C438.77 366.167 438.828 366.116 438.861 366.049C438.895 365.983 438.902 365.906 438.881 365.834C438.857 365.763 438.806 365.704 438.739 365.67C438.671 365.637 438.594 365.631 438.522 365.654Z" fill="white"/>
<path d="M394.609 378.697C394.8 378.821 394.992 378.946 395.184 379.075C397.749 380.762 400.173 382.655 402.432 384.734C402.609 384.892 402.786 385.055 402.959 385.218C408.348 390.286 412.749 396.311 415.938 402.985C417.205 405.643 418.268 408.392 419.118 411.211C420.291 415.103 421.253 419.417 423.575 422.601C423.814 422.936 424.073 423.256 424.351 423.559H445.336C445.383 423.535 445.431 423.515 445.479 423.491L446.317 423.53C446.283 423.381 446.245 423.228 446.212 423.08C446.192 422.994 446.169 422.907 446.149 422.821C446.135 422.764 446.121 422.706 446.111 422.654C446.106 422.634 446.101 422.615 446.097 422.601C446.087 422.548 446.073 422.5 446.063 422.453C445.853 421.596 445.635 420.739 445.412 419.881C445.412 419.877 445.412 419.877 445.407 419.872C443.688 413.346 441.41 406.907 438.226 401.018C438.13 400.84 438.034 400.659 437.929 400.481C436.479 397.835 434.815 395.311 432.954 392.936C431.931 391.638 430.843 390.394 429.694 389.206C426.719 386.144 423.281 383.568 419.505 381.574C411.979 377.601 403.265 376.078 395.222 378.505C395.016 378.568 394.815 378.63 394.609 378.697Z" fill="#F0F0F0"/>
<path d="M394.656 378.963C405.106 381.039 414.636 386.354 421.893 394.154C423.485 395.806 424.806 397.698 425.809 399.761C426.721 401.802 427.07 404.05 426.819 406.272C426.627 408.348 426.19 410.449 426.506 412.536C426.683 413.602 427.084 414.618 427.682 415.518C428.28 416.418 429.061 417.181 429.975 417.758C432.213 419.254 434.856 419.857 437.462 420.357C440.354 420.912 443.367 421.442 445.782 423.249C446.074 423.468 446.397 423.001 446.105 422.783C441.904 419.639 436.276 420.299 431.681 418.08C429.537 417.044 427.692 415.356 427.161 412.957C426.697 410.859 427.145 408.692 427.358 406.591C427.634 404.428 427.377 402.229 426.608 400.188C425.713 398.081 424.467 396.141 422.921 394.452C419.503 390.593 415.499 387.296 411.056 384.682C406.002 381.67 400.47 379.544 394.7 378.398C394.342 378.327 394.301 378.893 394.656 378.963Z" fill="white"/>
<path d="M419.704 391.505C420.847 390.11 421.457 388.353 421.426 386.55C421.394 384.746 420.722 383.013 419.53 381.659C419.287 381.386 418.852 381.749 419.094 382.023C420.206 383.281 420.832 384.896 420.859 386.576C420.885 388.255 420.31 389.889 419.237 391.182C419.005 391.463 419.472 391.785 419.704 391.505H419.704Z" fill="white"/>
<path d="M427.055 405.232C423.389 405.629 419.708 404.629 416.747 402.432C416.453 402.215 416.131 402.681 416.424 402.899C419.51 405.179 423.343 406.211 427.157 405.79C427.52 405.75 427.417 405.192 427.055 405.232Z" fill="white"/>
<path d="M405.905 382.416C405.575 383.048 405.094 383.588 404.503 383.988C403.913 384.388 403.233 384.635 402.524 384.706C402.16 384.742 402.263 385.3 402.625 385.265C403.408 385.182 404.159 384.908 404.812 384.468C405.466 384.027 406.001 383.434 406.372 382.739C406.412 382.676 406.427 382.601 406.414 382.527C406.401 382.454 406.36 382.388 406.3 382.344C406.238 382.302 406.162 382.285 406.088 382.299C406.014 382.312 405.948 382.354 405.905 382.416Z" fill="white"/>
<path d="M360.82 160.953L110.379 115.069C109.869 114.971 109.344 114.977 108.837 115.087C108.377 115.188 107.945 115.39 107.572 115.678C107.208 115.962 106.915 116.327 106.716 116.744C106.505 117.195 106.397 117.687 106.401 118.185V342.551C106.397 343.049 106.504 343.541 106.715 343.992C106.913 344.409 107.206 344.774 107.57 345.059C107.943 345.347 108.374 345.549 108.835 345.651C109.342 345.761 109.866 345.767 110.376 345.67L360.82 299.785C361.027 299.742 361.22 299.645 361.377 299.503C361.56 299.339 361.713 299.144 361.83 298.928C361.965 298.681 362.068 298.418 362.135 298.144C362.209 297.847 362.247 297.541 362.247 297.235V163.512C362.247 163.204 362.21 162.898 362.135 162.599C362.068 162.326 361.966 162.062 361.83 161.815C361.714 161.599 361.56 161.405 361.377 161.241C361.22 161.098 361.028 161.001 360.82 160.958L360.82 160.953Z" fill="#E4E4E4"/>
<path d="M364.65 160.953L114.209 115.069C113.699 114.971 113.175 114.977 112.667 115.087C112.207 115.188 111.775 115.39 111.402 115.678C111.038 115.962 110.745 116.327 110.546 116.744C110.335 117.195 110.227 117.687 110.232 118.185V342.551C110.227 343.049 110.334 343.541 110.545 343.992C110.744 344.409 111.036 344.774 111.4 345.059C111.773 345.347 112.205 345.549 112.665 345.651C113.172 345.761 113.697 345.767 114.206 345.67L364.65 299.785C364.858 299.742 365.05 299.645 365.207 299.503C365.39 299.339 365.544 299.144 365.66 298.928C365.796 298.681 365.898 298.418 365.965 298.144C366.039 297.847 366.077 297.541 366.077 297.235V163.512C366.077 163.204 366.04 162.898 365.966 162.599C365.899 162.326 365.796 162.062 365.661 161.815C365.544 161.599 365.391 161.405 365.207 161.241C365.05 161.098 364.858 161.001 364.65 160.958L364.65 160.953Z" fill="white"/>
<path d="M364.65 160.953L114.209 115.069C113.699 114.971 113.175 114.977 112.667 115.087C112.207 115.188 111.775 115.39 111.402 115.678C111.038 115.962 110.745 116.327 110.546 116.744C110.335 117.195 110.227 117.687 110.232 118.185V342.551C110.227 343.049 110.334 343.541 110.545 343.992C110.744 344.409 111.036 344.774 111.4 345.059C111.773 345.347 112.205 345.549 112.665 345.651C113.172 345.761 113.697 345.767 114.206 345.67L364.65 299.785C364.858 299.742 365.05 299.645 365.207 299.503C365.39 299.339 365.544 299.144 365.66 298.928C365.796 298.681 365.898 298.418 365.965 298.144C366.039 297.847 366.077 297.541 366.077 297.235V163.512C366.077 163.204 366.04 162.898 365.966 162.599C365.899 162.326 365.796 162.062 365.661 161.815C365.544 161.599 365.391 161.405 365.207 161.241C365.05 161.098 364.858 161.001 364.65 160.958L364.65 160.953ZM365.603 297.315C365.603 297.521 365.578 297.725 365.528 297.924C365.483 298.107 365.415 298.283 365.325 298.448C365.247 298.592 365.144 298.722 365.022 298.831C364.917 298.925 364.789 298.99 364.651 299.018L114.211 344.394C113.871 344.458 113.522 344.453 113.184 344.379C112.878 344.312 112.591 344.177 112.343 343.984C112.101 343.795 111.906 343.552 111.774 343.274C111.634 342.974 111.563 342.647 111.566 342.316V118.423C111.563 118.092 111.634 117.765 111.774 117.465C111.905 117.187 112.1 116.944 112.342 116.754C112.59 116.562 112.877 116.427 113.183 116.359C113.521 116.284 113.87 116.279 114.21 116.344L364.651 161.72C364.789 161.749 364.917 161.814 365.022 161.908C365.144 162.017 365.247 162.147 365.325 162.291C365.415 162.456 365.484 162.632 365.529 162.814C365.578 163.013 365.603 163.218 365.603 163.423V297.315L365.603 297.315Z" fill="#CACACA"/>
<path d="M70.0003 185.03C69.9883 183.5 70.312 181.985 70.9488 180.593C71.5439 179.307 72.4234 178.173 73.5208 177.277C74.6255 176.381 75.9152 175.741 77.2969 175.403C78.7918 175.043 80.3453 174.996 81.8592 175.266C83.4471 175.543 84.9707 176.108 86.3545 176.935C87.7215 177.748 88.9452 178.781 89.9764 179.992C90.999 181.186 91.8161 182.542 92.3943 184.003C92.9705 185.454 93.2696 187 93.2762 188.56C93.2869 190.036 92.9864 191.498 92.3943 192.85C91.8381 194.107 91.0127 195.226 89.9764 196.128C88.926 197.037 87.6899 197.705 86.3545 198.087C84.8934 198.5 83.3626 198.604 81.8592 198.393C80.2578 198.172 78.7114 197.655 77.2993 196.868C75.8806 196.081 74.6045 195.06 73.5246 193.849C72.4402 192.641 71.5702 191.256 70.9521 189.754C70.3324 188.256 70.0092 186.652 70.0003 185.03Z" fill="#E4E4E4"/>
<path d="M70.0003 231.472C69.9883 229.941 70.312 228.427 70.9488 227.035C71.5439 225.749 72.4234 224.615 73.5208 223.719C74.6255 222.822 75.9152 222.183 77.2969 221.845C78.7918 221.484 80.3453 221.438 81.8592 221.708C83.4471 221.984 84.9707 222.55 86.3545 223.376C87.7215 224.19 88.9452 225.223 89.9764 226.434C90.999 227.628 91.8161 228.983 92.3943 230.445C92.9705 231.895 93.2696 233.441 93.2762 235.002C93.2869 236.478 92.9864 237.94 92.3943 239.292C91.8381 240.548 91.0127 241.667 89.9764 242.569C88.926 243.478 87.6899 244.147 86.3545 244.529C84.8934 244.941 83.3626 245.045 81.8592 244.834C80.2578 244.613 78.7114 244.097 77.2993 243.31C75.8806 242.522 74.6045 241.502 73.5246 240.291C72.4402 239.082 71.5702 237.697 70.9521 236.196C70.3324 234.698 70.0092 233.093 70.0003 231.472Z" fill="#E4E4E4"/>
<path d="M70.0003 277.913C69.9883 276.383 70.312 274.868 70.9488 273.476C71.5439 272.19 72.4234 271.056 73.5208 270.16C74.6255 269.264 75.9152 268.624 77.2969 268.287C78.7918 267.926 80.3453 267.879 81.8592 268.149C83.4471 268.426 84.9707 268.991 86.3545 269.818C87.7215 270.631 88.9452 271.664 89.9764 272.875C90.999 274.069 91.8161 275.425 92.3943 276.886C92.9705 278.337 93.2696 279.883 93.2762 281.443C93.2869 282.919 92.9864 284.381 92.3943 285.733C91.8381 286.99 91.0127 288.109 89.9764 289.011C88.926 289.92 87.6899 290.588 86.3545 290.97C84.8934 291.383 83.3626 291.487 81.8592 291.276C80.2578 291.055 78.7114 290.538 77.2993 289.751C75.8806 288.964 74.6045 287.944 73.5246 286.733C72.4402 285.524 71.5702 284.139 70.9521 282.638C70.3324 281.139 70.0092 279.535 70.0003 277.913Z" fill="#E4E4E4"/>
<path d="M72.873 185.03C72.861 183.5 73.1847 181.985 73.8215 180.593C74.4166 179.307 75.296 178.173 76.3935 177.277C77.4982 176.381 78.7878 175.741 80.1696 175.403C81.6645 175.043 83.218 174.996 84.7319 175.266C86.3198 175.543 87.8434 176.108 89.2271 176.935C90.5941 177.748 91.8178 178.781 92.8491 179.992C93.8717 181.186 94.6888 182.542 95.2669 184.003C95.8431 185.454 96.1423 187 96.1488 188.56C96.1596 190.036 95.8591 191.498 95.2669 192.85C94.7108 194.107 93.8854 195.226 92.8491 196.128C91.7987 197.037 90.5626 197.705 89.2271 198.087C87.7661 198.5 86.2353 198.604 84.7319 198.393C83.1304 198.172 81.5841 197.655 80.172 196.868C78.7532 196.081 77.4771 195.06 76.3973 193.849C75.3129 192.641 74.4429 191.256 73.8248 189.754C73.2051 188.256 72.8819 186.652 72.873 185.03Z" fill="#FB9B04"/>
<path d="M72.873 231.155C72.8657 229.602 73.189 228.065 73.8215 226.646C74.4221 225.31 75.2986 224.115 76.3935 223.142C77.4886 222.169 78.7747 221.435 80.1696 220.987C81.6419 220.518 83.1947 220.357 84.7319 220.513C86.302 220.666 87.828 221.12 89.2271 221.849C90.5896 222.558 91.8159 223.502 92.8491 224.639C93.8753 225.762 94.6939 227.059 95.2669 228.469C95.8473 229.897 96.1466 231.424 96.1484 232.966C96.155 234.463 95.8548 235.946 95.2665 237.323C94.7023 238.633 93.8751 239.814 92.8362 240.791C91.7973 241.769 90.5688 242.523 89.2267 243.006C87.7875 243.523 86.2576 243.74 84.7314 243.643C83.149 243.546 81.6004 243.143 80.1715 242.456C77.3188 241.084 75.063 238.721 73.8253 235.808C73.2015 234.336 72.8778 232.754 72.873 231.155Z" fill="#FB9B04"/>
<path d="M72.873 277.28C72.871 275.735 73.1819 274.205 73.787 272.784C74.392 271.362 75.2786 270.077 76.3935 269.007C77.7643 267.694 79.4342 266.735 81.2587 266.212C83.0833 265.69 85.0076 265.619 86.8655 266.007C88.7235 266.394 90.4591 267.229 91.9224 268.437C93.3858 269.646 94.5328 271.192 95.2645 272.944C95.9838 274.686 96.2651 276.579 96.0841 278.456C95.903 280.332 95.2651 282.136 94.226 283.709C93.1868 285.282 91.7782 286.577 90.1231 287.48C88.4681 288.383 86.6171 288.867 84.7319 288.889C82.4239 288.923 80.1574 288.274 78.217 287.024C76.2766 285.774 74.7487 283.978 73.8253 281.863C73.1972 280.417 72.8731 278.857 72.873 277.28Z" fill="#FB9B04"/>
<path d="M80.1069 184.978L83.5838 185.512V182.084C83.5821 181.936 83.6125 181.789 83.6728 181.653C83.7293 181.528 83.8132 181.417 83.9184 181.328C84.0247 181.24 84.1493 181.176 84.2833 181.141C84.4292 181.104 84.5813 181.097 84.73 181.122C84.8874 181.147 85.0388 181.202 85.1767 181.282C85.3141 181.362 85.4373 181.464 85.5415 181.584C85.6454 181.702 85.7288 181.838 85.7881 181.984C85.8472 182.13 85.8782 182.285 85.8795 182.442V185.865L89.2903 186.388C89.4453 186.413 89.5943 186.466 89.7298 186.545C90.0016 186.702 90.2129 186.946 90.3302 187.238C90.3881 187.382 90.4181 187.536 90.4188 187.691C90.4199 187.838 90.3897 187.984 90.3302 188.118C90.2753 188.242 90.1935 188.352 90.0908 188.441C89.9866 188.529 89.8642 188.594 89.7322 188.629C89.5889 188.667 89.4392 188.675 89.2927 188.652L85.8771 188.141V191.557C85.8782 191.705 85.8475 191.852 85.7871 191.988C85.7305 192.114 85.6468 192.225 85.542 192.315C85.4361 192.404 85.3119 192.47 85.1781 192.506C85.0328 192.546 84.8808 192.555 84.7319 192.532C84.5746 192.509 84.423 192.457 84.2847 192.379C84.1472 192.301 84.0237 192.201 83.9194 192.082C83.8152 191.964 83.7318 191.83 83.6728 191.684C83.6141 191.538 83.5839 191.383 83.5838 191.226V187.798L80.1069 187.276C79.9471 187.251 79.7933 187.198 79.653 187.117C79.5134 187.038 79.388 186.936 79.2819 186.815C79.1765 186.696 79.0919 186.561 79.0315 186.414C78.9714 186.267 78.9402 186.11 78.9396 185.951C78.9385 185.801 78.9698 185.653 79.0315 185.517C79.0894 185.39 79.175 185.278 79.2819 185.189C79.3901 185.099 79.5167 185.034 79.653 184.998C79.8013 184.96 79.9558 184.953 80.1069 184.978Z" fill="white"/>
<path d="M82.5472 235.141L92.2023 235.841H92.2377L87.7099 227.621C87.6818 227.569 87.6415 227.525 87.5926 227.492C87.5686 227.476 87.5427 227.463 87.5155 227.453C87.4882 227.444 87.4597 227.437 87.4307 227.435C87.4026 227.432 87.3743 227.434 87.3465 227.439C87.3197 227.444 87.2938 227.452 87.2694 227.464C87.2206 227.489 87.1799 227.526 87.1521 227.573L84.0712 232.638L83.9227 232.881L82.5472 235.141Z" fill="white"/>
<path d="M77.0369 234.741L85.5554 235.359L83.9227 232.881L83.805 232.702L81.6639 229.451C81.6259 229.401 81.5786 229.358 81.5245 229.326C81.4982 229.31 81.4705 229.297 81.4417 229.287C81.4119 229.276 81.3811 229.269 81.3498 229.264C81.3195 229.26 81.2888 229.259 81.2583 229.261C81.2287 229.263 81.1993 229.268 81.1707 229.276C81.1426 229.284 81.1155 229.296 81.0898 229.31C81.064 229.324 81.0399 229.341 81.018 229.36L81.0108 229.369L81.0017 229.378L80.9945 229.387L80.9873 229.396L77.0369 234.741Z" fill="white"/>
<path d="M83.4789 226.268C83.6753 226.285 83.8666 226.339 84.0424 226.428C84.2148 226.516 84.3703 226.634 84.5016 226.775C84.6326 226.917 84.7374 227.08 84.8109 227.258C84.8854 227.438 84.9239 227.631 84.9243 227.826C84.9252 228.015 84.8865 228.202 84.8109 228.375C84.739 228.538 84.6337 228.685 84.5016 228.806C84.3688 228.926 84.2125 229.018 84.0424 229.075C83.8611 229.136 83.6693 229.158 83.4789 229.142C83.2823 229.125 83.0906 229.071 82.9144 228.982C82.7412 228.895 82.585 228.778 82.4529 228.636C82.3209 228.494 82.2153 228.331 82.1412 228.152C82.066 227.971 82.0271 227.777 82.0268 227.581C82.0259 227.392 82.0649 227.204 82.1412 227.031C82.2138 226.867 82.3199 226.72 82.4529 226.6C82.5866 226.48 82.7437 226.389 82.9144 226.333C83.0962 226.273 83.2883 226.25 83.4789 226.268Z" fill="white"/>
<path d="M187.666 259.038L283.269 168.33L283.679 169.048L188.264 259.805L187.666 259.038Z" fill="#E6E6E6"/>
<path d="M187.682 156.228L188.281 155.51L283.67 254.533L283.259 255.215L187.682 156.228Z" fill="#E6E6E6"/>
<path d="M282.302 167.005L189.371 154.238C188.941 154.177 188.503 154.214 188.09 154.347C187.697 154.477 187.338 154.694 187.04 154.981C186.732 155.279 186.49 155.638 186.329 156.034C186.153 156.472 186.064 156.94 186.067 157.412V257.449C186.066 257.927 186.155 258.401 186.329 258.847C186.491 259.261 186.733 259.639 187.04 259.961C187.336 260.271 187.694 260.516 188.09 260.679C188.495 260.845 188.933 260.918 189.37 260.894L282.302 255.776C282.616 255.755 282.919 255.656 283.185 255.488C283.467 255.311 283.711 255.08 283.903 254.808C284.116 254.511 284.279 254.182 284.387 253.833C284.505 253.454 284.565 253.059 284.565 252.662V170.302C284.564 169.9 284.504 169.501 284.387 169.116C284.278 168.755 284.115 168.413 283.903 168.101C283.71 167.813 283.467 167.563 283.185 167.361C282.923 167.175 282.62 167.052 282.302 167.005ZM189.371 259.864C189.059 259.881 188.746 259.828 188.457 259.709C188.174 259.592 187.919 259.417 187.708 259.195C187.489 258.965 187.317 258.694 187.202 258.397C187.077 258.08 187.014 257.741 187.015 257.4V157.536C187.013 157.2 187.076 156.867 187.202 156.554C187.316 156.271 187.488 156.014 187.708 155.801C187.921 155.596 188.177 155.441 188.457 155.348C188.752 155.253 189.064 155.225 189.371 155.268L282.302 167.863C282.53 167.896 282.746 167.984 282.933 168.117C283.135 168.261 283.309 168.439 283.448 168.644C283.599 168.867 283.716 169.112 283.794 169.369C283.878 169.644 283.921 169.93 283.921 170.217V252.695C283.921 252.979 283.878 253.262 283.794 253.533C283.717 253.783 283.6 254.018 283.448 254.23C283.31 254.424 283.135 254.589 282.933 254.716C282.743 254.835 282.526 254.904 282.302 254.918L189.371 259.864Z" fill="#E6E6E6"/>
<path d="M186.292 271.458C186.045 271.485 185.81 271.576 185.609 271.723C185.388 271.886 185.2 272.089 185.055 272.322C184.89 272.583 184.765 272.866 184.685 273.164C184.596 273.489 184.553 273.824 184.557 274.161C184.559 274.483 184.608 274.804 184.701 275.112C184.782 275.383 184.908 275.639 185.074 275.869C185.219 276.07 185.407 276.238 185.624 276.358C185.828 276.47 186.061 276.523 186.294 276.509L348.985 263.038C349.114 263.027 349.236 262.971 349.329 262.88C349.447 262.767 349.543 262.633 349.611 262.484C349.698 262.301 349.762 262.108 349.803 261.909C349.851 261.68 349.876 261.446 349.877 261.211C349.88 260.979 349.859 260.747 349.814 260.519C349.777 260.326 349.715 260.138 349.63 259.96C349.566 259.818 349.472 259.691 349.355 259.587C349.261 259.503 349.139 259.458 349.014 259.46H348.985L186.292 271.458Z" fill="#E6E6E6"/>
<path d="M186.292 286.789C186.044 286.823 185.809 286.921 185.609 287.072C185.388 287.24 185.2 287.448 185.055 287.684C184.89 287.949 184.766 288.236 184.685 288.536C184.596 288.863 184.553 289.2 184.557 289.539C184.559 289.86 184.607 290.179 184.701 290.487C184.782 290.755 184.908 291.007 185.074 291.233C185.219 291.431 185.406 291.593 185.623 291.708C185.829 291.814 186.061 291.86 186.293 291.84L348.985 273.893C349.115 273.878 349.236 273.819 349.329 273.726C349.447 273.609 349.543 273.472 349.611 273.321C349.698 273.135 349.762 272.94 349.803 272.739C349.851 272.508 349.876 272.274 349.877 272.038C349.88 271.807 349.859 271.575 349.814 271.348C349.777 271.156 349.715 270.97 349.63 270.793C349.565 270.654 349.471 270.53 349.354 270.43C349.259 270.348 349.137 270.306 349.012 270.312H348.983L186.292 286.789Z" fill="#E6E6E6"/>
<path d="M186.292 301.871C186.043 301.913 185.808 302.017 185.609 302.174C185.388 302.348 185.2 302.56 185.055 302.801C184.891 303.069 184.766 303.359 184.685 303.663C184.596 303.99 184.553 304.329 184.557 304.669C184.559 304.988 184.607 305.306 184.701 305.612C184.781 305.877 184.908 306.126 185.074 306.348C185.219 306.542 185.407 306.699 185.623 306.808C185.83 306.909 186.063 306.949 186.293 306.922L348.985 284.571C349.116 284.553 349.237 284.491 349.329 284.395C349.447 284.276 349.542 284.136 349.611 283.983C349.698 283.795 349.762 283.598 349.803 283.395C349.851 283.164 349.876 282.929 349.877 282.693C349.88 282.462 349.859 282.231 349.814 282.005C349.777 281.814 349.716 281.629 349.63 281.455C349.565 281.317 349.471 281.196 349.354 281.099C349.258 281.02 349.136 280.981 349.012 280.991H348.983L186.292 301.871Z" fill="#E6E6E6"/>
<path d="M89.3732 272.423L80.0858 272.312C79.9309 272.306 79.7763 272.328 79.629 272.376C79.4867 272.423 79.3534 272.494 79.235 272.586C79.1171 272.677 79.016 272.788 78.9363 272.914C78.8546 273.044 78.797 273.187 78.7663 273.337C78.7357 273.516 78.745 273.7 78.7936 273.875C78.8178 273.963 78.8516 274.047 78.8941 274.128C78.9809 274.291 79.1023 274.434 79.2499 274.546C79.4711 274.713 79.7406 274.805 80.0183 274.808L82.8115 274.833C82.9432 274.834 83.0718 274.873 83.1815 274.946C83.2912 275.019 83.3773 275.122 83.4291 275.243C83.464 275.325 83.4819 275.413 83.4818 275.502V280.981C83.4749 281.284 83.5757 281.579 83.7662 281.814C83.9568 282.05 84.2245 282.211 84.5222 282.269C84.7919 282.314 85.0691 282.27 85.3112 282.142C85.5533 282.015 85.7471 281.812 85.8628 281.564C85.9389 281.401 85.9785 281.223 85.9786 281.043V275.518C85.9787 275.431 85.9957 275.346 86.0287 275.266C86.0618 275.187 86.1102 275.114 86.1712 275.054C86.2322 274.993 86.3046 274.944 86.3842 274.911C86.4639 274.879 86.5493 274.862 86.6355 274.862L86.6417 274.862L89.31 274.883C89.6078 274.892 89.8995 274.796 90.133 274.611C90.3664 274.425 90.5266 274.163 90.585 273.871C90.6142 273.694 90.6049 273.513 90.5577 273.34C90.5105 273.167 90.4265 273.006 90.3115 272.869C90.1964 272.731 90.053 272.62 89.8911 272.543C89.7291 272.466 89.5525 272.425 89.3732 272.423Z" fill="white"/>
<path d="M89.3736 279.805C89.6385 279.805 89.8963 279.89 90.1089 280.048C90.3215 280.206 90.4776 280.428 90.5541 280.681C90.6306 280.935 90.6234 281.206 90.5336 281.455C90.4438 281.704 90.2761 281.918 90.0554 282.064C89.8348 282.211 89.5728 282.282 89.3084 282.268C89.0439 282.254 88.791 282.155 88.5872 281.986C88.3833 281.817 88.2393 281.587 88.1765 281.33C88.1137 281.072 88.1354 280.802 88.2385 280.558C88.3323 280.334 88.4902 280.143 88.6922 280.009C88.8941 279.875 89.1312 279.804 89.3736 279.805Z" fill="white"/>
<path d="M307.049 207.194C307.006 207.528 306.937 207.858 306.842 208.182L326.202 231.362L333.432 230.116L336.739 240.783L324.153 244.232C323.136 244.511 322.056 244.452 321.076 244.065C320.095 243.678 319.267 242.983 318.715 242.085L300.722 212.813C299.423 212.816 298.155 212.425 297.085 211.69C296.015 210.955 295.194 209.912 294.731 208.699C294.268 207.486 294.186 206.161 294.494 204.9C294.803 203.639 295.488 202.502 296.459 201.64C297.43 200.778 298.64 200.232 299.928 200.075C301.217 199.917 302.523 200.156 303.673 200.759C304.822 201.362 305.761 202.3 306.364 203.45C306.967 204.599 307.206 205.905 307.049 207.194Z" fill="#FFB6B6"/>
<path d="M327.059 230.07C327.266 229.735 327.542 229.448 327.87 229.23C328.198 229.011 328.569 228.866 328.958 228.804L342.54 226.638C344.462 226.032 346.545 226.212 348.334 227.14C350.123 228.067 351.471 229.666 352.082 231.586C352.694 233.506 352.519 235.59 351.596 237.381C350.674 239.172 349.079 240.525 347.16 241.142L334.751 247.175C334.396 247.347 334.009 247.441 333.616 247.45C333.222 247.459 332.831 247.383 332.469 247.228C332.107 247.072 331.783 246.84 331.519 246.548C331.255 246.256 331.057 245.91 330.939 245.535L326.777 232.334C326.658 231.959 326.622 231.562 326.67 231.171C326.719 230.78 326.852 230.405 327.059 230.07Z" fill="#3F3D56"/>
<path d="M327.816 417.836H321.946L319.154 395.196L327.817 395.196L327.816 417.836Z" fill="#FFB6B6"/>
<path d="M329.313 423.526L310.387 423.526V423.286C310.387 421.332 311.163 419.459 312.544 418.077C313.926 416.696 315.8 415.92 317.753 415.92H317.754L329.313 415.92L329.313 423.526Z" fill="#2F2E41"/>
<path d="M389.1 417.836H383.23L380.438 395.196L389.101 395.196L389.1 417.836Z" fill="#FFB6B6"/>
<path d="M390.597 423.526L371.67 423.526V423.286C371.67 421.332 372.447 419.459 373.828 418.077C375.21 416.696 377.083 415.92 379.037 415.92H379.038L390.597 415.92L390.597 423.526Z" fill="#2F2E41"/>
<path d="M330.108 279.925L355.543 272.575C364.809 279.147 371.207 292.32 369.135 309.364C365.796 336.83 385.125 372.146 393.462 407.929L379.047 408.382L347.481 332.841L328.975 409.955L316.098 410.36L324.709 304.181L330.108 279.925Z" fill="#2F2E41"/>
<path d="M341.434 213.129C348.701 213.129 354.592 207.238 354.592 199.971C354.592 192.704 348.701 186.813 341.434 186.813C334.167 186.813 328.276 192.704 328.276 199.971C328.276 207.238 334.167 213.129 341.434 213.129Z" fill="#FFB6B6"/>
<path d="M328.046 258.479C325.138 253.374 323.701 247.174 326.232 241.872C326.87 240.537 328.607 239.275 329.517 238.108L339.684 222.95L351.163 221.103C361.097 229.435 352.611 257.901 360.75 276.573L326.757 294.767C329.186 285.487 332.466 266.237 328.046 258.479Z" fill="#3F3D56"/>
<path d="M328.193 194.702C328.193 194.702 329.084 193.052 334.417 195.181C336.284 195.926 337.159 195.755 337.28 197.376C337.713 203.479 339.945 209.316 343.694 214.15L343.735 214.202L346.401 211.769L349.829 214.507L364.305 214.811C364.305 214.811 366.59 203.557 358.972 190.783C351.353 178.008 335.735 185.004 335.735 185.004C325.069 185.612 328.193 194.702 328.193 194.702Z" fill="#2F2E41"/>
<path d="M294.602 177.884L201.671 165.117C201.241 165.055 200.803 165.093 200.39 165.226C199.997 165.356 199.638 165.572 199.34 165.86C199.032 166.157 198.79 166.516 198.629 166.913C198.453 167.351 198.364 167.819 198.367 168.291V268.327C198.366 268.805 198.455 269.28 198.629 269.725C198.791 270.139 199.033 270.518 199.34 270.84C199.636 271.15 199.993 271.394 200.39 271.558C200.795 271.724 201.233 271.797 201.67 271.772L294.602 266.654C294.916 266.634 295.219 266.535 295.485 266.367C295.767 266.189 296.011 265.958 296.203 265.687C296.416 265.39 296.579 265.06 296.687 264.711C296.805 264.332 296.865 263.937 296.865 263.54V181.181C296.864 180.779 296.804 180.379 296.687 179.995C296.578 179.634 296.415 179.292 296.203 178.98C296.01 178.692 295.767 178.441 295.485 178.24C295.223 178.053 294.92 177.931 294.602 177.884Z" fill="#FB9B04"/>
<path opacity="0.2" d="M294.602 177.884L201.671 165.117C201.241 165.055 200.803 165.093 200.39 165.226C199.997 165.356 199.638 165.572 199.34 165.86C199.032 166.157 198.79 166.516 198.629 166.913C198.453 167.351 198.364 167.819 198.367 168.291V268.327C198.366 268.805 198.455 269.28 198.629 269.725C198.791 270.139 199.033 270.518 199.34 270.84C199.636 271.15 199.993 271.394 200.39 271.558C200.795 271.724 201.233 271.797 201.67 271.772L294.602 266.654C294.916 266.634 295.219 266.535 295.485 266.367C295.767 266.189 296.011 265.958 296.203 265.687C296.416 265.39 296.579 265.06 296.687 264.711C296.805 264.332 296.865 263.937 296.865 263.54V181.181C296.864 180.779 296.804 180.379 296.687 179.995C296.578 179.634 296.415 179.292 296.203 178.98C296.01 178.692 295.767 178.441 295.485 178.24C295.223 178.053 294.92 177.931 294.602 177.884Z" fill="black"/>
<path d="M298.432 177.884L205.501 165.117C205.071 165.055 204.633 165.093 204.22 165.226C203.827 165.356 203.468 165.572 203.17 165.86C202.862 166.157 202.62 166.516 202.459 166.913C202.284 167.351 202.195 167.819 202.198 168.291V268.327C202.196 268.805 202.285 269.28 202.459 269.725C202.622 270.139 202.863 270.518 203.17 270.84C203.466 271.15 203.824 271.394 204.22 271.558C204.626 271.724 205.063 271.797 205.501 271.772L298.432 266.654C298.746 266.634 299.05 266.535 299.315 266.367C299.597 266.189 299.841 265.958 300.034 265.687C300.246 265.39 300.41 265.06 300.517 264.711C300.635 264.332 300.695 263.937 300.695 263.54V181.181C300.694 180.779 300.635 180.379 300.517 179.995C300.408 179.634 300.245 179.292 300.034 178.98C299.841 178.692 299.597 178.441 299.315 178.24C299.053 178.053 298.751 177.931 298.432 177.884Z" fill="#FB9B04"/>
<path d="M298.033 257.86C298.286 258.082 298.521 258.325 298.736 258.584L328.781 255.513L331.795 248.824L342.485 252.053L338.3 264.414C337.962 265.412 337.309 266.274 336.439 266.87C335.57 267.466 334.53 267.764 333.477 267.719L299.149 266.248C298.425 267.326 297.391 268.158 296.183 268.633C294.975 269.109 293.651 269.206 292.387 268.91C291.122 268.615 289.978 267.942 289.106 266.98C288.234 266.019 287.675 264.815 287.504 263.528C287.333 262.241 287.558 260.933 288.148 259.777C288.739 258.621 289.668 257.672 290.811 257.056C291.954 256.441 293.257 256.188 294.547 256.332C295.837 256.475 297.053 257.008 298.033 257.859V257.86Z" fill="#FFB6B6"/>
<path d="M328.19 254.079C328.028 253.72 327.945 253.331 327.947 252.937C327.95 252.543 328.037 252.155 328.204 251.798L334.01 239.329C334.583 237.397 335.898 235.771 337.668 234.808C339.438 233.844 341.517 233.622 343.451 234.19C345.384 234.758 347.014 236.069 347.982 237.836C348.95 239.603 349.177 241.682 348.615 243.617L346.67 257.278C346.614 257.668 346.475 258.041 346.263 258.373C346.05 258.704 345.768 258.986 345.437 259.198C345.105 259.411 344.732 259.55 344.342 259.605C343.952 259.66 343.555 259.631 343.177 259.519L329.908 255.581C329.531 255.469 329.182 255.277 328.885 255.018C328.588 254.759 328.351 254.439 328.19 254.079Z" fill="#3F3D56"/>
<path d="M469.521 424.037H287.106C286.979 424.037 286.858 423.987 286.768 423.897C286.678 423.807 286.628 423.686 286.628 423.559C286.628 423.432 286.678 423.31 286.768 423.22C286.858 423.13 286.979 423.08 287.106 423.08H469.521C469.648 423.08 469.77 423.13 469.86 423.22C469.95 423.31 470 423.432 470 423.559C470 423.686 469.95 423.807 469.86 423.897C469.77 423.987 469.648 424.037 469.521 424.037Z" fill="#CACACA"/>
</g>
<defs>
<clipPath id="clip0_26_25727">
<rect width="400" height="309.037" fill="white" transform="translate(70 115)"/>
</clipPath>
</defs>
</svg>
