<svg width="540" height="540" viewBox="0 0 540 540" fill="none" xmlns="http://www.w3.org/2000/svg">
<circle cx="270" cy="270" r="270" fill="#6C2BFB" fill-opacity="0.1"/>
<g clip-path="url(#clip0_26_25781)">
<path d="M346.416 450.784H232.917C215.894 450.784 202.044 436.934 202.044 419.911V119.873C202.044 102.85 215.894 89 232.917 89H346.416C363.439 89 377.289 102.85 377.289 119.873C379.401 240.359 383.004 375.284 377.289 419.911C377.289 436.934 363.439 450.784 346.416 450.784L346.416 450.784Z" fill="#3F3D56"/>
<path d="M378.871 199.364C378.151 199.364 377.565 199.95 377.565 200.67V242.464C377.565 243.185 378.151 243.77 378.871 243.77C379.592 243.77 380.177 243.185 380.177 242.464V200.67C380.177 199.95 379.592 199.364 378.871 199.364Z" fill="#3F3D56"/>
<path d="M374.35 119.873V419.906C374.35 434.723 362.818 446.844 348.235 447.784H348.229C348.013 447.797 347.798 447.81 347.576 447.817C347.19 447.836 346.805 447.843 346.413 447.843C346.413 447.843 344.976 447.738 342.351 447.542C339.7 447.346 335.84 447.053 331.028 446.667C329.584 446.556 328.063 446.432 326.456 446.302C323.256 446.04 319.743 445.753 315.975 445.426C314.473 445.302 312.919 445.165 311.332 445.028C303.221 444.329 294.137 443.513 284.557 442.586C282.938 442.436 281.305 442.279 279.659 442.116C279.229 442.07 204.983 423.406 204.983 419.906V119.873C204.983 104.442 217.489 91.9362 232.92 91.9362H249.599C252.263 91.9362 254.405 94.0129 254.634 96.6708C254.653 96.8471 254.673 97.0234 254.706 97.1997C255.189 99.8707 257.638 101.732 260.355 101.732H318.979C321.696 101.732 324.145 99.8707 324.628 97.1997C324.66 97.0234 324.68 96.8471 324.7 96.6708C324.928 94.0129 327.07 91.9362 329.735 91.9362H346.413C361.844 91.9362 374.35 104.442 374.35 119.873H374.35Z" fill="white"/>
<path d="M201.391 168.018C200.671 168.018 200.085 168.604 200.085 169.324V179.773C200.085 180.493 200.671 181.079 201.391 181.079C202.112 181.079 202.697 180.493 202.697 179.773V169.324C202.697 168.604 202.112 168.018 201.391 168.018Z" fill="#3F3D56"/>
<path d="M201.391 199.364C200.671 199.364 200.085 199.95 200.085 200.67V220.914C200.085 221.634 200.671 222.22 201.391 222.22C202.112 222.22 202.697 221.634 202.697 220.914V200.67C202.697 199.95 202.112 199.364 201.391 199.364V199.364Z" fill="#3F3D56"/>
<path d="M201.391 228.098C200.671 228.098 200.085 228.683 200.085 229.404V249.648C200.085 250.368 200.671 250.954 201.391 250.954C202.112 250.954 202.697 250.368 202.697 249.648V229.404C202.697 228.683 202.112 228.098 201.391 228.098Z" fill="#3F3D56"/>
<path d="M249.17 96.5101H224.141C224.02 96.5101 223.921 96.6084 223.921 96.7297V99.5556C223.921 99.6769 224.02 99.7753 224.141 99.7753H249.17C249.292 99.7753 249.39 99.6769 249.39 99.5556V96.7297C249.39 96.6084 249.292 96.5101 249.17 96.5101Z" fill="#E6E6E6"/>
<path d="M333.862 99.7752C335.304 99.7752 336.474 98.6057 336.474 97.1631C336.474 95.7204 335.304 94.5509 333.862 94.5509C332.419 94.5509 331.249 95.7204 331.249 97.1631C331.249 98.6057 332.419 99.7752 333.862 99.7752Z" fill="#E6E6E6"/>
<path d="M341.045 99.7752C342.488 99.7752 343.657 98.6057 343.657 97.1631C343.657 95.7204 342.488 94.5509 341.045 94.5509C339.602 94.5509 338.433 95.7204 338.433 97.1631C338.433 98.6057 339.602 99.7752 341.045 99.7752Z" fill="#E6E6E6"/>
<path d="M348.228 99.7752C349.671 99.7752 350.841 98.6057 350.841 97.1631C350.841 95.7204 349.671 94.5509 348.228 94.5509C346.786 94.5509 345.616 95.7204 345.616 97.1631C345.616 98.6057 346.786 99.7752 348.228 99.7752Z" fill="#E6E6E6"/>
<path d="M80.1343 450.855C80.1343 451.322 80.5096 451.698 80.9769 451.698H469.158C469.625 451.698 470 451.322 470 450.855C470 450.388 469.625 450.013 469.158 450.013H80.9769C80.5096 450.013 80.1343 450.388 80.1343 450.855Z" fill="#CCCCCC"/>
<path d="M203.903 445.322L195.943 445.321L192.156 414.616L203.905 414.617L203.903 445.322Z" fill="#FFB6B6"/>
<path d="M176.63 445.141C176.382 445.558 176.251 446.906 176.251 447.391C176.251 448.883 177.461 450.093 178.953 450.093H203.606C204.624 450.093 205.449 449.268 205.449 448.25V447.223C205.449 447.223 206.668 444.139 204.158 440.337C204.158 440.337 201.037 443.314 196.374 438.651L194.999 436.16L185.045 443.439L179.528 444.118C178.321 444.267 177.251 444.095 176.63 445.141H176.63V445.141H176.63Z" fill="#2F2E41"/>
<path d="M159.881 402.674L151.921 402.648L148.232 371.931L159.98 371.969L159.881 402.674Z" fill="#FFB6B6"/>
<path d="M132.609 402.407C132.359 402.823 132.224 404.17 132.223 404.656C132.218 406.148 133.424 407.361 134.916 407.366L159.568 407.444C160.586 407.448 161.414 406.625 161.417 405.607L161.421 404.581C161.421 404.581 162.65 401.5 160.151 397.69C160.151 397.69 157.021 400.657 152.373 395.979L151.006 393.484L141.029 400.732L135.51 401.393C134.303 401.538 133.233 401.363 132.609 402.407H132.609V402.407Z" fill="#2F2E41"/>
<path d="M192.293 258.916L182.381 259.624C182.381 259.624 148.826 278.703 145.994 282.95C143.162 287.198 139.268 293.216 142.808 299.588C146.348 305.96 143.654 383.111 143.654 383.111L160.57 379.284L171.408 298.563L194.063 295.377C194.063 295.377 201.851 312.179 199.019 326.08C196.187 339.98 194.771 348.476 194.771 348.476L191.231 430.602L205.037 430.248L217.427 354.14L238.666 293.961L211.055 261.394L192.293 258.916Z" fill="#2F2E41"/>
<path d="M241.144 171.834L220.613 173.958L218.489 181.038L198.665 191.658L205.037 236.261L200.081 244.049L202.205 251.836C202.205 251.836 196.541 252.544 197.249 256.792L184.505 258.916C184.505 258.916 201.408 262.367 204.992 279.403C208.577 296.439 238.312 298.563 238.312 298.563L261.676 225.641L263.8 182.454L247.516 178.206L241.144 171.834Z" fill="#E6E6E6"/>
<path d="M230.324 169.148C239.139 169.148 246.285 162.002 246.285 153.187C246.285 144.372 239.139 137.226 230.324 137.226C221.509 137.226 214.363 144.372 214.363 153.187C214.363 162.002 221.509 169.148 230.324 169.148Z" fill="#FFB6B6"/>
<path d="M222.029 167.586C222.029 167.586 207.869 166.878 209.285 155.551C205.78 143.488 208.882 135.655 219.905 132.895C219.905 132.895 222.737 132.187 223.445 132.187C232.757 132.187 237.604 135.019 237.604 135.019C237.604 135.019 236.896 132.215 237.604 132.909C238.312 133.603 239.02 135.019 239.02 135.019C239.02 135.019 246.1 138.559 246.1 145.639C246.1 152.719 246.1 149.887 246.1 149.887C246.1 149.887 244.684 149.887 243.268 145.639C241.852 141.391 232.685 144.223 232.685 144.223L233.356 145.639L231.232 144.931L229.108 147.055L227.692 146.347C227.692 146.347 222.029 146.347 222.737 146.347C223.445 146.347 222.951 151.158 222.951 151.158L217.781 156.966L223.445 167.586H222.029Z" fill="#2F2E41"/>
<path d="M146.59 252.087C142.559 254.287 140.426 258.15 141.826 260.715C143.226 263.28 147.629 263.576 151.659 261.376C153.424 260.413 154.824 259.131 155.724 257.779L172.687 248.244L168.043 240.379L151.814 250.614C150.19 250.639 148.354 251.124 146.59 252.087H146.59Z" fill="#FFB6B6"/>
<path d="M203.794 191.988C203.794 191.988 197.144 189.456 194.853 192.504C192.562 195.551 177.428 232.53 177.428 232.53L155.223 244.127L161.467 255L190.06 245.481L208.926 210.978L203.794 191.988Z" fill="#E6E6E6"/>
<path d="M413.478 313.429V388.476C413.478 395.112 408.079 400.512 401.442 400.512H215.95C209.314 400.512 203.915 395.112 203.915 388.476V313.429C203.915 306.793 209.314 301.394 215.95 301.394H401.442C408.079 301.394 413.478 306.793 413.478 313.429Z" fill="white"/>
<path d="M413.478 313.429V388.476C413.478 395.112 408.079 400.512 401.442 400.512H215.95C209.314 400.512 203.915 395.112 203.915 388.476V313.429C203.915 306.793 209.314 301.394 215.95 301.394H401.442C408.079 301.394 413.478 306.793 413.478 313.429ZM401.442 399.096C407.307 399.096 412.062 394.341 412.062 388.476V350.64C412.062 324.224 390.648 302.81 364.231 302.81H215.95C210.085 302.81 205.331 307.564 205.331 313.429V388.476C205.331 394.341 210.085 399.096 215.95 399.096H401.442Z" fill="#3F3D56"/>
<path d="M287.181 346.734H262.953C262.343 346.734 261.846 347.231 261.846 347.842C261.846 348.452 262.343 348.95 262.953 348.95H287.181C287.792 348.95 288.289 348.452 288.289 347.842C288.289 347.231 287.792 346.734 287.181 346.734Z" fill="#FB9B04"/>
<path d="M323.996 346.734H299.769C299.158 346.734 298.661 347.231 298.661 347.842C298.661 348.452 299.158 348.95 299.769 348.95H323.996C324.607 348.95 325.104 348.452 325.104 347.842C325.104 347.231 324.607 346.734 323.996 346.734Z" fill="#FB9B04"/>
<path d="M287.181 358.845H262.953C262.343 358.845 261.846 359.342 261.846 359.953C261.846 360.563 262.343 361.06 262.953 361.06H287.181C287.792 361.06 288.289 360.563 288.289 359.953C288.289 359.342 287.792 358.845 287.181 358.845Z" fill="#FB9B04"/>
<path d="M323.996 358.845H299.769C299.158 358.845 298.661 359.342 298.661 359.953C298.661 360.563 299.158 361.06 299.769 361.06H323.996C324.607 361.06 325.104 360.563 325.104 359.953C325.104 359.342 324.607 358.845 323.996 358.845Z" fill="#FB9B04"/>
<path d="M361.919 359.953C361.919 359.342 361.422 358.845 360.811 358.845H336.584C335.973 358.845 335.476 359.342 335.476 359.953C335.476 360.563 335.973 361.06 336.584 361.06H360.811C361.422 361.06 361.919 360.563 361.919 359.953Z" fill="#FB9B04"/>
<path d="M273.021 337.064C273.632 337.064 274.129 336.567 274.129 335.956C274.129 335.345 273.632 334.849 273.021 334.849H248.794C248.183 334.849 247.686 335.345 247.686 335.956C247.686 336.567 248.183 337.064 248.794 337.064H273.021Z" fill="#FB9B04"/>
<path d="M344.372 336.613H368.599C369.21 336.613 369.707 336.116 369.707 335.506C369.707 334.895 369.21 334.398 368.599 334.398H344.372C343.761 334.398 343.264 334.895 343.264 335.506C343.264 336.116 343.761 336.613 344.372 336.613Z" fill="#FB9B04"/>
<path d="M283.228 336.846H333.457C334.068 336.846 334.565 336.349 334.565 335.739C334.565 335.128 334.068 334.631 333.457 334.631H283.228C282.617 334.631 282.12 335.128 282.12 335.739C282.12 336.349 282.617 336.846 283.228 336.846Z" fill="#FB9B04"/>
<path d="M302.991 369.848H278.763C278.152 369.848 277.655 370.345 277.655 370.956C277.655 371.567 278.152 372.063 278.763 372.063H302.991C303.601 372.063 304.098 371.567 304.098 370.956C304.098 370.345 303.601 369.848 302.991 369.848Z" fill="#FB9B04"/>
<path d="M381.238 312.864V387.91C381.238 394.547 375.839 399.946 369.202 399.946H294.156C287.519 399.946 282.12 394.547 282.12 387.91V312.864C282.12 306.227 287.519 300.828 294.156 300.828H369.202C375.839 300.828 381.238 306.227 381.238 312.864Z" fill="white"/>
<path d="M381.238 312.864V387.91C381.238 394.547 375.839 399.946 369.202 399.946H294.156C287.519 399.946 282.12 394.547 282.12 387.91V312.864C282.12 306.227 287.519 300.828 294.156 300.828H369.202C375.839 300.828 381.238 306.227 381.238 312.864ZM364.546 398.53C372.983 398.53 379.822 391.691 379.822 383.254V350.075C379.822 323.658 358.407 302.244 331.991 302.244H294.156C288.291 302.244 283.536 306.999 283.536 312.864V377.439C283.536 389.087 292.979 398.53 304.626 398.53H364.547V398.53H364.546Z" fill="#3F3D56"/>
<path d="M341.669 331.478H317.441C316.83 331.478 316.334 330.981 316.334 330.37C316.334 329.76 316.831 329.263 317.441 329.263H341.669C342.28 329.263 342.777 329.76 342.777 330.37C342.777 330.981 342.28 331.478 341.669 331.478V331.478Z" fill="#FB9B04"/>
<path d="M341.669 355.099H317.441C316.83 355.099 316.334 354.602 316.334 353.991C316.334 353.38 316.831 352.884 317.441 352.884H341.669C342.28 352.884 342.777 353.38 342.777 353.991C342.777 354.602 342.28 355.099 341.669 355.099V355.099Z" fill="#FB9B04"/>
<path d="M329.633 387.666H305.406C304.795 387.666 304.298 387.169 304.298 386.559C304.298 385.948 304.795 385.451 305.406 385.451H329.633C330.244 385.451 330.741 385.948 330.741 386.559C330.741 387.169 330.244 387.666 329.633 387.666V387.666Z" fill="#FB9B04"/>
<path d="M354.67 343.296H304.44C303.83 343.296 303.333 342.799 303.333 342.189C303.333 341.578 303.83 341.081 304.44 341.081H354.67C355.281 341.081 355.777 341.578 355.777 342.189C355.777 342.799 355.281 343.296 354.67 343.296V343.296Z" fill="#FB9B04"/>
<path d="M367.117 271.279C367.117 247.868 347.33 234.989 324.728 228.889C295.749 221.069 274.526 236.894 282.338 271.279C284.109 279.072 288.344 288.174 293.586 295.959H335.183C349.078 286.913 367.117 289.45 367.117 271.279H367.117Z" fill="#FB9B04"/>
<path d="M324.106 315.535C326.472 311.024 329.472 307.77 332.777 305.292H293.816C303.844 319.616 317.142 328.809 324.106 315.535Z" fill="#FB9B04"/>
<path d="M319.61 246.216C322.111 246.216 324.139 248.244 324.139 250.745V259.803H315.081V250.745C315.081 248.244 317.109 246.216 319.61 246.216ZM326.403 259.803V250.745C326.403 246.993 323.362 243.952 319.61 243.952C315.858 243.952 312.817 246.993 312.817 250.745V259.803C310.315 259.803 308.288 261.831 308.288 264.332V275.654C308.288 278.155 310.315 280.183 312.817 280.183H326.403C328.904 280.183 330.932 278.155 330.932 275.654V264.332C330.932 261.831 328.904 259.803 326.403 259.803H326.403ZM312.817 262.067H326.403C327.654 262.067 328.668 263.081 328.668 264.332V275.654C328.668 276.904 327.654 277.918 326.403 277.918H312.817C311.566 277.918 310.552 276.904 310.552 275.654V264.332C310.552 263.081 311.566 262.067 312.817 262.067Z" fill="white"/>
<path d="M254.89 298.948C254.344 303.507 256.254 307.485 259.155 307.833C262.057 308.18 264.852 304.766 265.398 300.206C265.637 298.21 265.405 296.326 264.826 294.809L266.897 275.46L257.797 274.681L256.721 293.838C255.799 295.176 255.129 296.952 254.89 298.948Z" fill="#FFB6B6"/>
<path d="M257.074 183.516C257.074 183.516 266.986 180.684 269.11 184.932C271.234 189.18 276.189 245.111 276.189 245.111L266.632 289.755L255.658 286.882L261.322 241.571L253.534 207.587L257.074 183.516Z" fill="#E6E6E6"/>
<path d="M111.417 319.335C134.291 319.335 152.834 300.792 152.834 277.918C152.834 255.044 134.291 236.501 111.417 236.501C88.5431 236.501 70 255.044 70 277.918C70 300.792 88.5431 319.335 111.417 319.335Z" fill="#FB9B04"/>
<path d="M111.417 259.377C114.343 259.377 116.715 261.749 116.715 264.674V275.269H106.12V264.674C106.12 261.749 108.491 259.377 111.417 259.377ZM119.363 275.269V264.674C119.363 260.286 115.806 256.728 111.417 256.728C107.028 256.728 103.471 260.286 103.471 264.674V275.269C100.545 275.269 98.1732 277.641 98.1732 280.567V293.811C98.1732 296.737 100.545 299.108 103.471 299.108H119.363C122.289 299.108 124.661 296.737 124.661 293.811V280.567C124.661 277.641 122.289 275.269 119.363 275.269H119.363ZM103.471 277.918H119.363C120.826 277.918 122.012 279.104 122.012 280.567V293.811C122.012 295.274 120.826 296.46 119.363 296.46H103.471C102.008 296.46 100.822 295.274 100.822 293.811V280.567C100.822 279.104 102.008 277.918 103.471 277.918Z" fill="white"/>
</g>
<defs>
<clipPath id="clip0_26_25781">
<rect width="400" height="362.698" fill="white" transform="translate(70 89)"/>
</clipPath>
</defs>
</svg>
