<svg width="171" height="61" viewBox="0 0 171 61" fill="none" xmlns="http://www.w3.org/2000/svg">
<rect x="0.802246" y="0.781982" width="169.527" height="60" rx="8" fill="black"/>
<g clip-path="url(#clip0_18_35)">
<path d="M46.1674 35.6727C50.2249 33.5912 53.3008 32.0051 53.5659 31.8817C54.414 31.4604 55.2899 30.345 53.5659 29.4787C53.0093 29.2062 50.0124 27.6695 46.1674 25.6877L40.8372 30.7172L46.1674 35.6726V35.6727Z" fill="#FFD900"/>
<path d="M40.837 30.717L23.8649 46.6987C24.2632 46.748 24.713 46.6493 25.2432 46.377C26.3565 45.8076 38.158 39.7861 46.1672 35.6737L40.837 30.717Z" fill="#F43249"/>
<path d="M40.8369 30.717L46.1672 25.7123C46.1672 25.7123 26.4369 15.652 25.2432 15.0582C24.7934 14.8093 24.2894 14.7354 23.8384 14.8093L40.8369 30.717Z" fill="#00EE76"/>
<path d="M40.837 30.719L23.8385 14.8113C23.1487 14.9603 22.5657 15.5298 22.5657 16.6944V44.8176C22.5657 45.8835 23.0168 46.6513 23.8649 46.7253L40.837 30.719Z" fill="#00D3FF"/>
</g>
<path d="M75.5884 19.782C75.4947 19.4951 75.3711 19.2379 75.2177 19.0107C75.0671 18.7806 74.8867 18.5845 74.6765 18.4226C74.4691 18.2607 74.2333 18.1371 73.9691 18.0519C73.7049 17.9666 73.4151 17.924 73.0998 17.924C72.5827 17.924 72.1125 18.0576 71.6893 18.3246C71.266 18.5916 70.9293 18.9851 70.6793 19.505C70.4293 20.0249 70.3043 20.6627 70.3043 21.4183C70.3043 22.174 70.4307 22.8118 70.6836 23.3317C70.9364 23.8516 71.2787 24.2451 71.7106 24.5121C72.1424 24.7791 72.6282 24.9127 73.1679 24.9127C73.6679 24.9127 74.1083 24.8061 74.489 24.5931C74.8725 24.3772 75.1708 24.0732 75.3839 23.6811C75.5998 23.2862 75.7077 22.8218 75.7077 22.2877L76.0316 22.3558H73.4066V21.4183H76.7304V22.3558C76.7304 23.0746 76.577 23.6996 76.2702 24.2308C75.9662 24.7621 75.5458 25.174 75.0089 25.4666C74.4748 25.7564 73.8611 25.9013 73.1679 25.9013C72.3952 25.9013 71.7162 25.7195 71.131 25.3558C70.5486 24.9922 70.0941 24.4752 69.7674 23.8047C69.4435 23.1343 69.2816 22.3388 69.2816 21.4183C69.2816 20.728 69.3739 20.1073 69.5586 19.5561C69.7461 19.0022 70.0103 18.5306 70.3512 18.1414C70.6921 17.7522 71.0955 17.4539 71.5614 17.2465C72.0273 17.0391 72.5401 16.9354 73.0998 16.9354C73.56 16.9354 73.989 17.005 74.3867 17.1442C74.7873 17.2806 75.1438 17.4752 75.4563 17.728C75.7716 17.978 76.0344 18.2777 76.2447 18.6272C76.4549 18.9737 76.5998 19.3587 76.6793 19.782H75.5884ZM78.5405 25.782V17.0547H83.8075V17.9922H79.5973V20.9411H83.5348V21.8786H79.5973V24.8445H83.8757V25.782H78.5405ZM85.2351 17.9922V17.0547H91.7805V17.9922H89.0362V25.782H87.9794V17.9922H85.2351ZM97.8434 17.0547V25.782H96.7866V17.0547H97.8434ZM99.4851 17.9922V17.0547H106.031V17.9922H103.286V25.782H102.229V17.9922H99.4851ZM118.4 21.4183C118.4 22.3388 118.234 23.1343 117.902 23.8047C117.569 24.4752 117.113 24.9922 116.534 25.3558C115.954 25.7195 115.292 25.9013 114.548 25.9013C113.804 25.9013 113.142 25.7195 112.562 25.3558C111.983 24.9922 111.527 24.4752 111.194 23.8047C110.862 23.1343 110.696 22.3388 110.696 21.4183C110.696 20.4979 110.862 19.7024 111.194 19.032C111.527 18.3615 111.983 17.8445 112.562 17.4808C113.142 17.1172 113.804 16.9354 114.548 16.9354C115.292 16.9354 115.954 17.1172 116.534 17.4808C117.113 17.8445 117.569 18.3615 117.902 19.032C118.234 19.7024 118.4 20.4979 118.4 21.4183ZM117.377 21.4183C117.377 20.6627 117.251 20.0249 116.998 19.505C116.748 18.9851 116.409 18.5916 115.98 18.3246C115.554 18.0576 115.076 17.924 114.548 17.924C114.02 17.924 113.541 18.0576 113.112 18.3246C112.686 18.5916 112.346 18.9851 112.093 19.505C111.843 20.0249 111.718 20.6627 111.718 21.4183C111.718 22.174 111.843 22.8118 112.093 23.3317C112.346 23.8516 112.686 24.2451 113.112 24.5121C113.541 24.7791 114.02 24.9127 114.548 24.9127C115.076 24.9127 115.554 24.7791 115.98 24.5121C116.409 24.2451 116.748 23.8516 116.998 23.3317C117.251 22.8118 117.377 22.174 117.377 21.4183ZM127.098 17.0547V25.782H126.075L121.319 18.9297H121.234V25.782H120.177V17.0547H121.2L125.973 23.924H126.058V17.0547H127.098Z" fill="white"/>
<path d="M76.5749 36.8168C76.4788 36.5152 76.3495 36.2451 76.1871 36.0064C76.028 35.7645 75.8375 35.559 75.6154 35.3899C75.3933 35.2176 75.1398 35.0867 74.8547 34.9972C74.573 34.9077 74.2631 34.8629 73.925 34.8629C73.3517 34.8629 72.8346 35.0104 72.3739 35.3054C71.9132 35.6004 71.5486 36.0329 71.2802 36.603C71.015 37.1698 70.8824 37.8641 70.8824 38.6861C70.8824 39.5114 71.0167 40.2091 71.2851 40.7791C71.5536 41.3492 71.9215 41.7817 72.3888 42.0767C72.8562 42.3717 73.3881 42.5192 73.9847 42.5192C74.5382 42.5192 75.0205 42.4065 75.4314 42.1811C75.8457 41.9558 76.1656 41.6376 76.391 41.2266C76.6197 40.8123 76.734 40.3251 76.734 39.7649L77.1317 39.8395H74.2184V38.5718H78.2205V39.7301C78.2205 40.5852 78.0382 41.3277 77.6736 41.9574C77.3124 42.5838 76.8119 43.0677 76.1722 43.4091C75.5358 43.7505 74.8067 43.9212 73.9847 43.9212C73.0633 43.9212 72.2546 43.7091 71.5586 43.2848C70.8659 42.8606 70.3256 42.259 69.9378 41.4801C69.55 40.6979 69.3562 39.7699 69.3562 38.696C69.3562 37.884 69.4688 37.1549 69.6942 36.5085C69.9196 35.8622 70.2361 35.3137 70.6438 34.8629C71.0548 34.4089 71.537 34.0625 72.0905 33.8239C72.6473 33.5819 73.2555 33.461 73.9151 33.461C74.4653 33.461 74.9774 33.5422 75.4513 33.7046C75.9286 33.867 76.3528 34.0973 76.7241 34.3956C77.0986 34.6939 77.4085 35.0486 77.6537 35.4595C77.899 35.8672 78.0647 36.3196 78.1509 36.8168H76.5749ZM83.2679 43.9361C82.552 43.9361 81.9272 43.772 81.3936 43.4439C80.86 43.1158 80.4457 42.6567 80.1507 42.0668C79.8557 41.4768 79.7083 40.7874 79.7083 39.9986C79.7083 39.2065 79.8557 38.5138 80.1507 37.9205C80.4457 37.3272 80.86 36.8665 81.3936 36.5384C81.9272 36.2102 82.552 36.0462 83.2679 36.0462C83.9838 36.0462 84.6086 36.2102 85.1422 36.5384C85.6758 36.8665 86.0901 37.3272 86.3851 37.9205C86.6801 38.5138 86.8276 39.2065 86.8276 39.9986C86.8276 40.7874 86.6801 41.4768 86.3851 42.0668C86.0901 42.6567 85.6758 43.1158 85.1422 43.4439C84.6086 43.772 83.9838 43.9361 83.2679 43.9361ZM83.2729 42.6882C83.7369 42.6882 84.1214 42.5656 84.4263 42.3203C84.7312 42.0751 84.9566 41.7486 85.1024 41.3409C85.2516 40.9333 85.3262 40.4842 85.3262 39.9936C85.3262 39.5064 85.2516 39.059 85.1024 38.6513C84.9566 38.2403 84.7312 37.9105 84.4263 37.662C84.1214 37.4134 83.7369 37.2891 83.2729 37.2891C82.8056 37.2891 82.4178 37.4134 82.1095 37.662C81.8046 37.9105 81.5776 38.2403 81.4284 38.6513C81.2826 39.059 81.2097 39.5064 81.2097 39.9936C81.2097 40.4842 81.2826 40.9333 81.4284 41.3409C81.5776 41.7486 81.8046 42.0751 82.1095 42.3203C82.4178 42.5656 82.8056 42.6882 83.2729 42.6882ZM91.7035 43.9361C90.9875 43.9361 90.3628 43.772 89.8292 43.4439C89.2956 43.1158 88.8813 42.6567 88.5863 42.0668C88.2913 41.4768 88.1438 40.7874 88.1438 39.9986C88.1438 39.2065 88.2913 38.5138 88.5863 37.9205C88.8813 37.3272 89.2956 36.8665 89.8292 36.5384C90.3628 36.2102 90.9875 36.0462 91.7035 36.0462C92.4194 36.0462 93.0441 36.2102 93.5777 36.5384C94.1114 36.8665 94.5257 37.3272 94.8206 37.9205C95.1156 38.5138 95.2631 39.2065 95.2631 39.9986C95.2631 40.7874 95.1156 41.4768 94.8206 42.0668C94.5257 42.6567 94.1114 43.1158 93.5777 43.4439C93.0441 43.772 92.4194 43.9361 91.7035 43.9361ZM91.7084 42.6882C92.1724 42.6882 92.5569 42.5656 92.8618 42.3203C93.1668 42.0751 93.3921 41.7486 93.538 41.3409C93.6871 40.9333 93.7617 40.4842 93.7617 39.9936C93.7617 39.5064 93.6871 39.059 93.538 38.6513C93.3921 38.2403 93.1668 37.9105 92.8618 37.662C92.5569 37.4134 92.1724 37.2891 91.7084 37.2891C91.2411 37.2891 90.8533 37.4134 90.5451 37.662C90.2402 37.9105 90.0131 38.2403 89.864 38.6513C89.7181 39.059 89.6452 39.5064 89.6452 39.9936C89.6452 40.4842 89.7181 40.9333 89.864 41.3409C90.0131 41.7486 90.2402 42.0751 90.5451 42.3203C90.8533 42.5656 91.2411 42.6882 91.7084 42.6882ZM100.124 46.8047C99.5176 46.8047 98.9955 46.7252 98.558 46.5661C98.1239 46.407 97.7692 46.1965 97.4941 45.9347C97.219 45.6728 97.0135 45.3861 96.8776 45.0746L98.1553 44.5476C98.2448 44.6934 98.3641 44.8476 98.5133 45.01C98.6658 45.1757 98.8712 45.3165 99.1298 45.4326C99.3916 45.5486 99.728 45.6066 100.139 45.6066C100.702 45.6066 101.168 45.469 101.536 45.1939C101.904 44.9221 102.088 44.4879 102.088 43.8914V42.3899H101.993C101.904 42.5523 101.775 42.733 101.606 42.9318C101.44 43.1307 101.211 43.3031 100.92 43.4489C100.628 43.5947 100.248 43.6676 99.7811 43.6676C99.1778 43.6676 98.6343 43.5268 98.1504 43.2451C97.6698 42.96 97.2886 42.5407 97.0069 41.9872C96.7285 41.4304 96.5893 40.746 96.5893 39.934C96.5893 39.1219 96.7268 38.4259 97.0019 37.8459C97.2803 37.2659 97.6615 36.8218 98.1454 36.5135C98.6293 36.202 99.1778 36.0462 99.791 36.0462C100.265 36.0462 100.648 36.1257 100.939 36.2848C101.231 36.4406 101.458 36.6229 101.621 36.8317C101.786 37.0405 101.914 37.2245 102.003 37.3835H102.113V36.1456H103.569V43.951C103.569 44.6073 103.417 45.1459 103.112 45.5668C102.807 45.9877 102.394 46.2993 101.874 46.5014C101.357 46.7036 100.774 46.8047 100.124 46.8047ZM100.109 42.4347C100.537 42.4347 100.898 42.3352 101.193 42.1364C101.491 41.9342 101.717 41.6459 101.869 41.2713C102.025 40.8935 102.103 40.4411 102.103 39.9141C102.103 39.4004 102.027 38.9479 101.874 38.5568C101.722 38.1657 101.498 37.8608 101.203 37.6421C100.908 37.42 100.543 37.309 100.109 37.309C99.6617 37.309 99.2889 37.425 98.9906 37.657C98.6923 37.8857 98.4669 38.1972 98.3144 38.5916C98.1653 38.9861 98.0907 39.4269 98.0907 39.9141C98.0907 40.4146 98.1669 40.8537 98.3194 41.2316C98.4719 41.6094 98.6972 41.9044 98.9955 42.1165C99.2971 42.3286 99.6684 42.4347 100.109 42.4347ZM107.05 33.6002V43.782H105.563V33.6002H107.05ZM112.341 43.9361C111.588 43.9361 110.94 43.7754 110.397 43.4539C109.856 43.129 109.439 42.6733 109.144 42.0867C108.852 41.4967 108.706 40.8057 108.706 40.0135C108.706 39.2313 108.852 38.5419 109.144 37.9453C109.439 37.3487 109.85 36.8831 110.377 36.5483C110.907 36.2136 111.527 36.0462 112.236 36.0462C112.667 36.0462 113.085 36.1174 113.489 36.26C113.893 36.4025 114.256 36.6262 114.578 36.9311C114.899 37.2361 115.153 37.6321 115.338 38.1193C115.524 38.6032 115.617 39.1915 115.617 39.8843V40.4112H109.546V39.2976H114.16C114.16 38.9065 114.081 38.5602 113.921 38.2585C113.762 37.9536 113.539 37.7133 113.25 37.5377C112.965 37.362 112.631 37.2742 112.246 37.2742C111.828 37.2742 111.464 37.3769 111.152 37.5824C110.844 37.7846 110.605 38.0497 110.436 38.3779C110.271 38.7027 110.188 39.0557 110.188 39.4368V40.3068C110.188 40.8173 110.277 41.2514 110.456 41.6094C110.639 41.9674 110.892 42.2408 111.217 42.4297C111.542 42.6153 111.921 42.7081 112.355 42.7081C112.637 42.7081 112.894 42.6683 113.126 42.5888C113.358 42.5059 113.559 42.3833 113.728 42.2209C113.897 42.0585 114.026 41.858 114.115 41.6193L115.522 41.8729C115.41 42.2872 115.207 42.6501 114.916 42.9617C114.627 43.2699 114.265 43.5102 113.827 43.6826C113.393 43.8516 112.897 43.9361 112.341 43.9361ZM121.091 43.782V33.6002H124.72C125.512 33.6002 126.168 33.7443 126.689 34.0327C127.209 34.321 127.598 34.7155 127.857 35.2159C128.115 35.7131 128.245 36.2732 128.245 36.8963C128.245 37.5227 128.114 38.0862 127.852 38.5867C127.593 39.0838 127.202 39.4782 126.679 39.7699C126.158 40.0583 125.504 40.2024 124.715 40.2024H122.219V38.8999H124.576C125.076 38.8999 125.482 38.8137 125.794 38.6414C126.105 38.4657 126.334 38.2271 126.48 37.9254C126.626 37.6238 126.698 37.2808 126.698 36.8963C126.698 36.5119 126.626 36.1705 126.48 35.8722C126.334 35.5739 126.104 35.3402 125.789 35.1712C125.477 35.0022 125.066 34.9176 124.556 34.9176H122.627V43.782H121.091ZM131.413 33.6002V43.782H129.926V33.6002H131.413ZM135.635 43.951C135.151 43.951 134.714 43.8615 134.322 43.6826C133.931 43.5003 133.621 43.2368 133.393 42.8921C133.167 42.5474 133.055 42.1248 133.055 41.6243C133.055 41.1934 133.138 40.8388 133.303 40.5604C133.469 40.282 133.693 40.0616 133.974 39.8992C134.256 39.7368 134.571 39.6141 134.919 39.5313C135.267 39.4484 135.622 39.3854 135.983 39.3424C136.44 39.2893 136.812 39.2462 137.097 39.2131C137.382 39.1766 137.589 39.1186 137.718 39.0391C137.847 38.9595 137.912 38.8303 137.912 38.6513V38.6165C137.912 38.1823 137.789 37.8459 137.544 37.6073C137.302 37.3686 136.941 37.2493 136.46 37.2493C135.96 37.2493 135.565 37.3603 135.277 37.5824C134.992 37.8012 134.795 38.0448 134.685 38.3132L133.288 37.9951C133.454 37.531 133.696 37.1565 134.014 36.8715C134.336 36.5831 134.705 36.3743 135.123 36.2451C135.54 36.1125 135.98 36.0462 136.44 36.0462C136.745 36.0462 137.068 36.0826 137.41 36.1556C137.754 36.2252 138.076 36.3544 138.374 36.5433C138.676 36.7323 138.923 37.0024 139.115 37.3537C139.307 37.7017 139.403 38.1541 139.403 38.711V43.782H137.952V42.7379H137.892C137.796 42.9302 137.652 43.1191 137.459 43.3047C137.267 43.4903 137.02 43.6444 136.719 43.7671C136.417 43.8897 136.056 43.951 135.635 43.951ZM135.958 42.7578C136.369 42.7578 136.72 42.6766 137.012 42.5142C137.307 42.3518 137.531 42.1397 137.683 41.8779C137.839 41.6127 137.917 41.3293 137.917 41.0277V40.0433C137.864 40.0964 137.761 40.1461 137.609 40.1925C137.459 40.2356 137.289 40.2737 137.097 40.3068C136.904 40.3367 136.717 40.3648 136.535 40.3914C136.352 40.4146 136.2 40.4344 136.077 40.451C135.789 40.4875 135.526 40.5488 135.287 40.635C135.052 40.7211 134.863 40.8454 134.72 41.0078C134.581 41.1669 134.511 41.379 134.511 41.6442C134.511 42.0121 134.647 42.2905 134.919 42.4794C135.191 42.665 135.537 42.7578 135.958 42.7578ZM142.05 46.6456C141.827 46.6456 141.625 46.6274 141.443 46.5909C141.261 46.5578 141.125 46.5213 141.035 46.4816L141.393 45.2635C141.665 45.3364 141.907 45.3679 142.119 45.358C142.331 45.348 142.519 45.2685 142.681 45.1193C142.847 44.9702 142.992 44.7266 143.118 44.3885L143.302 43.8814L140.508 36.1456H142.099L144.033 42.0718H144.113L146.047 36.1456H147.643L144.496 44.8012C144.35 45.1989 144.164 45.5353 143.939 45.8104C143.713 46.0888 143.445 46.2976 143.133 46.4368C142.822 46.576 142.461 46.6456 142.05 46.6456Z" fill="white"/>
<defs>
<clipPath id="clip0_18_35">
<rect width="32" height="32" fill="white" transform="translate(22.5657 14.782)"/>
</clipPath>
</defs>
</svg>
